<?xml version="1.0" encoding="utf-8"?>
<!-- Generator: Adobe Illustrator 18.0.0, SVG Export Plug-In . SVG Version: 6.00 Build 0)  -->
<!DOCTYPE svg PUBLIC "-//W3C//DTD SVG 1.1//EN" "http://www.w3.org/Graphics/SVG/1.1/DTD/svg11.dtd">
<svg version="1.1" id="Vrstva_1" xmlns="http://www.w3.org/2000/svg" xmlns:xlink="http://www.w3.org/1999/xlink" x="0px" y="0px"
	 viewBox="0 0 212.6 113.4" enable-background="new 0 0 212.6 113.4" xml:space="preserve">
<g>
	<rect x="37.8" y="26.9" fill="#FF9900" width="6.1" height="6.1"/>
	<path fill="#FF9900" d="M175,73.1V40.3c0-1.4-1.2-2.5-2.8-2.5h-35.7c-1.5,0-2.8,1.1-2.8,2.5v29.2h6.1v6.1h32.3
		C173.8,75.6,175,74.5,175,73.1z M153.2,54.8h-3.5v-3.6c0-0.8-0.7-1-0.9-1h-3c-0.3,0-0.9,0.2-0.9,1v11.1c0,0.7,0.5,1,0.9,1h3
		c0.4,0,0.9-0.3,0.9-1v-4h3.5v4c0,4.5-3,4.5-4.4,4.5h-4.3l-0.1-0.1c-2-0.3-3-1.8-3-4.4V51.2c0-3.5,1.9-4.3,3-4.5l0.2,0v0l0.2,0h4.1
		c3,0,4.4,1.4,4.4,4.5V54.8z M167.5,50.1l-7.3,13.1h7.3v3.5h-11.8v-3.2l7.4-13.4h-7.4v-3.5h11.9V50.1z"/>
	<g>
		<path fill="#FFFFFF" d="M93,37.8h-8V26.9h-6.1v48.7h6.1h8c3.7,0,8.2-0.6,8.2-8.2V46.2C101.1,38.8,96.7,37.8,93,37.8z M95,67.4
			c0,1.9-1.6,2.1-2.1,2.1h-8V43.9h8c0.5,0,2.1,0.4,2.1,2.3V67.4z"/>
		<path fill="#FFFFFF" d="M64.3,37.8h-5.9c-3.7,0-8.2,1-8.2,8.4v21.2c0,7.6,4.5,8.2,8.2,8.2h5.9c3.7,0,8.2-0.6,8.2-8.2V46.2
			C72.5,38.8,68,37.8,64.3,37.8z M66.4,67.4c0,1.9-1.6,2.1-2.1,2.1h-5.9c-0.5,0-2.1-0.2-2.1-2.1V46.2c0-1.9,1.6-2.3,2.1-2.3h5.9
			c0.5,0,2.1,0.4,2.1,2.3V67.4z"/>
		<path fill="#FFFFFF" d="M127.4,49.6v-3.4c0-7.3-4.5-8.4-8.2-8.4h-4.4c-3.7,0-8.2,1-8.2,8.4V49v2.2c0,0.9,0.4,3.6,4.5,5.3l8.3,2.6
			c0,0,1.8,0.5,1.8,2.9v5.3c0,1.9-1.6,2.1-2.1,2.1h-4.4c-0.5,0-2.1-0.2-2.1-2.1v-3.9h-6.1v3.9c0,7.6,4.5,8.2,8.2,8.2h4.4
			c3.7,0,8.2-0.6,8.2-8.2v-5.3v-1.7c0-2.3-0.9-4.6-5.4-6.3c-4.5-1.7-8-2.6-8.4-2.8c-0.4-0.3-0.8-0.8-0.8-2.2v-2.9
			c0-1.9,1.6-2.3,2.1-2.3h4.4c0.5,0,2.1,0.4,2.1,2.3v3.4H127.4z"/>
		<path fill="#FFFFFF" d="M37.8,71.3c0,4.6-3.6,7.9-3.6,7.9l3.3,3.3c0,0,6.4-4,6.4-11.2V37.8h-6.1V71.3z"/>
	</g>
</g>
</svg>
