<?xml version="1.0" standalone="no"?>
<!DOCTYPE svg PUBLIC "-//W3C//DTD SVG 1.1//EN" "http://www.w3.org/Graphics/SVG/1.1/DTD/svg11.dtd" >
<svg xmlns="http://www.w3.org/2000/svg">
<metadata></metadata>
<defs>
<font id="gloriolaitalic" horiz-adv-x="1095" >
<font-face units-per-em="2048" ascent="1552" descent="-496" />
<missing-glyph horiz-adv-x="540" />
<glyph unicode="&#xfb01;" horiz-adv-x="1140" d="M856 834h-467l-110 -922q-48 -354 -338 -354q-95 0 -199 30l33 144q93 -27 155 -27q91 0 133 59.5t54 165.5l108 904h-162l29 147h152l26 217q44 354 334 354q91 0 193 -30l-31 -144q-86 27 -152 27q-89 0 -128.5 -58.5t-53.5 -166.5l-24 -199h630l-120 -981h-164z M999 1350q43 0 70 -25t27 -65q0 -52 -35.5 -87.5t-85.5 -35.5q-42 0 -68 25t-26 65q0 52 35 87.5t83 35.5z" />
<glyph unicode="&#xfb02;" horiz-adv-x="1280" d="M780 227l144 1159q-143 19 -224 19q-140 0 -197 -53.5t-71 -173.5l-24 -197h290l-28 -147h-281l-110 -922q-44 -354 -338 -354q-95 0 -199 30l33 144q93 -27 155 -27q91 0 133 59.5t54 165.5l108 904h-162l29 147h152l26 217q23 188 126 270.5t321 83.5q173 0 387 -32 l-158 -1274q-10 -93 46 -111t202 25l-2 -142q-122 -38 -225 -38q-99 0 -150 59.5t-37 187.5z" />
<glyph unicode="&#xfb03;" horiz-adv-x="1771" d="M1667 981l-119 -981h-164l101 834h-465l-113 -922q-44 -354 -338 -354q-92 0 -196 30l33 144q89 -27 153 -27q92 0 133.5 59t55.5 166l108 904h-467l-110 -922q-48 -354 -338 -354q-95 0 -199 30l33 144q93 -27 155 -27q91 0 133 59.5t54 165.5l108 904h-162l29 147h152 l26 217q7 58 21.5 107.5t41 96t63.5 79t91.5 52t122.5 19.5q93 0 197 -30l-31 -144q-89 27 -158 27q-91 0 -131.5 -59t-54.5 -166l-24 -199h466l25 217q44 354 334 354q90 0 192 -30l-30 -144q-86 27 -152 27q-88 0 -128 -59.5t-52 -165.5l-25 -199h629zM1630 1350 q42 0 69 -25.5t27 -64.5q0 -52 -36 -87.5t-86 -35.5q-41 0 -67 25t-26 65q0 52 34.5 87.5t84.5 35.5z" />
<glyph unicode="&#xfb04;" horiz-adv-x="1908" d="M1411 227l143 1159q-143 19 -223 19q-141 0 -197.5 -53.5t-70.5 -173.5l-25 -197h291l-31 -147h-278l-113 -922q-6 -58 -20 -107.5t-40 -96t-62.5 -79t-91.5 -52t-124 -19.5q-92 0 -196 30l33 144q89 -27 153 -27q92 0 133.5 59t55.5 166l108 904h-467l-110 -922 q-48 -354 -338 -354q-95 0 -199 30l33 144q93 -27 155 -27q91 0 133 59.5t54 165.5l108 904h-162l29 147h152l26 217q7 58 21.5 107.5t41 96t63.5 79t91.5 52t122.5 19.5q93 0 197 -30l-31 -144q-89 27 -158 27q-91 0 -131.5 -59t-54.5 -166l-24 -199h466l25 217 q25 189 127.5 271t321.5 83q173 0 387 -32l-158 -1274q-12 -93 44.5 -111t201.5 25l-2 -142q-122 -38 -224 -38q-99 0 -150.5 59.5t-35.5 187.5z" />
<glyph horiz-adv-x="0" />
<glyph horiz-adv-x="682" />
<glyph unicode=" "  horiz-adv-x="540" />
<glyph unicode="&#x09;" horiz-adv-x="540" />
<glyph unicode="&#xa0;" horiz-adv-x="540" />
<glyph unicode="!" horiz-adv-x="708" d="M397 393l-157 -10l118 1055h181zM297 213q44 0 72 -27.5t28 -70.5q0 -53 -37.5 -90t-89.5 -37q-44 0 -72 27t-28 69q0 54 37 91.5t90 37.5z" />
<glyph unicode="&#x22;" horiz-adv-x="575" d="M164 1438h166l-82 -502h-125zM432 1438h168l-84 -502h-125z" />
<glyph unicode="#" horiz-adv-x="1142" d="M102 1059h213l101 383l153 -8l-98 -375h369l100 383l154 -8l-99 -375h160l-12 -148h-182l-103 -383h193l-13 -147h-215l-98 -385l-154 8l97 377h-367l-100 -385l-154 8l98 377h-159l12 147h182l103 383h-191zM438 911l-102 -383h366l103 383h-367z" />
<glyph unicode="$" horiz-adv-x="1122" d="M766 1688l-29 -232q183 -10 338 -78l-53 -159q-78 37 -179.5 58t-197.5 21q-133 0 -224.5 -65.5t-90.5 -190.5q0 -50 37.5 -91t97 -71t131.5 -60t143.5 -65.5t131 -78.5t96.5 -107.5t37 -144.5q0 -190 -123.5 -302.5t-323.5 -135.5l-27 -226l-143 -10l27 232 q-195 6 -357 79l54 160q84 -37 186 -58.5t195 -21.5q89 0 161.5 28t120.5 91t47 152q-1 50 -38.5 91t-97 71.5t-131.5 60.5t-143.5 65.5t-130.5 78.5t-96 107.5t-37 143.5q0 185 123.5 295t325.5 129l27 223z" />
<glyph unicode="%" horiz-adv-x="1593" d="M985 285q0 -185 148 -185q112 0 180.5 106t68.5 292t-149 186q-112 0 -180 -106t-68 -293zM850 289q0 240 104 375t283 135q130 0 204.5 -73t74.5 -230q0 -238 -105 -374t-283 -136q-130 0 -204 73t-74 230zM223 0l1006 1438h151l-1005 -1438h-152zM223 938 q0 -184 148 -184q112 0 181 105.5t69 291.5t-150 186q-112 0 -180 -106t-68 -293zM88 942q0 240 104 375t283 135q130 0 204.5 -73t74.5 -230q0 -238 -104.5 -374t-282.5 -136q-130 0 -204.5 73t-74.5 230z" />
<glyph unicode="&#x26;" horiz-adv-x="1265" d="M487 793h779l-31 -162h-234l-106 -875l-178 -12l33 276q-133 -40 -273 -40q-89 0 -164 19t-133.5 57t-91.5 101t-33 146q0 129 69.5 237.5t211.5 182.5q-152 127 -152 309q0 107 40.5 190t111 133.5t160.5 76.5t194 26q193 0 391 -80l-51 -159q-181 79 -344 79 q-145 0 -234.5 -68.5t-89.5 -201.5q0 -148 125 -235zM823 631h-381q-96 -44 -150 -121t-54 -168q0 -103 77.5 -153t204.5 -50q116 0 250 41z" />
<glyph unicode="'" horiz-adv-x="305" d="M164 1438h166l-82 -502h-125z" />
<glyph unicode="(" horiz-adv-x="688" d="M94 586q0 251 71 473.5t216.5 402.5t351.5 285l109 -102q-274 -139 -426 -406.5t-152 -634.5q0 -483 363 -696l-131 -103q-195 111 -298.5 310t-103.5 471z" />
<glyph unicode=")" horiz-adv-x="688" d="M618 967q0 -252 -70.5 -474t-215.5 -402.5t-352 -285.5l-107 103q274 140 426 407.5t152 632.5q0 487 -365 697l133 102q195 -111 297 -309.5t102 -470.5z" />
<glyph unicode="*" horiz-adv-x="983" d="M113 1073l63 166l299 -123l19 328l174 12l-62 -338l320 119l43 -160l-334 -86l176 -250l-145 -110l-150 289l-211 -281l-135 92l246 260z" />
<glyph unicode="+" horiz-adv-x="1142" d="M489 215v432h-421l10 148h411v419l164 11v-430h422l-10 -148h-412v-420z" />
<glyph unicode="," horiz-adv-x="436" d="M61 238l183 14q32 -137 -2 -262.5t-127 -288.5l-140 16q83 144 101.5 260.5t-15.5 260.5z" />
<glyph unicode="-" horiz-adv-x="579" d="M66 563h430l-29 -147h-430z" />
<glyph unicode="." horiz-adv-x="436" d="M160 213q44 0 72 -27.5t28 -70.5q0 -54 -37 -90.5t-90 -36.5q-44 0 -71 27t-27 69q0 54 36.5 91.5t88.5 37.5z" />
<glyph unicode="/" horiz-adv-x="645" d="M709 1716l157 -8l-905 -1872l-156 8z" />
<glyph unicode="0" horiz-adv-x="1347" d="M297 535q0 -204 79.5 -299t219.5 -95q145 0 251.5 96t161 267.5t54.5 398.5q0 204 -80 299.5t-219 95.5q-218 0 -342.5 -208.5t-124.5 -554.5zM115 532q0 278 78 486.5t227.5 324t351.5 115.5q107 0 192 -31t149 -95.5t98 -172.5t34 -254q0 -278 -78 -486.5t-227 -323.5 t-350 -115q-221 0 -348 133.5t-127 418.5z" />
<glyph unicode="1" horiz-adv-x="718" d="M496 0h-179l154 1255l-373 -137l21 174l395 146h158z" />
<glyph unicode="2" horiz-adv-x="1062" d="M985 1077q-2 -90 -37 -180t-94 -173t-156 -178.5t-203.5 -183.5t-256.5 -200h677l-28 -162h-893l6 162q173 134 289 230t221.5 195.5t165.5 177.5t95 156.5t36 153.5q3 115 -64.5 169t-199.5 54q-166 0 -363 -79l-14 159q230 80 414 80q93 0 166 -20.5t129.5 -64t85 -119 t24.5 -177.5z" />
<glyph unicode="3" horiz-adv-x="1050" d="M328 793h276q96 56 144.5 137.5t48.5 167.5q0 99 -72 149.5t-197 50.5q-159 0 -362 -79l-12 159q220 80 411 80q121 0 211.5 -31.5t146.5 -104t56 -181.5q0 -250 -240 -418q193 -116 193 -313q0 -111 -45.5 -196t-123 -135t-171 -74.5t-199.5 -24.5q-216 0 -405 81 l53 160q178 -80 360 -80q73 0 135 15.5t111.5 46.5t78 84.5t28.5 124.5q0 67 -38 125.5t-106 93.5h-313z" />
<glyph unicode="4" horiz-adv-x="1161" d="M451 1438h178q-36 -289 -136 -503t-288 -427h438l45 356l178 13l-45 -369h275l-31 -162h-264l-41 -346h-176l41 346h-611l9 162q190 205 292 428t136 502z" />
<glyph unicode="5" horiz-adv-x="1032" d="M387 1278l-55 -461q95 10 157 10q228 0 339.5 -92t111.5 -266q0 -240 -149 -364.5t-394 -124.5q-201 0 -389 81l53 160q174 -80 349 -80q73 0 135 18.5t112 55.5t78.5 99.5t28.5 144.5q0 217 -322 217h-297l95 762h749l-31 -160h-571z" />
<glyph unicode="6" horiz-adv-x="1161" d="M752 1298q-172 0 -297.5 -151t-163.5 -420q240 129 436 129q161 0 253.5 -89.5t92.5 -258.5q0 -111 -38 -207.5t-107.5 -168t-174 -112t-231.5 -40.5q-199 0 -313.5 130t-114.5 388q0 230 52.5 414.5t144 302.5t213.5 180.5t264 62.5q171 0 350 -72l-59 -159 q-177 71 -307 71zM688 707q-161 0 -409 -121q-3 -40 -3 -78q0 -190 67.5 -281.5t191.5 -91.5q163 0 261.5 103t98.5 260q0 100 -53 154.5t-154 54.5z" />
<glyph unicode="7" horiz-adv-x="964" d="M385 0h-176q49 415 205 720t426 558h-742l31 160h895l-8 -160q-302 -317 -442.5 -604.5t-188.5 -673.5z" />
<glyph unicode="8" horiz-adv-x="1191" d="M684 1458q211 0 323.5 -89t112.5 -234q0 -72 -25.5 -132t-75 -107.5t-105 -83t-132.5 -71.5q66 -32 114 -63.5t90.5 -73.5t64.5 -94.5t22 -114.5q0 -197 -150.5 -306t-410.5 -109q-226 0 -347.5 81.5t-121.5 235.5q0 85 30 155.5t87.5 124.5t121.5 93t152 78 q-59 30 -102 60t-80.5 68.5t-56.5 87t-19 105.5q0 167 137 278t371 111zM614 821q76 29 131 57.5t102 64.5t71 80t24 95q0 83 -69 134t-199 51q-148 0 -234 -66t-86 -166q0 -81 68 -139.5t192 -110.5zM606 668q-67 -27 -118 -51t-103 -57.5t-85.5 -68.5t-55 -80t-21.5 -96 q0 -86 77 -133t222 -47q177 0 275 69.5t98 192.5q0 45 -22.5 85t-65.5 73.5t-90 59.5t-111 53z" />
<glyph unicode="9" horiz-adv-x="1161" d="M420 141q171 0 297.5 150.5t165.5 419.5q-243 -129 -439 -129q-161 0 -252.5 90.5t-91.5 259.5q0 111 38 207.5t107 167t173.5 111t230.5 40.5q199 0 314.5 -130.5t115.5 -387.5q0 -230 -52.5 -414.5t-145 -302.5t-214.5 -180.5t-264 -62.5q-173 0 -350 73l60 158 q182 -70 307 -70zM483 733q166 0 412 119q0 14 1 39t1 39q0 190 -68 281.5t-192 91.5q-163 0 -262 -103t-99 -258q0 -100 53 -154.5t154 -54.5z" />
<glyph unicode=":" horiz-adv-x="436" d="M160 213q44 0 72 -27.5t28 -70.5q0 -54 -37 -90.5t-90 -36.5q-44 0 -71 27t-27 69q0 54 36.5 91.5t88.5 37.5zM256 993q44 0 72 -27.5t28 -70.5q0 -54 -37 -90.5t-90 -36.5q-44 0 -72 27t-28 69q0 54 37 91.5t90 37.5z" />
<glyph unicode=";" horiz-adv-x="436" d="M61 238l183 14q32 -137 -2 -262.5t-127 -288.5l-140 16q83 144 101.5 260.5t-15.5 260.5zM248 993q44 0 71 -27.5t27 -70.5q0 -54 -37 -90.5t-90 -36.5q-43 0 -70.5 27.5t-27.5 68.5q0 54 37 91.5t90 37.5z" />
<glyph unicode="&#x3c;" horiz-adv-x="1142" d="M1018 213l-940 436l10 148l930 432l55 -137l-813 -371l813 -371z" />
<glyph unicode="=" horiz-adv-x="1142" d="M78 1079h997l-10 -147h-997zM78 508h997l-10 -148h-997z" />
<glyph unicode="&#x3e;" horiz-adv-x="1142" d="M125 1229l940 -436l-10 -148l-930 -432l-55 137l813 371l-813 371z" />
<glyph unicode="?" horiz-adv-x="987" d="M551 637l-33 -244l-160 -10l39 344q94 21 167.5 57t116 75.5t70 85.5t37 83t9.5 72q0 92 -68.5 145t-187.5 53q-143 0 -375 -65l-14 160q230 65 409 65q194 0 305 -81t111 -236q0 -70 -25.5 -142.5t-75 -142.5t-133.5 -128.5t-192 -90.5zM416 213q44 0 72 -27.5t28 -70.5 q0 -54 -37 -90.5t-90 -36.5q-44 0 -71 27t-27 69q0 54 36.5 91.5t88.5 37.5z" />
<glyph unicode="@" horiz-adv-x="2076" d="M1436 872l-68 -559q-22 -192 100 -192q140 0 223 133.5t83 380.5q0 311 -172 476t-488 165q-147 0 -275 -36t-235 -112.5t-183 -188.5t-118.5 -271.5t-42.5 -354.5q0 -295 165.5 -454.5t475.5 -159.5q193 0 383 80l57 -133q-201 -88 -440 -88q-382 0 -589.5 198 t-207.5 557q0 222 50.5 404t140.5 311t216.5 217t278 130t324.5 42q391 0 603 -201t212 -581q0 -314 -129 -484.5t-344 -170.5q-212 0 -231 247q-98 -114 -203.5 -180.5t-196.5 -66.5q-133 0 -201.5 104.5t-68.5 277.5q0 157 39 280.5t106 198t151 112.5t179 38 q177 0 406 -119zM1266 782q-133 62 -240 62q-60 0 -113.5 -26.5t-97.5 -80.5t-70 -147.5t-26 -216.5q0 -116 32.5 -180t96.5 -64q77 0 181.5 86.5t193.5 224.5z" />
<glyph unicode="A" horiz-adv-x="1308" d="M899 510l-168 772l-356 -772h524zM928 350h-621l-160 -350h-188l666 1432l241 12l320 -1444h-182z" />
<glyph unicode="B" horiz-adv-x="1218" d="M61 29l175 1409h559q157 0 246 -82t89 -217q0 -245 -231 -408q99 -59 149 -142t50 -181q0 -203 -163 -315.5t-435 -112.5q-159 0 -439 49zM776 631h-463l-57 -463q157 -27 272 -27q191 0 292.5 73t101.5 198q0 68 -38.5 126t-107.5 93zM332 793h424q95 57 144.5 139.5 t49.5 173.5q0 77 -51 124.5t-141 47.5h-365z" />
<glyph unicode="C" horiz-adv-x="1236" d="M846 1298q-85 0 -161.5 -22.5t-148 -75.5t-123.5 -133.5t-83 -205.5t-31 -281q0 -118 30.5 -204.5t87 -137t128 -74t160.5 -23.5q159 0 360 68l12 -160q-201 -69 -401 -69q-121 0 -219.5 31.5t-176 98t-120.5 181t-43 268.5q0 162 29 298t81.5 232.5t122 169t153.5 115.5 t172 63.5t183 20.5q197 0 383 -69l-53 -160q-186 69 -342 69z" />
<glyph unicode="D" horiz-adv-x="1413" d="M735 1438q275 0 424.5 -135.5t149.5 -421.5q0 -180 -40 -329t-112 -254t-172 -177t-219.5 -106.5t-255.5 -34.5q-234 0 -449 51l175 1407h499zM713 1278h-320l-137 -1112q136 -25 289 -25q123 0 227 44.5t183 131t124 224t45 313.5q0 424 -411 424z" />
<glyph unicode="E" horiz-adv-x="1122" d="M59 0l177 1438h897l-31 -160h-709l-61 -485h612l-31 -162h-600l-59 -469h721l-31 -162h-885z" />
<glyph unicode="F" horiz-adv-x="1067" d="M309 594l-73 -594h-177l177 1438h897l-31 -160h-709l-65 -522h612l-31 -162h-600z" />
<glyph unicode="G" horiz-adv-x="1378" d="M866 1298q-90 0 -170 -23t-154 -77t-127 -135t-84.5 -205t-31.5 -280q0 -437 420 -437q142 0 282 47l46 377h-351l33 162h516l-82 -657q-256 -90 -475 -90q-129 0 -231.5 32t-179.5 99.5t-118.5 180.5t-41.5 265q0 195 42.5 350.5t114.5 257t171 169t206.5 96t227.5 28.5 q200 0 389 -69l-54 -160q-181 69 -348 69z" />
<glyph unicode="H" horiz-adv-x="1353" d="M236 1438h176l-80 -645h717l79 645h179l-177 -1438h-178l78 631h-717l-77 -631h-177z" />
<glyph unicode="I" horiz-adv-x="458" d="M236 1438h176l-176 -1438h-177z" />
<glyph unicode="J" horiz-adv-x="509" d="M287 1438h176l-150 -1231q-14 -113 -56 -203t-111.5 -166t-180.5 -157l-119 106q132 101 203.5 199.5t85.5 222.5z" />
<glyph unicode="K" horiz-adv-x="1208" d="M862 -6l-545 674l-81 -668h-177l177 1438h176l-82 -668l696 674l215 -12l-743 -711l581 -715z" />
<glyph unicode="L" horiz-adv-x="1060" d="M236 1438h176l-158 -1276h680l-31 -162h-844z" />
<glyph unicode="M" horiz-adv-x="1873" d="M756 -6l-260 1210l-336 -1204h-178l411 1432l223 12l263 -1237l559 1225l225 12l63 -1444h-174l-43 1206l-553 -1200z" />
<glyph unicode="N" horiz-adv-x="1353" d="M373 1139l-140 -1139h-174l174 1432l173 12l587 -1145l140 1139h174l-177 -1432l-172 -12z" />
<glyph unicode="O" horiz-adv-x="1533" d="M686 141q122 0 224.5 47.5t177.5 138.5t117 232.5t42 321.5q0 202 -104.5 309.5t-286.5 107.5q-122 0 -224.5 -47.5t-177.5 -138.5t-117 -232.5t-42 -320.5q0 -203 104.5 -310.5t286.5 -107.5zM680 -20q-262 0 -414.5 146.5t-152.5 428.5q0 216 55.5 388t155 284 t236.5 171.5t302 59.5q262 0 415 -146.5t153 -428.5q0 -216 -55 -388t-155 -284t-237 -171.5t-303 -59.5z" />
<glyph unicode="P" horiz-adv-x="1179" d="M393 1278l-78 -614q156 -17 205 -17q95 0 175 22.5t143 67.5t99 119t36 170q0 252 -375 252h-205zM297 504l-61 -504h-177l177 1438h397q252 0 388 -95t136 -292q0 -138 -51 -247t-140.5 -177t-206 -104t-251.5 -36q-77 0 -211 17z" />
<glyph unicode="Q" horiz-adv-x="1533" d="M680 -20q-262 0 -414.5 146.5t-152.5 428.5q0 216 55.5 388t155 284t236.5 171.5t302 59.5q262 0 415 -146.5t153 -428.5q0 -336 -129 -556t-355 -302q22 -131 67.5 -189.5t127.5 -58.5q49 0 157 33l2 -150q-122 -39 -223 -39q-123 0 -199 85.5t-106 277.5l2 2 q-46 -6 -94 -6zM686 141q122 0 224.5 47.5t177.5 138.5t117 232.5t42 321.5q0 202 -104.5 309.5t-286.5 107.5q-122 0 -224.5 -47.5t-177.5 -138.5t-117 -232.5t-42 -320.5q0 -203 104.5 -310.5t286.5 -107.5z" />
<glyph unicode="R" horiz-adv-x="1239" d="M301 547l-65 -547h-177l177 1438h385q503 0 503 -371q0 -176 -83 -297t-228 -182l274 -582l-200 -12l-248 547q-65 -9 -131 -9q-54 0 -207 15zM393 1282l-71 -577q139 -17 196 -17q91 0 167.5 21t136 63.5t93 112t33.5 159.5q0 124 -89.5 181t-268.5 57h-197z" />
<glyph unicode="S" horiz-adv-x="1142" d="M68 61l53 160q84 -37 186 -58.5t195 -21.5q89 0 161.5 28t120.5 91t47 152q-1 50 -38.5 91t-97 71.5t-131 60.5t-143 65.5t-130.5 78.5t-96 107.5t-37 143.5q0 204 148 316t382 112q214 0 397 -80l-53 -159q-78 37 -179.5 58t-197.5 21q-133 0 -224.5 -65.5t-90.5 -190.5 q0 -50 37.5 -91t97 -71t131.5 -60t143.5 -65.5t131 -78.5t96.5 -107.5t37 -144.5q0 -144 -74.5 -246t-196 -150t-276.5 -48q-214 0 -399 81z" />
<glyph unicode="T" horiz-adv-x="1140" d="M557 1278h-469l31 160h1104l-31 -160h-459l-155 -1278h-179z" />
<glyph unicode="U" horiz-adv-x="1353" d="M412 1438l-121 -987q-21 -164 64 -237t255 -73q359 0 398 310l120 987h179l-123 -1000q-12 -98 -48 -175t-89 -129.5t-125.5 -87.5t-154.5 -50.5t-177 -15.5q-120 0 -212 25.5t-158 78.5t-94 143t-13 211l123 1000h176z" />
<glyph unicode="V" horiz-adv-x="1304" d="M1171 1444l185 -12l-668 -1432h-235l-320 1432l180 12l273 -1284z" />
<glyph unicode="W" horiz-adv-x="1951" d="M1831 1444l172 -12l-576 -1432h-215l-176 1155l-454 -1155h-222l-227 1432l182 12l179 -1270l475 1258l202 12l172 -1270z" />
<glyph unicode="X" horiz-adv-x="1327" d="M-12 6l577 719l-403 707l196 12l324 -580l455 580l213 -12l-580 -719l404 -707l-197 -12l-324 581l-454 -581z" />
<glyph unicode="Y" horiz-adv-x="1234" d="M446 0l74 600l-405 832l202 12l308 -672l471 672l209 -12l-607 -832l-73 -600h-179z" />
<glyph unicode="Z" horiz-adv-x="1181" d="M156 1278l32 160h994l-8 -160l-928 -1116h790l-28 -162h-996l6 162l928 1116h-790z" />
<glyph unicode="[" horiz-adv-x="593" d="M299 1716h414l-29 -147h-238l-196 -1585h250l-29 -148h-401z" />
<glyph unicode="\" horiz-adv-x="645" d="M33 1708l149 8l455 -1872l-150 -8z" />
<glyph unicode="]" horiz-adv-x="593" d="M319 -164h-411l26 148h238l197 1585h-250l26 147h404z" />
<glyph unicode="^" horiz-adv-x="985" d="M936 463l-178 -10l-189 819l-393 -819l-178 10l483 975h211z" />
<glyph unicode="_" horiz-adv-x="944" d="M-72 -59h918l-29 -138h-915z" />
<glyph unicode="`" horiz-adv-x="577" d="M205 1444h180l135 -330h-143z" />
<glyph unicode="a" horiz-adv-x="1067" d="M954 893l-110 -893h-164l29 231q-217 -251 -392 -251q-125 0 -191.5 106.5t-66.5 280.5q0 155 37 277t103 199.5t153.5 117.5t192.5 40q164 0 409 -108zM776 791q-129 63 -239 63q-61 0 -115 -27t-99 -81.5t-71.5 -149t-26.5 -217.5q0 -116 33 -181t98 -65 q77 0 182.5 87.5t194.5 225.5z" />
<glyph unicode="b" horiz-adv-x="1062" d="M70 86l178 1456l168 10l-101 -802q217 251 390 251q126 0 193 -107.5t67 -281.5q0 -306 -135.5 -469t-350.5 -163q-162 0 -409 106zM246 190q129 -63 239 -63q61 0 115 26.5t99 81t71.5 149t26.5 218.5q0 116 -32.5 180t-96.5 64q-77 0 -183 -86.5t-196 -224.5z" />
<glyph unicode="c" horiz-adv-x="897" d="M63 375q0 163 41.5 287t113.5 196t161.5 107.5t193.5 35.5q122 0 285 -32l-41 -146q-143 31 -246 31q-158 0 -250 -116t-92 -339q0 -270 174 -270q105 0 320 117l37 -140q-119 -66 -206.5 -96t-164.5 -30q-157 0 -241.5 103t-84.5 292z" />
<glyph unicode="d" horiz-adv-x="1067" d="M1034 1552l-190 -1552h-164l29 231q-217 -251 -392 -251q-125 0 -191.5 106.5t-66.5 280.5q0 161 39.5 285.5t107 199t150 112t176.5 37.5q120 0 263 -57l73 598zM776 791q-129 63 -239 63q-61 0 -115 -27t-99 -81.5t-71.5 -149t-26.5 -217.5q0 -116 33 -181t98 -65 q77 0 182.5 87.5t194.5 225.5z" />
<glyph unicode="e" horiz-adv-x="909" d="M719 244l37 -138q-123 -67 -208.5 -96.5t-164.5 -29.5q-155 0 -239.5 103t-84.5 292q0 298 140 462t358 164q122 0 197 -67t75 -164q0 -67 -26.5 -124t-90.5 -112.5t-186.5 -100.5t-298.5 -75q-1 -48 7 -87.5t26 -74t52 -54t81 -19.5q107 0 326 121zM545 858 q-125 0 -211 -99.5t-105 -271.5q439 82 439 271q0 41 -33.5 70.5t-89.5 29.5z" />
<glyph unicode="f" horiz-adv-x="710" d="M244 981l26 217q7 58 21.5 107.5t41 96t63.5 79t91.5 52t122.5 19.5q93 0 197 -30l-31 -144q-89 27 -158 27q-91 0 -131.5 -59t-54.5 -166l-24 -199h301l-29 -147h-291l-110 -922q-48 -354 -338 -354q-95 0 -199 30l33 144q93 -27 155 -27q91 0 133 59.5t54 165.5 l108 904h-162l29 147h152z" />
<glyph unicode="g" horiz-adv-x="1083" d="M793 791q-129 63 -240 63q-61 0 -115 -27t-98.5 -81.5t-71 -149t-26.5 -217.5q0 -117 32 -181.5t97 -64.5q76 0 182 87.5t197 225.5zM694 -23l29 254q-217 -251 -389 -251q-126 0 -193 106.5t-67 280.5q0 155 37 277t103 199.5t153.5 117.5t191.5 40q165 0 410 -108 l-111 -907q-12 -100 -57.5 -182.5t-111.5 -135.5t-146 -81.5t-164 -28.5q-174 0 -361 71l41 148q197 -72 338 -72q108 0 195.5 75.5t101.5 196.5z" />
<glyph unicode="h" d="M709 0l79 659q23 187 -114 187q-76 0 -181.5 -83.5t-205.5 -227.5l-64 -535h-164l189 1542l166 10l-99 -802q220 251 406 251q274 0 235 -325l-84 -676h-163z" />
<glyph unicode="i" horiz-adv-x="446" d="M176 975l168 10l-121 -985h-164zM305 1350q42 0 69 -25.5t27 -64.5q0 -52 -36 -87.5t-86 -35.5q-41 0 -67 25t-26 65q0 52 34.5 87.5t84.5 35.5z" />
<glyph unicode="j" horiz-adv-x="512" d="M244 975l166 10l-115 -930q-20 -157 -95.5 -269t-230.5 -228l-110 98q125 95 192 188.5t80 212.5zM371 1350q43 0 69.5 -25t26.5 -65q0 -52 -35.5 -87.5t-85.5 -35.5q-42 0 -68 25t-26 65q0 52 35.5 87.5t83.5 35.5z" />
<glyph unicode="k" horiz-adv-x="989" d="M686 -6l-407 465l-56 -459h-164l189 1542l166 10l-123 -991l465 424l205 -10l-515 -463l445 -506z" />
<glyph unicode="l" horiz-adv-x="583" d="M248 1542l166 10l-162 -1306q-12 -93 44.5 -111t201.5 25l-2 -142q-132 -38 -224 -38q-101 0 -151.5 58.5t-34.5 188.5z" />
<glyph unicode="m" horiz-adv-x="1667" d="M899 535l-65 -535h-164l80 659q23 187 -109 187q-69 0 -165.5 -83.5t-188.5 -227.5l-64 -535h-164l117 975l168 10l-29 -227q99 113 195.5 178t179.5 65q114 0 172 -65t58 -182q101 114 200 180.5t183 66.5q131 0 187.5 -86t37.5 -239l-84 -676h-164l80 659 q23 187 -107 187q-70 0 -166.5 -83.5t-187.5 -227.5z" />
<glyph unicode="n" d="M709 0l79 659q23 187 -114 187q-76 0 -181.5 -83.5t-205.5 -227.5l-64 -535h-164l117 975l168 10l-29 -235q220 251 406 251q274 0 235 -325l-84 -676h-163z" />
<glyph unicode="o" horiz-adv-x="1052" d="M451 127q142 0 238.5 132.5t96.5 332.5q0 129 -60.5 195.5t-164.5 66.5q-142 0 -239 -133.5t-97 -331.5q0 -129 61 -195.5t165 -66.5zM440 -20q-178 0 -279.5 103.5t-101.5 299.5q0 268 146 443t366 175q178 0 279.5 -103.5t101.5 -299.5q0 -268 -146 -443t-366 -175z " />
<glyph unicode="p" horiz-adv-x="1062" d="M6 -428l170 1403l168 10l-31 -235q217 251 389 251q126 0 193.5 -107.5t67.5 -281.5q0 -160 -40 -285t-107.5 -198.5t-150.5 -111t-176 -37.5q-118 0 -264 57l-55 -453zM246 190q129 -63 239 -63q61 0 114.5 26.5t98.5 81t71 149t26 218.5q0 116 -32.5 180t-96.5 64 q-77 0 -183 -86.5t-196 -224.5z" />
<glyph unicode="q" horiz-adv-x="1067" d="M954 893l-161 -1309l-164 -12l80 659q-217 -251 -392 -251q-125 0 -191.5 106.5t-66.5 280.5q0 155 37 277t103 199.5t153.5 117.5t192.5 40q164 0 409 -108zM776 791q-129 63 -239 63q-61 0 -115 -27t-99 -81.5t-71.5 -149t-26.5 -217.5q0 -116 33 -181t98 -65 q77 0 182.5 87.5t194.5 225.5z" />
<glyph unicode="r" horiz-adv-x="753" d="M772 979l-41 -164q-87 25 -129 25q-131 0 -311 -293l-68 -547h-164l117 975l168 10l-29 -213q90 119 164 174t154 55q44 0 139 -22z" />
<glyph unicode="s" horiz-adv-x="878" d="M55 39l41 141q56 -26 131 -41.5t140 -15.5q85 0 143 39t57 123q0 32 -25 58t-64.5 44.5t-87 37.5t-95 42t-86.5 52t-63.5 74.5t-24.5 102.5q0 151 101.5 228t264.5 77q161 0 291 -59l-39 -141q-55 25 -128.5 41t-137.5 16q-80 0 -133.5 -35.5t-52.5 -111.5 q0 -32 25 -57.5t64 -44.5t86.5 -38t94.5 -42.5t86 -53t63.5 -75.5t24.5 -103q0 -155 -104.5 -236t-272.5 -81q-169 0 -299 59z" />
<glyph unicode="t" horiz-adv-x="772" d="M152 229l73 605h-162l29 147h152l37 305l165 10l-38 -315h301l-29 -147h-291l-72 -592q-11 -95 32 -107q61 -16 253 109l39 -138q-199 -126 -305 -126q-93 0 -145.5 57t-38.5 192z" />
<glyph unicode="u" d="M344 985l-82 -666q-23 -186 117 -186q75 0 180 84.5t205 228.5l63 529l166 10l-121 -985h-163l28 231q-220 -251 -405 -251q-139 0 -198 83.5t-40 239.5l82 672z" />
<glyph unicode="v" horiz-adv-x="985" d="M506 0h-201l-246 975l179 10l188 -813q217 364 344 813l172 -12q-151 -551 -436 -973z" />
<glyph unicode="w" horiz-adv-x="1531" d="M922 0l-144 778l-332 -778h-198l-189 975l174 10l138 -827l331 817l195 10l133 -827q207 365 316 827l163 -12q-126 -543 -397 -973h-190z" />
<glyph unicode="x" horiz-adv-x="950" d="M467 612l297 373l192 -10l-401 -486l283 -483l-193 -12l-211 375l-297 -375l-186 12l397 483l-280 486l186 10z" />
<glyph unicode="y" horiz-adv-x="985" d="M154 -440l-125 88q166 159 301 352h-25l-246 975l179 10l192 -833q219 361 352 833l172 -12q-236 -861 -800 -1413z" />
<glyph unicode="z" horiz-adv-x="911" d="M223 147h551l-29 -147h-747l6 137l635 697h-518l29 147h716l-4 -137z" />
<glyph unicode="{" horiz-adv-x="704" d="M322 1075l34 293q10 83 40 149t80 115.5t128 71.5t178 10l-28 -145q-114 4 -167.5 -51t-66.5 -168l-31 -252q-33 -249 -186 -322q137 -75 105 -321l-29 -252q-14 -115 27.5 -170t162.5 -49l-26 -146q-100 -11 -171 11.5t-108 72.5t-49 116t-2 148l35 291q6 64 2 114 t-37.5 80.5t-95.5 30.5h-66l31 148h63q85 4 124 62.5t53 162.5z" />
<glyph unicode="|" horiz-adv-x="497" d="M274 1716l156 13l-231 -1893l-156 -12z" />
<glyph unicode="}" horiz-adv-x="704" d="M408 477l-35 -291q-10 -84 -40 -150.5t-80 -116t-128 -71.5t-178 -10l26 146q115 -4 170 51t68 168l31 252q29 247 184 321q-137 75 -104 322l30 252q14 116 -28.5 170.5t-163.5 48.5l26 145q100 11 171 -11.5t108 -72t49.5 -115.5t1.5 -147l-35 -293q-6 -64 -2 -114 t37.5 -80.5t95.5 -30.5h66l-31 -148h-63q-85 -3 -123.5 -61.5t-52.5 -163.5z" />
<glyph unicode="~" horiz-adv-x="1142" d="M770 522q-53 0 -98 15.5t-74.5 38.5t-59 50.5t-52.5 50.5t-54 38.5t-65 15.5q-51 0 -90 -44t-72 -128l-150 25q49 150 137.5 228.5t190.5 78.5q62 0 113.5 -21.5t86 -52.5t65 -61.5t65.5 -52t73 -21.5q51 0 90 44t72 128l150 -23q-49 -151 -137 -230t-191 -79z" />
<glyph unicode="&#xa1;" horiz-adv-x="708" d="M264 586l158 12l-117 -1057h-180zM365 768q-43 0 -71 27.5t-28 68.5q0 54 37 91.5t90 37.5q44 0 71.5 -27.5t27.5 -70.5q0 -54 -37 -90.5t-90 -36.5z" />
<glyph unicode="&#xa2;" horiz-adv-x="995" d="M772 1688l-29 -232q132 -6 256 -47l-38 -145q-142 47 -279 47q-84 0 -155.5 -27t-129.5 -82.5t-91.5 -149.5t-33.5 -218q0 -158 84.5 -234t229.5 -76q136 0 291 47l2 -145q-133 -43 -271 -49l-24 -217l-144 -13l29 236q-168 22 -265.5 125.5t-97.5 302.5q0 124 26.5 226 t71.5 173t108.5 123t134 80t151.5 39l29 225z" />
<glyph unicode="&#xa3;" horiz-adv-x="1087" d="M111 748h274q-7 23 -33 88t-41.5 122t-15.5 115q0 108 40.5 193.5t127.5 138.5t211 53q192 0 362 -51l-55 -160q-74 23 -161.5 37t-147.5 14q-82 0 -138.5 -57t-56.5 -170q0 -59 44.5 -165t53.5 -158h377l-30 -138h-351q-22 -125 -106.5 -239t-214.5 -209h688l-29 -162 h-891l5 162q158 121 249.5 226.5t114.5 221.5h-305z" />
<glyph unicode="&#xa4;" horiz-adv-x="1142" d="M188 721q0 122 60 213l-146 145l119 103l137 -138q92 60 213 60q117 0 213 -60l138 138l118 -103l-145 -145q59 -94 59 -213q0 -122 -59 -213l145 -146l-116 -104l-140 139q-89 -59 -213 -59q-127 0 -213 59l-137 -137l-119 102l146 146q-60 88 -60 213zM336 721 q0 -107 65.5 -174.5t169.5 -67.5t170 67.5t66 174.5t-66 174.5t-170 67.5t-169.5 -67.5t-65.5 -174.5z" />
<glyph unicode="&#xa5;" horiz-adv-x="1234" d="M170 762h270l-325 670l202 12l308 -672l471 672l209 -12l-490 -670h277l-29 -137h-348l-17 -25l-22 -180h373l-27 -137h-363l-34 -283h-179l35 283h-381l27 137h371l22 180l-12 25h-367z" />
<glyph unicode="&#xa6;" horiz-adv-x="497" d="M139 606l154 12l-94 -782l-156 -12zM274 1716l156 13l-96 -783l-154 -12z" />
<glyph unicode="&#xa7;" horiz-adv-x="1239" d="M1100 1225q-167 66 -346 73q-28 -110 -26 -196t28.5 -174t64 -159t81 -152t81 -152t62 -159.5t24.5 -174.5q0 -136 -50.5 -246t-138 -181t-202 -108.5t-244.5 -37.5q-201 0 -389 75l53 158q170 -67 346 -74q27 110 25 196t-28.5 174t-64 159t-81 152t-80.5 152.5 t-61.5 160.5t-24.5 176q0 109 33 201.5t91.5 160t138.5 115t174 71t198 23.5q197 0 391 -76zM303 913q0 -73 24 -152.5t60 -148.5t78.5 -149.5t80 -156.5t64.5 -169t31.5 -186.5t-18.5 -210.5q125 40 199.5 136t74.5 226q0 84 -32 177.5t-77 173t-95 177.5t-85.5 190.5 t-48.5 212.5t16 243q-126 -40 -199 -136t-73 -227z" />
<glyph unicode="&#xa8;" horiz-adv-x="782" d="M291 1341q39 0 64.5 -23.5t25.5 -60.5q0 -49 -34 -81.5t-81 -32.5q-38 0 -62 24t-24 62q0 47 33 79.5t78 32.5zM698 1341q40 0 65 -23.5t25 -60.5q0 -49 -33 -81.5t-79 -32.5q-40 0 -64 24t-24 62q0 47 32.5 79.5t77.5 32.5z" />
<glyph unicode="&#xa9;" horiz-adv-x="1617" d="M203 629q0 -236 146 -381.5t390 -145.5q141 0 267 53.5t218.5 146t146.5 224.5t54 283q0 237 -145.5 381.5t-390.5 144.5q-141 0 -267 -53t-218.5 -145t-146.5 -224.5t-54 -283.5zM68 610q0 242 112 437t303 303t422 108q298 0 477 -173.5t179 -457.5q0 -182 -66 -340.5 t-178.5 -269t-267 -174t-326.5 -63.5q-298 0 -476.5 173t-178.5 457zM862 997q-55 0 -103 -18t-89 -56t-64.5 -106.5t-23.5 -159.5q0 -113 58.5 -166t154.5 -53q87 0 206 39l9 -125q-115 -37 -236 -37q-150 0 -241 77t-91 245q0 105 24.5 189t65 138.5t97 90.5t117 51.5 t128.5 15.5q115 0 224 -39l-37 -122q-101 36 -199 36z" />
<glyph unicode="&#xaa;" horiz-adv-x="688" d="M705 1393l-68 -564h-133l16 136q-133 -148 -235 -148q-77 0 -120.5 69t-43.5 177q0 186 84.5 291.5t232.5 105.5q109 0 267 -67zM563 1307q-67 34 -133 34q-75 0 -124.5 -65.5t-49.5 -200.5t70 -135q41 0 101 49t114 127z" />
<glyph unicode="&#xab;" horiz-adv-x="995" d="M360 49l-340 387l25 117l424 379l94 -133l-362 -318l282 -317zM760 49l-340 387l24 117l424 379l95 -133l-363 -318l283 -317z" />
<glyph unicode="&#xac;" horiz-adv-x="1142" d="M905 215v432h-837l10 148h991v-568z" />
<glyph unicode="&#xad;" horiz-adv-x="579" d="M66 563h430l-29 -147h-430z" />
<glyph unicode="&#xae;" horiz-adv-x="880" d="M444 717q-150 0 -239.5 86.5t-89.5 228.5q0 184 121.5 305t300.5 121q150 0 239.5 -86.5t89.5 -228.5q0 -184 -121.5 -305t-300.5 -121zM526 1378h-2q-134 0 -226.5 -94t-92.5 -237q0 -113 67.5 -181.5t182.5 -68.5q135 0 228 94.5t93 238.5q0 111 -68 179.5t-182 68.5z M430 1016l-14 -127h-90l47 393h129q72 0 111.5 -28.5t39.5 -84.5q0 -90 -88 -137q6 -65 39 -65q20 0 43 10l2 -80q-38 -14 -76 -14q-83 0 -98 129h-6q-11 0 -39 4zM453 1204l-13 -108q20 -4 37 -4q35 0 59 17.5t25 47.5q0 47 -69 47h-39z" />
<glyph unicode="&#xaf;" horiz-adv-x="833" d="M199 1298h602l-29 -129h-602z" />
<glyph unicode="&#xb0;" horiz-adv-x="669" d="M256 1161q0 -57 33 -91t90 -34q69 0 114.5 48.5t45.5 123.5q0 56 -34 89.5t-91 33.5q-68 0 -113 -48.5t-45 -121.5zM121 1143q0 136 88.5 225.5t220.5 89.5q110 0 177 -64t67 -167q0 -136 -88.5 -227t-220.5 -91q-110 0 -177 64.5t-67 169.5z" />
<glyph unicode="&#xb1;" horiz-adv-x="1142" d="M489 266v416h-421l10 147h411v406l164 10v-416h422l-10 -147h-412v-403zM78 147h997l-10 -147h-997z" />
<glyph unicode="&#xb2;" horiz-adv-x="651" d="M678 1522q0 -66 -30.5 -128.5t-93 -123t-123.5 -107t-155 -108.5h373l-24 -113h-543l6 113q254 173 356.5 270.5t102.5 187.5q0 113 -150 113q-103 0 -215 -47l-8 115q127 47 250 47q119 0 186.5 -53t67.5 -166z" />
<glyph unicode="&#xb3;" horiz-adv-x="647" d="M281 1386h161q101 77 101 150q0 45 -38.5 67.5t-101.5 22.5q-101 0 -225 -47l-12 113q140 49 260 49q113 0 181.5 -43.5t68.5 -132.5q0 -143 -141 -228q118 -65 118 -174q0 -116 -91.5 -175.5t-229.5 -59.5q-131 0 -254 47l39 112q118 -45 227 -45q80 0 129 30.5t49 90.5 q0 63 -84 113h-180z" />
<glyph unicode="&#xb4;" horiz-adv-x="577" d="M373 1444h190l-246 -330h-153z" />
<glyph unicode="&#xb5;" d="M344 985l-82 -666q-23 -186 117 -186q75 0 180 84.5t205 228.5l63 529l166 10l-121 -985h-163l28 231q-220 -251 -405 -251q-86 0 -133 38l-33 -434l-160 -12l170 1403z" />
<glyph unicode="&#xb6;" horiz-adv-x="1050" d="M391 1438h660l-9 -123h-127v-1315h-133v1315h-157v-1315h-127v799h-107q-141 0 -230 89t-89 230t89 230.5t230 89.5z" />
<glyph unicode="&#xb7;" horiz-adv-x="436" d="M238 834q44 0 72 -28t28 -71q0 -53 -37.5 -90t-89.5 -37q-44 0 -72 27.5t-28 69.5q0 54 37 91.5t90 37.5z" />
<glyph unicode="&#xb8;" horiz-adv-x="598" d="M152 20h141l-92 -122q78 9 125 -29t47 -109q0 -94 -72 -148t-182 -54q-77 0 -144 22l35 109q59 -23 117 -23q52 0 82.5 20t30.5 58q0 55 -68 55q-26 0 -66 -12l-55 80z" />
<glyph unicode="&#xb9;" horiz-adv-x="622" d="M432 1055h207l-23 -113h-540l22 113h203l68 540l-222 -79l15 124l239 86h113z" />
<glyph unicode="&#xba;" horiz-adv-x="671" d="M369 934q78 0 131 74t53 186q1 72 -31 109.5t-90 37.5q-79 0 -132.5 -74t-53.5 -186q0 -73 32 -110t91 -37zM358 817q-118 0 -182.5 66t-64.5 192q0 167 94 275t237 108q118 0 182 -66t64 -192q0 -167 -92.5 -275t-237.5 -108z" />
<glyph unicode="&#xbb;" horiz-adv-x="995" d="M588 932l342 -387l-25 -117l-426 -379l-94 133l365 318l-285 317zM188 932l342 -387l-24 -117l-426 -379l-94 133l364 318l-284 317z" />
<glyph unicode="&#xbc;" horiz-adv-x="1536" d="M1040 784h131q-19 -148 -73.5 -263.5t-169.5 -237.5h227l23 184l133 8l-25 -192h152l-23 -113h-143l-21 -170h-131l21 170h-353l5 113q110 113 168.5 229.5t78.5 271.5zM401 766h205l-20 -113h-541l23 113h202l68 541l-223 -80l14 125l242 86h112zM219 0l1006 1438h151 l-1005 -1438h-152z" />
<glyph unicode="&#xbd;" horiz-adv-x="1562" d="M1477 580q0 -66 -30.5 -128.5t-93 -123t-123.5 -107t-155 -108.5h371l-23 -113h-542l4 113q253 171 355.5 269.5t102.5 188.5q0 113 -147 113q-103 0 -215 -47l-10 115q130 47 252 47q117 0 185.5 -53t68.5 -166zM401 766h205l-20 -113h-541l23 113h202l68 541l-223 -80 l14 125l242 86h112zM219 0l1006 1438h151l-1005 -1438h-152z" />
<glyph unicode="&#xbe;" horiz-adv-x="1507" d="M1012 784h131q-19 -147 -74 -263t-170 -238h227l23 184l133 8l-25 -192h152l-23 -113h-143l-20 -170h-131l20 170h-352l4 113q110 113 169 229.5t79 271.5zM252 1098h162q100 76 100 149q0 45 -38 67.5t-101 22.5q-101 0 -225 -47l-13 113q140 49 260 49 q113 0 181.5 -43.5t68.5 -132.5q0 -140 -141 -227q119 -65 119 -175q0 -116 -92 -175.5t-230 -59.5q-131 0 -254 47l39 113q118 -45 225 -45q81 0 131 30t50 90q0 63 -84 113h-181zM178 0l1006 1438h151l-1005 -1438h-152z" />
<glyph unicode="&#xbf;" horiz-adv-x="987" d="M393 344l33 242l158 12l-39 -346q-94 -20 -167.5 -55.5t-115.5 -75t-69.5 -85.5t-36.5 -83t-9 -72q0 -93 68 -145.5t186 -52.5q150 0 375 63l15 -160q-230 -65 -410 -65q-193 0 -304.5 81.5t-111.5 235.5q0 71 25.5 143.5t75 142.5t134.5 128.5t193 91.5zM526 768 q-44 0 -72 27t-28 69q0 55 37 92t90 37q44 0 72 -27t28 -69q0 -55 -37 -92t-90 -37z" />
<glyph unicode="&#xc0;" horiz-adv-x="1308" d="M899 510l-168 772l-356 -772h524zM928 350h-621l-160 -350h-188l666 1432l241 12l320 -1444h-182zM467 1829h223l205 -273h-176z" />
<glyph unicode="&#xc1;" horiz-adv-x="1308" d="M899 510l-168 772l-356 -772h524zM928 350h-621l-160 -350h-188l666 1432l241 12l320 -1444h-182zM885 1829h231l-309 -273h-184z" />
<glyph unicode="&#xc2;" horiz-adv-x="1308" d="M899 510l-168 772l-356 -772h524zM928 350h-621l-160 -350h-188l666 1432l241 12l320 -1444h-182zM883 1829l225 -273h-188l-138 164l-176 -164h-192l293 273h176z" />
<glyph unicode="&#xc3;" horiz-adv-x="1308" d="M899 510l-168 772l-356 -772h524zM928 350h-621l-160 -350h-188l666 1432l241 12l320 -1444h-182zM424 1559q23 93 86 149.5t137 56.5q51 0 91 -18t61 -40t49 -40t59 -18q29 0 54 25.5t40 68.5l119 -23q-24 -91 -86.5 -146.5t-134.5 -55.5q-51 0 -91.5 18t-61.5 39 t-50.5 39t-60.5 18q-28 0 -52.5 -25t-39.5 -69z" />
<glyph unicode="&#xc4;" horiz-adv-x="1308" d="M899 510l-168 772l-356 -772h524zM928 350h-621l-160 -350h-188l666 1432l241 12l320 -1444h-182zM582 1767q39 0 63.5 -23.5t24.5 -60.5q0 -49 -33 -81.5t-80 -32.5q-39 0 -63.5 23.5t-24.5 60.5q0 48 34 81t79 33zM991 1767q38 0 63 -23.5t25 -60.5q0 -49 -33.5 -81.5 t-80.5 -32.5q-38 0 -62 23.5t-24 60.5q0 49 33 81.5t79 32.5z" />
<glyph unicode="&#xc5;" horiz-adv-x="1308" d="M559 1593q0 102 67.5 169t166.5 67q86 0 137 -48t51 -128q0 -69 -34 -125t-91 -84h10l320 -1444h-182l-76 350h-621l-160 -350h-188l666 1432l32 2q-98 42 -98 159zM899 510l-168 772l-356 -772h524zM676 1608q0 -39 21 -61.5t59 -22.5q47 0 77.5 33t30.5 81q0 38 -23 61 t-61 23q-47 0 -75.5 -32t-28.5 -82z" />
<glyph unicode="&#xc6;" horiz-adv-x="1900" d="M96 0h-207l1037 1438h985l-31 -160h-709l-61 -485h612l-30 -162h-600l-60 -469h721l-33 -162h-884l43 350h-535zM449 510h448l96 766z" />
<glyph unicode="&#xc7;" horiz-adv-x="1236" d="M846 1298q-85 0 -161.5 -22.5t-148 -75.5t-123.5 -133.5t-83 -205.5t-31 -281q0 -118 30.5 -204.5t87 -137t128 -74t160.5 -23.5q159 0 360 68l12 -160q-142 -52 -317 -65l-64 -86q78 9 125 -29t47 -109q0 -94 -72 -148t-182 -54q-76 0 -143 22l35 109q59 -23 117 -23 q51 0 81.5 19.5t30.5 58.5q0 55 -67 55q-26 0 -66 -12l-55 80l74 115q-111 7 -200 42.5t-158.5 102.5t-107.5 177t-38 255q0 162 29 298t81.5 232.5t122 169t153.5 115.5t172 63.5t183 20.5q197 0 383 -69l-53 -160q-186 69 -342 69z" />
<glyph unicode="&#xc8;" horiz-adv-x="1122" d="M455 1829h223l205 -273h-176zM59 0l177 1438h897l-31 -160h-709l-61 -485h612l-31 -162h-600l-59 -469h721l-31 -162h-885z" />
<glyph unicode="&#xc9;" horiz-adv-x="1122" d="M776 1829h232l-310 -273h-184zM59 0l177 1438h897l-31 -160h-709l-61 -485h612l-31 -162h-600l-59 -469h721l-31 -162h-885z" />
<glyph unicode="&#xca;" horiz-adv-x="1122" d="M59 0l177 1438h897l-31 -160h-709l-61 -485h612l-31 -162h-600l-59 -469h721l-31 -162h-885zM819 1829l225 -273h-188l-137 164l-176 -164h-193l293 273h176z" />
<glyph unicode="&#xcb;" horiz-adv-x="1122" d="M520 1767q39 0 63.5 -23.5t24.5 -60.5q0 -49 -33 -81.5t-79 -32.5q-39 0 -63.5 23.5t-24.5 60.5q0 48 33.5 81t78.5 33zM930 1767q38 0 63 -23.5t25 -60.5q0 -49 -34 -81.5t-81 -32.5q-38 0 -62 23.5t-24 60.5q0 49 33 81.5t80 32.5zM59 0l177 1438h897l-31 -160h-709 l-61 -485h612l-31 -162h-600l-59 -469h721l-31 -162h-885z" />
<glyph unicode="&#xcc;" horiz-adv-x="458" d="M236 1438h176l-176 -1438h-177zM2 1829h223l205 -273h-176z" />
<glyph unicode="&#xcd;" horiz-adv-x="458" d="M236 1438h176l-176 -1438h-177zM510 1829h231l-309 -273h-184z" />
<glyph unicode="&#xce;" horiz-adv-x="458" d="M236 1438h176l-176 -1438h-177zM461 1829l225 -273h-188l-138 164l-176 -164h-192l293 273h176z" />
<glyph unicode="&#xcf;" horiz-adv-x="458" d="M236 1438h176l-176 -1438h-177zM160 1767q39 0 63.5 -23.5t24.5 -60.5q0 -49 -33 -81.5t-80 -32.5q-39 0 -63.5 23.5t-24.5 60.5q0 48 34 81t79 33zM569 1767q38 0 63 -23.5t25 -60.5q0 -49 -33.5 -81.5t-80.5 -32.5q-38 0 -62 23.5t-24 60.5q0 49 33 81.5t79 32.5z" />
<glyph unicode="&#xd0;" horiz-adv-x="1413" d="M735 1438q275 0 424.5 -135.5t149.5 -421.5q0 -180 -40 -329t-112 -254t-172 -177t-219.5 -106.5t-255.5 -34.5q-234 0 -449 51l76 624h-131l29 129h119l82 654h499zM713 1278h-320l-61 -494h305l-29 -129h-293l-59 -489q136 -25 289 -25q123 0 227 44.5t183 131t124 224 t45 313.5q0 424 -411 424z" />
<glyph unicode="&#xd1;" horiz-adv-x="1353" d="M446 1559q23 93 86.5 149.5t137.5 56.5q51 0 91 -18t61 -40t49 -40t59 -18q29 0 54 25.5t40 68.5l119 -23q-24 -91 -86.5 -146.5t-134.5 -55.5q-51 0 -91.5 18t-62 39t-51 39t-60.5 18q-28 0 -52.5 -25t-39.5 -69zM373 1139l-140 -1139h-174l174 1432l173 12l587 -1145 l140 1139h174l-177 -1432l-172 -12z" />
<glyph unicode="&#xd2;" horiz-adv-x="1533" d="M610 1829h224l204 -273h-176zM686 141q122 0 224.5 47.5t177.5 138.5t117 232.5t42 321.5q0 202 -104.5 309.5t-286.5 107.5q-122 0 -224.5 -47.5t-177.5 -138.5t-117 -232.5t-42 -320.5q0 -203 104.5 -310.5t286.5 -107.5zM680 -20q-262 0 -414.5 146.5t-152.5 428.5 q0 216 55.5 388t155 284t236.5 171.5t302 59.5q262 0 415 -146.5t153 -428.5q0 -216 -55 -388t-155 -284t-237 -171.5t-303 -59.5z" />
<glyph unicode="&#xd3;" horiz-adv-x="1533" d="M973 1829h231l-309 -273h-184zM686 141q122 0 224.5 47.5t177.5 138.5t117 232.5t42 321.5q0 202 -104.5 309.5t-286.5 107.5q-122 0 -224.5 -47.5t-177.5 -138.5t-117 -232.5t-42 -320.5q0 -203 104.5 -310.5t286.5 -107.5zM680 -20q-262 0 -414.5 146.5t-152.5 428.5 q0 216 55.5 388t155 284t236.5 171.5t302 59.5q262 0 415 -146.5t153 -428.5q0 -216 -55 -388t-155 -284t-237 -171.5t-303 -59.5z" />
<glyph unicode="&#xd4;" horiz-adv-x="1533" d="M686 141q122 0 224.5 47.5t177.5 138.5t117 232.5t42 321.5q0 202 -104.5 309.5t-286.5 107.5q-122 0 -224.5 -47.5t-177.5 -138.5t-117 -232.5t-42 -320.5q0 -203 104.5 -310.5t286.5 -107.5zM680 -20q-262 0 -414.5 146.5t-152.5 428.5q0 216 55.5 388t155 284 t236.5 171.5t302 59.5q262 0 415 -146.5t153 -428.5q0 -216 -55 -388t-155 -284t-237 -171.5t-303 -59.5zM997 1829l226 -273h-189l-137 164l-176 -164h-193l293 273h176z" />
<glyph unicode="&#xd5;" horiz-adv-x="1533" d="M537 1559q23 93 86 149.5t137 56.5q51 0 91 -18t61 -40t49 -40t59 -18q29 0 54 25.5t40 68.5l119 -23q-24 -91 -86.5 -146.5t-134.5 -55.5q-51 0 -91.5 18t-61.5 39t-50.5 39t-60.5 18q-28 0 -53 -25t-40 -69zM686 141q122 0 224.5 47.5t177.5 138.5t117 232.5t42 321.5 q0 202 -104.5 309.5t-286.5 107.5q-122 0 -224.5 -47.5t-177.5 -138.5t-117 -232.5t-42 -320.5q0 -203 104.5 -310.5t286.5 -107.5zM680 -20q-262 0 -414.5 146.5t-152.5 428.5q0 216 55.5 388t155 284t236.5 171.5t302 59.5q262 0 415 -146.5t153 -428.5q0 -216 -55 -388 t-155 -284t-237 -171.5t-303 -59.5z" />
<glyph unicode="&#xd6;" horiz-adv-x="1533" d="M696 1767q39 0 63.5 -23.5t24.5 -60.5q0 -49 -33 -81.5t-79 -32.5q-39 0 -63.5 23.5t-24.5 60.5q0 48 33.5 81t78.5 33zM1106 1767q38 0 63 -23.5t25 -60.5q0 -49 -34 -81.5t-81 -32.5q-38 0 -62 23.5t-24 60.5q0 49 33 81.5t80 32.5zM686 141q122 0 224.5 47.5 t177.5 138.5t117 232.5t42 321.5q0 202 -104.5 309.5t-286.5 107.5q-122 0 -224.5 -47.5t-177.5 -138.5t-117 -232.5t-42 -320.5q0 -203 104.5 -310.5t286.5 -107.5zM680 -20q-262 0 -414.5 146.5t-152.5 428.5q0 216 55.5 388t155 284t236.5 171.5t302 59.5 q262 0 415 -146.5t153 -428.5q0 -216 -55 -388t-155 -284t-237 -171.5t-303 -59.5z" />
<glyph unicode="&#xd7;" horiz-adv-x="1142" d="M102 362l359 359l-359 358l119 103l350 -351l351 351l118 -103l-358 -358l358 -359l-116 -104l-353 352l-350 -350z" />
<glyph unicode="&#xd8;" horiz-adv-x="1533" d="M680 -20q-206 0 -348 92l-168 -213l-109 55l187 236q-129 151 -129 405q0 216 55.5 388t155 284t236.5 171.5t302 59.5q207 0 346 -92l170 213l109 -55l-189 -238q132 -148 132 -403q0 -216 -55 -388t-155 -284t-237 -171.5t-303 -59.5zM295 559q0 -160 65 -260l740 930 q-101 69 -244 69q-122 0 -224.5 -47.5t-177.5 -138.5t-117 -232.5t-42 -320.5zM686 141q122 0 224.5 47.5t177.5 138.5t117 232.5t42 321.5q0 153 -65 258l-740 -928q98 -70 244 -70z" />
<glyph unicode="&#xd9;" horiz-adv-x="1353" d="M520 1829h223l205 -273h-176zM412 1438l-121 -987q-21 -164 64 -237t255 -73q359 0 398 310l120 987h179l-123 -1000q-12 -98 -48 -175t-89 -129.5t-125.5 -87.5t-154.5 -50.5t-177 -15.5q-120 0 -212 25.5t-158 78.5t-94 143t-13 211l123 1000h176z" />
<glyph unicode="&#xda;" horiz-adv-x="1353" d="M883 1829h231l-309 -273h-184zM412 1438l-121 -987q-21 -164 64 -237t255 -73q359 0 398 310l120 987h179l-123 -1000q-12 -98 -48 -175t-89 -129.5t-125.5 -87.5t-154.5 -50.5t-177 -15.5q-120 0 -212 25.5t-158 78.5t-94 143t-13 211l123 1000h176z" />
<glyph unicode="&#xdb;" horiz-adv-x="1353" d="M412 1438l-121 -987q-21 -164 64 -237t255 -73q359 0 398 310l120 987h179l-123 -1000q-12 -98 -48 -175t-89 -129.5t-125.5 -87.5t-154.5 -50.5t-177 -15.5q-120 0 -212 25.5t-158 78.5t-94 143t-13 211l123 1000h176zM905 1829l225 -273h-188l-137 164l-176 -164h-193 l293 273h176z" />
<glyph unicode="&#xdc;" horiz-adv-x="1353" d="M606 1767q39 0 63.5 -23.5t24.5 -60.5q0 -49 -33 -81.5t-79 -32.5q-39 0 -63.5 23.5t-24.5 60.5q0 48 33.5 81t78.5 33zM1016 1767q38 0 63 -23.5t25 -60.5q0 -49 -34 -81.5t-81 -32.5q-38 0 -62 23.5t-24 60.5q0 49 33 81.5t80 32.5zM412 1438l-121 -987 q-21 -164 64 -237t255 -73q359 0 398 310l120 987h179l-123 -1000q-12 -98 -48 -175t-89 -129.5t-125.5 -87.5t-154.5 -50.5t-177 -15.5q-120 0 -212 25.5t-158 78.5t-94 143t-13 211l123 1000h176z" />
<glyph unicode="&#xdd;" horiz-adv-x="1234" d="M446 0l74 600l-405 832l202 12l308 -672l471 672l209 -12l-607 -832l-73 -600h-179zM823 1829h232l-310 -273h-184z" />
<glyph unicode="&#xde;" horiz-adv-x="1179" d="M360 1024l-75 -610q117 -17 204 -17q94 0 174 21.5t143.5 65t99.5 116t36 166.5q0 140 -100.5 207t-272.5 67q-99 0 -209 -16zM59 0l177 1438h176l-31 -252q132 16 217 16q156 0 273 -44.5t185 -138t68 -228.5q0 -109 -33 -200t-92 -156t-140.5 -110t-177.5 -67t-204 -22 q-43 0 -211 16l-30 -252h-177z" />
<glyph unicode="&#xdf;" horiz-adv-x="1157" d="M360 1143l-190 -1563l-164 -6l191 1569q26 204 139 306.5t305 102.5q86 0 150.5 -23.5t100 -64t52.5 -87.5t17 -101q0 -145 -103 -297l-119 -178q76 -20 132 -61t87 -92.5t45.5 -105t14.5 -108.5q0 -90 -32.5 -172.5t-90.5 -145t-144 -99.5t-186 -37q-103 0 -194 36 l41 142q85 -31 149 -31q126 0 207.5 88t81.5 211q0 44 -15 87t-45 82.5t-82 68t-120 38.5l-25 93l168 249q66 107 66 203q0 67 -41.5 112.5t-132.5 45.5q-109 0 -178.5 -67t-84.5 -195z" />
<glyph unicode="&#xe0;" horiz-adv-x="1067" d="M954 893l-110 -893h-164l29 231q-217 -251 -392 -251q-125 0 -191.5 106.5t-66.5 280.5q0 155 37 277t103 199.5t153.5 117.5t192.5 40q164 0 409 -108zM776 791q-129 63 -239 63q-61 0 -115 -27t-99 -81.5t-71.5 -149t-26.5 -217.5q0 -116 33 -181t98 -65 q77 0 182.5 87.5t194.5 225.5zM422 1444h180l135 -330h-143z" />
<glyph unicode="&#xe1;" horiz-adv-x="1067" d="M954 893l-110 -893h-164l29 231q-217 -251 -392 -251q-125 0 -191.5 106.5t-66.5 280.5q0 155 37 277t103 199.5t153.5 117.5t192.5 40q164 0 409 -108zM776 791q-129 63 -239 63q-61 0 -115 -27t-99 -81.5t-71.5 -149t-26.5 -217.5q0 -116 33 -181t98 -65 q77 0 182.5 87.5t194.5 225.5zM686 1444h191l-246 -330h-154z" />
<glyph unicode="&#xe2;" horiz-adv-x="1067" d="M954 893l-110 -893h-164l29 231q-217 -251 -392 -251q-125 0 -191.5 106.5t-66.5 280.5q0 155 37 277t103 199.5t153.5 117.5t192.5 40q164 0 409 -108zM776 791q-129 63 -239 63q-61 0 -115 -27t-99 -81.5t-71.5 -149t-26.5 -217.5q0 -116 33 -181t98 -65 q77 0 182.5 87.5t194.5 225.5zM737 1444l183 -330h-162l-115 215l-166 -215h-166l264 330h162z" />
<glyph unicode="&#xe3;" horiz-adv-x="1067" d="M954 893l-110 -893h-164l29 231q-217 -251 -392 -251q-125 0 -191.5 106.5t-66.5 280.5q0 155 37 277t103 199.5t153.5 117.5t192.5 40q164 0 409 -108zM776 791q-129 63 -239 63q-61 0 -115 -27t-99 -81.5t-71.5 -149t-26.5 -217.5q0 -116 33 -181t98 -65 q77 0 182.5 87.5t194.5 225.5zM293 1178q24 93 86.5 149.5t136.5 56.5q41 0 77 -18t57.5 -39t46 -39t44.5 -18q58 0 95 94l118 -25q-24 -90 -87 -146t-134 -56q-41 0 -77.5 18t-58 39t-46.5 39t-45 18q-29 0 -54 -25t-40 -69z" />
<glyph unicode="&#xe4;" horiz-adv-x="1067" d="M954 893l-110 -893h-164l29 231q-217 -251 -392 -251q-125 0 -191.5 106.5t-66.5 280.5q0 155 37 277t103 199.5t153.5 117.5t192.5 40q164 0 409 -108zM776 791q-129 63 -239 63q-61 0 -115 -27t-99 -81.5t-71.5 -149t-26.5 -217.5q0 -116 33 -181t98 -65 q77 0 182.5 87.5t194.5 225.5zM440 1341q39 0 64.5 -23.5t25.5 -60.5q0 -49 -33.5 -81.5t-80.5 -32.5q-38 0 -62 24t-24 62q0 47 32.5 79.5t77.5 32.5zM848 1341q40 0 65 -23.5t25 -60.5q0 -49 -33 -81.5t-80 -32.5q-40 0 -64 24t-24 62q0 47 33 79.5t78 32.5z" />
<glyph unicode="&#xe5;" horiz-adv-x="1067" d="M954 893l-110 -893h-164l29 231q-217 -251 -392 -251q-125 0 -191.5 106.5t-66.5 280.5q0 155 37 277t103 199.5t153.5 117.5t192.5 40q164 0 409 -108zM776 791q-129 63 -239 63q-61 0 -115 -27t-99 -81.5t-71.5 -149t-26.5 -217.5q0 -116 33 -181t98 -65 q77 0 182.5 87.5t194.5 225.5zM537 1260q0 -39 20.5 -61.5t58.5 -22.5q47 0 78 33t31 81q0 38 -23 61t-61 23q-47 0 -75.5 -32t-28.5 -82zM420 1245q0 102 67 169t166 67q86 0 137.5 -48t51.5 -128q0 -102 -68.5 -169t-169.5 -67q-86 0 -135 48t-49 128z" />
<glyph unicode="&#xe6;" horiz-adv-x="1460" d="M627 567l12 109q22 178 -131 178q-106 0 -375 -82l-4 143q240 86 408 86q207 0 229 -170q126 170 342 170q122 0 197 -67t75 -164q0 -67 -26.5 -124t-90.5 -112.5t-186.5 -100.5t-298.5 -75q-1 -48 7 -87.5t26 -74t52 -54t81 -19.5q107 0 326 121l37 -138 q-123 -67 -208.5 -96.5t-164.5 -29.5q-100 0 -172 45t-109 131q-222 -176 -415 -176q-107 0 -171.5 57t-64.5 158q0 115 57.5 189t195.5 120t372 63zM279 115q160 0 337 151q-12 91 -2 176q-172 -13 -273.5 -43t-140 -71.5t-38.5 -102.5q0 -57 33 -83.5t84 -26.5zM1096 858 q-125 0 -211 -99.5t-105 -271.5q439 82 439 271q0 41 -33.5 70.5t-89.5 29.5z" />
<glyph unicode="&#xe7;" horiz-adv-x="897" d="M63 375q0 163 41.5 287t113.5 196t161.5 107.5t193.5 35.5q122 0 285 -32l-41 -146q-143 31 -246 31q-158 0 -250 -116t-92 -339q0 -270 174 -270q105 0 320 117l37 -140q-157 -88 -260 -112l-72 -96q78 9 125 -29t47 -109q0 -94 -72 -148t-182 -54q-76 0 -143 22l35 109 q59 -23 116 -23q52 0 82.5 20t30.5 58q0 55 -68 55q-25 0 -65 -12l-55 80l73 115q-139 10 -214 112t-75 281z" />
<glyph unicode="&#xe8;" horiz-adv-x="909" d="M719 244l37 -138q-123 -67 -208.5 -96.5t-164.5 -29.5q-155 0 -239.5 103t-84.5 292q0 298 140 462t358 164q122 0 197 -67t75 -164q0 -67 -26.5 -124t-90.5 -112.5t-186.5 -100.5t-298.5 -75q-1 -48 7 -87.5t26 -74t52 -54t81 -19.5q107 0 326 121zM545 858 q-125 0 -211 -99.5t-105 -271.5q439 82 439 271q0 41 -33.5 70.5t-89.5 29.5zM344 1444h180l135 -330h-143z" />
<glyph unicode="&#xe9;" horiz-adv-x="909" d="M618 1444h191l-246 -330h-153zM719 244l37 -138q-123 -67 -208.5 -96.5t-164.5 -29.5q-155 0 -239.5 103t-84.5 292q0 298 140 462t358 164q122 0 197 -67t75 -164q0 -67 -26.5 -124t-90.5 -112.5t-186.5 -100.5t-298.5 -75q-1 -48 7 -87.5t26 -74t52 -54t81 -19.5 q107 0 326 121zM545 858q-125 0 -211 -99.5t-105 -271.5q439 82 439 271q0 41 -33.5 70.5t-89.5 29.5z" />
<glyph unicode="&#xea;" horiz-adv-x="909" d="M670 1444l182 -330h-162l-115 215l-165 -215h-166l264 330h162zM719 244l37 -138q-123 -67 -208.5 -96.5t-164.5 -29.5q-155 0 -239.5 103t-84.5 292q0 298 140 462t358 164q122 0 197 -67t75 -164q0 -67 -26.5 -124t-90.5 -112.5t-186.5 -100.5t-298.5 -75 q-1 -48 7 -87.5t26 -74t52 -54t81 -19.5q107 0 326 121zM545 858q-125 0 -211 -99.5t-105 -271.5q439 82 439 271q0 41 -33.5 70.5t-89.5 29.5z" />
<glyph unicode="&#xeb;" horiz-adv-x="909" d="M373 1341q39 0 64.5 -23.5t25.5 -60.5q0 -49 -34 -81.5t-81 -32.5q-38 0 -62 24t-24 62q0 47 33 79.5t78 32.5zM780 1341q40 0 65 -23.5t25 -60.5q0 -49 -33 -81.5t-79 -32.5q-40 0 -64 24t-24 62q0 47 32.5 79.5t77.5 32.5zM719 244l37 -138q-123 -67 -208.5 -96.5 t-164.5 -29.5q-155 0 -239.5 103t-84.5 292q0 298 140 462t358 164q122 0 197 -67t75 -164q0 -67 -26.5 -124t-90.5 -112.5t-186.5 -100.5t-298.5 -75q-1 -48 7 -87.5t26 -74t52 -54t81 -19.5q107 0 326 121zM545 858q-125 0 -211 -99.5t-105 -271.5q439 82 439 271 q0 41 -33.5 70.5t-89.5 29.5z" />
<glyph unicode="&#xec;" horiz-adv-x="446" d="M176 975l168 10l-121 -985h-164zM45 1444h180l135 -330h-143z" />
<glyph unicode="&#xed;" horiz-adv-x="446" d="M401 1444h191l-246 -330h-153zM176 975l168 10l-121 -985h-164z" />
<glyph unicode="&#xee;" horiz-adv-x="446" d="M399 1444l183 -330h-162l-115 215l-166 -215h-166l265 330h161zM176 975l168 10l-121 -985h-164z" />
<glyph unicode="&#xef;" horiz-adv-x="446" d="M100 1341q39 0 64.5 -23.5t25.5 -60.5q0 -49 -33.5 -81.5t-80.5 -32.5q-38 0 -62 24t-24 62q0 47 32.5 79.5t77.5 32.5zM508 1341q40 0 65 -23.5t25 -60.5q0 -49 -33 -81.5t-80 -32.5q-40 0 -64 24t-24 62q0 47 33 79.5t78 32.5zM176 975l168 10l-121 -985h-164z" />
<glyph unicode="&#xf0;" horiz-adv-x="1050" d="M336 1552h215q72 -60 137 -149l289 121l24 -123l-243 -103q168 -291 168 -628q0 -131 -32.5 -254t-92.5 -220.5t-154.5 -156.5t-208.5 -59q-176 0 -277.5 121.5t-101.5 318.5q0 162 48 294.5t135 209.5t194 77q92 0 167 -52t149 -154q-29 239 -146 440l-293 -121l-22 123 l248 102q-90 123 -203 213zM446 131q89 0 158 68t105.5 169.5t44.5 221.5q-83 135 -150 194.5t-141 59.5q-101 0 -167.5 -113.5t-66.5 -300.5q-2 -130 57 -214.5t160 -84.5z" />
<glyph unicode="&#xf1;" d="M709 0l79 659q23 187 -114 187q-76 0 -181.5 -83.5t-205.5 -227.5l-64 -535h-164l117 975l168 10l-29 -235q220 251 406 251q274 0 235 -325l-84 -676h-163zM287 1178q24 93 86.5 149.5t136.5 56.5q41 0 77 -18t57.5 -39t46 -39t44.5 -18q57 0 94 94l119 -25 q-24 -90 -87 -146t-134 -56q-41 0 -77.5 18t-58 39t-46.5 39t-45 18q-29 0 -54 -25t-40 -69z" />
<glyph unicode="&#xf2;" horiz-adv-x="1052" d="M451 127q142 0 238.5 132.5t96.5 332.5q0 129 -60.5 195.5t-164.5 66.5q-142 0 -239 -133.5t-97 -331.5q0 -129 61 -195.5t165 -66.5zM440 -20q-178 0 -279.5 103.5t-101.5 299.5q0 268 146 443t366 175q178 0 279.5 -103.5t101.5 -299.5q0 -268 -146 -443t-366 -175z M420 1444h180l135 -330h-143z" />
<glyph unicode="&#xf3;" horiz-adv-x="1052" d="M680 1444h190l-245 -330h-154zM451 127q142 0 238.5 132.5t96.5 332.5q0 129 -60.5 195.5t-164.5 66.5q-142 0 -239 -133.5t-97 -331.5q0 -129 61 -195.5t165 -66.5zM440 -20q-178 0 -279.5 103.5t-101.5 299.5q0 268 146 443t366 175q178 0 279.5 -103.5t101.5 -299.5 q0 -268 -146 -443t-366 -175z" />
<glyph unicode="&#xf4;" horiz-adv-x="1052" d="M731 1444l182 -330h-161l-115 215l-166 -215h-166l264 330h162zM451 127q142 0 238.5 132.5t96.5 332.5q0 129 -60.5 195.5t-164.5 66.5q-142 0 -239 -133.5t-97 -331.5q0 -129 61 -195.5t165 -66.5zM440 -20q-178 0 -279.5 103.5t-101.5 299.5q0 268 146 443t366 175 q178 0 279.5 -103.5t101.5 -299.5q0 -268 -146 -443t-366 -175z" />
<glyph unicode="&#xf5;" horiz-adv-x="1052" d="M451 127q142 0 238.5 132.5t96.5 332.5q0 129 -60.5 195.5t-164.5 66.5q-142 0 -239 -133.5t-97 -331.5q0 -129 61 -195.5t165 -66.5zM440 -20q-178 0 -279.5 103.5t-101.5 299.5q0 268 146 443t366 175q178 0 279.5 -103.5t101.5 -299.5q0 -268 -146 -443t-366 -175z M293 1178q24 93 86.5 149.5t136.5 56.5q41 0 77 -18t57.5 -39t46 -39t44.5 -18q58 0 95 94l118 -25q-24 -90 -87 -146t-134 -56q-41 0 -77.5 18t-58 39t-46.5 39t-45 18q-29 0 -54 -25t-40 -69z" />
<glyph unicode="&#xf6;" horiz-adv-x="1052" d="M430 1341q39 0 64.5 -23.5t25.5 -60.5q0 -49 -33.5 -81.5t-80.5 -32.5q-38 0 -62.5 24t-24.5 62q0 47 33 79.5t78 32.5zM838 1341q40 0 65 -23.5t25 -60.5q0 -49 -33 -81.5t-80 -32.5q-40 0 -64 24t-24 62q0 47 33 79.5t78 32.5zM451 127q142 0 238.5 132.5t96.5 332.5 q0 129 -60.5 195.5t-164.5 66.5q-142 0 -239 -133.5t-97 -331.5q0 -129 61 -195.5t165 -66.5zM440 -20q-178 0 -279.5 103.5t-101.5 299.5q0 268 146 443t366 175q178 0 279.5 -103.5t101.5 -299.5q0 -268 -146 -443t-366 -175z" />
<glyph unicode="&#xf7;" horiz-adv-x="1142" d="M78 795h997l-10 -148h-997zM571 401q47 0 80 -32.5t33 -79.5q0 -49 -32.5 -81t-80.5 -32q-49 0 -80.5 31.5t-31.5 81.5q0 48 31.5 80t80.5 32zM571 1266q48 0 80.5 -32t32.5 -81q0 -47 -33 -80t-80 -33q-49 0 -80.5 32.5t-31.5 80.5q0 50 31.5 81.5t80.5 31.5z" />
<glyph unicode="&#xf8;" horiz-adv-x="1052" d="M440 -20q-125 0 -213 51l-125 -166l-94 47l139 186q-88 105 -88 285q0 268 146 443t366 175q123 0 211 -51l125 166l97 -47l-140 -186q88 -109 88 -285q0 -268 -146 -443t-366 -175zM451 127q142 0 238.5 132.5t96.5 332.5q0 86 -28 147l-434 -579q50 -33 127 -33z M225 389q0 -84 29 -147l432 579q-50 33 -125 33q-142 0 -239 -133.5t-97 -331.5z" />
<glyph unicode="&#xf9;" d="M344 985l-82 -666q-23 -186 117 -186q75 0 180 84.5t205 228.5l63 529l166 10l-121 -985h-163l28 231q-220 -251 -405 -251q-139 0 -198 83.5t-40 239.5l82 672zM418 1444h180l135 -330h-143z" />
<glyph unicode="&#xfa;" d="M678 1444h190l-245 -330h-154zM344 985l-82 -666q-23 -186 117 -186q75 0 180 84.5t205 228.5l63 529l166 10l-121 -985h-163l28 231q-220 -251 -405 -251q-139 0 -198 83.5t-40 239.5l82 672z" />
<glyph unicode="&#xfb;" d="M723 1444l182 -330h-162l-114 215l-166 -215h-166l264 330h162zM344 985l-82 -666q-23 -186 117 -186q75 0 180 84.5t205 228.5l63 529l166 10l-121 -985h-163l28 231q-220 -251 -405 -251q-139 0 -198 83.5t-40 239.5l82 672z" />
<glyph unicode="&#xfc;" d="M424 1341q39 0 64.5 -23.5t25.5 -60.5q0 -49 -34 -81.5t-81 -32.5q-38 0 -62 24t-24 62q0 47 33 79.5t78 32.5zM831 1341q40 0 65.5 -23.5t25.5 -60.5q0 -49 -33 -81.5t-80 -32.5q-40 0 -64 24t-24 62q0 47 32.5 79.5t77.5 32.5zM344 985l-82 -666q-23 -186 117 -186 q75 0 180 84.5t205 228.5l63 529l166 10l-121 -985h-163l28 231q-220 -251 -405 -251q-139 0 -198 83.5t-40 239.5l82 672z" />
<glyph unicode="&#xfd;" horiz-adv-x="985" d="M154 -440l-125 88q166 159 301 352h-25l-246 975l179 10l192 -833q219 361 352 833l172 -12q-236 -861 -800 -1413zM637 1444h190l-245 -330h-154z" />
<glyph unicode="&#xfe;" horiz-adv-x="1062" d="M6 -428l242 1970l166 10l-101 -802q217 251 389 251q126 0 193.5 -107.5t67.5 -281.5q0 -160 -40 -285t-107.5 -198.5t-150.5 -111t-176 -37.5q-118 0 -264 57l-55 -453zM246 190q129 -63 239 -63q61 0 114.5 26.5t98.5 81t71 149t26 218.5q0 116 -32.5 180t-96.5 64 q-77 0 -183 -86.5t-196 -224.5z" />
<glyph unicode="&#xff;" horiz-adv-x="985" d="M154 -440l-125 88q166 159 301 352h-25l-246 975l179 10l192 -833q219 361 352 833l172 -12q-236 -861 -800 -1413zM369 1341q39 0 64.5 -23.5t25.5 -60.5q0 -49 -34 -81.5t-81 -32.5q-38 0 -62 24t-24 62q0 47 33 79.5t78 32.5zM776 1341q40 0 65 -23.5t25 -60.5 q0 -49 -33 -81.5t-79 -32.5q-40 0 -64 24t-24 62q0 47 32.5 79.5t77.5 32.5z" />
<glyph unicode="&#x100;" horiz-adv-x="1308" d="M899 510l-168 772l-356 -772h524zM928 350h-621l-160 -350h-188l666 1432l241 12l320 -1444h-182zM479 1706h613l-27 -129h-612z" />
<glyph unicode="&#x101;" horiz-adv-x="1067" d="M954 893l-110 -893h-164l29 231q-217 -251 -392 -251q-125 0 -191.5 106.5t-66.5 280.5q0 155 37 277t103 199.5t153.5 117.5t192.5 40q164 0 409 -108zM776 791q-129 63 -239 63q-61 0 -115 -27t-99 -81.5t-71.5 -149t-26.5 -217.5q0 -116 33 -181t98 -65 q77 0 182.5 87.5t194.5 225.5zM328 1298h602l-29 -129h-602z" />
<glyph unicode="&#x102;" horiz-adv-x="1308" d="M899 510l-168 772l-356 -772h524zM928 350h-621l-160 -350h-188l666 1432l241 12l320 -1444h-182zM477 1827l127 10q3 -93 43.5 -129.5t110.5 -36.5q67 0 115.5 36.5t74.5 129.5l133 -10q-64 -285 -331 -285q-281 0 -273 285z" />
<glyph unicode="&#x103;" horiz-adv-x="1067" d="M954 893l-110 -893h-164l29 231q-217 -251 -392 -251q-125 0 -191.5 106.5t-66.5 280.5q0 155 37 277t103 199.5t153.5 117.5t192.5 40q164 0 409 -108zM776 791q-129 63 -239 63q-61 0 -115 -27t-99 -81.5t-71.5 -149t-26.5 -217.5q0 -116 33 -181t98 -65 q77 0 182.5 87.5t194.5 225.5zM346 1434l129 12q-11 -110 32 -158.5t114 -48.5t124.5 48t69.5 159l129 -12q-13 -109 -62.5 -184t-118 -107.5t-151.5 -32.5q-134 0 -209.5 81t-56.5 243z" />
<glyph unicode="&#x104;" horiz-adv-x="1308" d="M928 350h-621l-160 -350h-188l666 1432l241 12l320 -1444h-33q-90 -45 -141 -108t-51 -123q0 -38 25 -61t75 -23q25 0 86 14l4 -121q-64 -20 -125 -20q-104 0 -156.5 51t-52.5 131q0 158 182 278zM899 510l-168 772l-356 -772h524z" />
<glyph unicode="&#x105;" horiz-adv-x="1067" d="M838 -301l4 -121q-64 -20 -125 -20q-104 0 -156.5 51t-52.5 131q0 154 174 272l27 219q-217 -251 -392 -251q-125 0 -191.5 106.5t-66.5 280.5q0 155 37 277t103 199.5t153.5 117.5t192.5 40q164 0 409 -108l-110 -893q-90 -45 -141.5 -108t-51.5 -123q0 -37 25.5 -60.5 t75.5 -23.5q25 0 86 14zM776 791q-129 63 -239 63q-61 0 -115 -27t-99 -81.5t-71.5 -149t-26.5 -217.5q0 -116 33 -181t98 -65q77 0 182.5 87.5t194.5 225.5z" />
<glyph unicode="&#x106;" horiz-adv-x="1236" d="M846 1298q-85 0 -161.5 -22.5t-148 -75.5t-123.5 -133.5t-83 -205.5t-31 -281q0 -118 30.5 -204.5t87 -137t128 -74t160.5 -23.5q159 0 360 68l12 -160q-201 -69 -401 -69q-121 0 -219.5 31.5t-176 98t-120.5 181t-43 268.5q0 162 29 298t81.5 232.5t122 169t153.5 115.5 t172 63.5t183 20.5q197 0 383 -69l-53 -160q-186 69 -342 69zM918 1829h231l-309 -273h-185z" />
<glyph unicode="&#x107;" horiz-adv-x="897" d="M637 1444h190l-245 -330h-154zM63 375q0 163 41.5 287t113.5 196t161.5 107.5t193.5 35.5q122 0 285 -32l-41 -146q-143 31 -246 31q-158 0 -250 -116t-92 -339q0 -270 174 -270q105 0 320 117l37 -140q-119 -66 -206.5 -96t-164.5 -30q-157 0 -241.5 103t-84.5 292z" />
<glyph unicode="&#x108;" horiz-adv-x="1236" d="M846 1298q-85 0 -161.5 -22.5t-148 -75.5t-123.5 -133.5t-83 -205.5t-31 -281q0 -118 30.5 -204.5t87 -137t128 -74t160.5 -23.5q159 0 360 68l12 -160q-201 -69 -401 -69q-121 0 -219.5 31.5t-176 98t-120.5 181t-43 268.5q0 162 29 298t81.5 232.5t122 169t153.5 115.5 t172 63.5t183 20.5q197 0 383 -69l-53 -160q-186 69 -342 69zM981 1829l225 -273h-188l-137 164l-176 -164h-193l293 273h176z" />
<glyph unicode="&#x109;" horiz-adv-x="897" d="M702 1444l183 -330h-162l-115 215l-166 -215h-166l265 330h161zM63 375q0 163 41.5 287t113.5 196t161.5 107.5t193.5 35.5q122 0 285 -32l-41 -146q-143 31 -246 31q-158 0 -250 -116t-92 -339q0 -270 174 -270q105 0 320 117l37 -140q-119 -66 -206.5 -96t-164.5 -30 q-157 0 -241.5 103t-84.5 292z" />
<glyph unicode="&#x10a;" horiz-adv-x="1236" d="M887 1782q43 0 69.5 -25.5t26.5 -66.5q0 -50 -36.5 -85.5t-86.5 -35.5q-41 0 -66.5 25t-25.5 65q0 52 35.5 87.5t83.5 35.5zM846 1298q-85 0 -161.5 -22.5t-148 -75.5t-123.5 -133.5t-83 -205.5t-31 -281q0 -118 30.5 -204.5t87 -137t128 -74t160.5 -23.5q159 0 360 68 l12 -160q-201 -69 -401 -69q-121 0 -219.5 31.5t-176 98t-120.5 181t-43 268.5q0 162 29 298t81.5 232.5t122 169t153.5 115.5t172 63.5t183 20.5q197 0 383 -69l-53 -160q-186 69 -342 69z" />
<glyph unicode="&#x10b;" horiz-adv-x="897" d="M63 375q0 163 41.5 287t113.5 196t161.5 107.5t193.5 35.5q122 0 285 -32l-41 -146q-143 31 -246 31q-158 0 -250 -116t-92 -339q0 -270 174 -270q105 0 320 117l37 -140q-119 -66 -206.5 -96t-164.5 -30q-157 0 -241.5 103t-84.5 292zM612 1350q42 0 69.5 -25.5 t27.5 -64.5q0 -52 -36.5 -87.5t-86.5 -35.5q-41 0 -66.5 25t-25.5 65q0 52 34 87.5t84 35.5z" />
<glyph unicode="&#x10c;" horiz-adv-x="1236" d="M846 1298q-85 0 -161.5 -22.5t-148 -75.5t-123.5 -133.5t-83 -205.5t-31 -281q0 -118 30.5 -204.5t87 -137t128 -74t160.5 -23.5q159 0 360 68l12 -160q-201 -69 -401 -69q-121 0 -219.5 31.5t-176 98t-120.5 181t-43 268.5q0 162 29 298t81.5 232.5t122 169t153.5 115.5 t172 63.5t183 20.5q197 0 383 -69l-53 -160q-186 69 -342 69zM772 1556l-225 273h188l137 -166l179 166h192l-295 -273h-176z" />
<glyph unicode="&#x10d;" horiz-adv-x="897" d="M502 1114l-183 330h162l115 -215l166 215h166l-264 -330h-162zM63 375q0 163 41.5 287t113.5 196t161.5 107.5t193.5 35.5q122 0 285 -32l-41 -146q-143 31 -246 31q-158 0 -250 -116t-92 -339q0 -270 174 -270q105 0 320 117l37 -140q-119 -66 -206.5 -96t-164.5 -30 q-157 0 -241.5 103t-84.5 292z" />
<glyph unicode="&#x10e;" horiz-adv-x="1413" d="M614 1556l-225 273h189l137 -166l178 166h192l-294 -273h-177zM735 1438q275 0 424.5 -135.5t149.5 -421.5q0 -180 -40 -329t-112 -254t-172 -177t-219.5 -106.5t-255.5 -34.5q-234 0 -449 51l175 1407h499zM713 1278h-320l-137 -1112q136 -25 289 -25q123 0 227 44.5 t183 131t124 224t45 313.5q0 424 -411 424z" />
<glyph unicode="&#x10f;" horiz-adv-x="1214" d="M1130 1554l154 19q71 -206 -82 -410h-133q53 67 74.5 134.5t16.5 127t-30 129.5zM1040 1552l-190 -1552h-164l29 231q-217 -251 -391 -251q-125 0 -191.5 106.5t-66.5 280.5q0 161 39.5 285.5t107 199t150 112t176.5 37.5q119 0 262 -57l73 598zM782 791q-129 63 -239 63 q-61 0 -115 -27t-99 -81.5t-71.5 -149t-26.5 -217.5q0 -116 33 -181t98 -65q77 0 182.5 87.5t194.5 225.5z" />
<glyph unicode="&#x110;" horiz-adv-x="1413" d="M735 1438q275 0 424.5 -135.5t149.5 -421.5q0 -180 -40 -329t-112 -254t-172 -177t-219.5 -106.5t-255.5 -34.5q-234 0 -449 51l76 624h-131l29 129h119l82 654h499zM713 1278h-320l-61 -494h305l-29 -129h-293l-59 -489q136 -25 289 -25q123 0 227 44.5t183 131t124 224 t45 313.5q0 424 -411 424z" />
<glyph unicode="&#x111;" horiz-adv-x="1075" d="M1040 1552l-32 -254h137l-29 -129h-123l-143 -1169h-164l29 231q-217 -251 -391 -251q-125 0 -191.5 106.5t-66.5 280.5q0 161 39.5 285.5t107 199t150 112t176.5 37.5q119 0 262 -57l26 225h-313l29 129h301l30 244zM782 791q-129 63 -239 63q-61 0 -115 -27t-99 -81.5 t-71.5 -149t-26.5 -217.5q0 -116 33 -181t98 -65q77 0 182.5 87.5t194.5 225.5z" />
<glyph unicode="&#x112;" horiz-adv-x="1122" d="M416 1706h612l-27 -129h-612zM59 0l177 1438h897l-31 -160h-709l-61 -485h612l-31 -162h-600l-59 -469h721l-31 -162h-885z" />
<glyph unicode="&#x113;" horiz-adv-x="909" d="M719 244l37 -138q-123 -67 -208.5 -96.5t-164.5 -29.5q-155 0 -239.5 103t-84.5 292q0 298 140 462t358 164q122 0 197 -67t75 -164q0 -67 -26.5 -124t-90.5 -112.5t-186.5 -100.5t-298.5 -75q-1 -48 7 -87.5t26 -74t52 -54t81 -19.5q107 0 326 121zM545 858 q-125 0 -211 -99.5t-105 -271.5q439 82 439 271q0 41 -33.5 70.5t-89.5 29.5zM272 1298h602l-28 -129h-602z" />
<glyph unicode="&#x114;" horiz-adv-x="1122" d="M430 1827l127 10q3 -93 43.5 -129.5t110.5 -36.5q67 0 115.5 36.5t74.5 129.5l133 -10q-64 -285 -332 -285q-280 0 -272 285zM59 0l177 1438h897l-31 -160h-709l-61 -485h612l-31 -162h-600l-59 -469h721l-31 -162h-885z" />
<glyph unicode="&#x115;" horiz-adv-x="909" d="M719 244l37 -138q-123 -67 -208.5 -96.5t-164.5 -29.5q-155 0 -239.5 103t-84.5 292q0 298 140 462t358 164q122 0 197 -67t75 -164q0 -67 -26.5 -124t-90.5 -112.5t-186.5 -100.5t-298.5 -75q-1 -48 7 -87.5t26 -74t52 -54t81 -19.5q107 0 326 121zM545 858 q-125 0 -211 -99.5t-105 -271.5q439 82 439 271q0 41 -33.5 70.5t-89.5 29.5zM281 1434l129 12q-11 -110 31.5 -158.5t113.5 -48.5t125 48.5t70 158.5l129 -12q-13 -109 -62.5 -184t-118 -107.5t-151.5 -32.5q-134 0 -209.5 81t-56.5 243z" />
<glyph unicode="&#x116;" horiz-adv-x="1122" d="M725 1782q43 0 69.5 -25.5t26.5 -66.5q0 -50 -36.5 -85.5t-86.5 -35.5q-41 0 -66.5 25t-25.5 65q0 52 35.5 87.5t83.5 35.5zM59 0l177 1438h897l-31 -160h-709l-61 -485h612l-31 -162h-600l-59 -469h721l-31 -162h-885z" />
<glyph unicode="&#x117;" horiz-adv-x="909" d="M719 244l37 -138q-123 -67 -208.5 -96.5t-164.5 -29.5q-155 0 -239.5 103t-84.5 292q0 298 140 462t358 164q122 0 197 -67t75 -164q0 -67 -26.5 -124t-90.5 -112.5t-186.5 -100.5t-298.5 -75q-1 -48 7 -87.5t26 -74t52 -54t81 -19.5q107 0 326 121zM545 858 q-125 0 -211 -99.5t-105 -271.5q439 82 439 271q0 41 -33.5 70.5t-89.5 29.5zM571 1350q42 0 69.5 -25.5t27.5 -64.5q0 -52 -36.5 -87.5t-86.5 -35.5q-41 0 -66.5 25t-25.5 65q0 52 34 87.5t84 35.5z" />
<glyph unicode="&#x118;" horiz-adv-x="1122" d="M59 0l177 1438h897l-31 -160h-709l-61 -485h612l-31 -162h-600l-59 -469h721l-31 -162q-90 -45 -141 -108t-51 -123q0 -38 25 -61t75 -23q25 0 86 14l4 -121q-64 -20 -125 -20q-104 0 -156.5 51t-52.5 131q0 144 156 260h-705z" />
<glyph unicode="&#x119;" horiz-adv-x="909" d="M719 244l37 -138q-217 -158 -217 -317q0 -104 104 -104q25 0 86 14l2 -121q-61 -20 -121 -20q-105 0 -159 51.5t-54 142.5q0 125 97 242q-68 -14 -111 -14q-155 0 -239.5 103t-84.5 292q0 298 140 462t358 164q122 0 197 -67t75 -164q0 -67 -26.5 -124t-90.5 -112.5 t-186.5 -100.5t-298.5 -75q-1 -48 7 -87.5t26 -74t52 -54t81 -19.5q107 0 326 121zM545 858q-125 0 -211 -99.5t-105 -271.5q439 82 439 271q0 41 -33.5 70.5t-89.5 29.5z" />
<glyph unicode="&#x11a;" horiz-adv-x="1122" d="M608 1556l-225 273h188l138 -166l178 166h192l-295 -273h-176zM59 0l177 1438h897l-31 -160h-709l-61 -485h612l-31 -162h-600l-59 -469h721l-31 -162h-885z" />
<glyph unicode="&#x11b;" horiz-adv-x="909" d="M457 1114l-183 330h162l115 -215l166 215h166l-265 -330h-161zM719 244l37 -138q-123 -67 -208.5 -96.5t-164.5 -29.5q-155 0 -239.5 103t-84.5 292q0 298 140 462t358 164q122 0 197 -67t75 -164q0 -67 -26.5 -124t-90.5 -112.5t-186.5 -100.5t-298.5 -75 q-1 -48 7 -87.5t26 -74t52 -54t81 -19.5q107 0 326 121zM545 858q-125 0 -211 -99.5t-105 -271.5q439 82 439 271q0 41 -33.5 70.5t-89.5 29.5z" />
<glyph unicode="&#x11c;" horiz-adv-x="1378" d="M866 1298q-90 0 -170 -23t-154 -77t-127 -135t-84.5 -205t-31.5 -280q0 -437 420 -437q142 0 282 47l46 377h-351l33 162h516l-82 -657q-256 -90 -475 -90q-129 0 -231.5 32t-179.5 99.5t-118.5 180.5t-41.5 265q0 195 42.5 350.5t114.5 257t171 169t206.5 96t227.5 28.5 q200 0 389 -69l-54 -160q-181 69 -348 69zM1004 1829l225 -273h-189l-137 164l-176 -164h-192l292 273h177z" />
<glyph unicode="&#x11d;" horiz-adv-x="1083" d="M731 1444l182 -330h-161l-115 215l-166 -215h-166l264 330h162zM793 791q-129 63 -240 63q-61 0 -115 -27t-98.5 -81.5t-71 -149t-26.5 -217.5q0 -117 32 -181.5t97 -64.5q76 0 182 87.5t197 225.5zM694 -23l29 254q-217 -251 -389 -251q-126 0 -193 106.5t-67 280.5 q0 155 37 277t103 199.5t153.5 117.5t191.5 40q165 0 410 -108l-111 -907q-12 -100 -57.5 -182.5t-111.5 -135.5t-146 -81.5t-164 -28.5q-174 0 -361 71l41 148q197 -72 338 -72q108 0 195.5 75.5t101.5 196.5z" />
<glyph unicode="&#x11e;" horiz-adv-x="1378" d="M616 1827l127 10q3 -93 43.5 -129.5t110.5 -36.5q67 0 115.5 36.5t74.5 129.5l134 -10q-64 -285 -332 -285q-281 0 -273 285zM866 1298q-90 0 -170 -23t-154 -77t-127 -135t-84.5 -205t-31.5 -280q0 -437 420 -437q142 0 282 47l46 377h-351l33 162h516l-82 -657 q-256 -90 -475 -90q-129 0 -231.5 32t-179.5 99.5t-118.5 180.5t-41.5 265q0 195 42.5 350.5t114.5 257t171 169t206.5 96t227.5 28.5q200 0 389 -69l-54 -160q-181 69 -348 69z" />
<glyph unicode="&#x11f;" horiz-adv-x="1083" d="M793 791q-129 63 -240 63q-61 0 -115 -27t-98.5 -81.5t-71 -149t-26.5 -217.5q0 -117 32 -181.5t97 -64.5q76 0 182 87.5t197 225.5zM694 -23l29 254q-217 -251 -389 -251q-126 0 -193 106.5t-67 280.5q0 155 37 277t103 199.5t153.5 117.5t191.5 40q165 0 410 -108 l-111 -907q-12 -100 -57.5 -182.5t-111.5 -135.5t-146 -81.5t-164 -28.5q-174 0 -361 71l41 148q197 -72 338 -72q108 0 195.5 75.5t101.5 196.5zM342 1434l129 12q-11 -110 31.5 -158.5t113.5 -48.5t125 48.5t70 158.5l129 -12q-13 -109 -62.5 -184t-118 -107.5 t-151.5 -32.5q-134 0 -209.5 81t-56.5 243z" />
<glyph unicode="&#x120;" horiz-adv-x="1378" d="M909 1782q43 0 70 -25.5t27 -66.5q0 -50 -36.5 -85.5t-86.5 -35.5q-41 0 -66.5 25t-25.5 65q0 52 35 87.5t83 35.5zM866 1298q-90 0 -170 -23t-154 -77t-127 -135t-84.5 -205t-31.5 -280q0 -437 420 -437q142 0 282 47l46 377h-351l33 162h516l-82 -657 q-256 -90 -475 -90q-129 0 -231.5 32t-179.5 99.5t-118.5 180.5t-41.5 265q0 195 42.5 350.5t114.5 257t171 169t206.5 96t227.5 28.5q200 0 389 -69l-54 -160q-181 69 -348 69z" />
<glyph unicode="&#x121;" horiz-adv-x="1083" d="M793 791q-129 63 -240 63q-61 0 -115 -27t-98.5 -81.5t-71 -149t-26.5 -217.5q0 -117 32 -181.5t97 -64.5q76 0 182 87.5t197 225.5zM694 -23l29 254q-217 -251 -389 -251q-126 0 -193 106.5t-67 280.5q0 155 37 277t103 199.5t153.5 117.5t191.5 40q165 0 410 -108 l-111 -907q-12 -100 -57.5 -182.5t-111.5 -135.5t-146 -81.5t-164 -28.5q-174 0 -361 71l41 148q197 -72 338 -72q108 0 195.5 75.5t101.5 196.5zM621 1350q42 0 69 -25.5t27 -64.5q0 -52 -36.5 -87.5t-86.5 -35.5q-41 0 -66.5 25t-25.5 65q0 52 34.5 87.5t84.5 35.5z" />
<glyph unicode="&#x122;" horiz-adv-x="1378" d="M586 -154l157 19q44 -73 25 -156.5t-92 -150.5l-133 8q132 132 43 280zM866 1298q-90 0 -170 -23t-154 -77t-127 -135t-84.5 -205t-31.5 -280q0 -437 420 -437q142 0 282 47l46 377h-351l33 162h516l-82 -657q-256 -90 -475 -90q-129 0 -231.5 32t-179.5 99.5 t-118.5 180.5t-41.5 265q0 195 42.5 350.5t114.5 257t171 169t206.5 96t227.5 28.5q200 0 389 -69l-54 -160q-181 69 -348 69z" />
<glyph unicode="&#x123;" horiz-adv-x="1083" d="M692 1153l-157 -18q-44 73 -25 156.5t92 150.5l133 -8q-133 -133 -43 -281zM793 791q-129 63 -240 63q-61 0 -115 -27t-98.5 -81.5t-71 -149t-26.5 -217.5q0 -117 32 -181.5t97 -64.5q76 0 182 87.5t197 225.5zM694 -23l29 254q-217 -251 -389 -251q-126 0 -193 106.5 t-67 280.5q0 155 37 277t103 199.5t153.5 117.5t191.5 40q165 0 410 -108l-111 -907q-12 -100 -57.5 -182.5t-111.5 -135.5t-146 -81.5t-164 -28.5q-174 0 -361 71l41 148q197 -72 338 -72q108 0 195.5 75.5t101.5 196.5z" />
<glyph unicode="&#x124;" horiz-adv-x="1353" d="M236 1438h176l-80 -645h717l79 645h179l-177 -1438h-178l78 631h-717l-77 -631h-177zM907 1829l226 -273h-189l-137 164l-176 -164h-193l293 273h176z" />
<glyph unicode="&#x125;" d="M709 0l79 659q23 187 -114 187q-76 0 -181.5 -83.5t-205.5 -227.5l-64 -535h-164l189 1542l166 10l-99 -802q220 251 406 251q274 0 235 -325l-84 -676h-163zM461 1874l225 -272h-188l-138 163l-176 -163h-192l293 272h176z" />
<glyph unicode="&#x126;" horiz-adv-x="1353" d="M236 1438h176l-33 -262h717l32 262h179l-33 -262h133l-27 -129h-123l-127 -1047h-178l78 631h-717l-77 -631h-177l127 1047h-133l27 129h123zM332 793h717l30 254h-717z" />
<glyph unicode="&#x127;" d="M96 1298h121l31 244l166 10l-33 -254h317l-28 -129h-303l-52 -419q220 251 406 251q274 0 235 -325l-84 -676h-163l79 659q23 187 -114 187q-76 0 -181.5 -83.5t-205.5 -227.5l-64 -535h-164l144 1169h-135z" />
<glyph unicode="&#x128;" horiz-adv-x="458" d="M236 1438h176l-176 -1438h-177zM2 1559q23 93 86 149.5t137 56.5q51 0 91 -18t61 -40t49 -40t59 -18q29 0 54.5 25.5t40.5 68.5l118 -23q-24 -91 -86.5 -146.5t-134.5 -55.5q-51 0 -91.5 18t-61.5 39t-50.5 39t-60.5 18q-28 0 -52.5 -25t-39.5 -69z" />
<glyph unicode="&#x129;" horiz-adv-x="446" d="M176 975l168 10l-121 -985h-164zM-35 1178q24 93 86.5 149.5t136.5 56.5q41 0 77.5 -18t57.5 -39t46 -39t45 -18q57 0 94 94l119 -25q-24 -90 -87 -146t-134 -56q-41 0 -77.5 18t-58.5 39t-47 39t-45 18q-29 0 -54 -25t-40 -69z" />
<glyph unicode="&#x12a;" horiz-adv-x="458" d="M236 1438h176l-176 -1438h-177zM57 1706h613l-27 -129h-612z" />
<glyph unicode="&#x12b;" horiz-adv-x="446" d="M176 975l168 10l-121 -985h-164zM6 1298h602l-28 -129h-603z" />
<glyph unicode="&#x12c;" horiz-adv-x="458" d="M236 1438h176l-176 -1438h-177zM63 1827l127 10q3 -93 43.5 -129.5t110.5 -36.5q145 0 191 166l133 -10q-64 -285 -332 -285q-281 0 -273 285z" />
<glyph unicode="&#x12d;" horiz-adv-x="446" d="M176 975l168 10l-121 -985h-164zM16 1434l129 12q-11 -110 32 -158.5t114 -48.5t124.5 48t69.5 159l129 -12q-13 -109 -62.5 -184t-117.5 -107.5t-151 -32.5q-134 0 -210 81t-57 243z" />
<glyph unicode="&#x12e;" horiz-adv-x="458" d="M231 -301l5 -121q-64 -20 -125 -20q-104 0 -156.5 51t-52.5 131q0 143 157 260l177 1438h176l-176 -1438h2q-90 -45 -141.5 -108t-51.5 -123q0 -38 25 -61t75 -23q25 0 86 14z" />
<glyph unicode="&#x12f;" horiz-adv-x="446" d="M217 -301l4 -121q-64 -20 -125 -20q-104 0 -156.5 51t-52.5 131q0 73 44 143.5t128 128.5l117 963l168 10l-121 -985q-90 -45 -141 -108t-51 -123q0 -38 25 -61t75 -23q25 0 86 14zM305 1350q42 0 69 -25.5t27 -64.5q0 -52 -36 -87.5t-86 -35.5q-41 0 -67 25t-26 65 q0 52 34.5 87.5t84.5 35.5z" />
<glyph unicode="&#x130;" horiz-adv-x="458" d="M236 1438h176l-176 -1438h-177zM365 1782q43 0 69.5 -25.5t26.5 -66.5q0 -50 -36.5 -85.5t-86.5 -35.5q-41 0 -66.5 25t-25.5 65q0 52 35.5 87.5t83.5 35.5z" />
<glyph unicode="&#x131;" horiz-adv-x="446" d="M176 975l168 10l-121 -985h-164z" />
<glyph unicode="&#x132;" horiz-adv-x="954" d="M236 1438h176l-176 -1438h-177zM729 1438h176l-149 -1231q-14 -113 -56 -203t-111.5 -166t-180.5 -157l-119 106q132 101 203.5 199.5t85.5 222.5z" />
<glyph unicode="&#x133;" horiz-adv-x="942" d="M176 975l168 10l-121 -985h-164zM305 1350q42 0 69 -25.5t27 -64.5q0 -52 -36 -87.5t-86 -35.5q-41 0 -67 25t-26 65q0 52 34.5 87.5t84.5 35.5zM674 975l166 10l-115 -930q-20 -157 -95.5 -269t-230.5 -228l-110 98q125 95 192 188.5t80 212.5zM801 1350q43 0 69.5 -25 t26.5 -65q0 -52 -35.5 -87.5t-85.5 -35.5q-42 0 -68 25t-26 65q0 52 35.5 87.5t83.5 35.5z" />
<glyph unicode="&#x134;" horiz-adv-x="509" d="M287 1438h176l-150 -1231q-14 -113 -56 -203t-111.5 -166t-180.5 -157l-119 106q132 101 203.5 199.5t85.5 222.5zM530 1829l226 -273h-189l-137 164l-176 -164h-193l293 273h176z" />
<glyph unicode="&#x135;" horiz-adv-x="512" d="M244 975l166 10l-115 -930q-20 -157 -95.5 -269t-230.5 -228l-110 98q125 95 192 188.5t80 212.5zM475 1444l182 -330h-161l-115 215l-166 -215h-166l264 330h162z" />
<glyph unicode="&#x136;" horiz-adv-x="1208" d="M397 -154l158 19q43 -73 24 -156.5t-92 -150.5l-133 8q132 132 43 280zM862 -6l-545 674l-81 -668h-177l177 1438h176l-82 -668l696 674l215 -12l-743 -711l581 -715z" />
<glyph unicode="&#x137;" horiz-adv-x="989" d="M285 -154l157 19q44 -73 25 -156.5t-92 -150.5l-133 8q132 132 43 280zM686 -6l-407 465l-56 -459h-164l189 1542l166 10l-123 -991l465 424l205 -10l-515 -463l445 -506z" />
<glyph unicode="&#x138;" horiz-adv-x="989" d="M686 -6l-407 465l-56 -459h-164l117 975l168 10l-53 -424l465 424l205 -10l-515 -463l445 -506z" />
<glyph unicode="&#x139;" horiz-adv-x="1060" d="M510 1829h231l-309 -273h-184zM236 1438h176l-158 -1276h680l-31 -162h-844z" />
<glyph unicode="&#x13a;" horiz-adv-x="583" d="M516 1874h232l-310 -272h-184zM248 1542l166 10l-162 -1306q-12 -93 44.5 -111t201.5 25l-2 -142q-132 -38 -224 -38q-101 0 -151.5 58.5t-34.5 188.5z" />
<glyph unicode="&#x13b;" horiz-adv-x="1060" d="M373 -154l157 19q44 -73 25 -156.5t-92 -150.5l-133 8q132 132 43 280zM236 1438h176l-158 -1276h680l-31 -162h-844z" />
<glyph unicode="&#x13c;" horiz-adv-x="583" d="M127 -154l158 19q43 -73 24 -156.5t-92 -150.5l-133 8q132 132 43 280zM248 1542l166 10l-162 -1306q-12 -93 44.5 -111t201.5 25l-2 -142q-132 -38 -224 -38q-101 0 -151.5 58.5t-34.5 188.5z" />
<glyph unicode="&#x13d;" horiz-adv-x="1060" d="M563 1554l154 19q71 -206 -82 -410h-133q53 67 74.5 134.5t16.5 127t-30 129.5zM236 1438h176l-158 -1276h680l-31 -162h-844z" />
<glyph unicode="&#x13e;" horiz-adv-x="583" d="M500 1554l153 19q71 -206 -82 -410h-133q53 67 74.5 134.5t17 127t-29.5 129.5zM248 1542l166 10l-162 -1306q-12 -93 44.5 -111t201.5 25l-2 -142q-132 -38 -224 -38q-101 0 -151.5 58.5t-34.5 188.5z" />
<glyph unicode="&#x13f;" horiz-adv-x="1060" d="M236 1438h176l-158 -1276h680l-31 -162h-844zM768 864q42 0 69 -25.5t27 -64.5q0 -52 -36.5 -87.5t-86.5 -35.5q-41 0 -66.5 25t-25.5 65q0 52 34.5 87.5t84.5 35.5z" />
<glyph unicode="&#x140;" horiz-adv-x="653" d="M248 1542l166 10l-162 -1306q-12 -93 44.5 -111t201.5 25l-2 -142q-132 -38 -224 -38q-101 0 -151.5 58.5t-34.5 188.5zM580 866q42 0 69 -25.5t27 -64.5q0 -52 -36.5 -87.5t-86.5 -35.5q-41 0 -66.5 25t-25.5 65q0 52 34.5 87.5t84.5 35.5z" />
<glyph unicode="&#x141;" horiz-adv-x="1060" d="M236 1438h176l-88 -709l489 180l-8 -155l-502 -185l-49 -407h680l-31 -162h-844l62 502l-139 -51l6 155l151 56z" />
<glyph unicode="&#x142;" horiz-adv-x="634" d="M289 1542l166 10l-99 -784l211 111l-8 -160l-223 -117l-43 -356q-12 -93 44.5 -111t201.5 25l-2 -142q-132 -38 -224 -38q-101 0 -151.5 58.5t-34.5 188.5l35 283l-174 -90l8 160l186 96z" />
<glyph unicode="&#x143;" horiz-adv-x="1353" d="M883 1829h231l-309 -273h-184zM373 1139l-140 -1139h-174l174 1432l173 12l587 -1145l140 1139h174l-177 -1432l-172 -12z" />
<glyph unicode="&#x144;" d="M657 1444h191l-246 -330h-153zM709 0l79 659q23 187 -114 187q-76 0 -181.5 -83.5t-205.5 -227.5l-64 -535h-164l117 975l168 10l-29 -235q220 251 406 251q274 0 235 -325l-84 -676h-163z" />
<glyph unicode="&#x145;" horiz-adv-x="1353" d="M471 -154l158 19q43 -73 24 -156.5t-92 -150.5l-133 8q132 132 43 280zM373 1139l-140 -1139h-174l174 1432l173 12l587 -1145l140 1139h174l-177 -1432l-172 -12z" />
<glyph unicode="&#x146;" d="M338 -154l158 19q43 -73 24 -156.5t-92 -150.5l-133 8q132 132 43 280zM709 0l79 659q23 187 -114 187q-76 0 -181.5 -83.5t-205.5 -227.5l-64 -535h-164l117 975l168 10l-29 -235q220 251 406 251q274 0 235 -325l-84 -676h-163z" />
<glyph unicode="&#x147;" horiz-adv-x="1353" d="M694 1556l-225 273h188l138 -166l178 166h192l-295 -273h-176zM373 1139l-140 -1139h-174l174 1432l173 12l587 -1145l140 1139h174l-177 -1432l-172 -12z" />
<glyph unicode="&#x148;" d="M520 1114l-182 330h162l114 -215l166 215h166l-264 -330h-162zM709 0l79 659q23 187 -114 187q-76 0 -181.5 -83.5t-205.5 -227.5l-64 -535h-164l117 975l168 10l-29 -235q220 251 406 251q274 0 235 -325l-84 -676h-163z" />
<glyph unicode="&#x149;" d="M209 1430l158 18q43 -73 24 -156.5t-92 -150.5l-133 8q133 133 43 281zM709 0l79 659q23 187 -114 187q-76 0 -181.5 -83.5t-205.5 -227.5l-64 -535h-164l117 975l168 10l-29 -235q220 251 406 251q274 0 235 -325l-84 -676h-163z" />
<glyph unicode="&#x14a;" horiz-adv-x="1353" d="M948 18l-575 1121l-140 -1139h-174l174 1432l173 12l587 -1145l140 1139h174l-166 -1350q-21 -168 -101.5 -288t-244.5 -242l-121 106q112 85 180 169.5t94 184.5z" />
<glyph unicode="&#x14b;" d="M287 535l-64 -535h-164l117 975l168 10l-29 -235q220 251 406 251q274 0 235 -325l-75 -621q-21 -157 -97 -269t-231 -228l-111 98q125 94 193 187.5t82 213.5l71 602q23 187 -114 187q-76 0 -181.5 -83.5t-205.5 -227.5z" />
<glyph unicode="&#x14c;" horiz-adv-x="1533" d="M594 1706h612l-26 -129h-613zM686 141q122 0 224.5 47.5t177.5 138.5t117 232.5t42 321.5q0 202 -104.5 309.5t-286.5 107.5q-122 0 -224.5 -47.5t-177.5 -138.5t-117 -232.5t-42 -320.5q0 -203 104.5 -310.5t286.5 -107.5zM680 -20q-262 0 -414.5 146.5t-152.5 428.5 q0 216 55.5 388t155 284t236.5 171.5t302 59.5q262 0 415 -146.5t153 -428.5q0 -216 -55 -388t-155 -284t-237 -171.5t-303 -59.5z" />
<glyph unicode="&#x14d;" horiz-adv-x="1052" d="M334 1298h602l-29 -129h-602zM451 127q142 0 238.5 132.5t96.5 332.5q0 129 -60.5 195.5t-164.5 66.5q-142 0 -239 -133.5t-97 -331.5q0 -129 61 -195.5t165 -66.5zM440 -20q-178 0 -279.5 103.5t-101.5 299.5q0 268 146 443t366 175q178 0 279.5 -103.5t101.5 -299.5 q0 -268 -146 -443t-366 -175z" />
<glyph unicode="&#x14e;" horiz-adv-x="1533" d="M606 1827l127 10q3 -93 43.5 -129.5t110.5 -36.5q67 0 115.5 36.5t74.5 129.5l133 -10q-64 -285 -331 -285q-281 0 -273 285zM686 141q122 0 224.5 47.5t177.5 138.5t117 232.5t42 321.5q0 202 -104.5 309.5t-286.5 107.5q-122 0 -224.5 -47.5t-177.5 -138.5t-117 -232.5 t-42 -320.5q0 -203 104.5 -310.5t286.5 -107.5zM680 -20q-262 0 -414.5 146.5t-152.5 428.5q0 216 55.5 388t155 284t236.5 171.5t302 59.5q262 0 415 -146.5t153 -428.5q0 -216 -55 -388t-155 -284t-237 -171.5t-303 -59.5z" />
<glyph unicode="&#x14f;" horiz-adv-x="1052" d="M451 127q142 0 238.5 132.5t96.5 332.5q0 129 -60.5 195.5t-164.5 66.5q-142 0 -239 -133.5t-97 -331.5q0 -129 61 -195.5t165 -66.5zM440 -20q-178 0 -279.5 103.5t-101.5 299.5q0 268 146 443t366 175q178 0 279.5 -103.5t101.5 -299.5q0 -268 -146 -443t-366 -175z M342 1434l129 12q-11 -110 31.5 -158.5t113.5 -48.5t125 48.5t70 158.5l129 -12q-13 -109 -62.5 -184t-118 -107.5t-151.5 -32.5q-134 0 -209.5 81t-56.5 243z" />
<glyph unicode="&#x150;" horiz-adv-x="1533" d="M686 141q122 0 224.5 47.5t177.5 138.5t117 232.5t42 321.5q0 202 -104.5 309.5t-286.5 107.5q-122 0 -224.5 -47.5t-177.5 -138.5t-117 -232.5t-42 -320.5q0 -203 104.5 -310.5t286.5 -107.5zM680 -20q-262 0 -414.5 146.5t-152.5 428.5q0 216 55.5 388t155 284 t236.5 171.5t302 59.5q262 0 415 -146.5t153 -428.5q0 -216 -55 -388t-155 -284t-237 -171.5t-303 -59.5zM786 1829h203l-295 -273h-153zM1169 1829h207l-295 -273h-157z" />
<glyph unicode="&#x151;" horiz-adv-x="1052" d="M506 1444h180l-235 -330h-144zM854 1444h180l-235 -330h-144zM451 127q142 0 238.5 132.5t96.5 332.5q0 129 -60.5 195.5t-164.5 66.5q-142 0 -239 -133.5t-97 -331.5q0 -129 61 -195.5t165 -66.5zM440 -20q-178 0 -279.5 103.5t-101.5 299.5q0 268 146 443t366 175 q178 0 279.5 -103.5t101.5 -299.5q0 -268 -146 -443t-366 -175z" />
<glyph unicode="&#x152;" horiz-adv-x="2213" d="M1151 0l27 225q-92 -120 -225 -182.5t-294 -62.5q-252 0 -399 146.5t-147 428.5q0 216 53.5 388t149.5 284t228 171.5t292 59.5q333 0 462 -252l29 232h897l-33 -160h-708l-60 -485h613l-31 -162h-602l-57 -469h718l-28 -162h-885zM686 141q122 0 224.5 47.5t177.5 138.5 t117 232.5t42 321.5q0 202 -104.5 309.5t-286.5 107.5q-122 0 -224.5 -47.5t-177.5 -138.5t-117 -232.5t-42 -320.5q0 -203 104.5 -310.5t286.5 -107.5z" />
<glyph unicode="&#x153;" horiz-adv-x="1626" d="M1436 244l37 -138q-123 -67 -208.5 -96.5t-164.5 -29.5q-215 0 -281 210q-65 -99 -164 -154.5t-215 -55.5q-178 0 -279.5 103.5t-101.5 299.5q0 268 146 443t366 175q120 0 205.5 -51t124.5 -151q65 98 160.5 150t212.5 52q122 0 197 -67t75 -164q0 -67 -26.5 -124 t-90.5 -112.5t-186.5 -100.5t-298.5 -75q-1 -48 7 -87.5t26 -74t52 -54t81 -19.5q107 0 326 121zM451 127q142 0 238.5 132.5t96.5 332.5q0 129 -60.5 195.5t-164.5 66.5q-142 0 -239 -133.5t-97 -331.5q0 -129 61 -195.5t165 -66.5zM1262 858q-125 0 -211 -99.5 t-105 -271.5q438 82 438 271q0 41 -33 70.5t-89 29.5z" />
<glyph unicode="&#x154;" horiz-adv-x="1239" d="M301 547l-65 -547h-177l177 1438h385q503 0 503 -371q0 -176 -83 -297t-228 -182l274 -582l-200 -12l-248 547q-65 -9 -131 -9q-54 0 -207 15zM393 1282l-71 -577q139 -17 196 -17q91 0 167.5 21t136 63.5t93 112t33.5 159.5q0 124 -89.5 181t-268.5 57h-197zM727 1829 h231l-309 -273h-184z" />
<glyph unicode="&#x155;" horiz-adv-x="753" d="M506 1444h190l-245 -330h-154zM772 979l-41 -164q-87 25 -129 25q-131 0 -311 -293l-68 -547h-164l117 975l168 10l-29 -213q90 119 164 174t154 55q44 0 139 -22z" />
<glyph unicode="&#x156;" horiz-adv-x="1239" d="M383 -154l158 19q43 -73 24 -156.5t-92 -150.5l-133 8q132 132 43 280zM301 547l-65 -547h-177l177 1438h385q503 0 503 -371q0 -176 -83 -297t-228 -182l274 -582l-200 -12l-248 547q-65 -9 -131 -9q-54 0 -207 15zM393 1282l-71 -577q139 -17 196 -17q91 0 167.5 21 t136 63.5t93 112t33.5 159.5q0 124 -89.5 181t-268.5 57h-197z" />
<glyph unicode="&#x157;" horiz-adv-x="753" d="M35 -154l158 19q43 -73 24 -156.5t-92 -150.5l-133 8q132 132 43 280zM772 979l-41 -164q-87 25 -129 25q-131 0 -311 -293l-68 -547h-164l117 975l168 10l-29 -213q90 119 164 174t154 55q44 0 139 -22z" />
<glyph unicode="&#x158;" horiz-adv-x="1239" d="M592 1556l-225 273h188l137 -166l178 166h193l-295 -273h-176zM301 547l-65 -547h-177l177 1438h385q503 0 503 -371q0 -176 -83 -297t-228 -182l274 -582l-200 -12l-248 547q-65 -9 -131 -9q-54 0 -207 15zM393 1282l-71 -577q139 -17 196 -17q91 0 167.5 21t136 63.5 t93 112t33.5 159.5q0 124 -89.5 181t-268.5 57h-197z" />
<glyph unicode="&#x159;" horiz-adv-x="753" d="M352 1114l-182 330h162l114 -215l166 215h166l-264 -330h-162zM772 979l-41 -164q-87 25 -129 25q-131 0 -311 -293l-68 -547h-164l117 975l168 10l-29 -213q90 119 164 174t154 55q44 0 139 -22z" />
<glyph unicode="&#x15a;" horiz-adv-x="1142" d="M68 61l53 160q84 -37 186 -58.5t195 -21.5q89 0 161.5 28t120.5 91t47 152q-1 50 -38.5 91t-97 71.5t-131 60.5t-143 65.5t-130.5 78.5t-96 107.5t-37 143.5q0 204 148 316t382 112q214 0 397 -80l-53 -159q-78 37 -179.5 58t-197.5 21q-133 0 -224.5 -65.5t-90.5 -190.5 q0 -50 37.5 -91t97 -71t131.5 -60t143.5 -65.5t131 -78.5t96.5 -107.5t37 -144.5q0 -144 -74.5 -246t-196 -150t-276.5 -48q-214 0 -399 81zM758 1829h231l-309 -273h-184z" />
<glyph unicode="&#x15b;" horiz-adv-x="878" d="M547 1444h190l-245 -330h-154zM55 39l41 141q56 -26 131 -41.5t140 -15.5q85 0 143 39t57 123q0 32 -25 58t-64.5 44.5t-87 37.5t-95 42t-86.5 52t-63.5 74.5t-24.5 102.5q0 151 101.5 228t264.5 77q161 0 291 -59l-39 -141q-55 25 -128.5 41t-137.5 16 q-80 0 -133.5 -35.5t-52.5 -111.5q0 -32 25 -57.5t64 -44.5t86.5 -38t94.5 -42.5t86 -53t63.5 -75.5t24.5 -103q0 -155 -104.5 -236t-272.5 -81q-169 0 -299 59z" />
<glyph unicode="&#x15c;" horiz-adv-x="1142" d="M68 61l53 160q84 -37 186 -58.5t195 -21.5q89 0 161.5 28t120.5 91t47 152q-1 50 -38.5 91t-97 71.5t-131 60.5t-143 65.5t-130.5 78.5t-96 107.5t-37 143.5q0 204 148 316t382 112q214 0 397 -80l-53 -159q-78 37 -179.5 58t-197.5 21q-133 0 -224.5 -65.5t-90.5 -190.5 q0 -50 37.5 -91t97 -71t131.5 -60t143.5 -65.5t131 -78.5t96.5 -107.5t37 -144.5q0 -144 -74.5 -246t-196 -150t-276.5 -48q-214 0 -399 81zM801 1829l225 -273h-188l-138 164l-176 -164h-192l293 273h176z" />
<glyph unicode="&#x15d;" horiz-adv-x="878" d="M598 1444l182 -330h-162l-114 215l-166 -215h-166l264 330h162zM55 39l41 141q56 -26 131 -41.5t140 -15.5q85 0 143 39t57 123q0 32 -25 58t-64.5 44.5t-87 37.5t-95 42t-86.5 52t-63.5 74.5t-24.5 102.5q0 151 101.5 228t264.5 77q161 0 291 -59l-39 -141 q-55 25 -128.5 41t-137.5 16q-80 0 -133.5 -35.5t-52.5 -111.5q0 -32 25 -57.5t64 -44.5t86.5 -38t94.5 -42.5t86 -53t63.5 -75.5t24.5 -103q0 -155 -104.5 -236t-272.5 -81q-169 0 -299 59z" />
<glyph unicode="&#x15e;" horiz-adv-x="1142" d="M68 61l53 160q84 -37 186 -58.5t195 -21.5q89 0 161.5 28t120.5 91t47 152q-1 50 -38.5 91t-97 71.5t-131 60.5t-143 65.5t-130.5 78.5t-96 107.5t-37 143.5q0 204 148 316t382 112q214 0 397 -80l-53 -159q-78 37 -179.5 58t-197.5 21q-133 0 -224.5 -65.5t-90.5 -190.5 q0 -50 37.5 -91t97 -71t131.5 -60t143.5 -65.5t131 -78.5t96.5 -107.5t37 -144.5q0 -127 -58.5 -221.5t-156 -146.5t-226.5 -68l-65 -90q78 9 125 -29t47 -109q0 -94 -72 -148t-182 -54q-76 0 -143 22l34 109q59 -23 117 -23q52 0 82.5 20t30.5 58q0 55 -68 55 q-25 0 -65 -12l-56 80l74 113q-195 6 -364 81z" />
<glyph unicode="&#x15f;" horiz-adv-x="878" d="M55 39l41 141q56 -26 131 -41.5t140 -15.5q85 0 143 39t57 123q0 32 -25 58t-64.5 44.5t-87 37.5t-95 42t-86.5 52t-63.5 74.5t-24.5 102.5q0 151 101.5 228t264.5 77q161 0 291 -59l-39 -141q-55 25 -128.5 41t-137.5 16q-80 0 -133.5 -35.5t-52.5 -111.5 q0 -32 25 -57.5t64 -44.5t86.5 -38t94.5 -42.5t86 -53t63.5 -75.5t24.5 -103q0 -140 -85 -219.5t-226 -93.5l-64 -86q78 9 125 -29t47 -109q0 -94 -72 -148t-182 -54q-76 0 -143 22l35 109q59 -23 117 -23q51 0 81.5 19.5t30.5 58.5q0 55 -67 55q-26 0 -66 -12l-55 80 l76 117q-132 10 -228 55z" />
<glyph unicode="&#x160;" horiz-adv-x="1142" d="M68 61l53 160q84 -37 186 -58.5t195 -21.5q89 0 161.5 28t120.5 91t47 152q-1 50 -38.5 91t-97 71.5t-131 60.5t-143 65.5t-130.5 78.5t-96 107.5t-37 143.5q0 204 148 316t382 112q214 0 397 -80l-53 -159q-78 37 -179.5 58t-197.5 21q-133 0 -224.5 -65.5t-90.5 -190.5 q0 -50 37.5 -91t97 -71t131.5 -60t143.5 -65.5t131 -78.5t96.5 -107.5t37 -144.5q0 -144 -74.5 -246t-196 -150t-276.5 -48q-214 0 -399 81zM590 1556l-225 273h188l137 -166l178 166h193l-295 -273h-176z" />
<glyph unicode="&#x161;" horiz-adv-x="878" d="M391 1114l-182 330h162l114 -215l166 215h166l-264 -330h-162zM55 39l41 141q56 -26 131 -41.5t140 -15.5q85 0 143 39t57 123q0 32 -25 58t-64.5 44.5t-87 37.5t-95 42t-86.5 52t-63.5 74.5t-24.5 102.5q0 151 101.5 228t264.5 77q161 0 291 -59l-39 -141 q-55 25 -128.5 41t-137.5 16q-80 0 -133.5 -35.5t-52.5 -111.5q0 -32 25 -57.5t64 -44.5t86.5 -38t94.5 -42.5t86 -53t63.5 -75.5t24.5 -103q0 -155 -104.5 -236t-272.5 -81q-169 0 -299 59z" />
<glyph unicode="&#x162;" horiz-adv-x="1140" d="M557 1278h-469l31 160h1104l-31 -160h-459l-155 -1278h-15l-76 -102q78 9 125 -29t47 -109q0 -94 -71.5 -148t-181.5 -54q-77 0 -144 22l35 109q59 -23 117 -23q51 0 81.5 19.5t30.5 58.5q0 55 -67 55q-25 0 -66 -12l-55 80l86 133h-25z" />
<glyph unicode="&#x163;" horiz-adv-x="772" d="M152 229l73 605h-162l29 147h152l37 305l165 10l-38 -315h301l-29 -147h-291l-72 -592q-11 -95 32 -107q61 -16 253 109l39 -138q-172 -109 -274 -124l-64 -84q78 9 125 -29t47 -109q0 -94 -72 -148t-182 -54q-76 0 -143 22l35 109q59 -23 116 -23q52 0 82.5 20t30.5 58 q0 55 -68 55q-24 0 -65 -12l-55 80l86 133q-107 51 -88 229z" />
<glyph unicode="&#x164;" horiz-adv-x="1140" d="M588 1556l-226 273h189l137 -166l178 166h193l-295 -273h-176zM557 1278h-469l31 160h1104l-31 -160h-459l-155 -1278h-179z" />
<glyph unicode="&#x165;" horiz-adv-x="772" d="M565 1554l154 19q71 -206 -82 -410h-133q53 67 74.5 134.5t16.5 127t-30 129.5zM152 229l73 605h-162l29 147h152l37 305l165 10l-38 -315h301l-29 -147h-291l-72 -592q-11 -95 32 -107q61 -16 253 109l39 -138q-199 -126 -305 -126q-93 0 -145.5 57t-38.5 192z" />
<glyph unicode="&#x166;" horiz-adv-x="1140" d="M557 1278h-469l31 160h1104l-31 -160h-459l-65 -524h223l-27 -129h-211l-75 -625h-179l76 625h-223l27 129h213z" />
<glyph unicode="&#x167;" horiz-adv-x="772" d="M152 229l28 232h-157l28 129h144l30 244h-162l29 147h152l37 305l165 10l-38 -315h301l-29 -147h-291l-31 -244h295l-28 -129h-281l-27 -219q-11 -95 32 -107q61 -16 253 109l39 -138q-199 -126 -305 -126q-93 0 -145.5 57t-38.5 192z" />
<glyph unicode="&#x168;" horiz-adv-x="1353" d="M446 1559q23 93 86.5 149.5t137.5 56.5q51 0 91 -18t61 -40t49 -40t59 -18q29 0 54 25.5t40 68.5l119 -23q-24 -91 -86.5 -146.5t-134.5 -55.5q-51 0 -91.5 18t-62 39t-51 39t-60.5 18q-28 0 -52.5 -25t-39.5 -69zM412 1438l-121 -987q-21 -164 64 -237t255 -73 q359 0 398 310l120 987h179l-123 -1000q-12 -98 -48 -175t-89 -129.5t-125.5 -87.5t-154.5 -50.5t-177 -15.5q-120 0 -212 25.5t-158 78.5t-94 143t-13 211l123 1000h176z" />
<glyph unicode="&#x169;" d="M344 985l-82 -666q-23 -186 117 -186q75 0 180 84.5t205 228.5l63 529l166 10l-121 -985h-163l28 231q-220 -251 -405 -251q-139 0 -198 83.5t-40 239.5l82 672zM287 1178q24 93 86.5 149.5t136.5 56.5q41 0 77 -18t57.5 -39t46 -39t44.5 -18q57 0 94 94l119 -25 q-24 -90 -87 -146t-134 -56q-41 0 -77.5 18t-58 39t-46.5 39t-45 18q-29 0 -54 -25t-40 -69z" />
<glyph unicode="&#x16a;" horiz-adv-x="1353" d="M502 1706h612l-27 -129h-612zM412 1438l-121 -987q-21 -164 64 -237t255 -73q359 0 398 310l120 987h179l-123 -1000q-12 -98 -48 -175t-89 -129.5t-125.5 -87.5t-154.5 -50.5t-177 -15.5q-120 0 -212 25.5t-158 78.5t-94 143t-13 211l123 1000h176z" />
<glyph unicode="&#x16b;" d="M344 985l-82 -666q-23 -186 117 -186q75 0 180 84.5t205 228.5l63 529l166 10l-121 -985h-163l28 231q-220 -251 -405 -251q-139 0 -198 83.5t-40 239.5l82 672zM328 1298h602l-29 -129h-602z" />
<glyph unicode="&#x16c;" horiz-adv-x="1353" d="M516 1827l127 10q3 -93 43.5 -129.5t110.5 -36.5q67 0 115.5 36.5t74.5 129.5l133 -10q-64 -285 -332 -285q-280 0 -272 285zM412 1438l-121 -987q-21 -164 64 -237t255 -73q359 0 398 310l120 987h179l-123 -1000q-12 -98 -48 -175t-89 -129.5t-125.5 -87.5 t-154.5 -50.5t-177 -15.5q-120 0 -212 25.5t-158 78.5t-94 143t-13 211l123 1000h176z" />
<glyph unicode="&#x16d;" d="M344 985l-82 -666q-23 -186 117 -186q75 0 180 84.5t205 228.5l63 529l166 10l-121 -985h-163l28 231q-220 -251 -405 -251q-139 0 -198 83.5t-40 239.5l82 672zM340 1434l129 12q-11 -110 31.5 -158.5t113.5 -48.5t125 48.5t70 158.5l129 -12q-13 -109 -62.5 -184 t-118 -107.5t-151.5 -32.5q-134 0 -209.5 81t-56.5 243z" />
<glyph unicode="&#x16e;" horiz-adv-x="1353" d="M412 1438l-121 -987q-21 -164 64 -237t255 -73q359 0 398 310l120 987h179l-123 -1000q-12 -98 -48 -175t-89 -129.5t-125.5 -87.5t-154.5 -50.5t-177 -15.5q-120 0 -212 25.5t-158 78.5t-94 143t-13 211l123 1000h176zM698 1608q0 -39 21 -61.5t59 -22.5q47 0 78 33 t31 81q0 38 -23 61t-61 23q-47 0 -76 -32t-29 -82zM582 1593q0 102 67 169t166 67q86 0 137.5 -48t51.5 -128q0 -102 -68.5 -169t-169.5 -67q-86 0 -135 48t-49 128z" />
<glyph unicode="&#x16f;" d="M526 1260q0 -39 21 -61.5t59 -22.5q47 0 78 33t31 81q0 38 -23 61t-61 23q-47 0 -76 -32t-29 -82zM410 1245q0 102 67 169t166 67q86 0 137 -48t51 -128q0 -102 -68 -169t-169 -67q-86 0 -135 48t-49 128zM344 985l-82 -666q-23 -186 117 -186q75 0 180 84.5t205 228.5 l63 529l166 10l-121 -985h-163l28 231q-220 -251 -405 -251q-139 0 -198 83.5t-40 239.5l82 672z" />
<glyph unicode="&#x170;" horiz-adv-x="1353" d="M412 1438l-121 -987q-21 -164 64 -237t255 -73q359 0 398 310l120 987h179l-123 -1000q-12 -98 -48 -175t-89 -129.5t-125.5 -87.5t-154.5 -50.5t-177 -15.5q-120 0 -212 25.5t-158 78.5t-94 143t-13 211l123 1000h176zM696 1829h203l-295 -273h-153zM1079 1829h207 l-295 -273h-157z" />
<glyph unicode="&#x171;" d="M344 985l-82 -666q-23 -186 117 -186q75 0 180 84.5t205 228.5l63 529l166 10l-121 -985h-163l28 231q-220 -251 -405 -251q-139 0 -198 83.5t-40 239.5l82 672zM506 1444h180l-235 -330h-144zM854 1444h180l-235 -330h-144z" />
<glyph unicode="&#x172;" horiz-adv-x="1353" d="M412 1438l-121 -987q-21 -164 64 -237t255 -73q359 0 398 310l120 987h179l-123 -1000q-46 -360 -396 -438q-90 -45 -141 -108t-51 -123q0 -38 25 -61t75 -23q25 0 86 14l4 -121q-64 -20 -124 -20q-104 0 -156.5 51t-52.5 131q0 132 129 240q-119 1 -209.5 26.5t-155 79 t-92 142.5t-12.5 210l123 1000h176z" />
<glyph unicode="&#x173;" d="M344 985l-82 -666q-23 -186 117 -186q75 0 180 84.5t205 228.5l63 529l166 10l-121 -985q-90 -45 -141 -108t-51 -123q0 -38 25 -61t75 -23q25 0 86 14l4 -121q-64 -20 -125 -20q-103 0 -155.5 51t-52.5 131q0 154 174 272l26 219q-220 -251 -405 -251q-139 0 -198 83.5 t-40 239.5l82 672z" />
<glyph unicode="&#x174;" horiz-adv-x="1951" d="M1831 1444l172 -12l-576 -1432h-215l-176 1155l-454 -1155h-222l-227 1432l182 12l179 -1270l475 1258l202 12l172 -1270zM1204 1829l226 -273h-189l-137 164l-176 -164h-193l293 273h176z" />
<glyph unicode="&#x175;" horiz-adv-x="1531" d="M940 1444l182 -330h-161l-115 215l-166 -215h-166l264 330h162zM922 0l-144 778l-332 -778h-198l-189 975l174 10l138 -827l331 817l195 10l133 -827q207 365 316 827l163 -12q-126 -543 -397 -973h-190z" />
<glyph unicode="&#x176;" horiz-adv-x="1234" d="M446 0l74 600l-405 832l202 12l308 -672l471 672l209 -12l-607 -832l-73 -600h-179zM848 1829l225 -273h-188l-137 164l-177 -164h-192l293 273h176z" />
<glyph unicode="&#x177;" horiz-adv-x="985" d="M154 -440l-125 88q166 159 301 352h-25l-246 975l179 10l192 -833q219 361 352 833l172 -12q-236 -861 -800 -1413zM668 1444l182 -330h-162l-115 215l-165 -215h-166l264 330h162z" />
<glyph unicode="&#x178;" horiz-adv-x="1234" d="M446 0l74 600l-405 832l202 12l308 -672l471 672l209 -12l-607 -832l-73 -600h-179zM547 1767q39 0 63.5 -23.5t24.5 -60.5q0 -49 -33 -81.5t-80 -32.5q-39 0 -63.5 23.5t-24.5 60.5q0 48 34 81t79 33zM956 1767q38 0 63 -23.5t25 -60.5q0 -49 -33.5 -81.5t-80.5 -32.5 q-38 0 -62 23.5t-24 60.5q0 49 33 81.5t79 32.5z" />
<glyph unicode="&#x179;" horiz-adv-x="1181" d="M156 1278l32 160h994l-8 -160l-928 -1116h790l-28 -162h-996l6 162l928 1116h-790zM799 1829h231l-309 -273h-184z" />
<glyph unicode="&#x17a;" horiz-adv-x="911" d="M584 1444h190l-246 -330h-153zM223 147h551l-29 -147h-747l6 137l635 697h-518l29 147h716l-4 -137z" />
<glyph unicode="&#x17b;" horiz-adv-x="1181" d="M727 1782q43 0 69.5 -25.5t26.5 -66.5q0 -50 -36.5 -85.5t-86.5 -35.5q-41 0 -66.5 25t-25.5 65q0 52 35.5 87.5t83.5 35.5zM156 1278l32 160h994l-8 -160l-928 -1116h790l-28 -162h-996l6 162l928 1116h-790z" />
<glyph unicode="&#x17c;" horiz-adv-x="911" d="M223 147h551l-29 -147h-747l6 137l635 697h-518l29 147h716l-4 -137zM537 1350q42 0 69 -25.5t27 -64.5q0 -52 -36.5 -87.5t-86.5 -35.5q-41 0 -66.5 25t-25.5 65q0 52 34.5 87.5t84.5 35.5z" />
<glyph unicode="&#x17d;" horiz-adv-x="1181" d="M610 1556l-225 273h188l138 -166l178 166h192l-295 -273h-176zM156 1278l32 160h994l-8 -160l-928 -1116h790l-28 -162h-996l6 162l928 1116h-790z" />
<glyph unicode="&#x17e;" horiz-adv-x="911" d="M432 1114l-182 330h162l114 -215l166 215h166l-264 -330h-162zM223 147h551l-29 -147h-747l6 137l635 697h-518l29 147h716l-4 -137z" />
<glyph unicode="&#x17f;" horiz-adv-x="645" d="M51 -70l154 1268q7 58 21.5 107.5t41 96t63.5 79t91.5 52t122.5 19.5q92 0 196 -30l-30 -144q-89 27 -158 27q-91 0 -131.5 -59t-54.5 -166l-154 -1268q-48 -354 -338 -354q-95 0 -199 30l33 144q93 -27 156 -27q91 0 132.5 59.5t53.5 165.5z" />
<glyph unicode="&#x192;" horiz-adv-x="768" d="M270 733l45 371q44 354 340 354q89 0 197 -31l-31 -143q-93 27 -157 27q-91 0 -132 -59.5t-55 -166.5l-43 -352h301l-30 -147h-289l-70 -580q-48 -354 -338 -354q-90 0 -198 31l32 143q89 -27 154 -27q92 0 133 59.5t55 166.5l68 561h-236l31 147h223z" />
<glyph unicode="&#x218;" horiz-adv-x="1142" d="M367 -154l157 19q44 -73 25 -156.5t-92 -150.5l-133 8q132 132 43 280zM68 61l53 160q84 -37 186 -58.5t195 -21.5q89 0 161.5 28t120.5 91t47 152q-1 50 -38.5 91t-97 71.5t-131 60.5t-143 65.5t-130.5 78.5t-96 107.5t-37 143.5q0 204 148 316t382 112q214 0 397 -80 l-53 -159q-78 37 -179.5 58t-197.5 21q-133 0 -224.5 -65.5t-90.5 -190.5q0 -50 37.5 -91t97 -71t131.5 -60t143.5 -65.5t131 -78.5t96.5 -107.5t37 -144.5q0 -144 -74.5 -246t-196 -150t-276.5 -48q-214 0 -399 81z" />
<glyph unicode="&#x219;" horiz-adv-x="878" d="M246 -154l157 19q44 -73 25 -156.5t-92 -150.5l-133 8q132 132 43 280zM55 39l41 141q56 -26 131 -41.5t140 -15.5q85 0 143 39t57 123q0 32 -25 58t-64.5 44.5t-87 37.5t-95 42t-86.5 52t-63.5 74.5t-24.5 102.5q0 151 101.5 228t264.5 77q161 0 291 -59l-39 -141 q-55 25 -128.5 41t-137.5 16q-80 0 -133.5 -35.5t-52.5 -111.5q0 -32 25 -57.5t64 -44.5t86.5 -38t94.5 -42.5t86 -53t63.5 -75.5t24.5 -103q0 -155 -104.5 -236t-272.5 -81q-169 0 -299 59z" />
<glyph unicode="&#x21a;" horiz-adv-x="1140" d="M375 -154l157 19q44 -73 25 -156.5t-92 -150.5l-133 8q132 132 43 280zM557 1278h-469l31 160h1104l-31 -160h-459l-155 -1278h-179z" />
<glyph unicode="&#x21b;" horiz-adv-x="772" d="M227 -154l158 19q43 -73 24 -156.5t-92 -150.5l-133 8q132 132 43 280zM152 229l73 605h-162l29 147h152l37 305l165 10l-38 -315h301l-29 -147h-291l-72 -592q-11 -95 32 -107q61 -16 253 109l39 -138q-199 -126 -305 -126q-93 0 -145.5 57t-38.5 192z" />
<glyph unicode="&#x2c6;" horiz-adv-x="829" d="M590 1444l182 -330h-162l-114 215l-166 -215h-166l264 330h162z" />
<glyph unicode="&#x2c7;" horiz-adv-x="829" d="M387 1114l-182 330h162l114 -215l166 215h166l-264 -330h-162z" />
<glyph unicode="&#x2d8;" horiz-adv-x="819" d="M203 1434l129 12q-11 -110 31.5 -158.5t113.5 -48.5t125 48.5t70 158.5l129 -12q-13 -109 -62.5 -184t-118 -107.5t-151.5 -32.5q-134 0 -209.5 81t-56.5 243z" />
<glyph unicode="&#x2d9;" horiz-adv-x="434" d="M299 1350q42 0 69 -25.5t27 -64.5q0 -52 -36.5 -87.5t-86.5 -35.5q-41 0 -66.5 25t-25.5 65q0 52 34.5 87.5t84.5 35.5z" />
<glyph unicode="&#x2da;" horiz-adv-x="638" d="M299 1260q0 -39 21 -61.5t59 -22.5q47 0 77.5 33t30.5 81q0 38 -23 61t-61 23q-47 0 -75.5 -32t-28.5 -82zM182 1245q0 102 67.5 169t166.5 67q86 0 137 -48t51 -128q0 -102 -68 -169t-169 -67q-86 0 -135.5 48t-49.5 128z" />
<glyph unicode="&#x2db;" horiz-adv-x="575" d="M328 -301l4 -121q-64 -20 -125 -20q-104 0 -156.5 51t-52.5 131q0 84 58 163.5t167 141.5l111 -45q-90 -45 -141.5 -108t-51.5 -123q0 -37 25.5 -60.5t75.5 -23.5q25 0 86 14z" />
<glyph unicode="&#x2dc;" horiz-adv-x="862" d="M172 1178q24 93 86.5 149.5t136.5 56.5q41 0 77.5 -18t57.5 -39t46 -39t45 -18q57 0 94 94l119 -25q-24 -89 -87 -145.5t-135 -56.5q-41 0 -77.5 18t-58 39t-46.5 39t-45 18q-29 0 -54 -25t-40 -69z" />
<glyph unicode="&#x2dd;" horiz-adv-x="905" d="M362 1444h181l-236 -330h-143zM711 1444h180l-236 -330h-143z" />
<glyph unicode="&#x3c0;" horiz-adv-x="1292" d="M1200 834h-192l-76 -625q-9 -68 27 -80t139 21l-4 -138q-98 -32 -183 -32q-77 0 -116 51t-25 162l78 641h-377l-172 -834h-164l182 834h-198l31 147h1079z" />
<glyph unicode="&#x1e80;" horiz-adv-x="1951" d="M819 1829h223l205 -273h-176zM1831 1444l172 -12l-576 -1432h-215l-176 1155l-454 -1155h-222l-227 1432l182 12l179 -1270l475 1258l202 12l172 -1270z" />
<glyph unicode="&#x1e81;" horiz-adv-x="1531" d="M922 0l-144 778l-332 -778h-198l-189 975l174 10l138 -827l331 817l195 10l133 -827q207 365 316 827l163 -12q-126 -543 -397 -973h-190zM635 1444h180l135 -330h-143z" />
<glyph unicode="&#x1e82;" horiz-adv-x="1951" d="M1182 1829h231l-309 -273h-184zM1831 1444l172 -12l-576 -1432h-215l-176 1155l-454 -1155h-222l-227 1432l182 12l179 -1270l475 1258l202 12l172 -1270z" />
<glyph unicode="&#x1e83;" horiz-adv-x="1531" d="M895 1444h190l-245 -330h-154zM922 0l-144 778l-332 -778h-198l-189 975l174 10l138 -827l331 817l195 10l133 -827q207 365 316 827l163 -12q-126 -543 -397 -973h-190z" />
<glyph unicode="&#x1e84;" horiz-adv-x="1951" d="M905 1767q39 0 63.5 -23.5t24.5 -60.5q0 -49 -33 -81.5t-79 -32.5q-39 0 -63.5 23.5t-24.5 60.5q0 48 33.5 81t78.5 33zM1315 1767q38 0 63 -23.5t25 -60.5q0 -49 -34 -81.5t-81 -32.5q-38 0 -62 23.5t-24 60.5q0 49 33 81.5t80 32.5zM1831 1444l172 -12l-576 -1432h-215 l-176 1155l-454 -1155h-222l-227 1432l182 12l179 -1270l475 1258l202 12l172 -1270z" />
<glyph unicode="&#x1e85;" horiz-adv-x="1531" d="M641 1341q39 0 64.5 -23.5t25.5 -60.5q0 -49 -34 -81.5t-81 -32.5q-38 0 -62 24t-24 62q0 47 33 79.5t78 32.5zM1049 1341q40 0 65 -23.5t25 -60.5q0 -49 -33 -81.5t-80 -32.5q-40 0 -64 24t-24 62q0 47 33 79.5t78 32.5zM922 0l-144 778l-332 -778h-198l-189 975l174 10 l138 -827l331 817l195 10l133 -827q207 365 316 827l163 -12q-126 -543 -397 -973h-190z" />
<glyph unicode="&#x1ef2;" horiz-adv-x="1234" d="M446 0l74 600l-405 832l202 12l308 -672l471 672l209 -12l-607 -832l-73 -600h-179zM461 1829h223l205 -273h-176z" />
<glyph unicode="&#x1ef3;" horiz-adv-x="985" d="M154 -440l-125 88q166 159 301 352h-25l-246 975l179 10l192 -833q219 361 352 833l172 -12q-236 -861 -800 -1413zM346 1444h180l136 -330h-144z" />
<glyph unicode="&#x2000;" horiz-adv-x="937" />
<glyph unicode="&#x2001;" horiz-adv-x="1874" />
<glyph unicode="&#x2002;" horiz-adv-x="937" />
<glyph unicode="&#x2003;" horiz-adv-x="1874" />
<glyph unicode="&#x2004;" horiz-adv-x="624" />
<glyph unicode="&#x2005;" horiz-adv-x="468" />
<glyph unicode="&#x2006;" horiz-adv-x="312" />
<glyph unicode="&#x2007;" horiz-adv-x="312" />
<glyph unicode="&#x2008;" horiz-adv-x="234" />
<glyph unicode="&#x2009;" horiz-adv-x="374" />
<glyph unicode="&#x200a;" horiz-adv-x="104" />
<glyph unicode="&#x2010;" horiz-adv-x="579" d="M66 563h430l-29 -147h-430z" />
<glyph unicode="&#x2011;" horiz-adv-x="579" d="M66 563h430l-29 -147h-430z" />
<glyph unicode="&#x2012;" horiz-adv-x="579" d="M66 563h430l-29 -147h-430z" />
<glyph unicode="&#x2013;" horiz-adv-x="1150" d="M45 563h1042l-28 -147h-1043z" />
<glyph unicode="&#x2014;" horiz-adv-x="2168" d="M45 563h2040l-29 -147h-2040z" />
<glyph unicode="&#x2018;" horiz-adv-x="368" d="M344 1169l-182 -14q-30 138 3 264.5t126 286.5l139 -16q-83 -144 -101.5 -260t15.5 -261z" />
<glyph unicode="&#x2019;" horiz-adv-x="368" d="M213 1690l184 16q30 -139 -3 -265t-126 -286l-141 14q85 145 103 261t-17 260z" />
<glyph unicode="&#x201a;" horiz-adv-x="368" d="M37 238l180 14q32 -137 -1 -263t-126 -288l-141 16q85 143 103.5 260.5t-15.5 260.5z" />
<glyph unicode="&#x201c;" horiz-adv-x="702" d="M678 1169l-184 -14q-30 138 3 264t126 287l141 -16q-83 -144 -101.5 -260t15.5 -261zM344 1169l-182 -14q-30 138 3 264.5t126 286.5l139 -16q-83 -144 -101.5 -260t15.5 -261z" />
<glyph unicode="&#x201d;" horiz-adv-x="702" d="M213 1690l184 16q30 -139 -3 -265t-126 -286l-141 14q85 145 103 261t-17 260zM547 1690l182 16q31 -140 -2.5 -266.5t-126.5 -284.5l-139 14q85 145 103 261t-17 260z" />
<glyph unicode="&#x201e;" horiz-adv-x="702" d="M37 238l180 14q32 -137 -1 -263t-126 -288l-141 16q85 143 103.5 260.5t-15.5 260.5zM369 238l182 14q32 -137 -2 -262.5t-127 -288.5l-139 16q83 144 101.5 260.5t-15.5 260.5z" />
<glyph unicode="&#x2020;" horiz-adv-x="1081" d="M537 -133l-185 -10l146 974l-432 -18l32 168l416 -18l31 469l184 12l-86 -481l434 18l-33 -168l-415 18z" />
<glyph unicode="&#x2021;" horiz-adv-x="1081" d="M432 502l66 329l-432 -18l32 168l416 -18l31 469l184 12l-86 -481l434 18l-33 -168l-415 18l-13 -317l-67 -330l434 19l-33 -166l-418 16l-30 -469l-185 -12l86 481l-434 -16l35 166l416 -19z" />
<glyph unicode="&#x2022;" horiz-adv-x="778" d="M70 707q0 146 93 238.5t236 92.5q138 0 225 -85.5t87 -221.5q0 -146 -93.5 -239t-236.5 -93q-138 0 -224.5 86.5t-86.5 221.5z" />
<glyph unicode="&#x2026;" horiz-adv-x="1703" d="M160 213q44 0 72 -27.5t28 -70.5q0 -54 -37 -90.5t-90 -36.5q-44 0 -71 27t-27 69q0 54 36.5 91.5t88.5 37.5zM795 213q44 0 72 -27.5t28 -70.5q0 -54 -37 -90.5t-90 -36.5q-44 0 -72 27t-28 69q0 54 37 91.5t90 37.5zM1430 213q44 0 72 -27.5t28 -70.5q0 -53 -37.5 -90 t-89.5 -37q-44 0 -72 27t-28 69q0 54 37 91.5t90 37.5z" />
<glyph unicode="&#x202f;" horiz-adv-x="374" />
<glyph unicode="&#x2030;" horiz-adv-x="2359" d="M985 285q0 -185 148 -185q112 0 180.5 106t68.5 292t-149 186q-112 0 -180 -106t-68 -293zM850 289q0 240 104 375t283 135q130 0 204.5 -73t74.5 -230q0 -238 -105 -374t-283 -136q-130 0 -204 73t-74 230zM1751 285q0 -185 147 -185q112 0 181 106t69 292t-149 186 q-112 0 -180 -106t-68 -293zM1616 289q0 240 104 375t283 135q130 0 204 -73t74 -230q0 -238 -104.5 -374t-282.5 -136q-130 0 -204 73t-74 230zM223 0l1006 1438h151l-1005 -1438h-152zM223 938q0 -184 148 -184q112 0 181 105.5t69 291.5t-150 186q-112 0 -180 -106 t-68 -293zM88 942q0 240 104 375t283 135q130 0 204.5 -73t74.5 -230q0 -238 -104.5 -374t-282.5 -136q-130 0 -204.5 73t-74.5 230z" />
<glyph unicode="&#x2039;" horiz-adv-x="595" d="M360 49l-340 387l25 117l424 379l94 -133l-362 -318l282 -317z" />
<glyph unicode="&#x203a;" horiz-adv-x="595" d="M188 932l342 -387l-24 -117l-426 -379l-94 133l364 318l-284 317z" />
<glyph unicode="&#x2044;" horiz-adv-x="542" d="M-307 0l1005 1438h152l-1006 -1438h-151z" />
<glyph unicode="&#x205f;" horiz-adv-x="468" />
<glyph unicode="&#x20ac;" horiz-adv-x="1236" d="M55 961h181q42 131 112 229t156.5 155t180.5 85t196 28q185 0 358 -69l-49 -160q-168 67 -316 67q-69 0 -133.5 -18.5t-124.5 -57t-110.5 -104.5t-83.5 -155h625l-29 -138h-635q-20 -103 -23 -205h562l-27 -137h-530q36 -340 366 -340q148 0 334 68l10 -160 q-192 -69 -377 -69q-107 0 -194.5 27t-158.5 84.5t-114 156t-51 233.5h-196l28 137h168q2 88 21 205h-174z" />
<glyph unicode="&#x2122;" horiz-adv-x="1161" d="M268 1350h-178l16 88h447l-16 -88h-172l-54 -432h-96zM762 913l-74 373l-100 -368h-96l143 518l108 4l88 -402l183 398l110 4l19 -522h-96l-9 368l-164 -366z" />
<glyph unicode="&#x2202;" horiz-adv-x="1050" d="M336 1552h215q155 -129 265 -368.5t110 -513.5q0 -131 -32.5 -254t-92.5 -220.5t-154.5 -156.5t-208.5 -59q-176 0 -277.5 121.5t-101.5 318.5q0 162 48 294.5t135 209.5t194 77q166 0 314 -198q-27 226 -136.5 419.5t-277.5 329.5zM446 131q89 0 158 68t105.5 169.5 t44.5 221.5q-83 135 -150 194.5t-141 59.5q-101 0 -167.5 -113.5t-66.5 -300.5q-2 -130 57 -214.5t160 -84.5z" />
<glyph unicode="&#x2206;" horiz-adv-x="1259" d="M950 162l-241 1120l-521 -1120h762zM1051 0h-1008l-59 113l616 1319l242 12l295 -1327z" />
<glyph unicode="&#x220f;" horiz-adv-x="1353" d="M236 1438h1071l-177 -1438h-178l158 1278h-717l-157 -1278h-177z" />
<glyph unicode="&#x2211;" horiz-adv-x="1079" d="M375 1278l393 -563l-528 -553h690l-29 -162h-887l6 162l535 557l-395 559l30 160h897l-30 -160h-682z" />
<glyph unicode="&#x221a;" horiz-adv-x="1304" d="M1171 1444l185 -12l-668 -1432h-235l-189 834h-201l29 147h320l174 -821z" />
<glyph unicode="&#x221e;" horiz-adv-x="1398" d="M1370 721q0 -169 -91 -266t-239 -97q-63 0 -116.5 17.5t-95 52t-72 71.5t-62.5 89q-65 -108 -142.5 -169t-191.5 -61q-144 0 -237.5 96.5t-93.5 266.5q0 171 93 266.5t238 95.5q114 0 191.5 -60.5t142.5 -168.5q32 51 62.5 87.5t72 71t95 52.5t116.5 18q148 0 239 -96.5 t91 -265.5zM1227 721q0 102 -52 158.5t-141 56.5q-47 0 -86.5 -17t-72 -51t-54.5 -66t-49 -81q27 -49 49 -81t54.5 -66t72 -51t86.5 -17q89 0 141 56.5t52 158.5zM367 506q83 0 138 54.5t113 160.5q-58 106 -113 160.5t-138 54.5q-88 0 -141.5 -56t-53.5 -159t53.5 -159 t141.5 -56z" />
<glyph unicode="&#x222b;" horiz-adv-x="768" d="M184 25l131 1079q44 354 340 354q89 0 197 -31l-31 -143q-93 27 -157 27q-91 0 -132 -59.5t-55 -166.5l-131 -1079q-48 -354 -338 -354q-90 0 -198 31l32 143q89 -27 154 -27q92 0 133 59.5t55 166.5z" />
<glyph unicode="&#x2248;" horiz-adv-x="1142" d="M788 764q-62 0 -116 21.5t-91.5 52t-71.5 61.5t-72 52.5t-77 21.5q-52 0 -84.5 -43.5t-56.5 -128.5l-151 22q30 151 107.5 229t180.5 78q62 0 116 -21.5t92 -52t72.5 -61t73 -52t76.5 -21.5q95 0 140 174l151 -25q-30 -151 -107.5 -229t-181.5 -78zM788 309 q-62 0 -116 21.5t-91.5 52.5t-71.5 61.5t-72 52t-77 21.5q-52 0 -84.5 -43.5t-56.5 -128.5l-151 25q30 150 108 228.5t180 78.5q62 0 116 -21.5t92 -52t72.5 -61.5t73 -52.5t76.5 -21.5q95 0 140 172l151 -23q-30 -152 -107.5 -230.5t-181.5 -78.5z" />
<glyph unicode="&#x2260;" horiz-adv-x="1142" d="M78 508h338l153 424h-501l10 147h545l90 248l153 -8l-88 -240h297l-10 -147h-340l-154 -424h504l-10 -148h-547l-88 -245l-154 8l86 237h-294z" />
<glyph unicode="&#x2264;" horiz-adv-x="1142" d="M1008 264l-940 422l10 148l930 415l55 -137l-813 -356l813 -355zM78 147h997l-10 -147h-997z" />
<glyph unicode="&#x2265;" horiz-adv-x="1142" d="M115 1249l942 -422l-13 -147l-929 -416l-54 137l811 355l-811 356zM78 147h997l-10 -147h-997z" />
<glyph unicode="&#x25ca;" horiz-adv-x="1232" d="M623 1438h176l350 -719l-526 -719h-177l-350 719zM297 717l256 -543l395 549l-256 541z" />
<glyph unicode="&#x25fc;" horiz-adv-x="983" d="M0 983h983v-983h-983v983z" />
</font>
</defs>
</svg>
