<?xml version="1.0" standalone="no"?>
<!DOCTYPE svg PUBLIC "-//W3C//DTD SVG 1.1//EN" "http://www.w3.org/Graphics/SVG/1.1/DTD/svg11.dtd" >
<svg xmlns="http://www.w3.org/2000/svg" xmlns:xlink="http://www.w3.org/1999/xlink" version="1.1">
<metadata>
Created by FontForge 20161003 at Thu Dec  8 10:00:15 2016
 By www-data
Copyright (c) 2007 by Tomas Brousil. All rights reserved.
</metadata>
<defs>
<font id="GloriolaLight" horiz-adv-x="552" >
  <font-face 
    font-family="Gloriola Light"
    font-weight="300"
    font-stretch="normal"
    units-per-em="1000"
    panose-1="2 0 0 0 0 0 0 0 0 0"
    ascent="758"
    descent="-242"
    x-height="474"
    cap-height="702"
    bbox="-150 -285 1183 934"
    underline-thickness="50"
    underline-position="-100"
    stemh="48"
    stemv="52"
    unicode-range="U+0020-FB04"
  />
<missing-glyph horiz-adv-x="830" 
d="M100 0v630h630v-630h-630zM415 280l-230 -230h460zM185 580l230 -230l230 230h-460zM450 315l230 -230v460zM380 315l-230 230v-460z" />
    <glyph glyph-name="f_b" unicode="fb" horiz-adv-x="862" 
d="M406 31v670c-48 7 -90 11 -121 11c-107 0 -129 -44 -129 -124v-114h156l-4 -46h-152v-428h-50v428h-81l4 46h77v120c0 111 44 163 179 164c46 0 103 -5 171 -15v-327c68 40 130 68 185 68c96 0 166 -72 166 -247c0 -179 -90 -247 -199 -247c-77 0 -125 12 -202 41z
M456 62c53 -20 104 -26 152 -26c81 0 149 53 149 202c0 143 -50 200 -116 200c-59 0 -127 -38 -185 -72v-304z" />
    <glyph glyph-name="f_f" unicode="ff" horiz-adv-x="633" 
d="M106 474v120c0 84 27 164 132 164c26 0 54 -4 90 -15l-5 -45c-28 8 -61 14 -81 14c-73 0 -86 -59 -86 -124v-114h250v120c0 84 27 164 132 164c26 0 54 -4 90 -15l-5 -45c-28 8 -61 14 -81 14c-73 0 -86 -59 -86 -124v-114h156l-4 -46h-152v-428h-50v428h-250v-428h-50
v428h-81l4 46h77z" />
    <glyph glyph-name="f_h" unicode="fh" horiz-adv-x="851" 
d="M456 366v-366h-50v701c-48 7 -90 11 -121 11c-107 0 -129 -44 -129 -124v-114h156l-4 -46h-152v-428h-50v428h-81l4 46h77v120c0 111 44 163 179 164c46 0 103 -5 171 -15v-327c68 40 130 68 185 68c67 0 135 -36 135 -157v-327h-50v327c0 75 -36 111 -85 111
c-59 0 -127 -38 -185 -72z" />
    <glyph glyph-name="f_i" unicode="fi" horiz-adv-x="531" 
d="M106 474v120c0 84 27 164 132 164c26 0 54 -4 90 -15l-5 -45c-28 8 -61 14 -81 14c-73 0 -86 -59 -86 -124v-114h300v-474h-50v428h-250v-428h-50v428h-81l4 46h77zM431 635c22 0 38 -16 38 -38s-16 -38 -38 -38s-38 16 -38 38s16 38 38 38z" />
    <glyph glyph-name="f_j" unicode="fj" horiz-adv-x="531" 
d="M456 474v-452c0 -100 -40 -165 -130 -238l-37 31c72 59 117 120 117 208v405h-250v-428h-50v428h-81l4 46h77v120c0 84 27 164 132 164c26 0 54 -4 90 -15l-5 -45c-28 8 -61 14 -81 14c-73 0 -86 -59 -86 -124v-114h300zM431 635c22 0 38 -16 38 -38s-16 -38 -38 -38
s-38 16 -38 38s16 38 38 38z" />
    <glyph glyph-name="f_k" unicode="fk" horiz-adv-x="788" 
d="M708 -2l-252 233v-231h-50v701c-48 7 -90 11 -121 11c-107 0 -129 -44 -129 -124v-114h156l-4 -46h-152v-428h-50v428h-81l4 46h77v120c0 111 44 163 179 164c46 0 103 -5 171 -15v-482l233 215l65 -4l-243 -224l267 -246z" />
    <glyph glyph-name="f_l" unicode="fl" horiz-adv-x="606" 
d="M106 474v120c0 111 44 163 179 164c46 0 103 -5 171 -15v-640c0 -71 36 -81 140 -49l5 -45c-35 -12 -69 -19 -98 -19c-58 0 -97 30 -97 114v597c-48 7 -90 11 -121 11c-107 0 -129 -44 -129 -124v-114h156l-4 -46h-152v-428h-50v428h-81l4 46h77z" />
    <glyph glyph-name="f_t" unicode="ft" horiz-adv-x="666" 
d="M406 154v274h-250v-428h-50v428h-81l4 46h77v120c0 84 27 164 132 164c26 0 54 -4 90 -15l-5 -45c-28 8 -61 14 -81 14c-73 0 -86 -59 -86 -124v-114h250v150l50 4v-154h156l-4 -46h-152v-270c0 -65 17 -122 90 -122c20 0 52 4 80 12l5 -43c-36 -11 -64 -15 -90 -15
c-105 0 -135 81 -135 164z" />
    <glyph glyph-name="f_f_b" unicode="ffb" horiz-adv-x="1162" 
d="M106 474v120c0 84 27 164 132 164c26 0 54 -4 90 -15l-5 -45c-28 8 -61 14 -81 14c-73 0 -86 -59 -86 -124v-114h250v120c0 111 44 163 179 164c46 0 103 -5 171 -15v-327c68 40 130 68 185 68c96 0 166 -72 166 -247c0 -179 -90 -247 -199 -247c-77 0 -125 12 -202 41
v670c-48 7 -90 11 -121 11c-107 0 -129 -44 -129 -124v-114h156l-4 -46h-152v-428h-50v428h-250v-428h-50v428h-81l4 46h77zM756 62c53 -20 104 -26 152 -26c81 0 149 53 149 202c0 143 -50 200 -116 200c-59 0 -127 -38 -185 -72v-304z" />
    <glyph glyph-name="f_f_h" unicode="ffh" horiz-adv-x="1151" 
d="M106 474v120c0 84 27 164 132 164c26 0 54 -4 90 -15l-5 -45c-28 8 -61 14 -81 14c-73 0 -86 -59 -86 -124v-114h250v120c0 111 44 163 179 164c46 0 103 -5 171 -15v-327c68 40 130 68 185 68c67 0 135 -36 135 -157v-327h-50v327c0 75 -36 111 -85 111
c-59 0 -127 -38 -185 -72v-366h-50v701c-48 7 -90 11 -121 11c-107 0 -129 -44 -129 -124v-114h156l-4 -46h-152v-428h-50v428h-250v-428h-50v428h-81l4 46h77z" />
    <glyph glyph-name="f_f_i" unicode="ffi" horiz-adv-x="831" 
d="M106 474v120c0 84 27 164 132 164c26 0 54 -4 90 -15l-5 -45c-28 8 -61 14 -81 14c-73 0 -86 -59 -86 -124v-114h250v120c0 84 27 164 132 164c26 0 54 -4 90 -15l-5 -45c-28 8 -61 14 -81 14c-73 0 -86 -59 -86 -124v-114h300v-474h-50v428h-250v-428h-50v428h-250v-428
h-50v428h-81l4 46h77zM731 635c22 0 38 -16 38 -38s-16 -38 -38 -38s-38 16 -38 38s16 38 38 38z" />
    <glyph glyph-name="f_f_j" unicode="ffj" horiz-adv-x="831" 
d="M756 474v-452c0 -100 -40 -165 -130 -238l-37 31c72 59 117 120 117 208v405h-250v-428h-50v428h-250v-428h-50v428h-81l4 46h77v120c0 84 27 164 132 164c26 0 54 -4 90 -15l-5 -45c-28 8 -61 14 -81 14c-73 0 -86 -59 -86 -124v-114h250v120c0 84 27 164 132 164
c26 0 54 -4 90 -15l-5 -45c-28 8 -61 14 -81 14c-73 0 -86 -59 -86 -124v-114h300zM731 635c22 0 38 -16 38 -38s-16 -38 -38 -38s-38 16 -38 38s16 38 38 38z" />
    <glyph glyph-name="f_f_k" unicode="ffk" horiz-adv-x="1088" 
d="M1008 -2l-252 233v-231h-50v701c-48 7 -90 11 -121 11c-107 0 -129 -44 -129 -124v-114h156l-4 -46h-152v-428h-50v428h-250v-428h-50v428h-81l4 46h77v120c0 84 27 164 132 164c26 0 54 -4 90 -15l-5 -45c-28 8 -61 14 -81 14c-73 0 -86 -59 -86 -124v-114h250v120
c0 111 44 163 179 164c46 0 103 -5 171 -15v-482l233 215l65 -4l-243 -224l267 -246z" />
    <glyph glyph-name="f_f_l" unicode="ffl" horiz-adv-x="906" 
d="M706 701c-48 7 -90 11 -121 11c-107 0 -129 -44 -129 -124v-114h156l-4 -46h-152v-428h-50v428h-250v-428h-50v428h-81l4 46h77v120c0 84 27 164 132 164c26 0 54 -4 90 -15l-5 -45c-28 8 -61 14 -81 14c-73 0 -86 -59 -86 -124v-114h250v120c0 111 44 163 179 164
c46 0 103 -5 171 -15v-640c0 -71 36 -81 140 -49l5 -45c-35 -12 -68 -19 -97 -19c-58 0 -98 30 -98 114v597z" />
    <glyph glyph-name=".notdef" horiz-adv-x="830" 
d="M100 0v630h630v-630h-630zM415 280l-230 -230h460zM185 580l230 -230l230 230h-460zM450 315l230 -230v460zM380 315l-230 230v-460z" />
    <glyph glyph-name=".null" horiz-adv-x="0" 
 />
    <glyph glyph-name="CR" horiz-adv-x="0" 
 />
    <glyph glyph-name="space" unicode=" " horiz-adv-x="273" 
 />
    <glyph glyph-name="nbspace" unicode="&#xa0;" horiz-adv-x="273" 
 />
    <glyph glyph-name="A" unicode="A" horiz-adv-x="630" 
d="M464 237l-150 417l-150 -417h300zM481 189h-334l-68 -189h-54l255 700l68 4l257 -704h-56z" />
    <glyph glyph-name="B" unicode="B" horiz-adv-x="586" 
d="M127 370h240c67 42 92 101 92 166c0 68 -48 118 -125 118h-207v-284zM75 15v687h259c107 0 177 -68 177 -166c0 -88 -42 -141 -87 -179c78 -44 117 -113 117 -181c0 -118 -97 -186 -257 -186c-58 0 -139 13 -209 25zM387 322h-260v-268c39 -7 104 -16 157 -16
c139 0 205 55 205 138c0 61 -38 117 -102 146z" />
    <glyph glyph-name="C" unicode="C" horiz-adv-x="608" 
d="M374 664c-138 0 -257 -82 -257 -313s119 -313 257 -313c55 0 120 13 178 37l11 -48c-61 -24 -127 -37 -189 -37c-166 0 -309 95 -309 361s143 361 309 361c62 0 128 -13 189 -37l-11 -48c-58 24 -123 37 -178 37z" />
    <glyph glyph-name="D" unicode="D" horiz-adv-x="690" 
d="M310 702c191 0 315 -99 315 -348c0 -251 -138 -364 -331 -364c-62 0 -142 6 -219 23v689h235zM309 654h-182v-601c59 -11 125 -15 170 -15c160 0 276 98 276 316c0 216 -104 300 -264 300z" />
    <glyph glyph-name="E" unicode="E" horiz-adv-x="545" 
d="M75 0v702h425l-4 -48h-369v-284h323l-4 -48h-319v-274h373l-4 -48h-421z" />
    <glyph glyph-name="E.salt" horiz-adv-x="608" 
d="M374 664c-134 0 -251 -78 -257 -294h333l-4 -48h-329c10 -209 125 -284 257 -284c55 0 120 13 178 37l11 -48c-61 -24 -127 -37 -189 -37c-166 0 -309 95 -309 361s143 361 309 361c62 0 128 -13 189 -37l-11 -48c-58 24 -123 37 -178 37z" />
    <glyph glyph-name="F" unicode="F" horiz-adv-x="515" 
d="M127 312v-312h-52v702h425l-4 -48h-369v-294h323l-4 -48h-319z" />
    <glyph glyph-name="G" unicode="G" horiz-adv-x="675" 
d="M384 664c-144 0 -267 -82 -267 -313c0 -223 108 -313 266 -313c46 0 105 8 165 31v218h-199l4 48h247v-301c-97 -35 -157 -44 -221 -44c-181 0 -314 100 -314 361c0 266 143 361 319 361c62 0 128 -13 189 -37l-11 -48c-57 23 -122 37 -178 37z" />
    <glyph glyph-name="H" unicode="H" horiz-adv-x="654" 
d="M75 702h52v-332h400v332h52v-702h-52v322h-400v-322h-52v702z" />
    <glyph glyph-name="I" unicode="I" horiz-adv-x="202" 
d="M75 702h52v-702h-52v702z" />
    <glyph glyph-name="I.salt" horiz-adv-x="376" 
d="M214 48h107l-4 -48h-262l4 48h103v606h-107l4 48h262l-4 -48h-103v-606z" />
    <glyph glyph-name="J" unicode="J" horiz-adv-x="227" 
d="M100 702h52v-611c0 -104 -42 -171 -135 -247l-39 33c75 61 122 124 122 215v610z" />
    <glyph glyph-name="K" unicode="K" horiz-adv-x="568" 
d="M463 -2l-336 337v-335h-52v702h52v-335l337 337l65 -4l-348 -346l352 -352z" />
    <glyph glyph-name="L" unicode="L" horiz-adv-x="515" 
d="M75 702h52v-654h353l-4 -48h-401v702z" />
    <glyph glyph-name="M" unicode="M" horiz-adv-x="914" 
d="M426 -2l-228 625l-110 -623h-53l123 700l67 4l232 -651l231 647l68 4l123 -704h-53l-110 624l-226 -622z" />
    <glyph glyph-name="N" unicode="N" horiz-adv-x="654" 
d="M127 611v-611h-52v700l52 4l400 -613v611h52v-700l-52 -4z" />
    <glyph glyph-name="O" unicode="O" horiz-adv-x="752" 
d="M117 351c0 -230 107 -313 259 -313s259 83 259 313c0 231 -107 313 -259 313s-259 -82 -259 -313zM65 351c0 266 128 361 311 361s311 -95 311 -361c0 -265 -128 -361 -311 -361s-311 96 -311 361z" />
    <glyph glyph-name="P" unicode="P" horiz-adv-x="566" 
d="M127 654v-345c31 -4 78 -9 118 -9c134 0 234 57 234 185c0 121 -86 169 -233 169h-119zM127 261v-261h-52v702h173c175 0 283 -63 283 -219s-122 -231 -286 -231c-43 0 -83 5 -118 9z" />
    <glyph glyph-name="Q" unicode="Q" horiz-adv-x="752" 
d="M65 351c0 266 128 361 311 361s311 -95 311 -361c0 -213 -83 -317 -210 -350c30 -96 63 -138 126 -138c21 0 51 7 79 17l7 -46c-34 -12 -70 -19 -97 -19c-75 0 -129 50 -166 178c-16 -2 -33 -3 -50 -3c-183 0 -311 96 -311 361zM117 351c0 -230 107 -313 259 -313
s259 83 259 313c0 231 -107 313 -259 313s-259 -82 -259 -313z" />
    <glyph glyph-name="R" unicode="R" horiz-adv-x="597" 
d="M127 284v-284h-52v702h169c165 0 267 -60 267 -207c0 -101 -53 -166 -136 -197l182 -296l-59 -4l-174 285c-26 -5 -54 -7 -83 -7c-40 0 -81 5 -114 8zM127 654v-321c27 -3 75 -9 113 -9c127 0 219 54 219 173c0 113 -80 157 -219 157h-113z" />
    <glyph glyph-name="R.salt" horiz-adv-x="609" 
d="M127 284v-284h-52v702h169c165 0 267 -60 267 -207c0 -104 -57 -170 -144 -200c19 -157 74 -257 150 -257c33 0 60 7 90 18l7 -47c-37 -13 -71 -19 -102 -19c-102 0 -173 106 -197 292c-23 -4 -48 -6 -74 -6c-40 0 -81 5 -114 8zM127 654v-321c27 -3 75 -9 113 -9
c127 0 219 54 219 173c0 113 -80 157 -219 157h-113z" />
    <glyph glyph-name="S" unicode="S" 
d="M78 31l11 48c54 -25 120 -41 181 -41c94 0 175 38 175 141c0 164 -380 146 -380 357c0 123 101 176 220 176c62 0 129 -14 189 -41l-11 -48c-51 26 -117 42 -178 42c-90 0 -168 -36 -168 -132c0 -164 380 -145 380 -357c0 -131 -106 -186 -229 -186
c-63 0 -130 15 -190 41z" />
    <glyph glyph-name="T" unicode="T" horiz-adv-x="548" 
d="M248 654h-243l4 48h534l-4 -48h-239v-654h-52v654z" />
    <glyph glyph-name="U" unicode="U" horiz-adv-x="654" 
d="M127 702v-496c0 -121 83 -168 200 -168c116 0 200 47 200 168v496h52v-496c0 -156 -106 -216 -252 -216c-147 0 -252 60 -252 216v496h52z" />
    <glyph glyph-name="U.salt" horiz-adv-x="654" 
d="M579 702v-702h-42l-10 74c-76 -43 -155 -84 -249 -84s-203 48 -203 211v501h52v-501c0 -107 62 -163 151 -163c84 0 153 32 249 88v576h52z" />
    <glyph glyph-name="V" unicode="V" horiz-adv-x="627" 
d="M549 704l53 -4l-255 -700h-67l-255 700l54 4l235 -654z" />
    <glyph glyph-name="W" unicode="W" horiz-adv-x="954" 
d="M876 704l53 -4l-205 -700h-67l-180 625l-180 -625h-67l-205 700l54 4l185 -654l184 650l58 4l185 -654z" />
    <glyph glyph-name="X" unicode="X" horiz-adv-x="642" 
d="M45 2l247 349l-247 349l60 4l216 -311l215 311l61 -4l-247 -349l247 -349l-60 -4l-216 311l-216 -311z" />
    <glyph glyph-name="Y" unicode="Y" horiz-adv-x="582" 
d="M265 0v303l-250 397l60 4l216 -351l215 351l61 -4l-250 -397v-303h-52z" />
    <glyph glyph-name="Y.salt" horiz-adv-x="634" 
d="M569 702v-447c0 -169 -95 -265 -258 -265c-64 0 -137 15 -217 47l11 49c73 -31 142 -48 206 -48c121 0 206 71 206 217v99c-76 -43 -155 -84 -249 -84s-203 48 -203 211v221h52v-221c0 -107 62 -163 151 -163c84 0 153 32 249 88v296h52z" />
    <glyph glyph-name="Z" unicode="Z" horiz-adv-x="576" 
d="M45 654l4 48h478l4 -48l-421 -606h421l-4 -48h-478l-4 48l421 606h-421z" />
    <glyph glyph-name="AE" unicode="&#xc6;" horiz-adv-x="918" 
d="M46 0h-61l443 702h445l-4 -48h-369v-284h323l-4 -48h-319v-274h373l-4 -48h-421v189h-285zM193 237h255v411z" />
    <glyph glyph-name="Eng" unicode="&#x14a;" horiz-adv-x="654" 
d="M525 1l-398 610v-611h-52v700l52 4l400 -613v611h52v-671c0 -104 -42 -171 -135 -247l-39 33c66 54 111 109 120 184z" />
    <glyph glyph-name="Eth" unicode="&#xd0;" horiz-adv-x="690" 
d="M9 373h66v329h235c191 0 315 -99 315 -348c0 -251 -138 -364 -331 -364c-62 0 -142 6 -219 23v316h-70zM309 654h-182v-281h167l-4 -44h-163v-276c59 -11 125 -15 170 -15c160 0 276 98 276 316c0 216 -104 300 -264 300z" />
    <glyph glyph-name="IJ" unicode="&#x132;" horiz-adv-x="419" 
d="M75 702h52v-702h-52v702zM292 702h52v-611c0 -104 -42 -171 -135 -247l-39 33c75 61 122 124 122 215v610z" />
    <glyph glyph-name="OE" unicode="&#x152;" horiz-adv-x="1105" 
d="M635 0v129c-50 -99 -141 -139 -259 -139c-183 0 -311 96 -311 361c0 266 128 361 311 361c118 0 209 -40 259 -140v130h425l-4 -48h-369v-284h323l-4 -48h-319v-274h373l-4 -48h-421zM117 351c0 -230 107 -313 259 -313s259 83 259 313v17c-5 218 -111 296 -259 296
c-152 0 -259 -82 -259 -313z" />
    <glyph glyph-name="Oslash" unicode="&#xd8;" horiz-adv-x="752" 
d="M631 763l45 -23l-76 -109c55 -57 87 -148 87 -280c0 -265 -128 -361 -311 -361c-72 0 -135 15 -186 49l-69 -100l-45 23l75 109c-54 57 -86 148 -86 280c0 266 128 361 311 361c72 0 135 -15 186 -49zM635 351c0 109 -24 185 -66 235l-349 -505c42 -30 95 -43 156 -43
c152 0 259 83 259 313zM117 351c0 -109 24 -185 65 -235l350 505c-42 30 -96 43 -156 43c-152 0 -259 -82 -259 -313z" />
    <glyph glyph-name="Thorn" unicode="&#xde;" horiz-adv-x="566" 
d="M127 524v-346c31 -4 78 -9 118 -9c134 0 234 54 234 182s-100 182 -234 182c-40 0 -87 -5 -118 -9zM75 0v702h52v-130c35 4 75 9 118 9c164 0 286 -75 286 -231c0 -154 -122 -229 -286 -229c-43 0 -83 5 -118 9v-130h-52z" />
    <glyph glyph-name="Aacute" unicode="&#xc1;" horiz-adv-x="630" 
d="M464 237l-150 417l-150 -417h300zM481 189h-334l-68 -189h-54l255 700l68 4l257 -704h-56zM385 890h72l-129 -128h-57z" />
    <glyph glyph-name="Abreve" unicode="&#x102;" horiz-adv-x="630" 
d="M464 237l-150 417l-150 -417h300zM481 189h-334l-68 -189h-54l255 700l68 4l257 -704h-56zM168 891l45 4c12 -75 48 -92 92 -92c42 0 78 17 90 92l45 -4c-10 -98 -62 -134 -135 -134c-76 0 -127 36 -137 134z" />
    <glyph glyph-name="Acircumflex" unicode="&#xc2;" horiz-adv-x="630" 
d="M464 237l-150 417l-150 -417h300zM481 189h-334l-68 -189h-54l255 700l68 4l257 -704h-56zM336 890l134 -128h-67l-89 87l-89 -87h-67l134 128h44z" />
    <glyph glyph-name="Adieresis" unicode="&#xc4;" horiz-adv-x="630" 
d="M464 237l-150 417l-150 -417h300zM481 189h-334l-68 -189h-54l255 700l68 4l257 -704h-56zM221 848c22 0 38 -16 38 -38s-16 -38 -38 -38s-38 16 -38 38s16 38 38 38zM407 848c22 0 38 -16 38 -38s-16 -38 -38 -38s-38 16 -38 38s16 38 38 38z" />
    <glyph glyph-name="Agrave" unicode="&#xc0;" horiz-adv-x="630" 
d="M464 237l-150 417l-150 -417h300zM481 189h-334l-68 -189h-54l255 700l68 4l257 -704h-56zM171 890h72l114 -128h-57z" />
    <glyph glyph-name="Amacron" unicode="&#x100;" horiz-adv-x="630" 
d="M464 237l-150 417l-150 -417h300zM481 189h-334l-68 -189h-54l255 700l68 4l257 -704h-56zM174 816h285l-4 -44h-285z" />
    <glyph glyph-name="Aogonek" unicode="&#x104;" horiz-adv-x="630" 
d="M481 189h-334l-68 -189h-54l255 700l68 4l257 -704c-58 -32 -87 -76 -87 -115c0 -31 19 -55 59 -55c12 0 27 3 44 8l7 -46c-18 -5 -35 -8 -51 -8c-74 0 -109 44 -109 101c0 44 27 89 77 125zM464 237l-150 417l-150 -417h300z" />
    <glyph glyph-name="Aring" unicode="&#xc5;" horiz-adv-x="630" 
d="M219 786c0 57 39 96 94 96c57 0 96 -39 96 -96c0 -42 -23 -75 -59 -88l255 -698h-56l-68 189h-334l-68 -189h-54l254 697c-37 13 -60 46 -60 89zM464 237l-150 417l-150 -417h300zM265 786c0 -30 20 -52 48 -52c30 0 50 22 50 52c0 32 -20 54 -50 54
c-28 0 -48 -22 -48 -54z" />
    <glyph glyph-name="Atilde" unicode="&#xc3;" horiz-adv-x="630" 
d="M464 237l-150 417l-150 -417h300zM481 189h-334l-68 -189h-54l255 700l68 4l257 -704h-56zM157 759c9 50 47 85 90 85c73 0 83 -57 139 -57c21 0 36 20 44 47l42 -9c-10 -47 -47 -83 -89 -83c-73 0 -84 56 -140 56c-21 0 -37 -19 -45 -47z" />
    <glyph glyph-name="Cacute" unicode="&#x106;" horiz-adv-x="608" 
d="M374 664c-138 0 -257 -82 -257 -313s119 -313 257 -313c55 0 120 13 178 37l11 -48c-61 -24 -127 -37 -189 -37c-166 0 -309 95 -309 361s143 361 309 361c62 0 128 -13 189 -37l-11 -48c-58 24 -123 37 -178 37zM398 890h72l-129 -128h-57z" />
    <glyph glyph-name="Ccaron" unicode="&#x10c;" horiz-adv-x="608" 
d="M374 664c-138 0 -257 -82 -257 -313s119 -313 257 -313c55 0 120 13 178 37l11 -48c-61 -24 -127 -37 -189 -37c-166 0 -309 95 -309 361s143 361 309 361c62 0 128 -13 189 -37l-11 -48c-58 24 -123 37 -178 37zM346 762l-134 128h67l89 -87l89 87h67l-134 -128h-44z
" />
    <glyph glyph-name="Ccedilla" unicode="&#xc7;" horiz-adv-x="608" 
d="M374 664c-138 0 -257 -82 -257 -313s119 -313 257 -313c55 0 120 13 178 37l11 -48c-48 -19 -99 -31 -149 -35l-28 -46c6 1 12 1 17 1c49 0 79 -31 79 -80s-44 -83 -107 -83c-21 0 -43 3 -67 11l8 43c18 -7 38 -10 56 -10c33 0 59 12 59 39c0 22 -11 38 -41 38
c-9 0 -20 -2 -32 -5l-31 31l31 59c-159 6 -293 103 -293 361c0 266 143 361 309 361c62 0 128 -13 189 -37l-11 -48c-58 24 -123 37 -178 37z" />
    <glyph glyph-name="Ccircumflex" unicode="&#x108;" horiz-adv-x="608" 
d="M374 664c-138 0 -257 -82 -257 -313s119 -313 257 -313c55 0 120 13 178 37l11 -48c-61 -24 -127 -37 -189 -37c-166 0 -309 95 -309 361s143 361 309 361c62 0 128 -13 189 -37l-11 -48c-58 24 -123 37 -178 37zM389 890l134 -128h-67l-89 87l-89 -87h-67l134 128h44z
" />
    <glyph glyph-name="Cdotaccent" unicode="&#x10a;" horiz-adv-x="608" 
d="M374 664c-138 0 -257 -82 -257 -313s119 -313 257 -313c55 0 120 13 178 37l11 -48c-61 -24 -127 -37 -189 -37c-166 0 -309 95 -309 361s143 361 309 361c62 0 128 -13 189 -37l-11 -48c-58 24 -123 37 -178 37zM367 848c22 0 38 -16 38 -38s-16 -38 -38 -38
s-38 16 -38 38s16 38 38 38z" />
    <glyph glyph-name="Dcaron" unicode="&#x10e;" horiz-adv-x="690" 
d="M310 702c191 0 315 -99 315 -348c0 -251 -138 -364 -331 -364c-62 0 -142 6 -219 23v689h235zM309 654h-182v-601c59 -11 125 -15 170 -15c160 0 276 98 276 316c0 216 -104 300 -264 300zM269 762l-134 128h67l89 -87l89 87h67l-134 -128h-44z" />
    <glyph glyph-name="Dcroat" unicode="&#x110;" horiz-adv-x="690" 
d="M9 373h66v329h235c191 0 315 -99 315 -348c0 -251 -138 -364 -331 -364c-62 0 -142 6 -219 23v316h-70zM309 654h-182v-281h167l-4 -44h-163v-276c59 -11 125 -15 170 -15c160 0 276 98 276 316c0 216 -104 300 -264 300z" />
    <glyph glyph-name="Eacute" unicode="&#xc9;" horiz-adv-x="545" 
d="M75 0v702h425l-4 -48h-369v-284h323l-4 -48h-319v-274h373l-4 -48h-421zM329 890h72l-129 -128h-57z" />
    <glyph glyph-name="Ebreve" unicode="&#x114;" horiz-adv-x="545" 
d="M75 0v702h425l-4 -48h-369v-284h323l-4 -48h-319v-274h373l-4 -48h-421zM152 891l45 4c12 -75 48 -92 92 -92c42 0 78 17 90 92l45 -4c-10 -98 -62 -134 -135 -134c-76 0 -127 36 -137 134z" />
    <glyph glyph-name="Ecaron" unicode="&#x11a;" horiz-adv-x="545" 
d="M75 0v702h425l-4 -48h-369v-284h323l-4 -48h-319v-274h373l-4 -48h-421zM266 762l-134 128h67l89 -87l89 87h67l-134 -128h-44z" />
    <glyph glyph-name="Ecircumflex" unicode="&#xca;" horiz-adv-x="545" 
d="M75 0v702h425l-4 -48h-369v-284h323l-4 -48h-319v-274h373l-4 -48h-421zM310 890l134 -128h-67l-89 87l-89 -87h-67l134 128h44z" />
    <glyph glyph-name="Edieresis" unicode="&#xcb;" horiz-adv-x="545" 
d="M75 0v702h425l-4 -48h-369v-284h323l-4 -48h-319v-274h373l-4 -48h-421zM195 848c22 0 38 -16 38 -38s-16 -38 -38 -38s-38 16 -38 38s16 38 38 38zM381 848c22 0 38 -16 38 -38s-16 -38 -38 -38s-38 16 -38 38s16 38 38 38z" />
    <glyph glyph-name="Edotaccent" unicode="&#x116;" horiz-adv-x="545" 
d="M75 0v702h425l-4 -48h-369v-284h323l-4 -48h-319v-274h373l-4 -48h-421zM288 848c22 0 38 -16 38 -38s-16 -38 -38 -38s-38 16 -38 38s16 38 38 38z" />
    <glyph glyph-name="Egrave" unicode="&#xc8;" horiz-adv-x="545" 
d="M75 0v702h425l-4 -48h-369v-284h323l-4 -48h-319v-274h373l-4 -48h-421zM175 890h72l114 -128h-57z" />
    <glyph glyph-name="Emacron" unicode="&#x112;" horiz-adv-x="545" 
d="M75 0v702h425l-4 -48h-369v-284h323l-4 -48h-319v-274h373l-4 -48h-421zM148 816h285l-4 -44h-285z" />
    <glyph glyph-name="Eogonek" unicode="&#x118;" horiz-adv-x="545" 
d="M75 0v702h425l-4 -48h-369v-284h323l-4 -48h-319v-274h373l-4 -48c-58 -32 -87 -76 -87 -115c0 -31 19 -55 59 -55c12 0 27 3 44 8l7 -46c-18 -5 -35 -8 -51 -8c-74 0 -109 44 -109 101c0 40 22 80 63 115h-347z" />
    <glyph glyph-name="Eacute.salt" horiz-adv-x="608" 
d="M374 664c-134 0 -251 -78 -257 -294h333l-4 -48h-329c10 -209 125 -284 257 -284c55 0 120 13 178 37l11 -48c-61 -24 -127 -37 -189 -37c-166 0 -309 95 -309 361s143 361 309 361c62 0 128 -13 189 -37l-11 -48c-58 24 -123 37 -178 37zM398 890h72l-129 -128h-57z" />
    <glyph glyph-name="Ebreve.salt" horiz-adv-x="608" 
d="M374 664c-134 0 -251 -78 -257 -294h333l-4 -48h-329c10 -209 125 -284 257 -284c55 0 120 13 178 37l11 -48c-61 -24 -127 -37 -189 -37c-166 0 -309 95 -309 361s143 361 309 361c62 0 128 -13 189 -37l-11 -48c-58 24 -123 37 -178 37zM227 891l45 4
c12 -75 48 -92 92 -92c42 0 78 17 90 92l45 -4c-10 -98 -62 -134 -135 -134c-76 0 -127 36 -137 134z" />
    <glyph glyph-name="Ecaron.salt" horiz-adv-x="608" 
d="M374 664c-134 0 -251 -78 -257 -294h333l-4 -48h-329c10 -209 125 -284 257 -284c55 0 120 13 178 37l11 -48c-61 -24 -127 -37 -189 -37c-166 0 -309 95 -309 361s143 361 309 361c62 0 128 -13 189 -37l-11 -48c-58 24 -123 37 -178 37zM341 762l-134 128h67l89 -87
l89 87h67l-134 -128h-44z" />
    <glyph glyph-name="Ecircumflex.salt" horiz-adv-x="608" 
d="M374 664c-134 0 -251 -78 -257 -294h333l-4 -48h-329c10 -209 125 -284 257 -284c55 0 120 13 178 37l11 -48c-61 -24 -127 -37 -189 -37c-166 0 -309 95 -309 361s143 361 309 361c62 0 128 -13 189 -37l-11 -48c-58 24 -123 37 -178 37zM385 890l134 -128h-67l-89 87
l-89 -87h-67l134 128h44z" />
    <glyph glyph-name="Edieresis.salt" horiz-adv-x="608" 
d="M374 664c-134 0 -251 -78 -257 -294h333l-4 -48h-329c10 -209 125 -284 257 -284c55 0 120 13 178 37l11 -48c-61 -24 -127 -37 -189 -37c-166 0 -309 95 -309 361s143 361 309 361c62 0 128 -13 189 -37l-11 -48c-58 24 -123 37 -178 37zM270 848c22 0 38 -16 38 -38
s-16 -38 -38 -38s-38 16 -38 38s16 38 38 38zM456 848c22 0 38 -16 38 -38s-16 -38 -38 -38s-38 16 -38 38s16 38 38 38z" />
    <glyph glyph-name="Edotaccent.salt" horiz-adv-x="608" 
d="M374 664c-134 0 -251 -78 -257 -294h333l-4 -48h-329c10 -209 125 -284 257 -284c55 0 120 13 178 37l11 -48c-61 -24 -127 -37 -189 -37c-166 0 -309 95 -309 361s143 361 309 361c62 0 128 -13 189 -37l-11 -48c-58 24 -123 37 -178 37zM363 848c22 0 38 -16 38 -38
s-16 -38 -38 -38s-38 16 -38 38s16 38 38 38z" />
    <glyph glyph-name="Egrave.salt" horiz-adv-x="608" 
d="M374 664c-134 0 -251 -78 -257 -294h333l-4 -48h-329c10 -209 125 -284 257 -284c55 0 120 13 178 37l11 -48c-61 -24 -127 -37 -189 -37c-166 0 -309 95 -309 361s143 361 309 361c62 0 128 -13 189 -37l-11 -48c-58 24 -123 37 -178 37zM256 890h72l114 -128h-57z" />
    <glyph glyph-name="Emacron.salt" horiz-adv-x="608" 
d="M374 664c-134 0 -251 -78 -257 -294h333l-4 -48h-329c10 -209 125 -284 257 -284c55 0 120 13 178 37l11 -48c-61 -24 -127 -37 -189 -37c-166 0 -309 95 -309 361s143 361 309 361c62 0 128 -13 189 -37l-11 -48c-58 24 -123 37 -178 37zM223 816h285l-4 -44h-285z" />
    <glyph glyph-name="Eogonek.salt" horiz-adv-x="608" 
d="M374 664c-134 0 -251 -78 -257 -294h333l-4 -48h-329c10 -209 125 -284 257 -284c55 0 120 13 178 37l11 -48c-64 -32 -102 -81 -102 -142c0 -31 19 -55 58 -55c13 0 28 3 45 8l7 -46c-18 -5 -35 -8 -51 -8c-74 0 -109 44 -109 101c0 44 16 81 46 112
c-28 -5 -56 -7 -83 -7c-166 0 -309 95 -309 361s143 361 309 361c62 0 128 -13 189 -37l-11 -48c-58 24 -123 37 -178 37z" />
    <glyph glyph-name="Gbreve" unicode="&#x11e;" horiz-adv-x="675" 
d="M384 664c-144 0 -267 -82 -267 -313c0 -223 108 -313 266 -313c46 0 105 8 165 31v218h-199l4 48h247v-301c-97 -35 -157 -44 -221 -44c-181 0 -314 100 -314 361c0 266 143 361 319 361c62 0 128 -13 189 -37l-11 -48c-57 23 -122 37 -178 37zM237 891l45 4
c12 -75 48 -92 92 -92c42 0 78 17 90 92l45 -4c-10 -98 -62 -134 -135 -134c-76 0 -127 36 -137 134z" />
    <glyph glyph-name="Gcircumflex" unicode="&#x11c;" horiz-adv-x="675" 
d="M384 664c-144 0 -267 -82 -267 -313c0 -223 108 -313 266 -313c46 0 105 8 165 31v218h-199l4 48h247v-301c-97 -35 -157 -44 -221 -44c-181 0 -314 100 -314 361c0 266 143 361 319 361c62 0 128 -13 189 -37l-11 -48c-57 23 -122 37 -178 37zM394 890l134 -128h-67
l-89 87l-89 -87h-67l134 128h44z" />
    <glyph glyph-name="Gcommaaccent" unicode="&#x122;" horiz-adv-x="675" 
d="M384 664c-144 0 -267 -82 -267 -313c0 -223 108 -313 266 -313c46 0 105 8 165 31v218h-199l4 48h247v-301c-97 -35 -157 -44 -221 -44c-181 0 -314 100 -314 361c0 266 143 361 319 361c62 0 128 -13 189 -37l-11 -48c-57 23 -122 37 -178 37zM353 -81l53 4
c30 -46 23 -95 -14 -139l-44 3c40 46 35 86 5 132z" />
    <glyph glyph-name="Gdotaccent" unicode="&#x120;" horiz-adv-x="675" 
d="M384 664c-144 0 -267 -82 -267 -313c0 -223 108 -313 266 -313c46 0 105 8 165 31v218h-199l4 48h247v-301c-97 -35 -157 -44 -221 -44c-181 0 -314 100 -314 361c0 266 143 361 319 361c62 0 128 -13 189 -37l-11 -48c-57 23 -122 37 -178 37zM372 848
c22 0 38 -16 38 -38s-16 -38 -38 -38s-38 16 -38 38s16 38 38 38z" />
    <glyph glyph-name="Hbar" unicode="&#x126;" horiz-adv-x="654" 
d="M75 702h52v-144h400v144h52v-144h70l-4 -44h-66v-514h-52v322h-400v-322h-52v514h-70l4 44h66v144zM127 370h400v144h-400v-144z" />
    <glyph glyph-name="Hcircumflex" unicode="&#x124;" horiz-adv-x="654" 
d="M75 702h52v-332h400v332h52v-702h-52v322h-400v-322h-52v702zM349 890l134 -128h-67l-89 87l-89 -87h-67l134 128h44z" />
    <glyph glyph-name="Iacute" unicode="&#xcd;" horiz-adv-x="202" 
d="M75 702h52v-702h-52v702zM188 890h72l-129 -128h-57z" />
    <glyph glyph-name="Ibreve" unicode="&#x12c;" horiz-adv-x="202" 
d="M75 702h52v-702h-52v702zM-35 891l45 4c12 -75 48 -92 92 -92c42 0 78 17 90 92l45 -4c-10 -98 -62 -134 -135 -134c-76 0 -127 36 -137 134z" />
    <glyph glyph-name="Icircumflex" unicode="&#xce;" horiz-adv-x="202" 
d="M75 702h52v-702h-52v702zM123 890l134 -128h-67l-89 87l-89 -87h-67l134 128h44z" />
    <glyph glyph-name="Idieresis" unicode="&#xcf;" horiz-adv-x="202" 
d="M75 702h52v-702h-52v702zM8 848c22 0 38 -16 38 -38s-16 -38 -38 -38s-38 16 -38 38s16 38 38 38zM194 848c22 0 38 -16 38 -38s-16 -38 -38 -38s-38 16 -38 38s16 38 38 38z" />
    <glyph glyph-name="Idotaccent" unicode="&#x130;" horiz-adv-x="202" 
d="M75 702h52v-702h-52v702zM101 848c22 0 38 -16 38 -38s-16 -38 -38 -38s-38 16 -38 38s16 38 38 38z" />
    <glyph glyph-name="Igrave" unicode="&#xcc;" horiz-adv-x="202" 
d="M75 702h52v-702h-52v702zM-58 890h72l114 -128h-57z" />
    <glyph glyph-name="Imacron" unicode="&#x12a;" horiz-adv-x="202" 
d="M75 702h52v-702h-52v702zM-39 816h285l-4 -44h-285z" />
    <glyph glyph-name="Iogonek" unicode="&#x12e;" horiz-adv-x="202" 
d="M143 -162l7 -46c-18 -5 -35 -8 -51 -8c-74 0 -109 44 -109 101c0 46 29 94 85 131v686h52v-702c-58 -32 -87 -76 -87 -115c0 -31 19 -55 59 -55c12 0 27 3 44 8z" />
    <glyph glyph-name="Itilde" unicode="&#x128;" horiz-adv-x="202" 
d="M75 702h52v-702h-52v702zM-56 759c9 50 47 85 90 85c73 0 83 -57 139 -57c21 0 36 20 44 47l42 -9c-10 -47 -47 -83 -89 -83c-73 0 -84 56 -140 56c-21 0 -37 -19 -45 -47z" />
    <glyph glyph-name="Iacute.salt" horiz-adv-x="376" 
d="M214 48h107l-4 -48h-262l4 48h103v606h-107l4 48h262l-4 -48h-103v-606zM239 890h72l-129 -128h-57z" />
    <glyph glyph-name="Ibreve.salt" horiz-adv-x="376" 
d="M214 48h107l-4 -48h-262l4 48h103v606h-107l4 48h262l-4 -48h-103v-606zM52 891l45 4c12 -75 48 -92 92 -92c42 0 78 17 90 92l45 -4c-10 -98 -62 -134 -135 -134c-76 0 -127 36 -137 134z" />
    <glyph glyph-name="Icircumflex.salt" horiz-adv-x="376" 
d="M214 48h107l-4 -48h-262l4 48h103v606h-107l4 48h262l-4 -48h-103v-606zM210 890l134 -128h-67l-89 87l-89 -87h-67l134 128h44z" />
    <glyph glyph-name="Idieresis.salt" horiz-adv-x="376" 
d="M214 48h107l-4 -48h-262l4 48h103v606h-107l4 48h262l-4 -48h-103v-606zM95 848c22 0 38 -16 38 -38s-16 -38 -38 -38s-38 16 -38 38s16 38 38 38zM281 848c22 0 38 -16 38 -38s-16 -38 -38 -38s-38 16 -38 38s16 38 38 38z" />
    <glyph glyph-name="Idotaccent.salt" horiz-adv-x="376" 
d="M214 48h107l-4 -48h-262l4 48h103v606h-107l4 48h262l-4 -48h-103v-606zM188 848c22 0 38 -16 38 -38s-16 -38 -38 -38s-38 16 -38 38s16 38 38 38z" />
    <glyph glyph-name="Igrave.salt" horiz-adv-x="376" 
d="M214 48h107l-4 -48h-262l4 48h103v606h-107l4 48h262l-4 -48h-103v-606zM65 890h72l114 -128h-57z" />
    <glyph glyph-name="Imacron.salt" horiz-adv-x="376" 
d="M214 48h107l-4 -48h-262l4 48h103v606h-107l4 48h262l-4 -48h-103v-606zM48 816h285l-4 -44h-285z" />
    <glyph glyph-name="Iogonek.salt" horiz-adv-x="376" 
d="M261 -162l7 -46c-18 -5 -35 -8 -51 -8c-74 0 -109 44 -109 101c0 40 22 80 63 115h-116l4 48h103v606h-107l4 48h262l-4 -48h-103v-606h107l-4 -48h-72c-58 -32 -87 -76 -87 -115c0 -31 19 -55 59 -55c12 0 27 3 44 8z" />
    <glyph glyph-name="Itilde.salt" horiz-adv-x="376" 
d="M214 48h107l-4 -48h-262l4 48h103v606h-107l4 48h262l-4 -48h-103v-606zM31 759c9 50 47 85 90 85c73 0 83 -57 139 -57c21 0 36 20 44 47l42 -9c-10 -47 -47 -83 -89 -83c-73 0 -84 56 -140 56c-21 0 -37 -19 -45 -47z" />
    <glyph glyph-name="Jcircumflex" unicode="&#x134;" horiz-adv-x="227" 
d="M100 702h52v-611c0 -104 -42 -171 -135 -247l-39 33c75 61 122 124 122 215v610zM148 890l134 -128h-67l-89 87l-89 -87h-67l134 128h44z" />
    <glyph glyph-name="Kcommaaccent" unicode="&#x136;" horiz-adv-x="568" 
d="M463 -2l-336 337v-335h-52v702h52v-335l337 337l65 -4l-348 -346l352 -352zM241 -81l53 4c30 -46 23 -95 -14 -139l-44 3c40 46 35 86 5 132z" />
    <glyph glyph-name="Lacute" unicode="&#x139;" horiz-adv-x="515" 
d="M75 702h52v-654h353l-4 -48h-401v702zM188 890h72l-129 -128h-57z" />
    <glyph glyph-name="Lcaron" unicode="&#x13d;" horiz-adv-x="515" 
d="M75 702h52v-654h353l-4 -48h-401v702zM197 758l53 5c28 -61 20 -126 -17 -185h-46c40 61 40 119 10 180z" />
    <glyph glyph-name="Lcommaaccent" unicode="&#x13b;" horiz-adv-x="515" 
d="M75 702h52v-654h353l-4 -48h-401v702zM246 -81l53 4c30 -46 23 -95 -14 -139l-44 3c40 46 35 86 5 132z" />
    <glyph glyph-name="Ldot" unicode="&#x13f;" horiz-adv-x="515" 
d="M75 702h52v-654h353l-4 -48h-401v702zM358 398c22 0 38 -16 38 -38s-16 -38 -38 -38s-38 16 -38 38s16 38 38 38z" />
    <glyph glyph-name="Lslash" unicode="&#x141;" horiz-adv-x="515" 
d="M75 702h52v-367l234 96l4 -50l-238 -98v-235h353l-4 -48h-401v261l-71 -29l-4 51l75 30v389z" />
    <glyph glyph-name="Nacute" unicode="&#x143;" horiz-adv-x="654" 
d="M127 611v-611h-52v700l52 4l400 -613v611h52v-700l-52 -4zM378 890h72l-129 -128h-57z" />
    <glyph glyph-name="Ncaron" unicode="&#x147;" horiz-adv-x="654" 
d="M127 611v-611h-52v700l52 4l400 -613v611h52v-700l-52 -4zM305 762l-134 128h67l89 -87l89 87h67l-134 -128h-44z" />
    <glyph glyph-name="Ncommaaccent" unicode="&#x145;" horiz-adv-x="654" 
d="M127 611v-611h-52v700l52 4l400 -613v611h52v-700l-52 -4zM288 -81l53 4c30 -46 23 -95 -14 -139l-44 3c40 46 35 86 5 132z" />
    <glyph glyph-name="Ntilde" unicode="&#xd1;" horiz-adv-x="654" 
d="M127 611v-611h-52v700l52 4l400 -613v611h52v-700l-52 -4zM170 759c9 50 47 85 90 85c73 0 83 -57 139 -57c21 0 36 20 44 47l42 -9c-10 -47 -47 -83 -89 -83c-73 0 -84 56 -140 56c-21 0 -37 -19 -45 -47z" />
    <glyph glyph-name="Oacute" unicode="&#xd3;" horiz-adv-x="752" 
d="M117 351c0 -230 107 -313 259 -313s259 83 259 313c0 231 -107 313 -259 313s-259 -82 -259 -313zM65 351c0 266 128 361 311 361s311 -95 311 -361c0 -265 -128 -361 -311 -361s-311 96 -311 361zM427 890h72l-129 -128h-57z" />
    <glyph glyph-name="Obreve" unicode="&#x14e;" horiz-adv-x="752" 
d="M117 351c0 -230 107 -313 259 -313s259 83 259 313c0 231 -107 313 -259 313s-259 -82 -259 -313zM65 351c0 266 128 361 311 361s311 -95 311 -361c0 -265 -128 -361 -311 -361s-311 96 -311 361zM240 891l45 4c12 -75 48 -92 92 -92c42 0 78 17 90 92l45 -4
c-10 -98 -62 -134 -135 -134c-76 0 -127 36 -137 134z" />
    <glyph glyph-name="Ocircumflex" unicode="&#xd4;" horiz-adv-x="752" 
d="M117 351c0 -230 107 -313 259 -313s259 83 259 313c0 231 -107 313 -259 313s-259 -82 -259 -313zM65 351c0 266 128 361 311 361s311 -95 311 -361c0 -265 -128 -361 -311 -361s-311 96 -311 361zM398 890l134 -128h-67l-89 87l-89 -87h-67l134 128h44z" />
    <glyph glyph-name="Odieresis" unicode="&#xd6;" horiz-adv-x="752" 
d="M117 351c0 -230 107 -313 259 -313s259 83 259 313c0 231 -107 313 -259 313s-259 -82 -259 -313zM65 351c0 266 128 361 311 361s311 -95 311 -361c0 -265 -128 -361 -311 -361s-311 96 -311 361zM283 848c22 0 38 -16 38 -38s-16 -38 -38 -38s-38 16 -38 38
s16 38 38 38zM469 848c22 0 38 -16 38 -38s-16 -38 -38 -38s-38 16 -38 38s16 38 38 38z" />
    <glyph glyph-name="Ograve" unicode="&#xd2;" horiz-adv-x="752" 
d="M117 351c0 -230 107 -313 259 -313s259 83 259 313c0 231 -107 313 -259 313s-259 -82 -259 -313zM65 351c0 266 128 361 311 361s311 -95 311 -361c0 -265 -128 -361 -311 -361s-311 96 -311 361zM253 890h72l114 -128h-57z" />
    <glyph glyph-name="Ohungarumlaut" unicode="&#x150;" horiz-adv-x="752" 
d="M117 351c0 -230 107 -313 259 -313s259 83 259 313c0 231 -107 313 -259 313s-259 -82 -259 -313zM65 351c0 266 128 361 311 361s311 -95 311 -361c0 -265 -128 -361 -311 -361s-311 96 -311 361zM339 890h72l-129 -128h-57zM516 890h72l-129 -128h-57z" />
    <glyph glyph-name="Omacron" unicode="&#x14c;" horiz-adv-x="752" 
d="M117 351c0 -230 107 -313 259 -313s259 83 259 313c0 231 -107 313 -259 313s-259 -82 -259 -313zM65 351c0 266 128 361 311 361s311 -95 311 -361c0 -265 -128 -361 -311 -361s-311 96 -311 361zM236 816h285l-4 -44h-285z" />
    <glyph glyph-name="Otilde" unicode="&#xd5;" horiz-adv-x="752" 
d="M117 351c0 -230 107 -313 259 -313s259 83 259 313c0 231 -107 313 -259 313s-259 -82 -259 -313zM65 351c0 266 128 361 311 361s311 -95 311 -361c0 -265 -128 -361 -311 -361s-311 96 -311 361zM219 759c9 50 47 85 90 85c73 0 83 -57 139 -57c21 0 36 20 44 47l42 -9
c-10 -47 -47 -83 -89 -83c-73 0 -84 56 -140 56c-21 0 -37 -19 -45 -47z" />
    <glyph glyph-name="Racute" unicode="&#x154;" horiz-adv-x="597" 
d="M127 284v-284h-52v702h169c165 0 267 -60 267 -207c0 -101 -53 -166 -136 -197l182 -296l-59 -4l-174 285c-26 -5 -54 -7 -83 -7c-40 0 -81 5 -114 8zM127 654v-321c27 -3 75 -9 113 -9c127 0 219 54 219 173c0 113 -80 157 -219 157h-113zM292 890h72l-129 -128h-57z
" />
    <glyph glyph-name="Rcaron" unicode="&#x158;" horiz-adv-x="597" 
d="M127 284v-284h-52v702h169c165 0 267 -60 267 -207c0 -101 -53 -166 -136 -197l182 -296l-59 -4l-174 285c-26 -5 -54 -7 -83 -7c-40 0 -81 5 -114 8zM127 654v-321c27 -3 75 -9 113 -9c127 0 219 54 219 173c0 113 -80 157 -219 157h-113zM250 762l-134 128h67l89 -87
l89 87h67l-134 -128h-44z" />
    <glyph glyph-name="Rcommaaccent" unicode="&#x156;" horiz-adv-x="597" 
d="M127 284v-284h-52v702h169c165 0 267 -60 267 -207c0 -101 -53 -166 -136 -197l182 -296l-59 -4l-174 285c-26 -5 -54 -7 -83 -7c-40 0 -81 5 -114 8zM127 654v-321c27 -3 75 -9 113 -9c127 0 219 54 219 173c0 113 -80 157 -219 157h-113zM243 -81l53 4
c30 -46 23 -95 -14 -139l-44 3c40 46 35 86 5 132z" />
    <glyph glyph-name="Racute.salt" horiz-adv-x="609" 
d="M127 284v-284h-52v702h169c165 0 267 -60 267 -207c0 -104 -57 -170 -144 -200c19 -157 74 -257 150 -257c33 0 60 7 90 18l7 -47c-37 -13 -71 -19 -102 -19c-102 0 -173 106 -197 292c-23 -4 -48 -6 -74 -6c-40 0 -81 5 -114 8zM127 654v-321c27 -3 75 -9 113 -9
c127 0 219 54 219 173c0 113 -80 157 -219 157h-113zM292 890h72l-129 -128h-57z" />
    <glyph glyph-name="Rcaron.salt" horiz-adv-x="609" 
d="M127 284v-284h-52v702h169c165 0 267 -60 267 -207c0 -104 -57 -170 -144 -200c19 -157 74 -257 150 -257c33 0 60 7 90 18l7 -47c-37 -13 -71 -19 -102 -19c-102 0 -173 106 -197 292c-23 -4 -48 -6 -74 -6c-40 0 -81 5 -114 8zM127 654v-321c27 -3 75 -9 113 -9
c127 0 219 54 219 173c0 113 -80 157 -219 157h-113zM250 762l-134 128h67l89 -87l89 87h67l-134 -128h-44z" />
    <glyph glyph-name="Rcommaaccent.salt" horiz-adv-x="609" 
d="M127 284v-284h-52v702h169c165 0 267 -60 267 -207c0 -104 -57 -170 -144 -200c19 -157 74 -257 150 -257c33 0 60 7 90 18l7 -47c-37 -13 -71 -19 -102 -19c-102 0 -173 106 -197 292c-23 -4 -48 -6 -74 -6c-40 0 -81 5 -114 8zM127 654v-321c27 -3 75 -9 113 -9
c127 0 219 54 219 173c0 113 -80 157 -219 157h-113zM243 -81l53 4c30 -46 23 -95 -14 -139l-44 3c40 46 35 86 5 132z" />
    <glyph glyph-name="Sacute" unicode="&#x15a;" 
d="M78 31l11 48c54 -25 120 -41 181 -41c94 0 175 38 175 141c0 164 -380 146 -380 357c0 123 101 176 220 176c62 0 129 -14 189 -41l-11 -48c-51 26 -117 42 -178 42c-90 0 -168 -36 -168 -132c0 -164 380 -145 380 -357c0 -131 -106 -186 -229 -186
c-63 0 -130 15 -190 41zM317 890h72l-129 -128h-57z" />
    <glyph glyph-name="Scaron" unicode="&#x160;" 
d="M78 31l11 48c54 -25 120 -41 181 -41c94 0 175 38 175 141c0 164 -380 146 -380 357c0 123 101 176 220 176c62 0 129 -14 189 -41l-11 -48c-51 26 -117 42 -178 42c-90 0 -168 -36 -168 -132c0 -164 380 -145 380 -357c0 -131 -106 -186 -229 -186
c-63 0 -130 15 -190 41zM254 762l-134 128h67l89 -87l89 87h67l-134 -128h-44z" />
    <glyph glyph-name="Scedilla" unicode="&#x15e;" 
d="M78 31l11 48c54 -25 120 -41 181 -41c94 0 175 38 175 141c0 164 -380 146 -380 357c0 123 101 176 220 176c62 0 129 -14 189 -41l-11 -48c-51 26 -117 42 -178 42c-90 0 -168 -36 -168 -132c0 -164 380 -145 380 -357c0 -114 -81 -171 -183 -183l-28 -47c6 1 12 1 17 1
c49 0 79 -31 79 -80s-44 -83 -107 -83c-21 0 -43 3 -67 11l8 43c18 -7 38 -10 56 -10c33 0 59 12 59 39c0 22 -11 38 -41 38c-9 0 -20 -2 -32 -5l-31 31l31 59c-60 2 -123 16 -180 41z" />
    <glyph glyph-name="Scircumflex" unicode="&#x15c;" 
d="M78 31l11 48c54 -25 120 -41 181 -41c94 0 175 38 175 141c0 164 -380 146 -380 357c0 123 101 176 220 176c62 0 129 -14 189 -41l-11 -48c-51 26 -117 42 -178 42c-90 0 -168 -36 -168 -132c0 -164 380 -145 380 -357c0 -131 -106 -186 -229 -186
c-63 0 -130 15 -190 41zM298 890l134 -128h-67l-89 87l-89 -87h-67l134 128h44z" />
    <glyph glyph-name="uni0218" unicode="&#x218;" 
d="M78 31l11 48c54 -25 120 -41 181 -41c94 0 175 38 175 141c0 164 -380 146 -380 357c0 123 101 176 220 176c62 0 129 -14 189 -41l-11 -48c-51 26 -117 42 -178 42c-90 0 -168 -36 -168 -132c0 -164 380 -145 380 -357c0 -131 -106 -186 -229 -186
c-63 0 -130 15 -190 41zM237 -81l53 4c30 -46 23 -95 -14 -139l-44 3c40 46 35 86 5 132z" />
    <glyph glyph-name="Tbar" unicode="&#x166;" horiz-adv-x="548" 
d="M134 372h114v282h-243l4 48h534l-4 -48h-239v-282h119l-4 -44h-115v-328h-52v328h-118z" />
    <glyph glyph-name="Tcaron" unicode="&#x164;" horiz-adv-x="548" 
d="M248 654h-243l4 48h534l-4 -48h-239v-654h-52v654zM252 762l-134 128h67l89 -87l89 87h67l-134 -128h-44z" />
    <glyph glyph-name="uni0162" unicode="&#x162;" horiz-adv-x="548" 
d="M248 654h-243l4 48h534l-4 -48h-239v-654l-35 -54c6 1 12 1 17 1c49 0 79 -31 79 -80s-44 -83 -107 -83c-21 0 -43 3 -67 11l8 43c18 -7 38 -10 56 -10c33 0 59 12 59 39c0 22 -11 38 -41 38c-9 0 -20 -2 -32 -5l-31 31l42 69v654z" />
    <glyph glyph-name="uni021A" unicode="&#x21a;" horiz-adv-x="548" 
d="M248 654h-243l4 48h534l-4 -48h-239v-654h-52v654zM240 -81l53 4c30 -46 23 -95 -14 -139l-44 3c40 46 35 86 5 132z" />
    <glyph glyph-name="Uacute" unicode="&#xda;" horiz-adv-x="654" 
d="M127 702v-496c0 -121 83 -168 200 -168c116 0 200 47 200 168v496h52v-496c0 -156 -106 -216 -252 -216c-147 0 -252 60 -252 216v496h52zM378 890h72l-129 -128h-57z" />
    <glyph glyph-name="Ubreve" unicode="&#x16c;" horiz-adv-x="654" 
d="M127 702v-496c0 -121 83 -168 200 -168c116 0 200 47 200 168v496h52v-496c0 -156 -106 -216 -252 -216c-147 0 -252 60 -252 216v496h52zM191 891l45 4c12 -75 48 -92 92 -92c42 0 78 17 90 92l45 -4c-10 -98 -62 -134 -135 -134c-76 0 -127 36 -137 134z" />
    <glyph glyph-name="Ucircumflex" unicode="&#xdb;" horiz-adv-x="654" 
d="M127 702v-496c0 -121 83 -168 200 -168c116 0 200 47 200 168v496h52v-496c0 -156 -106 -216 -252 -216c-147 0 -252 60 -252 216v496h52zM349 890l134 -128h-67l-89 87l-89 -87h-67l134 128h44z" />
    <glyph glyph-name="Udieresis" unicode="&#xdc;" horiz-adv-x="654" 
d="M127 702v-496c0 -121 83 -168 200 -168c116 0 200 47 200 168v496h52v-496c0 -156 -106 -216 -252 -216c-147 0 -252 60 -252 216v496h52zM234 848c22 0 38 -16 38 -38s-16 -38 -38 -38s-38 16 -38 38s16 38 38 38zM420 848c22 0 38 -16 38 -38s-16 -38 -38 -38
s-38 16 -38 38s16 38 38 38z" />
    <glyph glyph-name="Ugrave" unicode="&#xd9;" horiz-adv-x="654" 
d="M127 702v-496c0 -121 83 -168 200 -168c116 0 200 47 200 168v496h52v-496c0 -156 -106 -216 -252 -216c-147 0 -252 60 -252 216v496h52zM204 890h72l114 -128h-57z" />
    <glyph glyph-name="Uhungarumlaut" unicode="&#x170;" horiz-adv-x="654" 
d="M127 702v-496c0 -121 83 -168 200 -168c116 0 200 47 200 168v496h52v-496c0 -156 -106 -216 -252 -216c-147 0 -252 60 -252 216v496h52zM290 890h72l-129 -128h-57zM467 890h72l-129 -128h-57z" />
    <glyph glyph-name="Umacron" unicode="&#x16a;" horiz-adv-x="654" 
d="M127 702v-496c0 -121 83 -168 200 -168c116 0 200 47 200 168v496h52v-496c0 -156 -106 -216 -252 -216c-147 0 -252 60 -252 216v496h52zM187 816h285l-4 -44h-285z" />
    <glyph glyph-name="Uogonek" unicode="&#x172;" horiz-adv-x="654" 
d="M437 -162l7 -46c-18 -5 -35 -8 -51 -8c-74 0 -109 44 -109 101c0 36 18 73 52 105h-9c-147 0 -252 60 -252 216v496h52v-496c0 -121 83 -168 200 -168c116 0 200 47 200 168v496h52v-496c0 -120 -63 -183 -158 -206c-58 -32 -87 -76 -87 -115c0 -31 19 -55 59 -55
c12 0 27 3 44 8z" />
    <glyph glyph-name="Uring" unicode="&#x16e;" horiz-adv-x="654" 
d="M127 702v-496c0 -121 83 -168 200 -168c116 0 200 47 200 168v496h52v-496c0 -156 -106 -216 -252 -216c-147 0 -252 60 -252 216v496h52zM278 786c0 -30 20 -52 48 -52c30 0 50 22 50 52c0 32 -20 54 -50 54c-28 0 -48 -22 -48 -54zM232 786c0 57 39 96 94 96
c57 0 96 -39 96 -96c0 -55 -39 -94 -96 -94c-55 0 -94 39 -94 94z" />
    <glyph glyph-name="Utilde" unicode="&#x168;" horiz-adv-x="654" 
d="M127 702v-496c0 -121 83 -168 200 -168c116 0 200 47 200 168v496h52v-496c0 -156 -106 -216 -252 -216c-147 0 -252 60 -252 216v496h52zM170 759c9 50 47 85 90 85c73 0 83 -57 139 -57c21 0 36 20 44 47l42 -9c-10 -47 -47 -83 -89 -83c-73 0 -84 56 -140 56
c-21 0 -37 -19 -45 -47z" />
    <glyph glyph-name="Uacute.salt" horiz-adv-x="654" 
d="M579 702v-702h-42l-10 74c-76 -43 -155 -84 -249 -84s-203 48 -203 211v501h52v-501c0 -107 62 -163 151 -163c84 0 153 32 249 88v576h52zM378 890h72l-129 -128h-57z" />
    <glyph glyph-name="Ubreve.salt" horiz-adv-x="654" 
d="M579 702v-702h-42l-10 74c-76 -43 -155 -84 -249 -84s-203 48 -203 211v501h52v-501c0 -107 62 -163 151 -163c84 0 153 32 249 88v576h52zM191 891l45 4c12 -75 48 -92 92 -92c42 0 78 17 90 92l45 -4c-10 -98 -62 -134 -135 -134c-76 0 -127 36 -137 134z" />
    <glyph glyph-name="Ucircumflex.salt" horiz-adv-x="654" 
d="M579 702v-702h-42l-10 74c-76 -43 -155 -84 -249 -84s-203 48 -203 211v501h52v-501c0 -107 62 -163 151 -163c84 0 153 32 249 88v576h52zM349 890l134 -128h-67l-89 87l-89 -87h-67l134 128h44z" />
    <glyph glyph-name="Udieresis.salt" horiz-adv-x="654" 
d="M579 702v-702h-42l-10 74c-76 -43 -155 -84 -249 -84s-203 48 -203 211v501h52v-501c0 -107 62 -163 151 -163c84 0 153 32 249 88v576h52zM234 848c22 0 38 -16 38 -38s-16 -38 -38 -38s-38 16 -38 38s16 38 38 38zM420 848c22 0 38 -16 38 -38s-16 -38 -38 -38
s-38 16 -38 38s16 38 38 38z" />
    <glyph glyph-name="Ugrave.salt" horiz-adv-x="654" 
d="M579 702v-702h-42l-10 74c-76 -43 -155 -84 -249 -84s-203 48 -203 211v501h52v-501c0 -107 62 -163 151 -163c84 0 153 32 249 88v576h52zM204 890h72l114 -128h-57z" />
    <glyph glyph-name="Uhungarumlaut.salt" horiz-adv-x="654" 
d="M579 702v-702h-42l-10 74c-76 -43 -155 -84 -249 -84s-203 48 -203 211v501h52v-501c0 -107 62 -163 151 -163c84 0 153 32 249 88v576h52zM290 890h72l-129 -128h-57zM467 890h72l-129 -128h-57z" />
    <glyph glyph-name="Umacron.salt" horiz-adv-x="654" 
d="M579 702v-702h-42l-10 74c-76 -43 -155 -84 -249 -84s-203 48 -203 211v501h52v-501c0 -107 62 -163 151 -163c84 0 153 32 249 88v576h52zM187 816h285l-4 -44h-285z" />
    <glyph glyph-name="Uogonek.salt" horiz-adv-x="654" 
d="M595 -162l7 -46c-18 -5 -35 -8 -51 -8c-74 0 -109 44 -109 101c0 48 32 98 92 136l-7 53c-76 -43 -155 -84 -249 -84s-203 48 -203 211v501h52v-501c0 -107 62 -163 151 -163c84 0 153 32 249 88v576h52v-702c-58 -32 -87 -76 -87 -115c0 -31 19 -55 59 -55
c12 0 27 3 44 8z" />
    <glyph glyph-name="Uring.salt" horiz-adv-x="654" 
d="M579 702v-702h-42l-10 74c-76 -43 -155 -84 -249 -84s-203 48 -203 211v501h52v-501c0 -107 62 -163 151 -163c84 0 153 32 249 88v576h52zM278 786c0 -30 20 -52 48 -52c30 0 50 22 50 52c0 32 -20 54 -50 54c-28 0 -48 -22 -48 -54zM232 786c0 57 39 96 94 96
c57 0 96 -39 96 -96c0 -55 -39 -94 -96 -94c-55 0 -94 39 -94 94z" />
    <glyph glyph-name="Utilde.salt" horiz-adv-x="654" 
d="M579 702v-702h-42l-10 74c-76 -43 -155 -84 -249 -84s-203 48 -203 211v501h52v-501c0 -107 62 -163 151 -163c84 0 153 32 249 88v576h52zM170 759c9 50 47 85 90 85c73 0 83 -57 139 -57c21 0 36 20 44 47l42 -9c-10 -47 -47 -83 -89 -83c-73 0 -84 56 -140 56
c-21 0 -37 -19 -45 -47z" />
    <glyph glyph-name="Wacute" unicode="&#x1e82;" horiz-adv-x="954" 
d="M876 704l53 -4l-205 -700h-67l-180 625l-180 -625h-67l-205 700l54 4l185 -654l184 650l58 4l185 -654zM528 890h72l-129 -128h-57z" />
    <glyph glyph-name="Wcircumflex" unicode="&#x174;" horiz-adv-x="954" 
d="M876 704l53 -4l-205 -700h-67l-180 625l-180 -625h-67l-205 700l54 4l185 -654l184 650l58 4l185 -654zM499 890l134 -128h-67l-89 87l-89 -87h-67l134 128h44z" />
    <glyph glyph-name="Wdieresis" unicode="&#x1e84;" horiz-adv-x="954" 
d="M876 704l53 -4l-205 -700h-67l-180 625l-180 -625h-67l-205 700l54 4l185 -654l184 650l58 4l185 -654zM384 848c22 0 38 -16 38 -38s-16 -38 -38 -38s-38 16 -38 38s16 38 38 38zM570 848c22 0 38 -16 38 -38s-16 -38 -38 -38s-38 16 -38 38s16 38 38 38z" />
    <glyph glyph-name="Wgrave" unicode="&#x1e80;" horiz-adv-x="954" 
d="M876 704l53 -4l-205 -700h-67l-180 625l-180 -625h-67l-205 700l54 4l185 -654l184 650l58 4l185 -654zM354 890h72l114 -128h-57z" />
    <glyph glyph-name="Yacute" unicode="&#xdd;" horiz-adv-x="582" 
d="M265 0v303l-250 397l60 4l216 -351l215 351l61 -4l-250 -397v-303h-52zM342 890h72l-129 -128h-57z" />
    <glyph glyph-name="Ycircumflex" unicode="&#x176;" horiz-adv-x="582" 
d="M265 0v303l-250 397l60 4l216 -351l215 351l61 -4l-250 -397v-303h-52zM313 890l134 -128h-67l-89 87l-89 -87h-67l134 128h44z" />
    <glyph glyph-name="Ydieresis" unicode="&#x178;" horiz-adv-x="582" 
d="M265 0v303l-250 397l60 4l216 -351l215 351l61 -4l-250 -397v-303h-52zM198 848c22 0 38 -16 38 -38s-16 -38 -38 -38s-38 16 -38 38s16 38 38 38zM384 848c22 0 38 -16 38 -38s-16 -38 -38 -38s-38 16 -38 38s16 38 38 38z" />
    <glyph glyph-name="Ygrave" unicode="&#x1ef2;" horiz-adv-x="582" 
d="M265 0v303l-250 397l60 4l216 -351l215 351l61 -4l-250 -397v-303h-52zM168 890h72l114 -128h-57z" />
    <glyph glyph-name="Yacute.salt" horiz-adv-x="634" 
d="M569 702v-447c0 -169 -95 -265 -258 -265c-64 0 -137 15 -217 47l11 49c73 -31 142 -48 206 -48c121 0 206 71 206 217v99c-76 -43 -155 -84 -249 -84s-203 48 -203 211v221h52v-221c0 -107 62 -163 151 -163c84 0 153 32 249 88v296h52zM378 890h72l-129 -128h-57z" />
    <glyph glyph-name="Ycircumflex.salt" horiz-adv-x="634" 
d="M569 702v-447c0 -169 -95 -265 -258 -265c-64 0 -137 15 -217 47l11 49c73 -31 142 -48 206 -48c121 0 206 71 206 217v99c-76 -43 -155 -84 -249 -84s-203 48 -203 211v221h52v-221c0 -107 62 -163 151 -163c84 0 153 32 249 88v296h52zM349 890l134 -128h-67l-89 87
l-89 -87h-67l134 128h44z" />
    <glyph glyph-name="Ydieresis.salt" horiz-adv-x="634" 
d="M569 702v-447c0 -169 -95 -265 -258 -265c-64 0 -137 15 -217 47l11 49c73 -31 142 -48 206 -48c121 0 206 71 206 217v99c-76 -43 -155 -84 -249 -84s-203 48 -203 211v221h52v-221c0 -107 62 -163 151 -163c84 0 153 32 249 88v296h52zM234 848c22 0 38 -16 38 -38
s-16 -38 -38 -38s-38 16 -38 38s16 38 38 38zM420 848c22 0 38 -16 38 -38s-16 -38 -38 -38s-38 16 -38 38s16 38 38 38z" />
    <glyph glyph-name="Ygrave.salt" horiz-adv-x="634" 
d="M569 702v-447c0 -169 -95 -265 -258 -265c-64 0 -137 15 -217 47l11 49c73 -31 142 -48 206 -48c121 0 206 71 206 217v99c-76 -43 -155 -84 -249 -84s-203 48 -203 211v221h52v-221c0 -107 62 -163 151 -163c84 0 153 32 249 88v296h52zM204 890h72l114 -128h-57z" />
    <glyph glyph-name="Zacute" unicode="&#x179;" horiz-adv-x="576" 
d="M45 654l4 48h478l4 -48l-421 -606h421l-4 -48h-478l-4 48l421 606h-421zM339 890h72l-129 -128h-57z" />
    <glyph glyph-name="Zcaron" unicode="&#x17d;" horiz-adv-x="576" 
d="M45 654l4 48h478l4 -48l-421 -606h421l-4 -48h-478l-4 48l421 606h-421zM266 762l-134 128h67l89 -87l89 87h67l-134 -128h-44z" />
    <glyph glyph-name="Zdotaccent" unicode="&#x17b;" horiz-adv-x="576" 
d="M45 654l4 48h478l4 -48l-421 -606h421l-4 -48h-478l-4 48l421 606h-421zM288 848c22 0 38 -16 38 -38s-16 -38 -38 -38s-38 16 -38 38s16 38 38 38z" />
    <glyph glyph-name="a" unicode="a" horiz-adv-x="463" 
d="M338 271v63c0 78 -34 104 -85 104c-49 0 -114 -19 -182 -43l-7 46c64 24 134 43 189 43c81 0 135 -38 135 -150v-334h-38l-9 63c-52 -48 -118 -73 -173 -73c-67 0 -123 36 -123 119c0 84 53 145 293 162zM168 36c65 0 129 35 170 84v105c-201 -15 -243 -62 -243 -113
c0 -60 41 -76 73 -76z" />
    <glyph glyph-name="b" unicode="b" horiz-adv-x="531" 
d="M75 31v723l50 4v-342c68 40 130 68 185 68c96 0 166 -72 166 -247c0 -179 -90 -247 -199 -247c-77 0 -125 12 -202 41zM125 62c53 -20 104 -26 152 -26c81 0 149 53 149 202c0 143 -50 200 -116 200c-59 0 -127 -38 -185 -72v-304z" />
    <glyph glyph-name="c" unicode="c" horiz-adv-x="441" 
d="M266 -10c-113 0 -211 65 -211 247s98 247 211 247c43 0 88 -9 130 -25l-7 -46c-41 16 -82 25 -120 25c-92 0 -164 -53 -164 -201c0 -147 72 -201 164 -201c38 0 79 10 120 25l7 -46c-42 -16 -87 -25 -130 -25z" />
    <glyph glyph-name="d" unicode="d" horiz-adv-x="531" 
d="M406 448v306l50 4v-758h-40l-10 58c-68 -40 -130 -68 -185 -68c-96 0 -166 72 -166 247c0 179 90 247 199 247c49 0 103 -14 152 -36zM406 402c-45 19 -104 36 -152 36c-81 0 -149 -53 -149 -202c0 -143 50 -200 116 -200c59 0 127 38 185 72v294z" />
    <glyph glyph-name="e" unicode="e" horiz-adv-x="491" 
d="M431 218h-326c6 -137 78 -181 165 -181c44 0 92 11 138 28l7 -46c-49 -18 -100 -29 -149 -29c-114 0 -211 63 -211 247c0 178 85 247 205 247c117 0 196 -92 171 -266zM260 438c-90 0 -147 -54 -154 -174h280c4 112 -47 174 -126 174z" />
    <glyph glyph-name="f" unicode="f" horiz-adv-x="333" 
d="M106 474v120c0 84 27 164 132 164c26 0 54 -4 90 -15l-5 -45c-28 8 -61 14 -81 14c-73 0 -86 -59 -86 -124v-114h156l-4 -46h-152v-428h-50v428h-81l4 46h77z" />
    <glyph glyph-name="g" unicode="g" horiz-adv-x="503" 
d="M414 328c0 -92 -56 -156 -173 -156c-18 0 -34 1 -49 4c-58 -51 -58 -105 28 -105h49c132 0 199 -49 199 -129c0 -81 -79 -158 -246 -158c-119 0 -177 57 -177 124c0 48 30 101 94 135c-26 16 -37 40 -37 68c0 27 13 55 45 79c-53 26 -79 75 -79 138c0 93 56 156 173 156
c27 0 52 -4 73 -10h144l-4 -46h-71c21 -26 31 -61 31 -100zM220 25c-13 0 -25 1 -35 2c-61 -32 -90 -79 -90 -119c0 -42 42 -78 127 -78c133 0 196 55 196 112c0 51 -50 83 -149 83h-49zM364 328c0 66 -40 110 -123 110s-123 -44 -123 -110c0 -65 40 -110 123 -110
s123 45 123 110z" />
    <glyph glyph-name="g.salt" horiz-adv-x="531" 
d="M406 -18v86c-68 -40 -130 -68 -185 -68c-96 0 -166 72 -166 237c0 179 90 247 199 247c77 0 125 -12 202 -41v-461c0 -118 -91 -198 -192 -198c-60 0 -118 14 -177 35l7 47c64 -24 121 -36 170 -36c74 0 142 62 142 152zM406 412c-53 20 -104 26 -152 26
c-81 0 -149 -53 -149 -202c0 -133 50 -190 116 -190c59 0 127 38 185 72v294z" />
    <glyph glyph-name="h" unicode="h" horiz-adv-x="520" 
d="M125 366v-366h-50v754l50 4v-342c68 40 130 68 185 68c67 0 135 -36 135 -157v-327h-50v327c0 75 -36 111 -85 111c-59 0 -127 -38 -185 -72z" />
    <glyph glyph-name="i" unicode="i" horiz-adv-x="200" 
d="M75 472l50 4v-476h-50v472zM100 635c22 0 38 -16 38 -38s-16 -38 -38 -38s-38 16 -38 38s16 38 38 38z" />
    <glyph glyph-name="j" unicode="j" horiz-adv-x="235" 
d="M110 472l50 4v-454c0 -100 -40 -165 -130 -238l-37 31c72 59 117 120 117 208v449zM135 635c22 0 38 -16 38 -38s-16 -38 -38 -38s-38 16 -38 38s16 38 38 38z" />
    <glyph glyph-name="k" unicode="k" horiz-adv-x="457" 
d="M377 -2l-252 233v-231h-50v754l50 4v-497l233 215l65 -4l-243 -224l267 -246z" />
    <glyph glyph-name="l" unicode="l" horiz-adv-x="275" 
d="M75 754l50 4v-655c0 -71 36 -81 140 -49l5 -45c-35 -11 -68 -19 -97 -19c-59 0 -98 29 -98 114v650z" />
    <glyph glyph-name="l.salt" horiz-adv-x="200" 
d="M75 754l50 4v-758h-50v754z" />
    <glyph glyph-name="m" unicode="m" horiz-adv-x="800" 
d="M408 417c67 40 126 67 191 67c62 0 126 -36 126 -157v-327h-50v327c0 75 -33 111 -79 111c-53 0 -122 -29 -175 -64c3 -13 4 -30 4 -47v-327h-50v327c0 75 -33 111 -79 111c-54 0 -117 -38 -171 -72v-366h-50v472l50 4v-60c64 40 122 68 174 68c43 0 88 -18 109 -67z" />
    <glyph glyph-name="n" unicode="n" horiz-adv-x="520" 
d="M125 366v-366h-50v472l50 4v-60c68 40 130 68 185 68c67 0 135 -36 135 -157v-327h-50v327c0 75 -36 111 -85 111c-59 0 -127 -38 -185 -72z" />
    <glyph glyph-name="o" unicode="o" horiz-adv-x="539" 
d="M105 237c0 -140 66 -201 165 -201c98 0 164 61 164 201c0 139 -66 201 -164 201c-99 0 -165 -62 -165 -201zM55 237c0 171 86 247 215 247c128 0 214 -76 214 -247c0 -172 -86 -247 -214 -247c-129 0 -215 75 -215 247z" />
    <glyph glyph-name="p" unicode="p" horiz-adv-x="531" 
d="M125 26v-230l-50 -4v680l50 4v-60c68 40 130 68 185 68c96 0 166 -72 166 -247c0 -179 -90 -247 -199 -247c-49 0 -103 14 -152 36zM125 72c45 -19 104 -36 152 -36c81 0 149 53 149 202c0 143 -50 200 -116 200c-59 0 -127 -38 -185 -72v-294z" />
    <glyph glyph-name="q" unicode="q" horiz-adv-x="531" 
d="M456 443v-647l-50 -4v266c-68 -40 -130 -68 -185 -68c-96 0 -166 72 -166 247c0 179 90 247 199 247c77 0 125 -12 202 -41zM406 412c-53 20 -104 26 -152 26c-81 0 -149 -53 -149 -202c0 -143 50 -200 116 -200c59 0 127 38 185 72v304z" />
    <glyph glyph-name="r" unicode="r" horiz-adv-x="351" 
d="M341 473l-7 -46c-102 26 -110 12 -209 -111v-316h-50v472l50 4v-96c84 117 121 113 216 93z" />
    <glyph glyph-name="s" unicode="s" horiz-adv-x="419" 
d="M70 20l7 46c37 -17 87 -30 131 -30c58 0 106 22 106 87c0 109 -249 87 -249 238c0 86 70 123 151 123c44 0 91 -10 133 -30l-7 -46c-34 17 -83 30 -126 30c-55 0 -101 -20 -101 -77c0 -108 249 -87 249 -238c0 -93 -75 -133 -161 -133c-44 0 -92 11 -133 30z" />
    <glyph glyph-name="t" unicode="t" horiz-adv-x="366" 
d="M106 154v274h-81l4 46h77v150l50 4v-154h156l-4 -46h-152v-270c0 -65 17 -122 90 -122c20 0 52 4 80 12l5 -43c-36 -11 -64 -15 -90 -15c-105 0 -135 81 -135 164z" />
    <glyph glyph-name="u" unicode="u" horiz-adv-x="520" 
d="M395 108v364l50 4v-476h-40l-10 58c-68 -40 -130 -68 -185 -68c-67 0 -135 36 -135 157v325l50 4v-329c0 -75 36 -111 85 -111c59 0 127 38 185 72z" />
    <glyph glyph-name="v" unicode="v" horiz-adv-x="466" 
d="M15 472l54 4l164 -428l164 428l54 -4l-186 -472h-64z" />
    <glyph glyph-name="w" unicode="w" horiz-adv-x="738" 
d="M15 472l54 4l134 -428l133 424l65 4l134 -428l134 428l54 -4l-156 -472h-64l-134 428l-134 -428h-64z" />
    <glyph glyph-name="x" unicode="x" horiz-adv-x="444" 
d="M223 276l144 200l57 -4l-172 -234l172 -236l-60 -4l-143 200l-144 -200l-57 4l172 234l-172 236l60 4z" />
    <glyph glyph-name="y" unicode="y" horiz-adv-x="466" 
d="M69 476l164 -428l164 428l54 -4l-268 -680l-52 4l82 204h-12l-186 472z" />
    <glyph glyph-name="z" unicode="z" horiz-adv-x="432" 
d="M100 46h297l-4 -46h-354l-4 42l296 386h-277l4 46h334l4 -42z" />
    <glyph glyph-name="ae" unicode="&#xe6;" horiz-adv-x="774" 
d="M549 -10c-74 0 -141 26 -179 95c-78 -72 -145 -95 -202 -95c-67 0 -123 36 -123 119s52 144 293 161v64c0 78 -34 104 -85 104c-49 0 -114 -19 -182 -43l-7 46c64 24 134 43 189 43c63 0 107 -23 124 -87c34 61 92 87 166 87c117 0 196 -92 171 -266h-326
c6 -137 78 -181 165 -181c44 0 92 11 138 28l7 -46c-49 -18 -100 -29 -149 -29zM543 438c-90 0 -147 -54 -154 -174h280c4 112 -47 174 -126 174zM168 36c63 0 124 31 185 92c-9 27 -14 59 -15 96c-202 -15 -243 -62 -243 -112c0 -60 41 -76 73 -76z" />
    <glyph glyph-name="eng" unicode="&#x14b;" horiz-adv-x="520" 
d="M125 366v-366h-50v472l50 4v-60c68 40 130 68 185 68c67 0 135 -36 135 -157v-305c0 -100 -40 -165 -130 -238l-37 31c72 59 117 120 117 208v304c0 75 -36 111 -85 111c-59 0 -127 -38 -185 -72z" />
    <glyph glyph-name="germandbls" unicode="&#xdf;" horiz-adv-x="545" 
d="M286 350l-20 37l68 127c16 31 24 64 24 93c0 59 -35 105 -110 105c-76 0 -123 -46 -123 -139v-573h-50v573c0 124 66 185 173 185c110 0 161 -67 161 -152c0 -35 -11 -74 -31 -113l-55 -103c113 -28 167 -121 167 -209c0 -99 -67 -191 -194 -191c-27 0 -57 5 -89 16l7 46
c31 -11 58 -16 82 -16c94 0 143 71 143 146s-49 153 -153 168z" />
    <glyph glyph-name="eth" unicode="&#xf0;" horiz-adv-x="549" 
d="M143 579l146 68c-41 50 -84 86 -117 111h72c29 -23 60 -54 89 -91l150 70l16 -43l-138 -64c68 -101 123 -236 123 -377c0 -198 -86 -263 -214 -263c-129 0 -215 65 -215 247c0 179 90 247 199 247c46 0 98 -13 144 -32c-22 62 -51 114 -81 157l-158 -73zM414 400
c-69 28 -112 38 -160 38c-81 0 -149 -52 -149 -201c0 -148 66 -201 165 -201c146 0 196 132 144 364z" />
    <glyph glyph-name="ij" unicode="&#x133;" horiz-adv-x="425" 
d="M75 472l50 4v-476h-50v472zM100 635c22 0 38 -16 38 -38s-16 -38 -38 -38s-38 16 -38 38s16 38 38 38zM300 472l50 4v-454c0 -100 -40 -165 -130 -238l-37 31c72 59 117 120 117 208v449zM325 635c22 0 38 -16 38 -38s-16 -38 -38 -38s-38 16 -38 38s16 38 38 38z" />
    <glyph glyph-name="kgreenlandic" unicode="&#x138;" horiz-adv-x="457" 
d="M377 -2l-252 233v-231h-50v472l50 4v-215l233 215l65 -4l-243 -224l267 -246z" />
    <glyph glyph-name="longs" unicode="&#x17f;" horiz-adv-x="302" 
d="M75 0v594c0 84 27 164 132 164c26 0 54 -4 90 -15l-5 -45c-28 8 -61 14 -81 14c-73 0 -86 -59 -86 -124v-588h-50z" />
    <glyph glyph-name="oe" unicode="&#x153;" horiz-adv-x="870" 
d="M810 218h-326c6 -137 78 -181 165 -181c44 0 92 11 138 28l7 -46c-49 -18 -100 -29 -149 -29c-83 0 -153 33 -186 120c-32 -83 -99 -120 -189 -120c-129 0 -215 75 -215 247c0 171 86 247 215 247c90 0 156 -37 188 -119c31 84 96 119 181 119c117 0 196 -92 171 -266z
M105 237c0 -140 66 -201 165 -201c98 0 164 61 164 201c0 139 -66 201 -164 201c-99 0 -165 -62 -165 -201zM639 438c-90 0 -147 -54 -154 -174h280c4 112 -47 174 -126 174z" />
    <glyph glyph-name="oslash" unicode="&#xf8;" horiz-adv-x="539" 
d="M428 535l43 -21l-52 -83c41 -40 65 -104 65 -194c0 -172 -86 -247 -214 -247c-43 0 -80 8 -112 25l-47 -76l-43 21l52 83c-41 40 -65 103 -65 194c0 171 86 247 215 247c42 0 79 -8 110 -25zM105 237c0 -68 15 -117 42 -150l207 330c-24 14 -52 21 -84 21
c-99 0 -165 -62 -165 -201zM434 237c0 67 -16 116 -43 149l-207 -330c24 -13 53 -20 86 -20c98 0 164 61 164 201z" />
    <glyph glyph-name="thorn" unicode="&#xfe;" horiz-adv-x="531" 
d="M125 26v-230l-50 -4v962l50 4v-342c68 40 130 68 185 68c96 0 166 -72 166 -247c0 -179 -90 -247 -199 -247c-49 0 -103 14 -152 36zM125 72c45 -19 104 -36 152 -36c81 0 149 53 149 202c0 143 -50 200 -116 200c-59 0 -127 -38 -185 -72v-294z" />
    <glyph glyph-name="aacute" unicode="&#xe1;" horiz-adv-x="463" 
d="M338 271v63c0 78 -34 104 -85 104c-49 0 -114 -19 -182 -43l-7 46c64 24 134 43 189 43c81 0 135 -38 135 -150v-334h-38l-9 63c-52 -48 -118 -73 -173 -73c-67 0 -123 36 -123 119c0 84 53 145 293 162zM168 36c65 0 129 35 170 84v105c-201 -15 -243 -62 -243 -113
c0 -60 41 -76 73 -76zM264 702h58l-92 -158h-50z" />
    <glyph glyph-name="abreve" unicode="&#x103;" horiz-adv-x="463" 
d="M338 271v63c0 78 -34 104 -85 104c-49 0 -114 -19 -182 -43l-7 46c64 24 134 43 189 43c81 0 135 -38 135 -150v-334h-38l-9 63c-52 -48 -118 -73 -173 -73c-67 0 -123 36 -123 119c0 84 53 145 293 162zM168 36c65 0 129 35 170 84v105c-201 -15 -243 -62 -243 -113
c0 -60 41 -76 73 -76zM94 698l45 4c2 -85 48 -112 92 -112c42 0 88 27 90 112l45 -4c0 -108 -62 -154 -135 -154c-76 0 -137 46 -137 154z" />
    <glyph glyph-name="acircumflex" unicode="&#xe2;" horiz-adv-x="463" 
d="M338 271v63c0 78 -34 104 -85 104c-49 0 -114 -19 -182 -43l-7 46c64 24 134 43 189 43c81 0 135 -38 135 -150v-334h-38l-9 63c-52 -48 -118 -73 -173 -73c-67 0 -123 36 -123 119c0 84 53 145 293 162zM168 36c65 0 129 35 170 84v105c-201 -15 -243 -62 -243 -113
c0 -60 41 -76 73 -76zM253 702l114 -158h-56l-80 114l-80 -114h-56l114 158h44z" />
    <glyph glyph-name="adieresis" unicode="&#xe4;" horiz-adv-x="463" 
d="M338 271v63c0 78 -34 104 -85 104c-49 0 -114 -19 -182 -43l-7 46c64 24 134 43 189 43c81 0 135 -38 135 -150v-334h-38l-9 63c-52 -48 -118 -73 -173 -73c-67 0 -123 36 -123 119c0 84 53 145 293 162zM168 36c65 0 129 35 170 84v105c-201 -15 -243 -62 -243 -113
c0 -60 41 -76 73 -76zM142 635c22 0 38 -16 38 -38s-16 -38 -38 -38s-38 16 -38 38s16 38 38 38zM328 635c22 0 38 -16 38 -38s-16 -38 -38 -38s-38 16 -38 38s16 38 38 38z" />
    <glyph glyph-name="agrave" unicode="&#xe0;" horiz-adv-x="463" 
d="M338 271v63c0 78 -34 104 -85 104c-49 0 -114 -19 -182 -43l-7 46c64 24 134 43 189 43c81 0 135 -38 135 -150v-334h-38l-9 63c-52 -48 -118 -73 -173 -73c-67 0 -123 36 -123 119c0 84 53 145 293 162zM168 36c65 0 129 35 170 84v105c-201 -15 -243 -62 -243 -113
c0 -60 41 -76 73 -76zM140 702h58l84 -158h-50z" />
    <glyph glyph-name="amacron" unicode="&#x101;" horiz-adv-x="463" 
d="M338 271v63c0 78 -34 104 -85 104c-49 0 -114 -19 -182 -43l-7 46c64 24 134 43 189 43c81 0 135 -38 135 -150v-334h-38l-9 63c-52 -48 -118 -73 -173 -73c-67 0 -123 36 -123 119c0 84 53 145 293 162zM168 36c65 0 129 35 170 84v105c-201 -15 -243 -62 -243 -113
c0 -60 41 -76 73 -76zM84 620h285l-4 -44h-285z" />
    <glyph glyph-name="aogonek" unicode="&#x105;" horiz-adv-x="463" 
d="M404 -162l7 -46c-18 -5 -35 -8 -51 -8c-74 0 -109 44 -109 101c0 49 33 99 95 138l-5 40c-52 -48 -118 -73 -173 -73c-67 0 -123 36 -123 119c0 84 53 145 293 162v63c0 78 -34 104 -85 104c-49 0 -114 -19 -182 -43l-7 46c64 24 134 43 189 43c81 0 135 -38 135 -150
v-334c-58 -32 -87 -76 -87 -115c0 -31 19 -55 59 -55c12 0 27 3 44 8zM168 36c65 0 129 35 170 84v105c-201 -15 -243 -62 -243 -113c0 -60 41 -76 73 -76z" />
    <glyph glyph-name="aring" unicode="&#xe5;" horiz-adv-x="463" 
d="M338 271v63c0 78 -34 104 -85 104c-49 0 -114 -19 -182 -43l-7 46c64 24 134 43 189 43c81 0 135 -38 135 -150v-334h-38l-9 63c-52 -48 -118 -73 -173 -73c-67 0 -123 36 -123 119c0 84 53 145 293 162zM168 36c65 0 129 35 170 84v105c-201 -15 -243 -62 -243 -113
c0 -60 41 -76 73 -76zM182 616c0 -30 20 -52 48 -52c30 0 50 22 50 52c0 32 -20 54 -50 54c-28 0 -48 -22 -48 -54zM136 616c0 57 39 96 94 96c57 0 96 -39 96 -96c0 -55 -39 -94 -96 -94c-55 0 -94 39 -94 94z" />
    <glyph glyph-name="atilde" unicode="&#xe3;" horiz-adv-x="463" 
d="M338 271v63c0 78 -34 104 -85 104c-49 0 -114 -19 -182 -43l-7 46c64 24 134 43 189 43c81 0 135 -38 135 -150v-334h-38l-9 63c-52 -48 -118 -73 -173 -73c-67 0 -123 36 -123 119c0 84 53 145 293 162zM168 36c65 0 129 35 170 84v105c-201 -15 -243 -62 -243 -113
c0 -60 41 -76 73 -76zM80 579c9 50 47 85 90 85c53 0 83 -57 119 -57c21 0 36 20 44 47l42 -9c-10 -47 -47 -83 -89 -83c-53 0 -84 56 -120 56c-21 0 -37 -19 -45 -47z" />
    <glyph glyph-name="cacute" unicode="&#x107;" horiz-adv-x="441" 
d="M266 -10c-113 0 -211 65 -211 247s98 247 211 247c43 0 88 -9 130 -25l-7 -46c-41 16 -82 25 -120 25c-92 0 -164 -53 -164 -201c0 -147 72 -201 164 -201c38 0 79 10 120 25l7 -46c-42 -16 -87 -25 -130 -25zM283 702h58l-92 -158h-50z" />
    <glyph glyph-name="ccaron" unicode="&#x10d;" horiz-adv-x="441" 
d="M266 -10c-113 0 -211 65 -211 247s98 247 211 247c43 0 88 -9 130 -25l-7 -46c-41 16 -82 25 -120 25c-92 0 -164 -53 -164 -201c0 -147 72 -201 164 -201c38 0 79 10 120 25l7 -46c-42 -16 -87 -25 -130 -25zM237 544l-114 158h56l80 -114l80 114h56l-114 -158h-44z" />
    <glyph glyph-name="ccedilla" unicode="&#xe7;" horiz-adv-x="441" 
d="M396 15c-33 -13 -68 -21 -102 -24l-27 -45c6 1 12 1 17 1c49 0 79 -31 79 -80s-44 -83 -107 -83c-21 0 -43 3 -67 11l8 43c18 -7 38 -10 56 -10c33 0 59 12 59 39c0 22 -11 38 -41 38c-9 0 -20 -2 -32 -5l-31 31l32 60c-102 9 -185 78 -185 246c0 182 98 247 211 247
c43 0 88 -9 130 -25l-7 -46c-41 16 -82 25 -120 25c-92 0 -164 -53 -164 -201c0 -147 72 -201 164 -201c38 0 79 10 120 25z" />
    <glyph glyph-name="ccircumflex" unicode="&#x109;" horiz-adv-x="441" 
d="M266 -10c-113 0 -211 65 -211 247s98 247 211 247c43 0 88 -9 130 -25l-7 -46c-41 16 -82 25 -120 25c-92 0 -164 -53 -164 -201c0 -147 72 -201 164 -201c38 0 79 10 120 25l7 -46c-42 -16 -87 -25 -130 -25zM282 702l114 -158h-56l-80 114l-80 -114h-56l114 158h44z
" />
    <glyph glyph-name="cdotaccent" unicode="&#x10b;" horiz-adv-x="441" 
d="M266 -10c-113 0 -211 65 -211 247s98 247 211 247c43 0 88 -9 130 -25l-7 -46c-41 16 -82 25 -120 25c-92 0 -164 -53 -164 -201c0 -147 72 -201 164 -201c38 0 79 10 120 25l7 -46c-42 -16 -87 -25 -130 -25zM260 635c22 0 38 -16 38 -38s-16 -38 -38 -38s-38 16 -38 38
s16 38 38 38z" />
    <glyph glyph-name="dcaron" unicode="&#x10f;" horiz-adv-x="576" 
d="M406 448v306l50 4v-758h-40l-10 58c-68 -40 -130 -68 -185 -68c-96 0 -166 72 -166 247c0 179 90 247 199 247c49 0 103 -14 152 -36zM406 402c-45 19 -104 36 -152 36c-81 0 -149 -53 -149 -202c0 -143 50 -200 116 -200c59 0 127 38 185 72v294zM506 758l53 5
c28 -61 20 -126 -17 -185h-46c40 61 40 119 10 180z" />
    <glyph glyph-name="dcroat" unicode="&#x111;" horiz-adv-x="531" 
d="M241 620h165v134l50 4v-138h70l-4 -44h-66v-576h-40l-10 58c-68 -40 -130 -68 -185 -68c-96 0 -166 72 -166 247c0 179 90 247 199 247c49 0 103 -14 152 -36v128h-169zM406 402c-45 19 -104 36 -152 36c-81 0 -149 -53 -149 -202c0 -143 50 -200 116 -200
c59 0 127 38 185 72v294z" />
    <glyph glyph-name="eacute" unicode="&#xe9;" horiz-adv-x="491" 
d="M431 218h-326c6 -137 78 -181 165 -181c44 0 92 11 138 28l7 -46c-49 -18 -100 -29 -149 -29c-114 0 -211 63 -211 247c0 178 85 247 205 247c117 0 196 -92 171 -266zM260 438c-90 0 -147 -54 -154 -174h280c4 112 -47 174 -126 174zM288 702h58l-92 -158h-50z" />
    <glyph glyph-name="ebreve" unicode="&#x115;" horiz-adv-x="491" 
d="M431 218h-326c6 -137 78 -181 165 -181c44 0 92 11 138 28l7 -46c-49 -18 -100 -29 -149 -29c-114 0 -211 63 -211 247c0 178 85 247 205 247c117 0 196 -92 171 -266zM260 438c-90 0 -147 -54 -154 -174h280c4 112 -47 174 -126 174zM119 698l45 4
c2 -85 48 -112 92 -112c42 0 88 27 90 112l45 -4c0 -108 -62 -154 -135 -154c-76 0 -137 46 -137 154z" />
    <glyph glyph-name="ecaron" unicode="&#x11b;" horiz-adv-x="491" 
d="M431 218h-326c6 -137 78 -181 165 -181c44 0 92 11 138 28l7 -46c-49 -18 -100 -29 -149 -29c-114 0 -211 63 -211 247c0 178 85 247 205 247c117 0 196 -92 171 -266zM260 438c-90 0 -147 -54 -154 -174h280c4 112 -47 174 -126 174zM233 544l-114 158h56l80 -114
l80 114h56l-114 -158h-44z" />
    <glyph glyph-name="ecircumflex" unicode="&#xea;" horiz-adv-x="491" 
d="M431 218h-326c6 -137 78 -181 165 -181c44 0 92 11 138 28l7 -46c-49 -18 -100 -29 -149 -29c-114 0 -211 63 -211 247c0 178 85 247 205 247c117 0 196 -92 171 -266zM260 438c-90 0 -147 -54 -154 -174h280c4 112 -47 174 -126 174zM277 702l114 -158h-56l-80 114
l-80 -114h-56l114 158h44z" />
    <glyph glyph-name="edieresis" unicode="&#xeb;" horiz-adv-x="491" 
d="M431 218h-326c6 -137 78 -181 165 -181c44 0 92 11 138 28l7 -46c-49 -18 -100 -29 -149 -29c-114 0 -211 63 -211 247c0 178 85 247 205 247c117 0 196 -92 171 -266zM260 438c-90 0 -147 -54 -154 -174h280c4 112 -47 174 -126 174zM166 635c22 0 38 -16 38 -38
s-16 -38 -38 -38s-38 16 -38 38s16 38 38 38zM352 635c22 0 38 -16 38 -38s-16 -38 -38 -38s-38 16 -38 38s16 38 38 38z" />
    <glyph glyph-name="edotaccent" unicode="&#x117;" horiz-adv-x="491" 
d="M431 218h-326c6 -137 78 -181 165 -181c44 0 92 11 138 28l7 -46c-49 -18 -100 -29 -149 -29c-114 0 -211 63 -211 247c0 178 85 247 205 247c117 0 196 -92 171 -266zM260 438c-90 0 -147 -54 -154 -174h280c4 112 -47 174 -126 174zM255 635c22 0 38 -16 38 -38
s-16 -38 -38 -38s-38 16 -38 38s16 38 38 38z" />
    <glyph glyph-name="egrave" unicode="&#xe8;" horiz-adv-x="491" 
d="M431 218h-326c6 -137 78 -181 165 -181c44 0 92 11 138 28l7 -46c-49 -18 -100 -29 -149 -29c-114 0 -211 63 -211 247c0 178 85 247 205 247c117 0 196 -92 171 -266zM260 438c-90 0 -147 -54 -154 -174h280c4 112 -47 174 -126 174zM154 702h58l84 -158h-50z" />
    <glyph glyph-name="emacron" unicode="&#x113;" horiz-adv-x="491" 
d="M431 218h-326c6 -137 78 -181 165 -181c44 0 92 11 138 28l7 -46c-49 -18 -100 -29 -149 -29c-114 0 -211 63 -211 247c0 178 85 247 205 247c117 0 196 -92 171 -266zM260 438c-90 0 -147 -54 -154 -174h280c4 112 -47 174 -126 174zM115 620h285l-4 -44h-285z" />
    <glyph glyph-name="eogonek" unicode="&#x119;" horiz-adv-x="491" 
d="M431 218h-326c6 -137 78 -181 165 -181c44 0 92 11 138 28l7 -46c-64 -35 -96 -85 -96 -134c0 -30 19 -55 59 -55c13 0 27 2 44 8l7 -46c-18 -5 -35 -8 -51 -8c-74 0 -109 43 -109 104c0 36 17 73 49 106c-17 -2 -35 -4 -52 -4c-114 0 -211 63 -211 247
c0 178 85 247 205 247c117 0 196 -92 171 -266zM260 438c-90 0 -147 -54 -154 -174h280c4 112 -47 174 -126 174z" />
    <glyph glyph-name="gbreve" unicode="&#x11f;" horiz-adv-x="503" 
d="M414 328c0 -92 -56 -156 -173 -156c-18 0 -34 1 -49 4c-58 -51 -58 -105 28 -105h49c132 0 199 -49 199 -129c0 -81 -79 -158 -246 -158c-119 0 -177 57 -177 124c0 48 30 101 94 135c-26 16 -37 40 -37 68c0 27 13 55 45 79c-53 26 -79 75 -79 138c0 93 56 156 173 156
c27 0 52 -4 73 -10h144l-4 -46h-71c21 -26 31 -61 31 -100zM220 25c-13 0 -25 1 -35 2c-61 -32 -90 -79 -90 -119c0 -42 42 -78 127 -78c133 0 196 55 196 112c0 51 -50 83 -149 83h-49zM364 328c0 66 -40 110 -123 110s-123 -44 -123 -110c0 -65 40 -110 123 -110
s123 45 123 110zM105 698l45 4c2 -85 48 -112 92 -112c42 0 88 27 90 112l45 -4c0 -108 -62 -154 -135 -154c-76 0 -137 46 -137 154z" />
    <glyph glyph-name="gcircumflex" unicode="&#x11d;" horiz-adv-x="503" 
d="M414 328c0 -92 -56 -156 -173 -156c-18 0 -34 1 -49 4c-58 -51 -58 -105 28 -105h49c132 0 199 -49 199 -129c0 -81 -79 -158 -246 -158c-119 0 -177 57 -177 124c0 48 30 101 94 135c-26 16 -37 40 -37 68c0 27 13 55 45 79c-53 26 -79 75 -79 138c0 93 56 156 173 156
c27 0 52 -4 73 -10h144l-4 -46h-71c21 -26 31 -61 31 -100zM220 25c-13 0 -25 1 -35 2c-61 -32 -90 -79 -90 -119c0 -42 42 -78 127 -78c133 0 196 55 196 112c0 51 -50 83 -149 83h-49zM364 328c0 66 -40 110 -123 110s-123 -44 -123 -110c0 -65 40 -110 123 -110
s123 45 123 110zM263 702l114 -158h-56l-80 114l-80 -114h-56l114 158h44z" />
    <glyph glyph-name="gcommaaccent" unicode="&#x123;" horiz-adv-x="503" 
d="M414 328c0 -92 -56 -156 -173 -156c-18 0 -34 1 -49 4c-58 -51 -58 -105 28 -105h49c132 0 199 -49 199 -129c0 -81 -79 -158 -246 -158c-119 0 -177 57 -177 124c0 48 30 101 94 135c-26 16 -37 40 -37 68c0 27 13 55 45 79c-53 26 -79 75 -79 138c0 93 56 156 173 156
c27 0 52 -4 73 -10h144l-4 -46h-71c21 -26 31 -61 31 -100zM220 25c-13 0 -25 1 -35 2c-61 -32 -90 -79 -90 -119c0 -42 42 -78 127 -78c133 0 196 55 196 112c0 51 -50 83 -149 83h-49zM364 328c0 66 -40 110 -123 110s-123 -44 -123 -110c0 -65 40 -110 123 -110
s123 45 123 110zM260 565l-53 -4c-30 46 -23 95 14 139l44 -3c-40 -46 -35 -86 -5 -132z" />
    <glyph glyph-name="gdotaccent" unicode="&#x121;" horiz-adv-x="503" 
d="M414 328c0 -92 -56 -156 -173 -156c-18 0 -34 1 -49 4c-58 -51 -58 -105 28 -105h49c132 0 199 -49 199 -129c0 -81 -79 -158 -246 -158c-119 0 -177 57 -177 124c0 48 30 101 94 135c-26 16 -37 40 -37 68c0 27 13 55 45 79c-53 26 -79 75 -79 138c0 93 56 156 173 156
c27 0 52 -4 73 -10h144l-4 -46h-71c21 -26 31 -61 31 -100zM220 25c-13 0 -25 1 -35 2c-61 -32 -90 -79 -90 -119c0 -42 42 -78 127 -78c133 0 196 55 196 112c0 51 -50 83 -149 83h-49zM364 328c0 66 -40 110 -123 110s-123 -44 -123 -110c0 -65 40 -110 123 -110
s123 45 123 110zM241 635c22 0 38 -16 38 -38s-16 -38 -38 -38s-38 16 -38 38s16 38 38 38z" />
    <glyph glyph-name="gbreve.salt" horiz-adv-x="531" 
d="M406 -18v86c-68 -40 -130 -68 -185 -68c-96 0 -166 72 -166 237c0 179 90 247 199 247c77 0 125 -12 202 -41v-461c0 -118 -91 -198 -192 -198c-60 0 -118 14 -177 35l7 47c64 -24 121 -36 170 -36c74 0 142 62 142 152zM406 412c-53 20 -104 26 -152 26
c-81 0 -149 -53 -149 -202c0 -133 50 -190 116 -190c59 0 127 38 185 72v294zM139 698l45 4c2 -85 48 -112 92 -112c42 0 88 27 90 112l45 -4c0 -108 -62 -154 -135 -154c-76 0 -137 46 -137 154z" />
    <glyph glyph-name="gcircumflex.salt" horiz-adv-x="531" 
d="M406 -18v86c-68 -40 -130 -68 -185 -68c-96 0 -166 72 -166 237c0 179 90 247 199 247c77 0 125 -12 202 -41v-461c0 -118 -91 -198 -192 -198c-60 0 -118 14 -177 35l7 47c64 -24 121 -36 170 -36c74 0 142 62 142 152zM406 412c-53 20 -104 26 -152 26
c-81 0 -149 -53 -149 -202c0 -133 50 -190 116 -190c59 0 127 38 185 72v294zM296 702l114 -158h-56l-80 114l-80 -114h-56l114 158h44z" />
    <glyph glyph-name="gcommaaccent.salt" horiz-adv-x="531" 
d="M406 -18v86c-68 -40 -130 -68 -185 -68c-96 0 -166 72 -166 237c0 179 90 247 199 247c77 0 125 -12 202 -41v-461c0 -118 -91 -198 -192 -198c-60 0 -118 14 -177 35l7 47c64 -24 121 -36 170 -36c74 0 142 62 142 152zM406 412c-53 20 -104 26 -152 26
c-81 0 -149 -53 -149 -202c0 -133 50 -190 116 -190c59 0 127 38 185 72v294zM293 565l-53 -4c-30 46 -23 95 14 139l44 -3c-40 -46 -35 -86 -5 -132z" />
    <glyph glyph-name="gdotaccent.salt" horiz-adv-x="531" 
d="M406 -18v86c-68 -40 -130 -68 -185 -68c-96 0 -166 72 -166 237c0 179 90 247 199 247c77 0 125 -12 202 -41v-461c0 -118 -91 -198 -192 -198c-60 0 -118 14 -177 35l7 47c64 -24 121 -36 170 -36c74 0 142 62 142 152zM406 412c-53 20 -104 26 -152 26
c-81 0 -149 -53 -149 -202c0 -133 50 -190 116 -190c59 0 127 38 185 72v294zM274 635c22 0 38 -16 38 -38s-16 -38 -38 -38s-38 16 -38 38s16 38 38 38z" />
    <glyph glyph-name="hbar" unicode="&#x127;" horiz-adv-x="520" 
d="M9 620h66v134l50 4v-138h169l-4 -44h-165v-160c68 40 130 68 185 68c67 0 135 -36 135 -157v-327h-50v327c0 75 -36 111 -85 111c-59 0 -127 -38 -185 -72v-366h-50v576h-70z" />
    <glyph glyph-name="hcircumflex" unicode="&#x125;" horiz-adv-x="520" 
d="M125 366v-366h-50v754l50 4v-342c68 40 130 68 185 68c67 0 135 -36 135 -157v-327h-50v327c0 75 -36 111 -85 111c-59 0 -127 -38 -185 -72zM122 910l134 -128h-67l-89 87l-89 -87h-67l134 128h44z" />
    <glyph glyph-name="iacute" unicode="&#xed;" horiz-adv-x="200" 
d="M75 472l50 4v-476h-50v472zM158 702h58l-92 -158h-50z" />
    <glyph glyph-name="ibreve" unicode="&#x12d;" horiz-adv-x="200" 
d="M75 472l50 4v-476h-50v472zM-36 698l45 4c2 -85 48 -112 92 -112c42 0 88 27 90 112l45 -4c0 -108 -62 -154 -135 -154c-76 0 -137 46 -137 154z" />
    <glyph glyph-name="icircumflex" unicode="&#xee;" horiz-adv-x="200" 
d="M75 472l50 4v-476h-50v472zM122 702l114 -158h-56l-80 114l-80 -114h-56l114 158h44z" />
    <glyph glyph-name="idieresis" unicode="&#xef;" horiz-adv-x="200" 
d="M75 472l50 4v-476h-50v472zM7 635c22 0 38 -16 38 -38s-16 -38 -38 -38s-38 16 -38 38s16 38 38 38zM193 635c22 0 38 -16 38 -38s-16 -38 -38 -38s-38 16 -38 38s16 38 38 38z" />
    <glyph glyph-name="dotlessi" unicode="&#x131;" horiz-adv-x="200" 
d="M75 472l50 4v-476h-50v472z" />
    <glyph glyph-name="igrave" unicode="&#xec;" horiz-adv-x="200" 
d="M75 472l50 4v-476h-50v472zM-16 702h58l84 -158h-50z" />
    <glyph glyph-name="imacron" unicode="&#x12b;" horiz-adv-x="200" 
d="M75 472l50 4v-476h-50v472zM-40 620h285l-4 -44h-285z" />
    <glyph glyph-name="iogonek" unicode="&#x12f;" horiz-adv-x="200" 
d="M141 -162l7 -46c-18 -5 -35 -8 -51 -8c-74 0 -109 44 -109 101c0 47 30 95 87 133v454l50 4v-476c-58 -32 -87 -76 -87 -115c0 -31 19 -55 59 -55c12 0 27 3 44 8zM100 635c22 0 38 -16 38 -38s-16 -38 -38 -38s-38 16 -38 38s16 38 38 38z" />
    <glyph glyph-name="itilde" unicode="&#x129;" horiz-adv-x="200" 
d="M75 472l50 4v-476h-50v472zM-47 579c9 50 47 85 90 85c53 0 83 -57 119 -57c21 0 36 20 44 47l42 -9c-10 -47 -47 -83 -89 -83c-53 0 -84 56 -120 56c-21 0 -37 -19 -45 -47z" />
    <glyph glyph-name="i.TRK" horiz-adv-x="200" 
d="M75 472l50 4v-476h-50v472zM100 635c22 0 38 -16 38 -38s-16 -38 -38 -38s-38 16 -38 38s16 38 38 38z" />
    <glyph glyph-name="jcircumflex" unicode="&#x135;" horiz-adv-x="235" 
d="M105 472l50 4v-454c0 -100 -40 -165 -130 -238l-37 31c72 59 117 120 117 208v449zM157 702l114 -158h-56l-80 114l-80 -114h-56l114 158h44z" />
    <glyph glyph-name="kcommaaccent" unicode="&#x137;" horiz-adv-x="457" 
d="M377 -2l-252 233v-231h-50v754l50 4v-497l233 215l65 -4l-243 -224l267 -246zM189 -81l53 4c30 -46 23 -95 -14 -139l-44 3c40 46 35 86 5 132z" />
    <glyph glyph-name="lacute" unicode="&#x13a;" horiz-adv-x="275" 
d="M75 754l50 4v-655c0 -71 36 -81 140 -49l5 -45c-35 -11 -68 -19 -97 -19c-59 0 -98 29 -98 114v650zM190 910h72l-129 -128h-57z" />
    <glyph glyph-name="lcaron" unicode="&#x13e;" horiz-adv-x="275" 
d="M75 754l50 4v-655c0 -71 36 -81 140 -49l5 -45c-35 -11 -68 -19 -97 -19c-59 0 -98 29 -98 114v650zM175 758l53 5c28 -61 20 -126 -17 -185h-46c40 61 40 119 10 180z" />
    <glyph glyph-name="lcommaaccent" unicode="&#x13c;" horiz-adv-x="275" 
d="M75 754l50 4v-655c0 -71 36 -81 140 -49l5 -45c-35 -11 -68 -19 -97 -19c-59 0 -98 29 -98 114v650zM118 -81l53 4c30 -46 23 -95 -14 -139l-44 3c40 46 35 86 5 132z" />
    <glyph glyph-name="ldot" unicode="&#x140;" horiz-adv-x="275" 
d="M75 754l50 4v-655c0 -71 36 -81 140 -49l5 -45c-35 -11 -68 -19 -97 -19c-59 0 -98 29 -98 114v650zM237 408c22 0 38 -16 38 -38s-16 -38 -38 -38s-38 16 -38 38s16 38 38 38z" />
    <glyph glyph-name="lslash" unicode="&#x142;" horiz-adv-x="295" 
d="M95 754l50 4v-406l96 59l4 -50l-100 -62v-196c0 -71 36 -81 140 -49l5 -45c-35 -11 -68 -19 -97 -19c-59 0 -98 29 -98 114v164l-91 -56l-4 51l95 58v433z" />
    <glyph glyph-name="lacute.salt" horiz-adv-x="200" 
d="M75 754l50 4v-758h-50v754zM190 910h72l-129 -128h-57z" />
    <glyph glyph-name="lcaron.salt" horiz-adv-x="245" 
d="M75 754l50 4v-758h-50v754zM175 758l53 5c28 -61 20 -126 -17 -185h-46c40 61 40 119 10 180z" />
    <glyph glyph-name="lcommaaccent.salt" horiz-adv-x="200" 
d="M75 754l50 4v-758h-50v754zM66 -81l53 4c30 -46 23 -95 -14 -139l-44 3c40 46 35 86 5 132z" />
    <glyph glyph-name="ldot.salt" horiz-adv-x="255" 
d="M75 754l50 4v-758h-50v754zM220 388c22 0 38 -16 38 -38s-16 -38 -38 -38s-38 16 -38 38s16 38 38 38z" />
    <glyph glyph-name="lslash.salt" horiz-adv-x="240" 
d="M95 754l50 4v-404l86 57l4 -50l-90 -60v-301h-50v268l-86 -56l-4 51l90 59v432z" />
    <glyph glyph-name="nacute" unicode="&#x144;" horiz-adv-x="520" 
d="M125 366v-366h-50v472l50 4v-60c68 40 130 68 185 68c67 0 135 -36 135 -157v-327h-50v327c0 75 -36 111 -85 111c-59 0 -127 -38 -185 -72zM283 702h58l-92 -158h-50z" />
    <glyph glyph-name="napostrophe" unicode="&#x149;" horiz-adv-x="520" 
d="M125 366v-366h-50v472l50 4v-60c68 40 130 68 185 68c67 0 135 -36 135 -157v-327h-50v327c0 75 -36 111 -85 111c-59 0 -127 -38 -185 -72zM80 702l53 4c30 -46 23 -95 -14 -139l-44 3c40 46 35 86 5 132z" />
    <glyph glyph-name="ncaron" unicode="&#x148;" horiz-adv-x="520" 
d="M125 366v-366h-50v472l50 4v-60c68 40 130 68 185 68c67 0 135 -36 135 -157v-327h-50v327c0 75 -36 111 -85 111c-59 0 -127 -38 -185 -72zM238 544l-114 158h56l80 -114l80 114h56l-114 -158h-44z" />
    <glyph glyph-name="ncommaaccent" unicode="&#x146;" horiz-adv-x="520" 
d="M125 366v-366h-50v472l50 4v-60c68 40 130 68 185 68c67 0 135 -36 135 -157v-327h-50v327c0 75 -36 111 -85 111c-59 0 -127 -38 -185 -72zM221 -81l53 4c30 -46 23 -95 -14 -139l-44 3c40 46 35 86 5 132z" />
    <glyph glyph-name="ntilde" unicode="&#xf1;" horiz-adv-x="520" 
d="M125 366v-366h-50v472l50 4v-60c68 40 130 68 185 68c67 0 135 -36 135 -157v-327h-50v327c0 75 -36 111 -85 111c-59 0 -127 -38 -185 -72zM112 579c9 50 47 85 90 85c53 0 83 -57 119 -57c21 0 36 20 44 47l42 -9c-10 -47 -47 -83 -89 -83c-53 0 -84 56 -120 56
c-21 0 -37 -19 -45 -47z" />
    <glyph glyph-name="oacute" unicode="&#xf3;" horiz-adv-x="539" 
d="M105 237c0 -140 66 -201 165 -201c98 0 164 61 164 201c0 139 -66 201 -164 201c-99 0 -165 -62 -165 -201zM55 237c0 171 86 247 215 247c128 0 214 -76 214 -247c0 -172 -86 -247 -214 -247c-129 0 -215 75 -215 247zM302 702h58l-92 -158h-50z" />
    <glyph glyph-name="obreve" unicode="&#x14f;" horiz-adv-x="539" 
d="M105 237c0 -140 66 -201 165 -201c98 0 164 61 164 201c0 139 -66 201 -164 201c-99 0 -165 -62 -165 -201zM55 237c0 171 86 247 215 247c128 0 214 -76 214 -247c0 -172 -86 -247 -214 -247c-129 0 -215 75 -215 247zM133 698l45 4c2 -85 48 -112 92 -112
c42 0 88 27 90 112l45 -4c0 -108 -62 -154 -135 -154c-76 0 -137 46 -137 154z" />
    <glyph glyph-name="ocircumflex" unicode="&#xf4;" horiz-adv-x="539" 
d="M105 237c0 -140 66 -201 165 -201c98 0 164 61 164 201c0 139 -66 201 -164 201c-99 0 -165 -62 -165 -201zM55 237c0 171 86 247 215 247c128 0 214 -76 214 -247c0 -172 -86 -247 -214 -247c-129 0 -215 75 -215 247zM291 702l114 -158h-56l-80 114l-80 -114h-56
l114 158h44z" />
    <glyph glyph-name="odieresis" unicode="&#xf6;" horiz-adv-x="539" 
d="M105 237c0 -140 66 -201 165 -201c98 0 164 61 164 201c0 139 -66 201 -164 201c-99 0 -165 -62 -165 -201zM55 237c0 171 86 247 215 247c128 0 214 -76 214 -247c0 -172 -86 -247 -214 -247c-129 0 -215 75 -215 247zM177 635c22 0 38 -16 38 -38s-16 -38 -38 -38
s-38 16 -38 38s16 38 38 38zM363 635c22 0 38 -16 38 -38s-16 -38 -38 -38s-38 16 -38 38s16 38 38 38z" />
    <glyph glyph-name="ograve" unicode="&#xf2;" horiz-adv-x="539" 
d="M105 237c0 -140 66 -201 165 -201c98 0 164 61 164 201c0 139 -66 201 -164 201c-99 0 -165 -62 -165 -201zM55 237c0 171 86 247 215 247c128 0 214 -76 214 -247c0 -172 -86 -247 -214 -247c-129 0 -215 75 -215 247zM178 702h58l84 -158h-50z" />
    <glyph glyph-name="ohungarumlaut" unicode="&#x151;" horiz-adv-x="539" 
d="M105 237c0 -140 66 -201 165 -201c98 0 164 61 164 201c0 139 -66 201 -164 201c-99 0 -165 -62 -165 -201zM55 237c0 171 86 247 215 247c128 0 214 -76 214 -247c0 -172 -86 -247 -214 -247c-129 0 -215 75 -215 247zM223 702h58l-92 -158h-50zM381 702h58l-92 -158
h-50z" />
    <glyph glyph-name="omacron" unicode="&#x14d;" horiz-adv-x="539" 
d="M105 237c0 -140 66 -201 165 -201c98 0 164 61 164 201c0 139 -66 201 -164 201c-99 0 -165 -62 -165 -201zM55 237c0 171 86 247 215 247c128 0 214 -76 214 -247c0 -172 -86 -247 -214 -247c-129 0 -215 75 -215 247zM129 620h285l-4 -44h-285z" />
    <glyph glyph-name="otilde" unicode="&#xf5;" horiz-adv-x="539" 
d="M105 237c0 -140 66 -201 165 -201c98 0 164 61 164 201c0 139 -66 201 -164 201c-99 0 -165 -62 -165 -201zM55 237c0 171 86 247 215 247c128 0 214 -76 214 -247c0 -172 -86 -247 -214 -247c-129 0 -215 75 -215 247zM122 579c9 50 47 85 90 85c53 0 83 -57 119 -57
c21 0 36 20 44 47l42 -9c-10 -47 -47 -83 -89 -83c-53 0 -84 56 -120 56c-21 0 -37 -19 -45 -47z" />
    <glyph glyph-name="racute" unicode="&#x155;" horiz-adv-x="351" 
d="M341 473l-7 -46c-102 26 -110 12 -209 -111v-316h-50v472l50 4v-96c84 117 121 113 216 93zM208 702h58l-92 -158h-50z" />
    <glyph glyph-name="rcaron" unicode="&#x159;" horiz-adv-x="351" 
d="M341 473l-7 -46c-102 26 -110 12 -209 -111v-316h-50v472l50 4v-96c84 117 121 113 216 93zM154 544l-114 158h56l80 -114l80 114h56l-114 -158h-44z" />
    <glyph glyph-name="rcommaaccent" unicode="&#x157;" horiz-adv-x="351" 
d="M341 473l-7 -46c-102 26 -110 12 -209 -111v-316h-50v472l50 4v-96c84 117 121 113 216 93zM71 -81l53 4c30 -46 23 -95 -14 -139l-44 3c40 46 35 86 5 132z" />
    <glyph glyph-name="sacute" unicode="&#x15b;" horiz-adv-x="419" 
d="M70 20l7 46c37 -17 87 -30 131 -30c58 0 106 22 106 87c0 109 -249 87 -249 238c0 86 70 123 151 123c44 0 91 -10 133 -30l-7 -46c-34 17 -83 30 -126 30c-55 0 -101 -20 -101 -77c0 -108 249 -87 249 -238c0 -93 -75 -133 -161 -133c-44 0 -92 11 -133 30zM232 702h58
l-92 -158h-50z" />
    <glyph glyph-name="scaron" unicode="&#x161;" horiz-adv-x="419" 
d="M70 20l7 46c37 -17 87 -30 131 -30c58 0 106 22 106 87c0 109 -249 87 -249 238c0 86 70 123 151 123c44 0 91 -10 133 -30l-7 -46c-34 17 -83 30 -126 30c-55 0 -101 -20 -101 -77c0 -108 249 -87 249 -238c0 -93 -75 -133 -161 -133c-44 0 -92 11 -133 30zM177 544
l-114 158h56l80 -114l80 114h56l-114 -158h-44z" />
    <glyph glyph-name="scedilla" unicode="&#x15f;" horiz-adv-x="419" 
d="M70 20l7 46c37 -17 87 -30 131 -30c58 0 106 22 106 87c0 109 -249 87 -249 238c0 86 70 123 151 123c44 0 91 -10 133 -30l-7 -46c-34 17 -83 30 -126 30c-55 0 -101 -20 -101 -77c0 -108 249 -87 249 -238c0 -80 -56 -121 -126 -131l-28 -46c6 1 12 1 17 1
c49 0 79 -31 79 -80s-44 -83 -107 -83c-21 0 -43 3 -67 11l8 43c18 -7 38 -10 56 -10c33 0 59 12 59 39c0 22 -11 38 -41 38c-9 0 -20 -2 -32 -5l-31 31l31 60c-38 3 -78 13 -112 29z" />
    <glyph glyph-name="scircumflex" unicode="&#x15d;" horiz-adv-x="419" 
d="M70 20l7 46c37 -17 87 -30 131 -30c58 0 106 22 106 87c0 109 -249 87 -249 238c0 86 70 123 151 123c44 0 91 -10 133 -30l-7 -46c-34 17 -83 30 -126 30c-55 0 -101 -20 -101 -77c0 -108 249 -87 249 -238c0 -93 -75 -133 -161 -133c-44 0 -92 11 -133 30zM221 702
l114 -158h-56l-80 114l-80 -114h-56l114 158h44z" />
    <glyph glyph-name="uni0219" unicode="&#x219;" horiz-adv-x="419" 
d="M70 20l7 46c37 -17 87 -30 131 -30c58 0 106 22 106 87c0 109 -249 87 -249 238c0 86 70 123 151 123c44 0 91 -10 133 -30l-7 -46c-34 17 -83 30 -126 30c-55 0 -101 -20 -101 -77c0 -108 249 -87 249 -238c0 -93 -75 -133 -161 -133c-44 0 -92 11 -133 30zM178 -81
l53 4c30 -46 23 -95 -14 -139l-44 3c40 46 35 86 5 132z" />
    <glyph glyph-name="tbar" unicode="&#x167;" horiz-adv-x="366" 
d="M26 278h80v150h-81l4 46h77v150l50 4v-154h156l-4 -46h-152v-150h155l-4 -44h-151v-76c0 -65 17 -122 90 -122c20 0 52 4 80 12l5 -43c-36 -11 -64 -15 -90 -15c-105 0 -135 81 -135 164v80h-84z" />
    <glyph glyph-name="tcaron" unicode="&#x165;" horiz-adv-x="366" 
d="M106 154v274h-81l4 46h77v150l50 4v-154h156l-4 -46h-152v-270c0 -65 17 -122 90 -122c20 0 52 4 80 12l5 -43c-36 -11 -64 -15 -90 -15c-105 0 -135 81 -135 164zM206 758l53 5c28 -61 20 -126 -17 -185h-46c40 61 40 119 10 180z" />
    <glyph glyph-name="uni0163" unicode="&#x163;" horiz-adv-x="366" 
d="M106 154v274h-81l4 46h77v150l50 4v-154h156l-4 -46h-152v-270c0 -65 17 -122 90 -122c20 0 52 4 80 12l5 -43c-36 -11 -64 -15 -90 -15c-11 0 -21 1 -30 3l-28 -47c6 1 12 1 17 1c49 0 79 -31 79 -80s-44 -83 -107 -83c-21 0 -43 3 -67 11l8 43c18 -7 38 -10 56 -10
c33 0 59 12 59 39c0 22 -11 38 -41 38c-9 0 -20 -2 -32 -5l-31 31l41 78c-45 29 -59 87 -59 145z" />
    <glyph glyph-name="uni021B" unicode="&#x21b;" horiz-adv-x="366" 
d="M106 154v274h-81l4 46h77v150l50 4v-154h156l-4 -46h-152v-270c0 -65 17 -122 90 -122c20 0 52 4 80 12l5 -43c-36 -11 -64 -15 -90 -15c-105 0 -135 81 -135 164zM164 -81l53 4c30 -46 23 -95 -14 -139l-44 3c40 46 35 86 5 132z" />
    <glyph glyph-name="uacute" unicode="&#xfa;" horiz-adv-x="520" 
d="M395 108v364l50 4v-476h-40l-10 58c-68 -40 -130 -68 -185 -68c-67 0 -135 36 -135 157v325l50 4v-329c0 -75 36 -111 85 -111c59 0 127 38 185 72zM293 702h58l-92 -158h-50z" />
    <glyph glyph-name="ubreve" unicode="&#x16d;" horiz-adv-x="520" 
d="M395 108v364l50 4v-476h-40l-10 58c-68 -40 -130 -68 -185 -68c-67 0 -135 36 -135 157v325l50 4v-329c0 -75 36 -111 85 -111c59 0 127 38 185 72zM124 698l45 4c2 -85 48 -112 92 -112c42 0 88 27 90 112l45 -4c0 -108 -62 -154 -135 -154c-76 0 -137 46 -137 154z" />
    <glyph glyph-name="ucircumflex" unicode="&#xfb;" horiz-adv-x="520" 
d="M395 108v364l50 4v-476h-40l-10 58c-68 -40 -130 -68 -185 -68c-67 0 -135 36 -135 157v325l50 4v-329c0 -75 36 -111 85 -111c59 0 127 38 185 72zM282 702l114 -158h-56l-80 114l-80 -114h-56l114 158h44z" />
    <glyph glyph-name="udieresis" unicode="&#xfc;" horiz-adv-x="520" 
d="M395 108v364l50 4v-476h-40l-10 58c-68 -40 -130 -68 -185 -68c-67 0 -135 36 -135 157v325l50 4v-329c0 -75 36 -111 85 -111c59 0 127 38 185 72zM167 635c22 0 38 -16 38 -38s-16 -38 -38 -38s-38 16 -38 38s16 38 38 38zM353 635c22 0 38 -16 38 -38s-16 -38 -38 -38
s-38 16 -38 38s16 38 38 38z" />
    <glyph glyph-name="ugrave" unicode="&#xf9;" horiz-adv-x="520" 
d="M395 108v364l50 4v-476h-40l-10 58c-68 -40 -130 -68 -185 -68c-67 0 -135 36 -135 157v325l50 4v-329c0 -75 36 -111 85 -111c59 0 127 38 185 72zM169 702h58l84 -158h-50z" />
    <glyph glyph-name="uhungarumlaut" unicode="&#x171;" horiz-adv-x="520" 
d="M395 108v364l50 4v-476h-40l-10 58c-68 -40 -130 -68 -185 -68c-67 0 -135 36 -135 157v325l50 4v-329c0 -75 36 -111 85 -111c59 0 127 38 185 72zM218 702h58l-92 -158h-50zM376 702h58l-92 -158h-50z" />
    <glyph glyph-name="umacron" unicode="&#x16b;" horiz-adv-x="520" 
d="M395 108v364l50 4v-476h-40l-10 58c-68 -40 -130 -68 -185 -68c-67 0 -135 36 -135 157v325l50 4v-329c0 -75 36 -111 85 -111c59 0 127 38 185 72zM119 620h285l-4 -44h-285z" />
    <glyph glyph-name="uogonek" unicode="&#x173;" horiz-adv-x="520" 
d="M461 -162l7 -46c-18 -5 -35 -8 -51 -8c-74 0 -109 44 -109 101c0 48 32 98 93 137l-6 36c-68 -40 -130 -68 -185 -68c-67 0 -135 36 -135 157v325l50 4v-329c0 -75 36 -111 85 -111c59 0 127 38 185 72v364l50 4v-476c-58 -32 -87 -76 -87 -115c0 -31 19 -55 59 -55
c12 0 27 3 44 8z" />
    <glyph glyph-name="uring" unicode="&#x16f;" horiz-adv-x="520" 
d="M395 108v364l50 4v-476h-40l-10 58c-68 -40 -130 -68 -185 -68c-67 0 -135 36 -135 157v325l50 4v-329c0 -75 36 -111 85 -111c59 0 127 38 185 72zM211 616c0 -30 20 -52 48 -52c30 0 50 22 50 52c0 32 -20 54 -50 54c-28 0 -48 -22 -48 -54zM165 616c0 57 39 96 94 96
c57 0 96 -39 96 -96c0 -55 -39 -94 -96 -94c-55 0 -94 39 -94 94z" />
    <glyph glyph-name="utilde" unicode="&#x169;" horiz-adv-x="520" 
d="M395 108v364l50 4v-476h-40l-10 58c-68 -40 -130 -68 -185 -68c-67 0 -135 36 -135 157v325l50 4v-329c0 -75 36 -111 85 -111c59 0 127 38 185 72zM112 579c9 50 47 85 90 85c53 0 83 -57 119 -57c21 0 36 20 44 47l42 -9c-10 -47 -47 -83 -89 -83c-53 0 -84 56 -120 56
c-21 0 -37 -19 -45 -47z" />
    <glyph glyph-name="wacute" unicode="&#x1e83;" horiz-adv-x="738" 
d="M15 472l54 4l134 -428l133 424l65 4l134 -428l134 428l54 -4l-156 -472h-64l-134 428l-134 -428h-64zM402 702h58l-92 -158h-50z" />
    <glyph glyph-name="wcircumflex" unicode="&#x175;" horiz-adv-x="738" 
d="M15 472l54 4l134 -428l133 424l65 4l134 -428l134 428l54 -4l-156 -472h-64l-134 428l-134 -428h-64zM391 702l114 -158h-56l-80 114l-80 -114h-56l114 158h44z" />
    <glyph glyph-name="wdieresis" unicode="&#x1e85;" horiz-adv-x="738" 
d="M15 472l54 4l134 -428l133 424l65 4l134 -428l134 428l54 -4l-156 -472h-64l-134 428l-134 -428h-64zM276 635c22 0 38 -16 38 -38s-16 -38 -38 -38s-38 16 -38 38s16 38 38 38zM462 635c22 0 38 -16 38 -38s-16 -38 -38 -38s-38 16 -38 38s16 38 38 38z" />
    <glyph glyph-name="wgrave" unicode="&#x1e81;" horiz-adv-x="738" 
d="M15 472l54 4l134 -428l133 424l65 4l134 -428l134 428l54 -4l-156 -472h-64l-134 428l-134 -428h-64zM278 702h58l84 -158h-50z" />
    <glyph glyph-name="yacute" unicode="&#xfd;" horiz-adv-x="466" 
d="M69 476l164 -428l164 428l54 -4l-268 -680l-52 4l82 204h-12l-186 472zM276 702h58l-92 -158h-50z" />
    <glyph glyph-name="ycircumflex" unicode="&#x177;" horiz-adv-x="466" 
d="M69 476l164 -428l164 428l54 -4l-268 -680l-52 4l82 204h-12l-186 472zM255 702l114 -158h-56l-80 114l-80 -114h-56l114 158h44z" />
    <glyph glyph-name="ydieresis" unicode="&#xff;" horiz-adv-x="466" 
d="M69 476l164 -428l164 428l54 -4l-268 -680l-52 4l82 204h-12l-186 472zM140 635c22 0 38 -16 38 -38s-16 -38 -38 -38s-38 16 -38 38s16 38 38 38zM326 635c22 0 38 -16 38 -38s-16 -38 -38 -38s-38 16 -38 38s16 38 38 38z" />
    <glyph glyph-name="ygrave" unicode="&#x1ef3;" horiz-adv-x="466" 
d="M69 476l164 -428l164 428l54 -4l-268 -680l-52 4l82 204h-12l-186 472zM132 702h58l84 -158h-50z" />
    <glyph glyph-name="zacute" unicode="&#x17a;" horiz-adv-x="432" 
d="M100 46h297l-4 -46h-354l-4 42l296 386h-277l4 46h334l4 -42zM249 702h58l-92 -158h-50z" />
    <glyph glyph-name="zcaron" unicode="&#x17e;" horiz-adv-x="432" 
d="M100 46h297l-4 -46h-354l-4 42l296 386h-277l4 46h334l4 -42zM197 544l-114 158h56l80 -114l80 114h56l-114 -158h-44z" />
    <glyph glyph-name="zdotaccent" unicode="&#x17c;" horiz-adv-x="432" 
d="M100 46h297l-4 -46h-354l-4 42l296 386h-277l4 46h334l4 -42zM216 635c22 0 38 -16 38 -38s-16 -38 -38 -38s-38 16 -38 38s16 38 38 38z" />
    <glyph glyph-name="iacute_jacute" horiz-adv-x="425" 
d="M75 472l50 4v-476h-50v472zM383 702h58l-92 -158h-50zM158 702h58l-92 -158h-50zM300 472l50 4v-454c0 -100 -40 -165 -130 -238l-37 31c72 59 117 120 117 208v449z" />
    <glyph glyph-name="a.smcp" horiz-adv-x="512" 
d="M363 176l-107 280l-107 -280h214zM380 130h-249l-49 -130h-57l198 502l64 4l200 -506h-57z" />
    <glyph glyph-name="b.smcp" horiz-adv-x="492" 
d="M75 504h207c87 0 141 -51 141 -121c0 -46 -21 -87 -63 -124c57 -32 87 -81 87 -129c0 -83 -66 -140 -205 -140c-54 0 -108 7 -167 18v496zM324 226h-199v-180c38 -6 80 -10 117 -10c105 0 155 38 155 94c0 36 -28 73 -73 96zM125 272h182c46 31 66 71 66 111
c0 43 -35 75 -91 75h-157v-186z" />
    <glyph glyph-name="c.smcp" horiz-adv-x="507" 
d="M312 468c-106 0 -197 -57 -197 -216s91 -216 197 -216c43 0 92 8 143 26l7 -46c-48 -17 -101 -26 -150 -26c-133 0 -247 69 -247 262s114 262 247 262c49 0 102 -9 150 -26l-7 -46c-51 18 -100 26 -143 26z" />
    <glyph glyph-name="d.smcp" horiz-adv-x="579" 
d="M263 504c152 0 251 -71 251 -251c0 -182 -110 -263 -264 -263c-50 0 -114 4 -175 17v497h188zM264 458h-139v-413c46 -7 96 -10 125 -10c126 0 214 68 214 217c0 147 -79 206 -200 206z" />
    <glyph glyph-name="e.smcp" horiz-adv-x="459" 
d="M75 0v504h339l-4 -46h-285v-186h249l-4 -46h-245v-180h289l-4 -46h-335z" />
    <glyph glyph-name="e.smcp..salt" horiz-adv-x="507" 
d="M312 468c-102 0 -189 -53 -197 -196h259l-4 -46h-254c9 -139 96 -190 196 -190c43 0 92 8 143 26l7 -46c-48 -17 -101 -26 -150 -26c-133 0 -247 69 -247 262s114 262 247 262c49 0 102 -9 150 -26l-7 -46c-51 18 -100 26 -143 26z" />
    <glyph glyph-name="f.smcp" horiz-adv-x="429" 
d="M125 216v-216h-50v504h339l-4 -46h-285v-196h249l-4 -46h-245z" />
    <glyph glyph-name="g.smcp" horiz-adv-x="567" 
d="M320 468c-113 0 -205 -57 -205 -216c0 -156 85 -216 201 -216c38 0 73 4 126 19v142h-154l4 46h200v-221c-77 -26 -125 -32 -176 -32c-145 0 -251 73 -251 262c0 193 114 262 255 262c49 0 102 -9 150 -26l-7 -46c-50 18 -100 26 -143 26z" />
    <glyph glyph-name="h.smcp" 
d="M75 504h50v-232h302v232h50v-504h-50v226h-302v-226h-50v504z" />
    <glyph glyph-name="i.smcp" horiz-adv-x="200" 
d="M75 504h50v-504h-50v504z" />
    <glyph glyph-name="i.smcp..salt" horiz-adv-x="380" 
d="M215 46h110l-4 -46h-266l4 46h106v412h-110l4 46h266l-4 -46h-106v-412z" />
    <glyph glyph-name="j.smcp" horiz-adv-x="225" 
d="M100 504h50v-422c0 -100 -40 -165 -130 -238l-37 31c72 59 117 120 117 208v421z" />
    <glyph glyph-name="k.smcp" horiz-adv-x="482" 
d="M377 -2l-252 239v-237h-50v504h50v-237l252 239l65 -4l-262 -248l267 -252z" />
    <glyph glyph-name="l.smcp" horiz-adv-x="434" 
d="M75 504h50v-458h274l-4 -46h-320v504z" />
    <glyph glyph-name="m.smcp" horiz-adv-x="684" 
d="M314 -2l-160 423l-68 -421h-51l83 502l54 4l170 -448l169 444l54 4l84 -506h-51l-68 421l-158 -419z" />
    <glyph glyph-name="n.smcp" 
d="M125 422v-422h-50v502l50 4l302 -425v423h50v-502l-50 -4z" />
    <glyph glyph-name="o.smcp" horiz-adv-x="626" 
d="M115 252c0 -150 79 -216 199 -216c118 0 197 66 197 216c0 149 -79 216 -197 216c-120 0 -199 -67 -199 -216zM65 252c0 181 99 262 249 262c148 0 247 -81 247 -262c0 -182 -99 -262 -247 -262c-150 0 -249 80 -249 262z" />
    <glyph glyph-name="p.smcp" horiz-adv-x="474" 
d="M125 177v-177h-50v504h138c140 0 226 -46 226 -162c0 -115 -94 -171 -222 -171c-33 0 -65 3 -92 6zM125 458v-235c23 -3 59 -6 89 -6c100 0 175 39 175 126c0 78 -64 115 -175 115h-89z" />
    <glyph glyph-name="q.smcp" horiz-adv-x="626" 
d="M65 252c0 181 99 262 249 262c148 0 247 -81 247 -262c0 -143 -61 -223 -159 -251c20 -57 44 -91 84 -91c17 0 47 6 69 14l8 -46c-27 -9 -56 -14 -77 -14c-60 0 -103 36 -133 128c-13 -1 -26 -2 -39 -2c-150 0 -249 80 -249 262zM115 252c0 -150 79 -216 199 -216
c118 0 197 66 197 216c0 149 -79 216 -197 216c-120 0 -199 -67 -199 -216z" />
    <glyph glyph-name="r.smcp" horiz-adv-x="500" 
d="M125 192v-192h-50v504h135c132 0 213 -49 213 -154c0 -69 -44 -118 -105 -143l142 -206l-56 -3l-132 194c-21 -4 -43 -6 -65 -6c-28 0 -55 3 -82 6zM125 458v-220c21 -2 56 -6 85 -6c95 0 163 43 163 118c0 71 -59 108 -163 108h-85z" />
    <glyph glyph-name="r.smcp..salt" horiz-adv-x="500" 
d="M125 192v-192h-50v504h135c132 0 213 -49 213 -154c0 -70 -45 -118 -106 -144c15 -105 50 -170 111 -170c26 0 48 5 72 13l5 -45c-29 -10 -57 -14 -81 -14c-80 0 -136 74 -156 202c-20 -4 -40 -6 -61 -6c-28 0 -55 3 -82 6zM125 458v-220c21 -2 56 -6 85 -6
c95 0 163 43 163 118c0 71 -59 108 -163 108h-85z" />
    <glyph glyph-name="s.smcp" horiz-adv-x="455" 
d="M65 18l11 45c52 -16 102 -27 141 -27c71 0 133 25 133 86c0 119 -295 103 -295 263c0 89 84 129 181 129c43 0 96 -13 148 -32l-10 -45c-40 18 -91 31 -138 31c-70 0 -131 -26 -131 -83c0 -117 295 -104 295 -263c0 -94 -85 -132 -183 -132c-50 0 -104 11 -152 28z" />
    <glyph glyph-name="t.smcp" horiz-adv-x="440" 
d="M195 458h-190l4 46h426l-4 -46h-186v-458h-50v458z" />
    <glyph glyph-name="u.smcp" 
d="M125 504v-347c0 -87 58 -121 151 -121s151 34 151 121v347h50v-347c0 -112 -84 -167 -201 -167s-201 55 -201 167v347h50z" />
    <glyph glyph-name="u.smcp..salt" 
d="M427 113v391h50v-504h-40l-10 63c-65 -43 -128 -73 -189 -73c-73 0 -163 28 -163 157v357h50v-360c0 -80 55 -108 110 -108c66 0 127 30 192 77z" />
    <glyph glyph-name="v.smcp" horiz-adv-x="510" 
d="M430 506l55 -4l-198 -502h-64l-198 502l55 4l175 -458z" />
    <glyph glyph-name="w.smcp" horiz-adv-x="775" 
d="M696 507l54 -4l-163 -503h-64l-135 442l-133 -442h-64l-166 503l54 4l144 -459l137 454l55 4l140 -458z" />
    <glyph glyph-name="x.smcp" horiz-adv-x="534" 
d="M45 2l191 249l-191 251l60 4l163 -219l164 219l57 -4l-191 -249l191 -251l-60 -4l-163 219l-164 -219z" />
    <glyph glyph-name="y.smcp" horiz-adv-x="474" 
d="M212 0v208l-197 294l60 4l162 -253l165 253l57 -4l-197 -294v-208h-50z" />
    <glyph glyph-name="y.smcp..salt" 
d="M477 504v-324c0 -121 -76 -190 -206 -190c-51 0 -109 11 -173 34l9 47c58 -22 113 -35 164 -35c100 0 156 54 156 144v84c-65 -43 -128 -73 -189 -73c-73 0 -163 28 -163 157v156h50v-159c0 -80 55 -108 110 -108c66 0 127 30 192 77v190h50z" />
    <glyph glyph-name="z.smcp" horiz-adv-x="483" 
d="M111 46h327l-4 -46h-384l-4 42l326 416h-327l4 46h384l4 -42z" />
    <glyph glyph-name="ae.smcp" horiz-adv-x="757" 
d="M47 0h-62l358 504h369l-4 -46h-285v-186h249l-4 -46h-245v-180h289l-4 -46h-335v130h-235zM170 176h203v290z" />
    <glyph glyph-name="eng.smcp" 
d="M426 0l-301 422v-422h-50v502l50 4l302 -425v423h50v-482c0 -100 -40 -165 -130 -238l-37 31c65 54 109 109 116 185z" />
    <glyph glyph-name="eth.smcp" horiz-adv-x="579" 
d="M263 504c152 0 251 -71 251 -251c0 -182 -110 -263 -264 -263c-50 0 -114 4 -175 17v223h-70l4 44h66v230h188zM264 458h-139v-184h129l-4 -44h-125v-185c46 -7 96 -10 125 -10c126 0 214 68 214 217c0 147 -79 206 -200 206z" />
    <glyph glyph-name="ij.smcp" horiz-adv-x="415" 
d="M75 504h50v-504h-50v504zM290 504h50v-422c0 -100 -40 -165 -130 -238l-37 31c72 59 117 120 117 208v421z" />
    <glyph glyph-name="oe.smcp" horiz-adv-x="895" 
d="M511 0v73c-43 -57 -112 -83 -197 -83c-150 0 -249 80 -249 262c0 181 99 262 249 262c85 0 154 -27 197 -84v74h339l-4 -46h-285v-186h249l-4 -46h-245v-180h289l-4 -46h-335zM115 252c0 -150 79 -216 199 -216c115 0 193 63 197 205v22c-4 141 -82 205 -197 205
c-120 0 -199 -67 -199 -216z" />
    <glyph glyph-name="oslash.smcp" horiz-adv-x="626" 
d="M503 565l43 -23l-60 -85c48 -43 75 -110 75 -205c0 -182 -99 -262 -247 -262c-52 0 -97 10 -135 29l-56 -80l-43 23l59 85c-47 42 -74 110 -74 205c0 181 99 262 249 262c50 0 95 -10 132 -30zM115 252c0 -75 19 -128 54 -164l249 356c-29 16 -64 24 -104 24
c-120 0 -199 -67 -199 -216zM511 252c0 74 -20 128 -54 163l-250 -356c30 -16 66 -23 107 -23c118 0 197 66 197 216z" />
    <glyph glyph-name="thorn.smcp" horiz-adv-x="474" 
d="M125 371v-239c23 -3 59 -6 89 -6c100 0 175 37 175 126c0 86 -75 125 -175 125c-30 0 -66 -3 -89 -6zM75 0v504h50v-87c27 3 59 6 92 6c128 0 222 -56 222 -171s-94 -172 -222 -172c-33 0 -65 3 -92 6v-86h-50z" />
    <glyph glyph-name="aacute.smcp" horiz-adv-x="512" 
d="M363 176l-107 280l-107 -280h214zM380 130h-249l-49 -130h-57l198 502l64 4l200 -506h-57zM299 702h59l-92 -138h-51z" />
    <glyph glyph-name="abreve.smcp" horiz-adv-x="512" 
d="M363 176l-107 280l-107 -280h214zM380 130h-249l-49 -130h-57l198 502l64 4l200 -506h-57zM120 698l45 4c2 -65 48 -92 92 -92c42 0 88 27 90 92l45 -4c0 -88 -62 -134 -135 -134c-76 0 -137 46 -137 134z" />
    <glyph glyph-name="acircumflex.smcp" horiz-adv-x="512" 
d="M363 176l-107 280l-107 -280h214zM380 130h-249l-49 -130h-57l198 502l64 4l200 -506h-57zM278 702l114 -138h-57l-79 97l-79 -97h-57l114 138h44z" />
    <glyph glyph-name="adieresis.smcp" horiz-adv-x="512" 
d="M363 176l-107 280l-107 -280h214zM380 130h-249l-49 -130h-57l198 502l64 4l200 -506h-57zM163 655c22 0 38 -16 38 -38s-16 -38 -38 -38s-38 16 -38 38s16 38 38 38zM349 655c22 0 38 -16 38 -38s-16 -38 -38 -38s-38 16 -38 38s16 38 38 38z" />
    <glyph glyph-name="agrave.smcp" horiz-adv-x="512" 
d="M363 176l-107 280l-107 -280h214zM380 130h-249l-49 -130h-57l198 502l64 4l200 -506h-57zM164 702h59l84 -138h-51z" />
    <glyph glyph-name="amacron.smcp" horiz-adv-x="512" 
d="M363 176l-107 280l-107 -280h214zM380 130h-249l-49 -130h-57l198 502l64 4l200 -506h-57zM116 640h285l-4 -44h-285z" />
    <glyph glyph-name="aogonek.smcp" horiz-adv-x="512" 
d="M380 130h-249l-49 -130h-57l198 502l64 4l200 -506c-58 -32 -87 -76 -87 -115c0 -31 19 -55 59 -55c12 0 27 3 44 8l7 -46c-18 -5 -35 -8 -51 -8c-74 0 -109 44 -109 101c0 43 26 88 76 125zM363 176l-107 280l-107 -280h214z" />
    <glyph glyph-name="aring.smcp" horiz-adv-x="512" 
d="M363 176l-107 280l-107 -280h214zM380 130h-249l-49 -130h-57l198 502l64 4l200 -506h-57zM207 616c0 -30 20 -52 48 -52c30 0 50 22 50 52c0 32 -20 54 -50 54c-28 0 -48 -22 -48 -54zM161 616c0 57 39 96 94 96c57 0 96 -39 96 -96c0 -55 -39 -94 -96 -94
c-55 0 -94 39 -94 94z" />
    <glyph glyph-name="atilde.smcp" horiz-adv-x="512" 
d="M363 176l-107 280l-107 -280h214zM380 130h-249l-49 -130h-57l198 502l64 4l200 -506h-57zM109 599c9 50 47 85 90 85c53 0 83 -57 119 -57c21 0 36 20 44 47l42 -9c-10 -47 -47 -83 -89 -83c-53 0 -84 56 -120 56c-21 0 -37 -19 -45 -47z" />
    <glyph glyph-name="cacute.smcp" horiz-adv-x="507" 
d="M312 468c-106 0 -197 -57 -197 -216s91 -216 197 -216c43 0 92 8 143 26l7 -46c-48 -17 -101 -26 -150 -26c-133 0 -247 69 -247 262s114 262 247 262c49 0 102 -9 150 -26l-7 -46c-51 18 -100 26 -143 26zM334 702h59l-92 -138h-51z" />
    <glyph glyph-name="ccaron.smcp" horiz-adv-x="507" 
d="M312 468c-106 0 -197 -57 -197 -216s91 -216 197 -216c43 0 92 8 143 26l7 -46c-48 -17 -101 -26 -150 -26c-133 0 -247 69 -247 262s114 262 247 262c49 0 102 -9 150 -26l-7 -46c-51 18 -100 26 -143 26zM278 564l-114 138h57l79 -97l79 97h57l-114 -138h-44z" />
    <glyph glyph-name="ccedilla.smcp" horiz-adv-x="507" 
d="M312 468c-106 0 -197 -57 -197 -216s91 -216 197 -216c43 0 92 8 143 26l7 -46c-39 -14 -80 -22 -121 -25l-27 -45c6 1 12 1 17 1c49 0 79 -31 79 -80s-44 -83 -107 -83c-21 0 -43 3 -67 11l8 43c18 -7 38 -10 56 -10c33 0 59 12 59 39c0 22 -11 38 -41 38
c-9 0 -20 -2 -32 -5l-31 31l32 60c-122 9 -222 80 -222 261c0 193 114 262 247 262c49 0 102 -9 150 -26l-7 -46c-51 18 -100 26 -143 26z" />
    <glyph glyph-name="ccircumflex.smcp" horiz-adv-x="507" 
d="M312 468c-106 0 -197 -57 -197 -216s91 -216 197 -216c43 0 92 8 143 26l7 -46c-48 -17 -101 -26 -150 -26c-133 0 -247 69 -247 262s114 262 247 262c49 0 102 -9 150 -26l-7 -46c-51 18 -100 26 -143 26zM323 702l114 -138h-57l-79 97l-79 -97h-57l114 138h44z" />
    <glyph glyph-name="cdotaccent.smcp" horiz-adv-x="507" 
d="M312 468c-106 0 -197 -57 -197 -216s91 -216 197 -216c43 0 92 8 143 26l7 -46c-48 -17 -101 -26 -150 -26c-133 0 -247 69 -247 262s114 262 247 262c49 0 102 -9 150 -26l-7 -46c-51 18 -100 26 -143 26zM301 655c22 0 38 -16 38 -38s-16 -38 -38 -38s-38 16 -38 38
s16 38 38 38z" />
    <glyph glyph-name="dcaron.smcp" horiz-adv-x="579" 
d="M263 504c152 0 251 -71 251 -251c0 -182 -110 -263 -264 -263c-50 0 -114 4 -175 17v497h188zM264 458h-139v-413c46 -7 96 -10 125 -10c126 0 214 68 214 217c0 147 -79 206 -200 206zM228 564l-114 138h57l79 -97l79 97h57l-114 -138h-44z" />
    <glyph glyph-name="dcroat.smcp" horiz-adv-x="579" 
d="M263 504c152 0 251 -71 251 -251c0 -182 -110 -263 -264 -263c-50 0 -114 4 -175 17v223h-70l4 44h66v230h188zM264 458h-139v-184h129l-4 -44h-125v-185c46 -7 96 -10 125 -10c126 0 214 68 214 217c0 147 -79 206 -200 206z" />
    <glyph glyph-name="eacute.smcp" horiz-adv-x="459" 
d="M75 0v504h339l-4 -46h-285v-186h249l-4 -46h-245v-180h289l-4 -46h-335zM267 702h59l-92 -138h-51z" />
    <glyph glyph-name="ebreve.smcp" horiz-adv-x="459" 
d="M75 0v504h339l-4 -46h-285v-186h249l-4 -46h-245v-180h289l-4 -46h-335zM108 698l45 4c2 -65 48 -92 92 -92c42 0 88 27 90 92l45 -4c0 -88 -62 -134 -135 -134c-76 0 -137 46 -137 134z" />
    <glyph glyph-name="ecaron.smcp" horiz-adv-x="459" 
d="M75 0v504h339l-4 -46h-285v-186h249l-4 -46h-245v-180h289l-4 -46h-335zM222 564l-114 138h57l79 -97l79 97h57l-114 -138h-44z" />
    <glyph glyph-name="ecircumflex.smcp" horiz-adv-x="459" 
d="M75 0v504h339l-4 -46h-285v-186h249l-4 -46h-245v-180h289l-4 -46h-335zM266 702l114 -138h-57l-79 97l-79 -97h-57l114 138h44z" />
    <glyph glyph-name="edieresis.smcp" horiz-adv-x="459" 
d="M75 0v504h339l-4 -46h-285v-186h249l-4 -46h-245v-180h289l-4 -46h-335zM151 655c22 0 38 -16 38 -38s-16 -38 -38 -38s-38 16 -38 38s16 38 38 38zM337 655c22 0 38 -16 38 -38s-16 -38 -38 -38s-38 16 -38 38s16 38 38 38z" />
    <glyph glyph-name="edotaccent.smcp" horiz-adv-x="459" 
d="M75 0v504h339l-4 -46h-285v-186h249l-4 -46h-245v-180h289l-4 -46h-335zM244 655c22 0 38 -16 38 -38s-16 -38 -38 -38s-38 16 -38 38s16 38 38 38z" />
    <glyph glyph-name="egrave.smcp" horiz-adv-x="459" 
d="M75 0v504h339l-4 -46h-285v-186h249l-4 -46h-245v-180h289l-4 -46h-335zM153 702h59l84 -138h-51z" />
    <glyph glyph-name="emacron.smcp" horiz-adv-x="459" 
d="M75 0v504h339l-4 -46h-285v-186h249l-4 -46h-245v-180h289l-4 -46h-335zM104 640h285l-4 -44h-285z" />
    <glyph glyph-name="eogonek.smcp" horiz-adv-x="459" 
d="M75 0v504h339l-4 -46h-285v-186h249l-4 -46h-245v-180h289l-4 -46c-58 -32 -87 -76 -87 -115c0 -31 19 -55 59 -55c12 0 27 3 44 8l7 -46c-18 -5 -35 -8 -51 -8c-74 0 -109 44 -109 101c0 40 22 80 63 115h-261z" />
    <glyph glyph-name="eacute.smcp..salt" horiz-adv-x="507" 
d="M312 468c-102 0 -189 -53 -197 -196h259l-4 -46h-254c9 -139 96 -190 196 -190c43 0 92 8 143 26l7 -46c-48 -17 -101 -26 -150 -26c-133 0 -247 69 -247 262s114 262 247 262c49 0 102 -9 150 -26l-7 -46c-51 18 -100 26 -143 26zM334 702h59l-92 -138h-51z" />
    <glyph glyph-name="ebreve.smcp..salt" horiz-adv-x="507" 
d="M312 468c-102 0 -189 -53 -197 -196h259l-4 -46h-254c9 -139 96 -190 196 -190c43 0 92 8 143 26l7 -46c-48 -17 -101 -26 -150 -26c-133 0 -247 69 -247 262s114 262 247 262c49 0 102 -9 150 -26l-7 -46c-51 18 -100 26 -143 26zM155 698l45 4c2 -65 48 -92 92 -92
c42 0 88 27 90 92l45 -4c0 -88 -62 -134 -135 -134c-76 0 -137 46 -137 134z" />
    <glyph glyph-name="ecaron.smcp..salt" horiz-adv-x="507" 
d="M312 468c-102 0 -189 -53 -197 -196h259l-4 -46h-254c9 -139 96 -190 196 -190c43 0 92 8 143 26l7 -46c-48 -17 -101 -26 -150 -26c-133 0 -247 69 -247 262s114 262 247 262c49 0 102 -9 150 -26l-7 -46c-51 18 -100 26 -143 26zM269 564l-114 138h57l79 -97l79 97h57
l-114 -138h-44z" />
    <glyph glyph-name="ecircumflex.smcp..salt" horiz-adv-x="507" 
d="M312 468c-102 0 -189 -53 -197 -196h259l-4 -46h-254c9 -139 96 -190 196 -190c43 0 92 8 143 26l7 -46c-48 -17 -101 -26 -150 -26c-133 0 -247 69 -247 262s114 262 247 262c49 0 102 -9 150 -26l-7 -46c-51 18 -100 26 -143 26zM313 702l114 -138h-57l-79 97l-79 -97
h-57l114 138h44z" />
    <glyph glyph-name="edieresis.smcp..salt" horiz-adv-x="507" 
d="M312 468c-102 0 -189 -53 -197 -196h259l-4 -46h-254c9 -139 96 -190 196 -190c43 0 92 8 143 26l7 -46c-48 -17 -101 -26 -150 -26c-133 0 -247 69 -247 262s114 262 247 262c49 0 102 -9 150 -26l-7 -46c-51 18 -100 26 -143 26zM198 655c22 0 38 -16 38 -38
s-16 -38 -38 -38s-38 16 -38 38s16 38 38 38zM384 655c22 0 38 -16 38 -38s-16 -38 -38 -38s-38 16 -38 38s16 38 38 38z" />
    <glyph glyph-name="edotaccent.smcp..salt" horiz-adv-x="507" 
d="M312 468c-102 0 -189 -53 -197 -196h259l-4 -46h-254c9 -139 96 -190 196 -190c43 0 92 8 143 26l7 -46c-48 -17 -101 -26 -150 -26c-133 0 -247 69 -247 262s114 262 247 262c49 0 102 -9 150 -26l-7 -46c-51 18 -100 26 -143 26zM291 655c22 0 38 -16 38 -38
s-16 -38 -38 -38s-38 16 -38 38s16 38 38 38z" />
    <glyph glyph-name="egrave.smcp..salt" horiz-adv-x="507" 
d="M312 468c-102 0 -189 -53 -197 -196h259l-4 -46h-254c9 -139 96 -190 196 -190c43 0 92 8 143 26l7 -46c-48 -17 -101 -26 -150 -26c-133 0 -247 69 -247 262s114 262 247 262c49 0 102 -9 150 -26l-7 -46c-51 18 -100 26 -143 26zM190 702h59l84 -138h-51z" />
    <glyph glyph-name="emacron.smcp..salt" horiz-adv-x="507" 
d="M312 468c-102 0 -189 -53 -197 -196h259l-4 -46h-254c9 -139 96 -190 196 -190c43 0 92 8 143 26l7 -46c-48 -17 -101 -26 -150 -26c-133 0 -247 69 -247 262s114 262 247 262c49 0 102 -9 150 -26l-7 -46c-51 18 -100 26 -143 26zM151 640h285l-4 -44h-285z" />
    <glyph glyph-name="eogonek.smcp..salt" horiz-adv-x="507" 
d="M312 468c-102 0 -189 -53 -197 -196h259l-4 -46h-254c9 -139 96 -190 196 -190c43 0 92 8 143 26l7 -46c-64 -35 -96 -82 -96 -131c0 -30 19 -55 59 -55c13 0 27 3 44 8l7 -46c-18 -5 -35 -8 -51 -8c-74 0 -109 43 -109 104c0 37 17 73 51 106c-19 -3 -37 -4 -55 -4
c-133 0 -247 69 -247 262s114 262 247 262c49 0 102 -9 150 -26l-7 -46c-51 18 -100 26 -143 26z" />
    <glyph glyph-name="gbreve.smcp" horiz-adv-x="567" 
d="M320 468c-113 0 -205 -57 -205 -216c0 -156 85 -216 201 -216c38 0 73 4 126 19v142h-154l4 46h200v-221c-77 -26 -125 -32 -176 -32c-145 0 -251 73 -251 262c0 193 114 262 255 262c49 0 102 -9 150 -26l-7 -46c-50 18 -100 26 -143 26zM175 698l45 4
c2 -65 48 -92 92 -92c42 0 88 27 90 92l45 -4c0 -88 -62 -134 -135 -134c-76 0 -137 46 -137 134z" />
    <glyph glyph-name="gcircumflex.smcp" horiz-adv-x="567" 
d="M320 468c-113 0 -205 -57 -205 -216c0 -156 85 -216 201 -216c38 0 73 4 126 19v142h-154l4 46h200v-221c-77 -26 -125 -32 -176 -32c-145 0 -251 73 -251 262c0 193 114 262 255 262c49 0 102 -9 150 -26l-7 -46c-50 18 -100 26 -143 26zM333 702l114 -138h-57l-79 97
l-79 -97h-57l114 138h44z" />
    <glyph glyph-name="gcommaaccent.smcp" horiz-adv-x="567" 
d="M320 468c-113 0 -205 -57 -205 -216c0 -156 85 -216 201 -216c38 0 73 4 126 19v142h-154l4 46h200v-221c-77 -26 -125 -32 -176 -32c-145 0 -251 73 -251 262c0 193 114 262 255 262c49 0 102 -9 150 -26l-7 -46c-50 18 -100 26 -143 26zM272 -81l53 4
c30 -46 23 -95 -14 -139l-44 3c40 46 35 86 5 132z" />
    <glyph glyph-name="gdotaccent.smcp" horiz-adv-x="567" 
d="M320 468c-113 0 -205 -57 -205 -216c0 -156 85 -216 201 -216c38 0 73 4 126 19v142h-154l4 46h200v-221c-77 -26 -125 -32 -176 -32c-145 0 -251 73 -251 262c0 193 114 262 255 262c49 0 102 -9 150 -26l-7 -46c-50 18 -100 26 -143 26zM311 655c22 0 38 -16 38 -38
s-16 -38 -38 -38s-38 16 -38 38s16 38 38 38z" />
    <glyph glyph-name="hbar.smcp" 
d="M75 504h50v-102h302v102h50v-102h70l-4 -44h-66v-358h-50v226h-302v-226h-50v358h-70l4 44h66v102zM125 272h302v86h-302v-86z" />
    <glyph glyph-name="hcircumflex.smcp" 
d="M75 504h50v-232h302v232h50v-504h-50v226h-302v-226h-50v504zM298 702l114 -138h-57l-79 97l-79 -97h-57l114 138h44z" />
    <glyph glyph-name="iacute.smcp" horiz-adv-x="200" 
d="M75 504h50v-504h-50v504zM158 702h59l-92 -138h-51z" />
    <glyph glyph-name="ibreve.smcp" horiz-adv-x="200" 
d="M75 504h50v-504h-50v504zM-36 698l45 4c2 -65 48 -92 92 -92c42 0 88 27 90 92l45 -4c0 -88 -62 -134 -135 -134c-76 0 -137 46 -137 134z" />
    <glyph glyph-name="icircumflex.smcp" horiz-adv-x="200" 
d="M75 504h50v-504h-50v504zM122 702l114 -138h-57l-79 97l-79 -97h-57l114 138h44z" />
    <glyph glyph-name="idieresis.smcp" horiz-adv-x="200" 
d="M75 504h50v-504h-50v504zM7 655c22 0 38 -16 38 -38s-16 -38 -38 -38s-38 16 -38 38s16 38 38 38zM193 655c22 0 38 -16 38 -38s-16 -38 -38 -38s-38 16 -38 38s16 38 38 38z" />
    <glyph glyph-name="idotaccent.smcp" horiz-adv-x="200" 
d="M75 504h50v-504h-50v504zM100 655c22 0 38 -16 38 -38s-16 -38 -38 -38s-38 16 -38 38s16 38 38 38z" />
    <glyph glyph-name="igrave.smcp" horiz-adv-x="200" 
d="M75 504h50v-504h-50v504zM-16 702h59l84 -138h-51z" />
    <glyph glyph-name="imacron.smcp" horiz-adv-x="200" 
d="M75 504h50v-504h-50v504zM-40 640h285l-4 -44h-285z" />
    <glyph glyph-name="iogonek.smcp" horiz-adv-x="200" 
d="M141 -162l7 -46c-18 -5 -35 -8 -51 -8c-74 0 -109 44 -109 101c0 47 30 95 87 133v486h50v-504c-58 -32 -87 -76 -87 -115c0 -31 19 -55 59 -55c12 0 27 3 44 8z" />
    <glyph glyph-name="itilde.smcp" horiz-adv-x="200" 
d="M75 504h50v-504h-50v504zM-47 599c9 50 47 85 90 85c53 0 83 -57 119 -57c21 0 36 20 44 47l42 -9c-10 -47 -47 -83 -89 -83c-53 0 -84 56 -120 56c-21 0 -37 -19 -45 -47z" />
    <glyph glyph-name="iacute.smcp..salt" horiz-adv-x="380" 
d="M215 46h110l-4 -46h-266l4 46h106v412h-110l4 46h266l-4 -46h-106v-412zM223 702h59l-92 -138h-51z" />
    <glyph glyph-name="ibreve.smcp..salt" horiz-adv-x="380" 
d="M215 46h110l-4 -46h-266l4 46h106v412h-110l4 46h266l-4 -46h-106v-412zM54 698l45 4c2 -65 48 -92 92 -92c42 0 88 27 90 92l45 -4c0 -88 -62 -134 -135 -134c-76 0 -137 46 -137 134z" />
    <glyph glyph-name="icircumflex.smcp..salt" horiz-adv-x="380" 
d="M215 46h110l-4 -46h-266l4 46h106v412h-110l4 46h266l-4 -46h-106v-412zM212 702l114 -138h-57l-79 97l-79 -97h-57l114 138h44z" />
    <glyph glyph-name="idieresis.smcp..salt" horiz-adv-x="380" 
d="M215 46h110l-4 -46h-266l4 46h106v412h-110l4 46h266l-4 -46h-106v-412zM97 655c22 0 38 -16 38 -38s-16 -38 -38 -38s-38 16 -38 38s16 38 38 38zM283 655c22 0 38 -16 38 -38s-16 -38 -38 -38s-38 16 -38 38s16 38 38 38z" />
    <glyph glyph-name="idotaccent.smcp..salt" horiz-adv-x="380" 
d="M215 46h110l-4 -46h-266l4 46h106v412h-110l4 46h266l-4 -46h-106v-412zM190 655c22 0 38 -16 38 -38s-16 -38 -38 -38s-38 16 -38 38s16 38 38 38z" />
    <glyph glyph-name="igrave.smcp..salt" horiz-adv-x="380" 
d="M215 46h110l-4 -46h-266l4 46h106v412h-110l4 46h266l-4 -46h-106v-412zM99 702h59l84 -138h-51z" />
    <glyph glyph-name="imacron.smcp..salt" horiz-adv-x="380" 
d="M215 46h110l-4 -46h-266l4 46h106v412h-110l4 46h266l-4 -46h-106v-412zM50 640h285l-4 -44h-285z" />
    <glyph glyph-name="iogonek.smcp..salt" horiz-adv-x="380" 
d="M263 -162l7 -46c-18 -5 -35 -8 -51 -8c-74 0 -109 44 -109 101c0 40 22 80 63 115h-118l4 46h106v412h-110l4 46h266l-4 -46h-106v-412h110l-4 -46h-74c-58 -32 -87 -76 -87 -115c0 -31 19 -55 59 -55c12 0 27 3 44 8z" />
    <glyph glyph-name="itilde.smcp..salt" horiz-adv-x="380" 
d="M215 46h110l-4 -46h-266l4 46h106v412h-110l4 46h266l-4 -46h-106v-412zM43 599c9 50 47 85 90 85c53 0 83 -57 119 -57c21 0 36 20 44 47l42 -9c-10 -47 -47 -83 -89 -83c-53 0 -84 56 -120 56c-21 0 -37 -19 -45 -47z" />
    <glyph glyph-name="jcircumflex.smcp" horiz-adv-x="225" 
d="M100 504h50v-422c0 -100 -40 -165 -130 -238l-37 31c72 59 117 120 117 208v421zM147 702l114 -138h-57l-79 97l-79 -97h-57l114 138h44z" />
    <glyph glyph-name="kcommaaccent.smcp" horiz-adv-x="482" 
d="M377 -2l-252 239v-237h-50v504h50v-237l252 239l65 -4l-262 -248l267 -252zM198 -81l53 4c30 -46 23 -95 -14 -139l-44 3c40 46 35 86 5 132z" />
    <glyph glyph-name="lacute.smcp" horiz-adv-x="434" 
d="M75 504h50v-458h274l-4 -46h-320v504zM158 700h59l-92 -138h-51z" />
    <glyph glyph-name="lcaron.smcp" horiz-adv-x="434" 
d="M75 504h50v-458h274l-4 -46h-320v504zM195 544l53 5c28 -61 20 -126 -17 -185h-46c40 61 40 119 10 180z" />
    <glyph glyph-name="lcommaaccent.smcp" horiz-adv-x="434" 
d="M75 504h50v-458h274l-4 -46h-320v504zM198 -81l53 4c30 -46 23 -95 -14 -139l-44 3c40 46 35 86 5 132z" />
    <glyph glyph-name="ldot.smcp" horiz-adv-x="434" 
d="M75 504h50v-458h274l-4 -46h-320v504zM306 310c22 0 38 -16 38 -38s-16 -38 -38 -38s-38 16 -38 38s16 38 38 38z" />
    <glyph glyph-name="lslash.smcp" horiz-adv-x="434" 
d="M75 504h50v-242l181 89l4 -50l-185 -92v-163h274l-4 -46h-320v184l-66 -32l-4 51l70 34v267z" />
    <glyph glyph-name="nacute.smcp" 
d="M125 422v-422h-50v502l50 4l302 -425v423h50v-502l-50 -4zM309 702h59l-92 -138h-51z" />
    <glyph glyph-name="napostrophe.smcp" 
d="M125 422v-422h-50v502l50 4l302 -425v423h50v-502l-50 -4zM80 702l53 4c30 -46 23 -95 -14 -139l-44 3c40 46 35 86 5 132z" />
    <glyph glyph-name="ncaron.smcp" 
d="M125 422v-422h-50v502l50 4l302 -425v423h50v-502l-50 -4zM254 564l-114 138h57l79 -97l79 97h57l-114 -138h-44z" />
    <glyph glyph-name="ncommaaccent.smcp" 
d="M125 422v-422h-50v502l50 4l302 -425v423h50v-502l-50 -4zM237 -81l53 4c30 -46 23 -95 -14 -139l-44 3c40 46 35 86 5 132z" />
    <glyph glyph-name="ntilde.smcp" 
d="M125 422v-422h-50v502l50 4l302 -425v423h50v-502l-50 -4zM129 579c9 50 47 85 90 85c53 0 83 -57 119 -57c21 0 36 20 44 47l42 -9c-10 -47 -47 -83 -89 -83c-53 0 -84 56 -120 56c-21 0 -37 -19 -45 -47z" />
    <glyph glyph-name="oacute.smcp" horiz-adv-x="626" 
d="M115 252c0 -150 79 -216 199 -216c118 0 197 66 197 216c0 149 -79 216 -197 216c-120 0 -199 -67 -199 -216zM65 252c0 181 99 262 249 262c148 0 247 -81 247 -262c0 -182 -99 -262 -247 -262c-150 0 -249 80 -249 262zM346 702h59l-92 -138h-51z" />
    <glyph glyph-name="obreve.smcp" horiz-adv-x="626" 
d="M115 252c0 -150 79 -216 199 -216c118 0 197 66 197 216c0 149 -79 216 -197 216c-120 0 -199 -67 -199 -216zM65 252c0 181 99 262 249 262c148 0 247 -81 247 -262c0 -182 -99 -262 -247 -262c-150 0 -249 80 -249 262zM177 698l45 4c2 -65 48 -92 92 -92
c42 0 88 27 90 92l45 -4c0 -88 -62 -134 -135 -134c-76 0 -137 46 -137 134z" />
    <glyph glyph-name="ocircumflex.smcp" horiz-adv-x="626" 
d="M115 252c0 -150 79 -216 199 -216c118 0 197 66 197 216c0 149 -79 216 -197 216c-120 0 -199 -67 -199 -216zM65 252c0 181 99 262 249 262c148 0 247 -81 247 -262c0 -182 -99 -262 -247 -262c-150 0 -249 80 -249 262zM335 702l114 -138h-57l-79 97l-79 -97h-57
l114 138h44z" />
    <glyph glyph-name="odieresis.smcp" horiz-adv-x="626" 
d="M115 252c0 -150 79 -216 199 -216c118 0 197 66 197 216c0 149 -79 216 -197 216c-120 0 -199 -67 -199 -216zM65 252c0 181 99 262 249 262c148 0 247 -81 247 -262c0 -182 -99 -262 -247 -262c-150 0 -249 80 -249 262zM220 655c22 0 38 -16 38 -38s-16 -38 -38 -38
s-38 16 -38 38s16 38 38 38zM406 655c22 0 38 -16 38 -38s-16 -38 -38 -38s-38 16 -38 38s16 38 38 38z" />
    <glyph glyph-name="ograve.smcp" horiz-adv-x="626" 
d="M115 252c0 -150 79 -216 199 -216c118 0 197 66 197 216c0 149 -79 216 -197 216c-120 0 -199 -67 -199 -216zM65 252c0 181 99 262 249 262c148 0 247 -81 247 -262c0 -182 -99 -262 -247 -262c-150 0 -249 80 -249 262zM222 702h59l84 -138h-51z" />
    <glyph glyph-name="ohungarumlaut.smcp" horiz-adv-x="626" 
d="M115 252c0 -150 79 -216 199 -216c118 0 197 66 197 216c0 149 -79 216 -197 216c-120 0 -199 -67 -199 -216zM65 252c0 181 99 262 249 262c148 0 247 -81 247 -262c0 -182 -99 -262 -247 -262c-150 0 -249 80 -249 262zM267 702h59l-92 -138h-51zM425 702h59l-92 -138
h-51z" />
    <glyph glyph-name="omacron.smcp" horiz-adv-x="626" 
d="M115 252c0 -150 79 -216 199 -216c118 0 197 66 197 216c0 149 -79 216 -197 216c-120 0 -199 -67 -199 -216zM65 252c0 181 99 262 249 262c148 0 247 -81 247 -262c0 -182 -99 -262 -247 -262c-150 0 -249 80 -249 262zM173 640h285l-4 -44h-285z" />
    <glyph glyph-name="otilde.smcp" horiz-adv-x="626" 
d="M115 252c0 -150 79 -216 199 -216c118 0 197 66 197 216c0 149 -79 216 -197 216c-120 0 -199 -67 -199 -216zM65 252c0 181 99 262 249 262c148 0 247 -81 247 -262c0 -182 -99 -262 -247 -262c-150 0 -249 80 -249 262zM166 599c9 50 47 85 90 85c53 0 83 -57 119 -57
c21 0 36 20 44 47l42 -9c-10 -47 -47 -83 -89 -83c-53 0 -84 56 -120 56c-21 0 -37 -19 -45 -47z" />
    <glyph glyph-name="racute.smcp" horiz-adv-x="500" 
d="M125 192v-192h-50v504h135c132 0 213 -49 213 -154c0 -69 -44 -118 -105 -143l142 -206l-56 -3l-132 194c-21 -4 -43 -6 -65 -6c-28 0 -55 3 -82 6zM125 458v-220c21 -2 56 -6 85 -6c95 0 163 43 163 118c0 71 -59 108 -163 108h-85zM240 702h59l-92 -138h-51z" />
    <glyph glyph-name="rcaron.smcp" horiz-adv-x="500" 
d="M125 192v-192h-50v504h135c132 0 213 -49 213 -154c0 -69 -44 -118 -105 -143l142 -206l-56 -3l-132 194c-21 -4 -43 -6 -65 -6c-28 0 -55 3 -82 6zM125 458v-220c21 -2 56 -6 85 -6c95 0 163 43 163 118c0 71 -59 108 -163 108h-85zM195 564l-114 138h57l79 -97l79 97
h57l-114 -138h-44z" />
    <glyph glyph-name="rcommaaccent.smcp" horiz-adv-x="500" 
d="M125 192v-192h-50v504h135c132 0 213 -49 213 -154c0 -69 -44 -118 -105 -143l142 -206l-56 -3l-132 194c-21 -4 -43 -6 -65 -6c-28 0 -55 3 -82 6zM125 458v-220c21 -2 56 -6 85 -6c95 0 163 43 163 118c0 71 -59 108 -163 108h-85zM198 -81l53 4
c30 -46 23 -95 -14 -139l-44 3c40 46 35 86 5 132z" />
    <glyph glyph-name="racute.smcp..salt" horiz-adv-x="500" 
d="M125 192v-192h-50v504h135c132 0 213 -49 213 -154c0 -70 -45 -118 -106 -144c15 -105 50 -170 111 -170c26 0 48 5 72 13l5 -45c-29 -10 -57 -14 -81 -14c-80 0 -136 74 -156 202c-20 -4 -40 -6 -61 -6c-28 0 -55 3 -82 6zM125 458v-220c21 -2 56 -6 85 -6
c95 0 163 43 163 118c0 71 -59 108 -163 108h-85zM240 702h59l-92 -138h-51z" />
    <glyph glyph-name="rcaron.smcp..salt" horiz-adv-x="500" 
d="M125 192v-192h-50v504h135c132 0 213 -49 213 -154c0 -70 -45 -118 -106 -144c15 -105 50 -170 111 -170c26 0 48 5 72 13l5 -45c-29 -10 -57 -14 -81 -14c-80 0 -136 74 -156 202c-20 -4 -40 -6 -61 -6c-28 0 -55 3 -82 6zM125 458v-220c21 -2 56 -6 85 -6
c95 0 163 43 163 118c0 71 -59 108 -163 108h-85zM195 564l-114 138h57l79 -97l79 97h57l-114 -138h-44z" />
    <glyph glyph-name="rcommaaccent.smcp..salt" horiz-adv-x="500" 
d="M125 192v-192h-50v504h135c132 0 213 -49 213 -154c0 -70 -45 -118 -106 -144c15 -105 50 -170 111 -170c26 0 48 5 72 13l5 -45c-29 -10 -57 -14 -81 -14c-80 0 -136 74 -156 202c-20 -4 -40 -6 -61 -6c-28 0 -55 3 -82 6zM125 458v-220c21 -2 56 -6 85 -6
c95 0 163 43 163 118c0 71 -59 108 -163 108h-85zM198 -81l53 4c30 -46 23 -95 -14 -139l-44 3c40 46 35 86 5 132z" />
    <glyph glyph-name="sacute.smcp" horiz-adv-x="455" 
d="M65 18l11 45c52 -16 102 -27 141 -27c71 0 133 25 133 86c0 119 -295 103 -295 263c0 89 84 129 181 129c43 0 96 -13 148 -32l-10 -45c-40 18 -91 31 -138 31c-70 0 -131 -26 -131 -83c0 -117 295 -104 295 -263c0 -94 -85 -132 -183 -132c-50 0 -104 11 -152 28z
M256 702h59l-92 -138h-51z" />
    <glyph glyph-name="scaron.smcp" horiz-adv-x="455" 
d="M65 18l11 45c52 -16 102 -27 141 -27c71 0 133 25 133 86c0 119 -295 103 -295 263c0 89 84 129 181 129c43 0 96 -13 148 -32l-10 -45c-40 18 -91 31 -138 31c-70 0 -131 -26 -131 -83c0 -117 295 -104 295 -263c0 -94 -85 -132 -183 -132c-50 0 -104 11 -152 28z
M201 564l-114 138h57l79 -97l79 97h57l-114 -138h-44z" />
    <glyph glyph-name="scedilla.smcp" horiz-adv-x="455" 
d="M65 18l11 45c52 -16 102 -27 141 -27c71 0 133 25 133 86c0 119 -295 103 -295 263c0 89 84 129 181 129c43 0 96 -13 148 -32l-10 -45c-40 18 -91 31 -138 31c-70 0 -131 -26 -131 -83c0 -117 295 -104 295 -263c0 -83 -65 -122 -147 -130l-28 -46c6 1 12 1 17 1
c49 0 79 -31 79 -80s-44 -83 -107 -83c-21 0 -43 3 -67 11l8 43c18 -7 38 -10 56 -10c33 0 59 12 59 39c0 22 -11 38 -41 38c-9 0 -20 -2 -32 -5l-31 31l31 60c-44 2 -90 12 -132 27z" />
    <glyph glyph-name="scircumflex.smcp" horiz-adv-x="455" 
d="M65 18l11 45c52 -16 102 -27 141 -27c71 0 133 25 133 86c0 119 -295 103 -295 263c0 89 84 129 181 129c43 0 96 -13 148 -32l-10 -45c-40 18 -91 31 -138 31c-70 0 -131 -26 -131 -83c0 -117 295 -104 295 -263c0 -94 -85 -132 -183 -132c-50 0 -104 11 -152 28z
M245 702l114 -138h-57l-79 97l-79 -97h-57l114 138h44z" />
    <glyph glyph-name="uni0219.smcp" horiz-adv-x="455" 
d="M65 18l11 45c52 -16 102 -27 141 -27c71 0 133 25 133 86c0 119 -295 103 -295 263c0 89 84 129 181 129c43 0 96 -13 148 -32l-10 -45c-40 18 -91 31 -138 31c-70 0 -131 -26 -131 -83c0 -117 295 -104 295 -263c0 -94 -85 -132 -183 -132c-50 0 -104 11 -152 28z
M194 -81l53 4c30 -46 23 -95 -14 -139l-44 3c40 46 35 86 5 132z" />
    <glyph glyph-name="tbar.smcp" horiz-adv-x="440" 
d="M81 274h114v184h-190l4 46h426l-4 -46h-186v-184h121l-4 -44h-117v-230h-50v230h-118z" />
    <glyph glyph-name="tcaron.smcp" horiz-adv-x="440" 
d="M195 458h-190l4 46h426l-4 -46h-186v-458h-50v458zM198 564l-114 138h57l79 -97l79 97h57l-114 -138h-44z" />
    <glyph glyph-name="uni0163.smcp" horiz-adv-x="440" 
d="M195 458h-190l4 46h426l-4 -46h-186v-458l-33 -54c6 1 12 1 17 1c49 0 79 -31 79 -80s-44 -83 -107 -83c-21 0 -43 3 -67 11l8 43c18 -7 38 -10 56 -10c33 0 59 12 59 39c0 22 -11 38 -41 38c-9 0 -20 -2 -32 -5l-31 31l42 69v458z" />
    <glyph glyph-name="uni021B.smcp" horiz-adv-x="440" 
d="M195 458h-190l4 46h426l-4 -46h-186v-458h-50v458zM182 -81l53 4c30 -46 23 -95 -14 -139l-44 3c40 46 35 86 5 132z" />
    <glyph glyph-name="uacute.smcp" 
d="M125 504v-347c0 -87 58 -121 151 -121s151 34 151 121v347h50v-347c0 -112 -84 -167 -201 -167s-201 55 -201 167v347h50zM309 702h59l-92 -138h-51z" />
    <glyph glyph-name="ubreve.smcp" 
d="M125 504v-347c0 -87 58 -121 151 -121s151 34 151 121v347h50v-347c0 -112 -84 -167 -201 -167s-201 55 -201 167v347h50zM140 698l45 4c2 -65 48 -92 92 -92c42 0 88 27 90 92l45 -4c0 -88 -62 -134 -135 -134c-76 0 -137 46 -137 134z" />
    <glyph glyph-name="ucircumflex.smcp" 
d="M125 504v-347c0 -87 58 -121 151 -121s151 34 151 121v347h50v-347c0 -112 -84 -167 -201 -167s-201 55 -201 167v347h50zM298 702l114 -138h-57l-79 97l-79 -97h-57l114 138h44z" />
    <glyph glyph-name="udieresis.smcp" 
d="M125 504v-347c0 -87 58 -121 151 -121s151 34 151 121v347h50v-347c0 -112 -84 -167 -201 -167s-201 55 -201 167v347h50zM183 655c22 0 38 -16 38 -38s-16 -38 -38 -38s-38 16 -38 38s16 38 38 38zM369 655c22 0 38 -16 38 -38s-16 -38 -38 -38s-38 16 -38 38
s16 38 38 38z" />
    <glyph glyph-name="ugrave.smcp" 
d="M125 504v-347c0 -87 58 -121 151 -121s151 34 151 121v347h50v-347c0 -112 -84 -167 -201 -167s-201 55 -201 167v347h50zM185 702h59l84 -138h-51z" />
    <glyph glyph-name="uhungarumlaut.smcp" 
d="M125 504v-347c0 -87 58 -121 151 -121s151 34 151 121v347h50v-347c0 -112 -84 -167 -201 -167s-201 55 -201 167v347h50zM230 702h59l-92 -138h-51zM388 702h59l-92 -138h-51z" />
    <glyph glyph-name="umacron.smcp" 
d="M125 504v-347c0 -87 58 -121 151 -121s151 34 151 121v347h50v-347c0 -112 -84 -167 -201 -167s-201 55 -201 167v347h50zM136 640h285l-4 -44h-285z" />
    <glyph glyph-name="uogonek.smcp" 
d="M371 -162l7 -46c-18 -5 -35 -8 -51 -8c-74 0 -109 44 -109 101c0 36 18 73 52 105c-114 2 -195 57 -195 167v347h50v-347c0 -87 58 -121 151 -121s151 34 151 121v347h50v-347c0 -85 -48 -137 -122 -157c-58 -32 -87 -76 -87 -115c0 -31 19 -55 59 -55c12 0 27 3 44 8z
" />
    <glyph glyph-name="uring.smcp" 
d="M125 504v-347c0 -87 58 -121 151 -121s151 34 151 121v347h50v-347c0 -112 -84 -167 -201 -167s-201 55 -201 167v347h50zM227 616c0 -30 20 -52 48 -52c30 0 50 22 50 52c0 32 -20 54 -50 54c-28 0 -48 -22 -48 -54zM181 616c0 57 39 96 94 96c57 0 96 -39 96 -96
c0 -55 -39 -94 -96 -94c-55 0 -94 39 -94 94z" />
    <glyph glyph-name="utilde.smcp" 
d="M125 504v-347c0 -87 58 -121 151 -121s151 34 151 121v347h50v-347c0 -112 -84 -167 -201 -167s-201 55 -201 167v347h50zM129 599c9 50 47 85 90 85c53 0 83 -57 119 -57c21 0 36 20 44 47l42 -9c-10 -47 -47 -83 -89 -83c-53 0 -84 56 -120 56c-21 0 -37 -19 -45 -47z
" />
    <glyph glyph-name="uacute.smcp..salt" 
d="M427 113v391h50v-504h-40l-10 63c-65 -43 -128 -73 -189 -73c-73 0 -163 28 -163 157v357h50v-360c0 -80 55 -108 110 -108c66 0 127 30 192 77zM309 702h59l-92 -138h-51z" />
    <glyph glyph-name="ubreve.smcp..salt" 
d="M427 113v391h50v-504h-40l-10 63c-65 -43 -128 -73 -189 -73c-73 0 -163 28 -163 157v357h50v-360c0 -80 55 -108 110 -108c66 0 127 30 192 77zM140 698l45 4c2 -65 48 -92 92 -92c42 0 88 27 90 92l45 -4c0 -88 -62 -134 -135 -134c-76 0 -137 46 -137 134z" />
    <glyph glyph-name="ucircumflex.smcp..salt" 
d="M427 113v391h50v-504h-40l-10 63c-65 -43 -128 -73 -189 -73c-73 0 -163 28 -163 157v357h50v-360c0 -80 55 -108 110 -108c66 0 127 30 192 77zM298 702l114 -138h-57l-79 97l-79 -97h-57l114 138h44z" />
    <glyph glyph-name="udieresis.smcp..salt" 
d="M427 113v391h50v-504h-40l-10 63c-65 -43 -128 -73 -189 -73c-73 0 -163 28 -163 157v357h50v-360c0 -80 55 -108 110 -108c66 0 127 30 192 77zM183 655c22 0 38 -16 38 -38s-16 -38 -38 -38s-38 16 -38 38s16 38 38 38zM369 655c22 0 38 -16 38 -38s-16 -38 -38 -38
s-38 16 -38 38s16 38 38 38z" />
    <glyph glyph-name="ugrave.smcp..salt" 
d="M427 113v391h50v-504h-40l-10 63c-65 -43 -128 -73 -189 -73c-73 0 -163 28 -163 157v357h50v-360c0 -80 55 -108 110 -108c66 0 127 30 192 77zM185 702h59l84 -138h-51z" />
    <glyph glyph-name="uhungarumlaut.smcp..salt" 
d="M427 113v391h50v-504h-40l-10 63c-65 -43 -128 -73 -189 -73c-73 0 -163 28 -163 157v357h50v-360c0 -80 55 -108 110 -108c66 0 127 30 192 77zM230 702h59l-92 -138h-51zM388 702h59l-92 -138h-51z" />
    <glyph glyph-name="umacron.smcp..salt" 
d="M427 113v391h50v-504h-40l-10 63c-65 -43 -128 -73 -189 -73c-73 0 -163 28 -163 157v357h50v-360c0 -80 55 -108 110 -108c66 0 127 30 192 77zM136 640h285l-4 -44h-285z" />
    <glyph glyph-name="uogonek.smcp..salt" 
d="M493 -162l7 -46c-18 -5 -35 -8 -51 -8c-74 0 -109 44 -109 101c0 48 33 98 93 137l-6 41c-65 -43 -128 -73 -189 -73c-73 0 -163 28 -163 157v357h50v-360c0 -80 55 -108 110 -108c66 0 127 30 192 77v391h50v-504c-58 -32 -87 -76 -87 -115c0 -31 19 -55 59 -55
c12 0 27 3 44 8z" />
    <glyph glyph-name="uring.smcp..salt" 
d="M427 113v391h50v-504h-40l-10 63c-65 -43 -128 -73 -189 -73c-73 0 -163 28 -163 157v357h50v-360c0 -80 55 -108 110 -108c66 0 127 30 192 77zM227 616c0 -30 20 -52 48 -52c30 0 50 22 50 52c0 32 -20 54 -50 54c-28 0 -48 -22 -48 -54zM181 616c0 57 39 96 94 96
c57 0 96 -39 96 -96c0 -55 -39 -94 -96 -94c-55 0 -94 39 -94 94z" />
    <glyph glyph-name="utilde.smcp..salt" 
d="M427 113v391h50v-504h-40l-10 63c-65 -43 -128 -73 -189 -73c-73 0 -163 28 -163 157v357h50v-360c0 -80 55 -108 110 -108c66 0 127 30 192 77zM129 599c9 50 47 85 90 85c53 0 83 -57 119 -57c21 0 36 20 44 47l42 -9c-10 -47 -47 -83 -89 -83c-53 0 -84 56 -120 56
c-21 0 -37 -19 -45 -47z" />
    <glyph glyph-name="wacute.smcp" horiz-adv-x="775" 
d="M696 507l54 -4l-163 -503h-64l-135 442l-133 -442h-64l-166 503l54 4l144 -459l137 454l55 4l140 -458zM421 702h59l-92 -138h-51z" />
    <glyph glyph-name="wcircumflex.smcp" horiz-adv-x="775" 
d="M696 507l54 -4l-163 -503h-64l-135 442l-133 -442h-64l-166 503l54 4l144 -459l137 454l55 4l140 -458zM410 702l114 -138h-57l-79 97l-79 -97h-57l114 138h44z" />
    <glyph glyph-name="wdieresis.smcp" horiz-adv-x="775" 
d="M696 507l54 -4l-163 -503h-64l-135 442l-133 -442h-64l-166 503l54 4l144 -459l137 454l55 4l140 -458zM295 655c22 0 38 -16 38 -38s-16 -38 -38 -38s-38 16 -38 38s16 38 38 38zM481 655c22 0 38 -16 38 -38s-16 -38 -38 -38s-38 16 -38 38s16 38 38 38z" />
    <glyph glyph-name="wgrave.smcp" horiz-adv-x="775" 
d="M696 507l54 -4l-163 -503h-64l-135 442l-133 -442h-64l-166 503l54 4l144 -459l137 454l55 4l140 -458zM297 702h59l84 -138h-51z" />
    <glyph glyph-name="yacute.smcp" horiz-adv-x="474" 
d="M212 0v208l-197 294l60 4l162 -253l165 253l57 -4l-197 -294v-208h-50zM280 702h59l-92 -138h-51z" />
    <glyph glyph-name="ycircumflex.smcp" horiz-adv-x="474" 
d="M212 0v208l-197 294l60 4l162 -253l165 253l57 -4l-197 -294v-208h-50zM259 702l114 -138h-57l-79 97l-79 -97h-57l114 138h44z" />
    <glyph glyph-name="ydieresis.smcp" horiz-adv-x="474" 
d="M212 0v208l-197 294l60 4l162 -253l165 253l57 -4l-197 -294v-208h-50zM144 655c22 0 38 -16 38 -38s-16 -38 -38 -38s-38 16 -38 38s16 38 38 38zM330 655c22 0 38 -16 38 -38s-16 -38 -38 -38s-38 16 -38 38s16 38 38 38z" />
    <glyph glyph-name="ygrave.smcp" horiz-adv-x="474" 
d="M212 0v208l-197 294l60 4l162 -253l165 253l57 -4l-197 -294v-208h-50zM136 702h59l84 -138h-51z" />
    <glyph glyph-name="yacute.smcp..salt" 
d="M477 504v-324c0 -121 -76 -190 -206 -190c-51 0 -109 11 -173 34l9 47c58 -22 113 -35 164 -35c100 0 156 54 156 144v84c-65 -43 -128 -73 -189 -73c-73 0 -163 28 -163 157v156h50v-159c0 -80 55 -108 110 -108c66 0 127 30 192 77v190h50zM309 702h59l-92 -138h-51z
" />
    <glyph glyph-name="ycircumflex.smcp..salt" 
d="M477 504v-324c0 -121 -76 -190 -206 -190c-51 0 -109 11 -173 34l9 47c58 -22 113 -35 164 -35c100 0 156 54 156 144v84c-65 -43 -128 -73 -189 -73c-73 0 -163 28 -163 157v156h50v-159c0 -80 55 -108 110 -108c66 0 127 30 192 77v190h50zM298 702l114 -138h-57
l-79 97l-79 -97h-57l114 138h44z" />
    <glyph glyph-name="ydieresis.smcp..salt" 
d="M477 504v-324c0 -121 -76 -190 -206 -190c-51 0 -109 11 -173 34l9 47c58 -22 113 -35 164 -35c100 0 156 54 156 144v84c-65 -43 -128 -73 -189 -73c-73 0 -163 28 -163 157v156h50v-159c0 -80 55 -108 110 -108c66 0 127 30 192 77v190h50zM183 655c22 0 38 -16 38 -38
s-16 -38 -38 -38s-38 16 -38 38s16 38 38 38zM369 655c22 0 38 -16 38 -38s-16 -38 -38 -38s-38 16 -38 38s16 38 38 38z" />
    <glyph glyph-name="ygrave.smcp..salt" 
d="M477 504v-324c0 -121 -76 -190 -206 -190c-51 0 -109 11 -173 34l9 47c58 -22 113 -35 164 -35c100 0 156 54 156 144v84c-65 -43 -128 -73 -189 -73c-73 0 -163 28 -163 157v156h50v-159c0 -80 55 -108 110 -108c66 0 127 30 192 77v190h50zM185 702h59l84 -138h-51z
" />
    <glyph glyph-name="zacute.smcp" horiz-adv-x="483" 
d="M111 46h327l-4 -46h-384l-4 42l326 416h-327l4 46h384l4 -42zM285 702h59l-92 -138h-51z" />
    <glyph glyph-name="zcaron.smcp" horiz-adv-x="483" 
d="M111 46h327l-4 -46h-384l-4 42l326 416h-327l4 46h384l4 -42zM220 564l-114 138h57l79 -97l79 97h57l-114 -138h-44z" />
    <glyph glyph-name="zdotaccent.smcp" horiz-adv-x="483" 
d="M111 46h327l-4 -46h-384l-4 42l326 416h-327l4 46h384l4 -42zM242 655c22 0 38 -16 38 -38s-16 -38 -38 -38s-38 16 -38 38s16 38 38 38z" />
    <glyph glyph-name="f_l.salt" horiz-adv-x="531" 
d="M106 474v120c0 111 44 163 179 164c46 0 103 -5 171 -15v-743h-50v701c-48 7 -90 11 -121 11c-107 0 -129 -44 -129 -124v-114h156l-4 -46h-152v-428h-50v428h-81l4 46h77z" />
    <glyph glyph-name="f_f_l.salt" horiz-adv-x="831" 
d="M106 474v120c0 84 27 164 132 164c26 0 54 -4 90 -15l-5 -45c-28 8 -61 14 -81 14c-73 0 -86 -59 -86 -124v-114h250v120c0 111 44 163 179 164c46 0 103 -5 171 -15v-743h-50v701c-48 7 -90 11 -121 11c-107 0 -129 -44 -129 -124v-114h156l-4 -46h-152v-428h-50v428
h-250v-428h-50v428h-81l4 46h77z" />
    <glyph glyph-name="a.sups" horiz-adv-x="299" 
d="M206 633v33c0 43 -18 57 -48 57c-28 0 -67 -10 -111 -25l-7 41c41 15 88 26 123 26c55 0 90 -25 90 -97v-208h-35l-7 36c-33 -28 -71 -42 -104 -42c-43 0 -79 24 -79 77c0 55 35 91 178 102zM114 493c34 0 69 18 92 43v60c-109 -8 -133 -32 -133 -62c0 -32 22 -41 41 -41
z" />
    <glyph glyph-name="b.sups" horiz-adv-x="343" 
d="M46 479v452l47 3v-210c40 24 78 41 111 41c60 0 105 -47 105 -156c0 -113 -59 -155 -132 -155c-48 0 -81 8 -131 25zM93 510c29 -11 58 -14 84 -14c46 0 85 30 85 114c0 81 -28 111 -66 111c-32 0 -70 -20 -103 -38v-173z" />
    <glyph glyph-name="c.sups" horiz-adv-x="282" 
d="M167 454c-78 0 -133 44 -133 155c0 112 55 156 133 156c26 0 56 -4 87 -10l-6 -41c-29 6 -59 9 -79 9c-56 0 -88 -35 -88 -114c0 -78 32 -113 88 -113c20 0 50 3 79 8l6 -41c-31 -7 -61 -9 -87 -9z" />
    <glyph glyph-name="d.sups" horiz-adv-x="343" 
d="M250 744v187l46 3v-474h-40l-6 34c-41 -24 -78 -40 -111 -40c-61 0 -105 47 -105 155c0 112 57 156 126 156c29 0 61 -8 90 -21zM250 704c-26 10 -58 19 -84 19c-47 0 -85 -30 -85 -115c0 -80 28 -111 65 -111c33 0 70 20 104 39v168z" />
    <glyph glyph-name="e.sups" horiz-adv-x="314" 
d="M278 593h-198c3 -72 43 -97 93 -97c28 0 58 7 87 17l6 -40c-32 -12 -63 -19 -97 -19c-76 0 -135 40 -135 155c0 112 55 156 132 156s128 -57 112 -172zM165 725c-49 0 -81 -30 -84 -95h153c3 61 -25 95 -69 95z" />
    <glyph glyph-name="f.sups" horiz-adv-x="220" 
d="M66 759v68c0 56 18 107 88 107c19 0 37 -3 61 -10l-4 -40c-17 5 -37 8 -49 8c-41 0 -49 -32 -49 -70v-63h93l-4 -42h-89v-257h-47v257h-50l3 42h47z" />
    <glyph glyph-name="g.sups" horiz-adv-x="323" 
d="M268 666c0 -60 -39 -99 -114 -99c-10 0 -18 0 -26 1c-30 -28 -28 -58 18 -58h28c84 0 127 -31 127 -83s-50 -102 -158 -102c-80 0 -115 37 -115 79c0 29 18 61 55 83c-12 10 -18 25 -18 41c0 17 8 36 27 51c-34 16 -50 47 -50 87c0 60 37 99 112 99c17 0 33 -2 46 -6h96
l-3 -42h-37c8 -15 12 -32 12 -51zM143 470c-9 0 -16 0 -23 1c-31 -18 -47 -43 -47 -65c0 -24 23 -44 73 -44c71 0 109 29 109 62c0 28 -29 46 -86 46h-26zM223 666c0 37 -23 61 -69 61c-45 0 -67 -24 -67 -61s22 -61 67 -61c46 0 69 24 69 61z" />
    <glyph glyph-name="h.sups" horiz-adv-x="338" 
d="M93 683v-223h-47v471l47 3v-210c43 25 80 41 114 41c42 0 84 -23 84 -99v-206h-46v199c0 43 -21 62 -49 62c-32 0 -70 -20 -103 -38z" />
    <glyph glyph-name="i.sups" horiz-adv-x="139" 
d="M46 757l47 3v-300h-47v297zM69 869c18 0 31 -13 31 -31s-13 -31 -31 -31c-17 0 -30 13 -30 31s13 31 30 31z" />
    <glyph glyph-name="j.sups" horiz-adv-x="159" 
d="M67 757l46 3v-284c0 -65 -25 -105 -81 -151l-35 28c44 36 70 72 70 124v280zM90 869c18 0 31 -13 31 -31s-13 -31 -31 -31c-17 0 -31 13 -31 31s14 31 31 31z" />
    <glyph glyph-name="k.sups" horiz-adv-x="304" 
d="M236 458l-143 143v-141h-47v471l47 3v-305l131 131l57 -3l-142 -140l157 -155z" />
    <glyph glyph-name="l.sups" horiz-adv-x="172" 
d="M46 931l47 3v-406c0 -35 21 -40 70 -22l4 -40c-21 -7 -39 -12 -59 -12c-34 0 -62 20 -62 74v403z" />
    <glyph glyph-name="m.sups" horiz-adv-x="511" 
d="M267 724c44 25 80 41 119 41c40 0 79 -24 79 -99v-206h-46v199c0 43 -18 62 -45 62c-30 0 -67 -15 -97 -34c1 -8 2 -18 2 -29v-198h-46v199c0 43 -19 62 -45 62c-30 0 -65 -20 -95 -38v-223h-47v297l47 3v-36c40 25 75 41 107 41c27 0 54 -11 67 -41z" />
    <glyph glyph-name="n.sups" unicode="&#x207f;" horiz-adv-x="338" 
d="M93 683v-223h-47v297l47 3v-36c43 25 80 41 114 41c42 0 84 -23 84 -99v-206h-46v199c0 43 -20 62 -49 62c-32 0 -70 -20 -103 -38z" />
    <glyph glyph-name="o.sups" horiz-adv-x="346" 
d="M81 609c0 -80 37 -113 92 -113s92 33 92 113s-37 114 -92 114s-92 -34 -92 -114zM34 609c0 107 55 156 139 156s139 -49 139 -156s-55 -155 -139 -155s-139 48 -139 155z" />
    <glyph glyph-name="p.sups" horiz-adv-x="343" 
d="M93 474v-141l-47 -4v428l47 3v-36c40 24 78 41 111 41c60 0 105 -47 105 -156c0 -111 -58 -155 -126 -155c-30 0 -61 8 -90 20zM93 515c25 -11 58 -19 84 -19c46 0 85 30 85 114c0 81 -28 111 -66 111c-32 0 -70 -20 -103 -38v-168z" />
    <glyph glyph-name="q.sups" horiz-adv-x="343" 
d="M296 739v-406l-46 -4v165c-41 -24 -78 -40 -111 -40c-61 0 -105 47 -105 155c0 114 59 156 132 156c47 0 81 -8 130 -26zM250 709c-29 10 -58 14 -84 14c-47 0 -85 -30 -85 -115c0 -80 28 -111 65 -111c33 0 70 20 104 39v173z" />
    <glyph glyph-name="r.sups" horiz-adv-x="233" 
d="M224 758l-6 -45c-60 15 -68 10 -125 -63v-190h-47v297l47 3v-57c50 68 75 68 131 55z" />
    <glyph glyph-name="s.sups" horiz-adv-x="272" 
d="M44 472l6 40c24 -10 58 -18 85 -18c31 0 58 12 57 48c-1 57 -153 44 -153 142c0 55 42 81 102 81c28 0 60 -6 87 -18l-6 -41c-23 11 -56 18 -82 18c-31 0 -56 -11 -55 -42c1 -58 153 -44 153 -142c0 -59 -45 -86 -107 -86c-28 0 -60 6 -87 18z" />
    <glyph glyph-name="t.sups" horiz-adv-x="239" 
d="M66 561v156h-50l3 42h47v93l47 3v-96h93l-4 -42h-89v-152c0 -39 10 -69 51 -69c12 0 31 2 49 7l3 -40c-24 -7 -42 -9 -60 -9c-70 0 -90 52 -90 107z" />
    <glyph glyph-name="u.sups" horiz-adv-x="338" 
d="M245 536v221l46 3v-300h-40l-6 34c-43 -24 -81 -40 -114 -40c-43 0 -85 23 -85 99v204l47 3v-200c0 -43 20 -63 48 -63c33 0 70 20 104 39z" />
    <glyph glyph-name="v.sups" horiz-adv-x="304" 
d="M10 757l50 3l92 -253l91 253l51 -3l-113 -297h-59z" />
    <glyph glyph-name="w.sups" horiz-adv-x="471" 
d="M10 757l50 3l74 -253l74 250l55 3l74 -253l74 253l50 -3l-95 -297h-57l-73 241l-75 -241h-57z" />
    <glyph glyph-name="x.sups" horiz-adv-x="293" 
d="M147 644l80 116l53 -3l-105 -147l105 -148l-54 -4l-80 116l-80 -116l-53 4l105 147l-105 148l54 3z" />
    <glyph glyph-name="y.sups" horiz-adv-x="304" 
d="M60 760l92 -253l91 253l51 -3l-161 -428l-50 4l49 127h-10l-112 297z" />
    <glyph glyph-name="z.sups" horiz-adv-x="281" 
d="M84 502h173l-3 -42h-227l-3 39l173 218h-163l3 42h217l3 -39z" />
    <glyph glyph-name="egrave.sups" horiz-adv-x="314" 
d="M278 593h-198c3 -72 43 -97 93 -97c28 0 58 7 87 17l6 -40c-32 -12 -63 -19 -97 -19c-76 0 -135 40 -135 155c0 112 55 156 132 156s128 -57 112 -172zM165 725c-49 0 -81 -30 -84 -95h153c3 61 -25 95 -69 95zM91 900h52l53 -100h-43z" />
    <glyph glyph-name="a.sinf" horiz-adv-x="299" 
d="M206 23v33c0 43 -18 57 -48 57c-28 0 -67 -10 -111 -25l-7 41c41 15 88 26 123 26c55 0 90 -25 90 -97v-208h-35l-7 36c-33 -28 -71 -42 -104 -42c-43 0 -79 24 -79 77c0 55 35 91 178 102zM114 -117c34 0 69 18 92 43v60c-109 -8 -133 -32 -133 -62c0 -32 22 -41 41 -41
z" />
    <glyph glyph-name="b.sinf" horiz-adv-x="343" 
d="M46 -131v452l47 3v-210c40 24 78 41 111 41c60 0 105 -47 105 -156c0 -113 -59 -155 -132 -155c-48 0 -81 8 -131 25zM93 -100c29 -11 58 -14 84 -14c46 0 85 30 85 114c0 81 -28 111 -66 111c-32 0 -70 -20 -103 -38v-173z" />
    <glyph glyph-name="c.sinf" horiz-adv-x="282" 
d="M167 -156c-78 0 -133 44 -133 155c0 112 55 156 133 156c26 0 56 -4 87 -10l-6 -41c-29 6 -59 9 -79 9c-56 0 -88 -35 -88 -114c0 -78 32 -113 88 -113c20 0 50 3 79 8l6 -41c-31 -7 -61 -9 -87 -9z" />
    <glyph glyph-name="d.sinf" horiz-adv-x="343" 
d="M250 134v187l46 3v-474h-40l-6 34c-41 -24 -78 -40 -111 -40c-61 0 -105 47 -105 155c0 112 57 156 126 156c29 0 61 -8 90 -21zM250 94c-26 10 -58 19 -84 19c-47 0 -85 -30 -85 -115c0 -80 28 -111 65 -111c33 0 70 20 104 39v168z" />
    <glyph glyph-name="e.sinf" horiz-adv-x="314" 
d="M278 -17h-198c3 -72 43 -97 93 -97c28 0 58 7 87 17l6 -40c-32 -12 -63 -19 -97 -19c-76 0 -135 40 -135 155c0 112 55 156 132 156s128 -57 112 -172zM165 115c-49 0 -81 -30 -84 -95h153c3 61 -25 95 -69 95z" />
    <glyph glyph-name="f.sinf" horiz-adv-x="220" 
d="M66 149v68c0 56 18 107 88 107c19 0 37 -3 61 -10l-4 -40c-17 5 -37 8 -49 8c-41 0 -49 -32 -49 -70v-63h93l-4 -42h-89v-257h-47v257h-50l3 42h47z" />
    <glyph glyph-name="g.sinf" horiz-adv-x="323" 
d="M268 56c0 -60 -39 -99 -114 -99c-10 0 -18 1 -26 2c-30 -29 -28 -59 18 -59h28c84 0 127 -31 127 -83s-50 -102 -158 -102c-80 0 -115 37 -115 79c0 29 18 61 55 83c-12 11 -18 25 -18 41c0 18 8 36 27 51c-34 16 -50 47 -50 87c0 60 37 99 112 99c17 0 33 -2 46 -6h96
l-3 -42h-37c8 -15 12 -32 12 -51zM143 -140c-9 0 -16 1 -23 2c-31 -18 -47 -43 -47 -66c0 -24 23 -44 73 -44c71 0 109 29 109 62c0 28 -29 46 -86 46h-26zM223 56c0 37 -23 61 -69 61c-45 0 -67 -24 -67 -61s22 -61 67 -61c46 0 69 24 69 61z" />
    <glyph glyph-name="h.sinf" horiz-adv-x="338" 
d="M93 73v-223h-47v471l47 3v-210c43 25 80 41 114 41c42 0 84 -23 84 -99v-206h-46v199c0 43 -21 62 -49 62c-32 0 -70 -20 -103 -38z" />
    <glyph glyph-name="i.sinf" horiz-adv-x="139" 
d="M46 147l47 3v-300h-47v297zM69 259c18 0 31 -13 31 -31s-13 -31 -31 -31c-17 0 -30 13 -30 31s13 31 30 31z" />
    <glyph glyph-name="j.sinf" horiz-adv-x="159" 
d="M67 147l46 3v-284c0 -65 -25 -105 -81 -151l-35 28c44 36 70 72 70 124v280zM90 259c18 0 31 -13 31 -31s-13 -31 -31 -31c-17 0 -31 13 -31 31s14 31 31 31z" />
    <glyph glyph-name="k.sinf" horiz-adv-x="304" 
d="M236 -152l-143 143v-141h-47v471l47 3v-305l131 131l57 -3l-142 -140l157 -155z" />
    <glyph glyph-name="l.sinf" horiz-adv-x="172" 
d="M46 321l47 3v-406c0 -35 21 -40 70 -22l4 -40c-21 -7 -39 -12 -59 -12c-34 0 -62 20 -62 74v403z" />
    <glyph glyph-name="m.sinf" horiz-adv-x="511" 
d="M267 114c44 25 80 41 119 41c40 0 79 -24 79 -99v-206h-46v199c0 43 -18 62 -45 62c-30 0 -67 -15 -97 -34c1 -8 2 -18 2 -29v-198h-46v199c0 43 -19 62 -45 62c-30 0 -65 -20 -95 -38v-223h-47v297l47 3v-36c40 25 75 41 107 41c27 0 54 -11 67 -41z" />
    <glyph glyph-name="n.sinf" horiz-adv-x="338" 
d="M93 73v-223h-47v297l47 3v-36c43 25 80 41 114 41c42 0 84 -23 84 -99v-206h-46v199c0 43 -20 62 -49 62c-32 0 -70 -20 -103 -38z" />
    <glyph glyph-name="o.sinf" horiz-adv-x="346" 
d="M81 -1c0 -80 37 -113 92 -113s92 33 92 113s-37 114 -92 114s-92 -34 -92 -114zM34 -1c0 107 55 156 139 156s139 -49 139 -156s-55 -155 -139 -155s-139 48 -139 155z" />
    <glyph glyph-name="p.sinf" horiz-adv-x="343" 
d="M93 -136v-141l-47 -4v428l47 3v-36c40 24 78 41 111 41c60 0 105 -47 105 -156c0 -111 -58 -155 -126 -155c-30 0 -61 8 -90 20zM93 -95c25 -11 58 -19 84 -19c46 0 85 30 85 114c0 81 -28 111 -66 111c-32 0 -70 -20 -103 -38v-168z" />
    <glyph glyph-name="q.sinf" horiz-adv-x="343" 
d="M296 129v-406l-46 -4v165c-41 -24 -78 -40 -111 -40c-61 0 -105 47 -105 155c0 114 59 156 132 156c47 0 81 -8 130 -26zM250 99c-29 10 -58 14 -84 14c-47 0 -85 -30 -85 -115c0 -80 28 -111 65 -111c33 0 70 20 104 39v173z" />
    <glyph glyph-name="r.sinf" horiz-adv-x="233" 
d="M224 148l-6 -45c-60 15 -68 10 -125 -63v-190h-47v297l47 3v-57c50 68 75 68 131 55z" />
    <glyph glyph-name="s.sinf" horiz-adv-x="272" 
d="M44 -138l6 40c24 -10 58 -18 85 -18c31 0 58 12 57 48c-1 57 -153 44 -153 142c0 55 42 81 102 81c28 0 60 -6 87 -18l-6 -41c-23 11 -56 18 -82 18c-31 0 -56 -11 -55 -42c1 -58 153 -44 153 -142c0 -59 -45 -86 -107 -86c-28 0 -60 6 -87 18z" />
    <glyph glyph-name="t.sinf" horiz-adv-x="239" 
d="M66 -49v156h-50l3 42h47v93l47 3v-96h93l-4 -42h-89v-152c0 -39 10 -69 51 -69c12 0 31 2 49 7l3 -40c-24 -7 -42 -9 -60 -9c-70 0 -90 52 -90 107z" />
    <glyph glyph-name="u.sinf" horiz-adv-x="338" 
d="M245 -74v221l46 3v-300h-40l-6 34c-43 -24 -81 -40 -114 -40c-43 0 -85 23 -85 99v204l47 3v-200c0 -43 20 -63 48 -63c33 0 70 20 104 39z" />
    <glyph glyph-name="v.sinf" horiz-adv-x="304" 
d="M10 147l50 3l92 -253l91 253l51 -3l-113 -297h-59z" />
    <glyph glyph-name="w.sinf" horiz-adv-x="471" 
d="M10 147l50 3l74 -253l74 250l55 3l74 -253l74 253l50 -3l-95 -297h-57l-73 241l-75 -241h-57z" />
    <glyph glyph-name="x.sinf" horiz-adv-x="293" 
d="M147 34l80 116l53 -3l-105 -147l105 -148l-54 -4l-80 116l-80 -116l-53 4l105 147l-105 148l54 3z" />
    <glyph glyph-name="y.sinf" horiz-adv-x="304" 
d="M60 150l92 -253l91 253l51 -3l-161 -428l-50 4l49 127h-10l-112 297z" />
    <glyph glyph-name="z.sinf" horiz-adv-x="281" 
d="M84 -108h173l-3 -42h-227l-3 39l173 218h-163l3 42h217l3 -39z" />
    <glyph glyph-name="dollar" unicode="$" horiz-adv-x="532" 
d="M295 824v-113c56 -2 115 -16 169 -40l-11 -48c-51 26 -117 42 -178 42c-90 0 -168 -36 -168 -132c0 -164 380 -145 380 -357c0 -118 -86 -175 -192 -184v-110l-46 -4v112c-61 2 -124 16 -181 41l11 48c54 -25 120 -41 181 -41c94 0 175 38 175 141
c0 164 -380 146 -380 357c0 114 86 167 194 175v109z" />
    <glyph glyph-name="cent" unicode="&#xa2;" horiz-adv-x="487" 
d="M305 824v-112c45 -2 93 -11 137 -26l-7 -46c-51 18 -100 26 -143 26c-106 0 -197 -57 -197 -216s91 -216 197 -216c43 0 92 8 143 26l7 -46c-44 -16 -92 -25 -137 -26v-107l-46 -4v112c-118 11 -214 84 -214 261c0 176 96 249 214 260v110z" />
    <glyph glyph-name="sterling" unicode="&#xa3;" horiz-adv-x="517" 
d="M49 352h145c-17 53 -66 127 -66 199c0 82 36 161 143 161c51 0 113 -9 166 -25l-11 -48c-49 15 -109 25 -155 25c-53 0 -91 -36 -91 -101c0 -72 58 -128 70 -211h189l-4 -46h-184c-4 -120 -57 -183 -141 -258h362l-4 -48h-418l-4 48c92 86 149 144 153 258h-154z" />
    <glyph glyph-name="yen" unicode="&#xa5;" horiz-adv-x="582" 
d="M76 352h158l-219 348l60 4l216 -351l215 351l61 -4l-219 -348h158l-4 -46h-183l-2 -3v-117h189l-4 -46h-185v-140h-52v140h-193l4 46h189v117l-2 3h-191z" />
    <glyph glyph-name="florin" unicode="&#x192;" horiz-adv-x="364" 
d="M137 346v202c0 84 27 164 132 164c26 0 54 -4 90 -15l-5 -45c-28 8 -61 14 -81 14c-73 0 -86 -59 -86 -124v-196h156l-4 -46h-152v-306c0 -84 -27 -164 -132 -164c-26 0 -54 4 -90 15l5 45c28 -8 61 -14 81 -14c73 0 86 59 86 124v300h-119l4 46h115z" />
    <glyph glyph-name="Euro" unicode="&#x20ac;" horiz-adv-x="607" 
d="M9 458h94c32 185 150 254 283 254c58 0 119 -13 177 -37l-10 -48c-54 24 -115 37 -166 37c-107 0 -201 -56 -231 -206h343l-4 -46h-346c-2 -19 -2 -40 -2 -61s1 -41 2 -59h310l-4 -46h-299c29 -152 124 -208 231 -208c51 0 112 13 166 37l10 -48
c-58 -24 -119 -37 -177 -37c-134 0 -252 69 -283 256h-98l4 46h88c-2 18 -2 38 -2 59s1 41 2 61h-92z" />
    <glyph glyph-name="currency" unicode="&#xa4;" horiz-adv-x="560" 
d="M101 352c0 43 12 81 34 111l-72 72l37 31l69 -69c29 21 67 34 111 34c43 0 81 -13 111 -34l69 69l37 -31l-72 -72c21 -30 34 -68 34 -111c0 -44 -13 -82 -34 -111l72 -72l-36 -32l-70 70c-30 -22 -68 -34 -111 -34c-44 0 -82 12 -111 34l-69 -69l-37 31l72 72
c-22 29 -34 67 -34 111zM151 352c0 -79 53 -133 129 -133s129 54 129 133s-53 133 -129 133s-129 -54 -129 -133z" />
    <glyph glyph-name="numbersign" unicode="#" horiz-adv-x="560" 
d="M55 504h109l56 200l51 -4l-55 -196h212l56 200l51 -4l-55 -196h85l-4 -46h-93l-60 -214h101l-4 -46h-110l-55 -200l-51 4l54 196h-212l-55 -200l-51 4l54 196h-84l4 46h93l60 214h-101zM204 458l-60 -214h212l60 214h-212z" />
    <glyph glyph-name="zero" unicode="0" horiz-adv-x="650" 
d="M117 352c0 -229 90 -314 209 -314c117 0 207 85 207 314c0 227 -90 312 -207 312c-119 0 -209 -85 -209 -312zM65 352c0 262 112 360 261 360c147 0 259 -98 259 -360c0 -264 -112 -362 -259 -362c-149 0 -261 98 -261 362z" />
    <glyph glyph-name="one" unicode="1" horiz-adv-x="335" 
d="M260 0h-52v650l-183 -70v52l183 70h52v-702z" />
    <glyph glyph-name="two" unicode="2" horiz-adv-x="506" 
d="M444 512c0 -130 -118 -266 -345 -464h362l-4 -48h-418l-4 48c224 206 357 339 357 463c0 112 -74 154 -163 154c-56 0 -119 -16 -173 -42l-11 48c61 26 127 41 187 41c116 0 212 -56 212 -200z" />
    <glyph glyph-name="three" unicode="3" horiz-adv-x="499" 
d="M148 370h142c67 42 92 101 92 161c0 93 -72 133 -163 133c-55 0 -117 -15 -173 -41l-11 48c58 26 125 41 186 41c115 0 213 -53 213 -180c0 -84 -47 -143 -92 -181c78 -44 112 -111 112 -175c0 -135 -106 -186 -225 -186c-66 0 -136 16 -194 41l11 48
c53 -25 118 -41 179 -41c95 0 177 37 177 138c0 61 -38 117 -102 146h-156z" />
    <glyph glyph-name="four" unicode="4" horiz-adv-x="561" 
d="M188 702h52c0 -196 -48 -329 -156 -469h247v189l52 4v-193h153l-4 -48h-149v-185h-52v185h-302l-4 48c115 140 163 283 163 469z" />
    <glyph glyph-name="five" unicode="5" horiz-adv-x="491" 
d="M127 654v-262c249 19 329 -54 329 -198s-101 -204 -224 -204c-60 0 -126 15 -187 42l11 47c54 -26 117 -41 174 -41c95 0 174 43 174 156c0 95 -56 152 -198 152h-131v356h345l-4 -48h-289z" />
    <glyph glyph-name="six" unicode="6" 
d="M316 664c-118 0 -205 -92 -209 -326c85 47 161 70 224 70c116 0 186 -75 186 -206c0 -120 -85 -212 -228 -212c-136 0 -234 104 -234 331c0 281 114 391 263 391c53 0 109 -13 168 -39l-15 -47c-54 24 -106 38 -155 38zM330 360c-53 0 -127 -21 -222 -74
c8 -170 81 -248 181 -248c110 0 176 71 176 164c0 104 -53 158 -135 158z" />
    <glyph glyph-name="seven" unicode="7" horiz-adv-x="462" 
d="M206 0h-52c0 293 84 490 238 654h-377l4 48h424l4 -48c-181 -218 -241 -393 -241 -654z" />
    <glyph glyph-name="eight" unicode="8" horiz-adv-x="572" 
d="M286 712c144 0 221 -70 221 -169c0 -90 -73 -138 -161 -178c94 -41 181 -93 181 -199c0 -111 -85 -176 -241 -176s-241 65 -241 176c0 106 87 158 180 199c-87 40 -160 88 -160 178c0 99 77 169 221 169zM286 391c89 38 169 75 169 152c0 71 -59 121 -169 121
s-169 -50 -169 -121c0 -77 80 -114 169 -152zM286 339c-83 -36 -189 -92 -189 -173s67 -128 189 -128s189 47 189 128s-106 137 -189 173z" />
    <glyph glyph-name="nine" unicode="9" 
d="M236 38c118 0 205 92 209 326c-85 -48 -161 -70 -224 -70c-116 0 -186 75 -186 206c0 120 85 212 228 212c136 0 234 -104 234 -331c0 -281 -114 -391 -263 -391c-53 0 -109 13 -168 39l15 47c54 -24 106 -38 155 -38zM222 342c53 0 127 20 222 73
c-9 170 -82 249 -181 249c-110 0 -176 -71 -176 -164c0 -104 53 -158 135 -158z" />
    <glyph glyph-name="dollar.tnumlnum" horiz-adv-x="560" 
d="M309 824v-113c56 -2 115 -16 169 -40l-11 -48c-51 26 -117 42 -178 42c-90 0 -168 -36 -168 -132c0 -164 380 -145 380 -357c0 -118 -86 -175 -192 -184v-110l-46 -4v112c-61 2 -124 16 -181 41l11 48c54 -25 120 -41 181 -41c94 0 175 38 175 141
c0 164 -380 146 -380 357c0 114 86 167 194 175v109z" />
    <glyph glyph-name="cent.tnumlnum" horiz-adv-x="560" 
d="M341 824v-112c45 -2 93 -11 137 -26l-7 -46c-51 18 -100 26 -143 26c-106 0 -197 -57 -197 -216s91 -216 197 -216c43 0 92 8 143 26l7 -46c-44 -16 -92 -25 -137 -26v-107l-46 -4v112c-118 11 -214 84 -214 261c0 176 96 249 214 260v110z" />
    <glyph glyph-name="sterling.tnumlnum" horiz-adv-x="560" 
d="M70 352h145c-17 53 -66 127 -66 199c0 82 36 161 143 161c51 0 113 -9 166 -25l-11 -48c-49 15 -109 25 -155 25c-53 0 -91 -36 -91 -101c0 -72 58 -128 70 -211h189l-4 -46h-184c-4 -120 -57 -183 -141 -258h362l-4 -48h-418l-4 48c92 86 149 144 153 258h-154z" />
    <glyph glyph-name="yen.tnumlnum" horiz-adv-x="560" 
d="M65 352h158l-219 348l60 4l216 -351l215 351l61 -4l-219 -348h158l-4 -46h-183l-2 -3v-117h189l-4 -46h-185v-140h-52v140h-193l4 46h189v117l-2 3h-191z" />
    <glyph glyph-name="florin.tnumlnum" horiz-adv-x="560" 
d="M255 346v202c0 84 27 164 132 164c26 0 54 -4 90 -15l-5 -45c-28 8 -61 14 -81 14c-73 0 -86 -59 -86 -124v-196h156l-4 -46h-152v-306c0 -84 -27 -164 -132 -164c-26 0 -54 4 -90 15l5 45c28 -8 61 -14 81 -14c73 0 86 59 86 124v300h-119l4 46h115z" />
    <glyph glyph-name="Euro.tnumlnum" horiz-adv-x="560" 
d="M6 458h94c32 185 150 254 283 254c58 0 119 -13 177 -37l-10 -48c-54 24 -115 37 -166 37c-107 0 -201 -56 -231 -206h343l-4 -46h-346c-2 -19 -2 -40 -2 -61s1 -41 2 -59h310l-4 -46h-299c29 -152 124 -208 231 -208c51 0 112 13 166 37l10 -48
c-58 -24 -119 -37 -177 -37c-134 0 -252 69 -283 256h-98l4 46h88c-2 18 -2 38 -2 59s1 41 2 61h-92z" />
    <glyph glyph-name="numbersign.tnumlnum" horiz-adv-x="560" 
d="M55 504h109l56 200l51 -4l-55 -196h212l56 200l51 -4l-55 -196h85l-4 -46h-93l-60 -214h101l-4 -46h-110l-55 -200l-51 4l54 196h-212l-55 -200l-51 4l54 196h-84l4 46h93l60 214h-101zM204 458l-60 -214h212l60 214h-212z" />
    <glyph glyph-name="zero.tnumlnum" horiz-adv-x="560" 
d="M77 352c0 -229 88 -314 204 -314c115 0 202 85 202 314c0 227 -87 312 -202 312c-116 0 -204 -85 -204 -312zM25 352c0 262 110 360 256 360c144 0 254 -98 254 -360c0 -264 -110 -362 -254 -362c-146 0 -256 98 -256 362z" />
    <glyph glyph-name="zero.tnumlnum..zero" horiz-adv-x="560" 
d="M477 758l47 -18l-62 -111c45 -57 73 -147 73 -277c0 -264 -110 -362 -254 -362c-56 0 -106 14 -147 46l-51 -92l-47 18l61 111c-45 57 -72 147 -72 279c0 262 110 360 256 360c54 0 104 -14 145 -46zM483 352c0 103 -18 177 -49 227l-275 -497c34 -31 76 -44 122 -44
c115 0 202 85 202 314zM77 352c0 -104 18 -178 48 -228l276 496c-33 30 -75 44 -120 44c-116 0 -204 -85 -204 -312z" />
    <glyph glyph-name="one.tnumlnum" horiz-adv-x="560" 
d="M312 48h183l-4 -48h-414l4 48h179v602l-183 -70v52l183 70h52v-654z" />
    <glyph glyph-name="two.tnumlnum" horiz-adv-x="560" 
d="M476 512c0 -130 -118 -266 -345 -464h362l-4 -48h-418l-4 48c224 206 357 339 357 463c0 112 -74 154 -163 154c-56 0 -119 -16 -173 -42l-11 48c61 26 127 41 187 41c116 0 212 -56 212 -200z" />
    <glyph glyph-name="three.tnumlnum" horiz-adv-x="560" 
d="M183 370h142c67 42 92 101 92 161c0 93 -72 133 -163 133c-55 0 -117 -15 -173 -41l-11 48c58 26 125 41 186 41c115 0 213 -53 213 -180c0 -84 -47 -143 -92 -181c78 -44 112 -111 112 -175c0 -135 -106 -186 -225 -186c-66 0 -136 16 -194 41l11 48
c53 -25 118 -41 179 -41c95 0 177 37 177 138c0 61 -38 117 -102 146h-156z" />
    <glyph glyph-name="four.tnumlnum" horiz-adv-x="560" 
d="M187 702h52c0 -196 -48 -329 -156 -469h247v189l52 4v-193h153l-4 -48h-149v-185h-52v185h-302l-4 48c115 140 163 283 163 469z" />
    <glyph glyph-name="five.tnumlnum" horiz-adv-x="560" 
d="M156 654v-262c249 19 329 -54 329 -198s-101 -204 -224 -204c-60 0 -126 15 -187 42l11 47c54 -26 117 -41 174 -41c95 0 174 43 174 156c0 95 -56 152 -198 152h-131v356h345l-4 -48h-289z" />
    <glyph glyph-name="six.tnumlnum" horiz-adv-x="560" 
d="M310 664c-118 0 -205 -92 -209 -326c85 47 161 70 224 70c116 0 186 -75 186 -206c0 -120 -85 -212 -228 -212c-136 0 -234 104 -234 331c0 281 114 391 263 391c53 0 109 -13 168 -39l-15 -47c-54 24 -106 38 -155 38zM324 360c-53 0 -127 -21 -222 -74
c8 -170 81 -248 181 -248c110 0 176 71 176 164c0 104 -53 158 -135 158z" />
    <glyph glyph-name="seven.tnumlnum" horiz-adv-x="560" 
d="M255 0h-52c0 293 94 490 248 654h-397l4 48h444l4 -48c-181 -218 -251 -393 -251 -654z" />
    <glyph glyph-name="eight.tnumlnum" horiz-adv-x="560" 
d="M280 712c144 0 221 -70 221 -169c0 -90 -73 -138 -161 -178c94 -41 181 -93 181 -199c0 -111 -85 -176 -241 -176s-241 65 -241 176c0 106 87 158 180 199c-87 40 -160 88 -160 178c0 99 77 169 221 169zM280 391c89 38 169 75 169 152c0 71 -59 121 -169 121
s-169 -50 -169 -121c0 -77 80 -114 169 -152zM280 339c-83 -36 -189 -92 -189 -173s67 -128 189 -128s189 47 189 128s-106 137 -189 173z" />
    <glyph glyph-name="nine.tnumlnum" horiz-adv-x="560" 
d="M250 38c118 0 205 92 209 326c-85 -48 -161 -70 -224 -70c-116 0 -186 75 -186 206c0 120 85 212 228 212c136 0 234 -104 234 -331c0 -281 -114 -391 -263 -391c-53 0 -109 13 -168 39l15 47c54 -24 106 -38 155 -38zM236 342c53 0 127 20 222 73
c-9 170 -82 249 -181 249c-110 0 -176 -71 -176 -164c0 -104 53 -158 135 -158z" />
    <glyph glyph-name="zero.pnumonum" horiz-adv-x="632" 
d="M95 252c0 -135 79 -216 212 -216s212 81 212 216s-79 216 -212 216s-212 -81 -212 -216zM45 252c0 164 98 262 262 262s262 -98 262 -262s-98 -262 -262 -262s-262 98 -262 262z" />
    <glyph glyph-name="one.pnumonum" horiz-adv-x="363" 
d="M278 0h-50v454l-183 -70v50l183 70h50v-504z" />
    <glyph glyph-name="two.pnumonum" horiz-adv-x="466" 
d="M392 364c0 -124 -137 -241 -283 -318h312l-4 -46h-378l-4 46c153 92 307 193 307 318c0 73 -55 104 -127 104c-50 0 -112 -15 -159 -41l-11 46c57 28 120 41 172 41c102 0 175 -52 175 -150z" />
    <glyph glyph-name="three.pnumonum" horiz-adv-x="443" 
d="M134 220h117c55 39 79 89 79 136c0 79 -59 112 -134 112c-47 0 -101 -13 -150 -35l-11 45c51 23 108 36 161 36c100 0 184 -45 184 -157c0 -72 -40 -123 -80 -156c68 -38 98 -95 98 -151c0 -113 -89 -161 -195 -161c-55 0 -114 12 -168 35l11 45c44 -20 103 -34 158 -34
c77 0 144 30 144 115c0 48 -38 98 -91 124h-127z" />
    <glyph glyph-name="four.pnumonum" horiz-adv-x="507" 
d="M188 504h50c0 -183 -48 -318 -156 -458h217v191l50 4v-195h133l-4 -46h-129v-156h-50v156h-270l-4 46c115 140 163 285 163 458z" />
    <glyph glyph-name="five.pnumonum" horiz-adv-x="436" 
d="M112 458v-220c216 16 289 -49 289 -173c0 -126 -91 -177 -199 -177c-54 0 -113 14 -167 37l11 45c49 -22 105 -36 156 -36c81 0 149 36 149 131c0 81 -43 129 -173 129h-116v310h307l-4 -46h-253z" />
    <glyph glyph-name="six.pnumonum" horiz-adv-x="501" 
d="M290 586c-104 0 -181 -78 -185 -284c74 40 140 60 196 60c103 0 165 -67 165 -183c0 -107 -75 -189 -203 -189c-121 0 -208 93 -208 295c0 255 105 348 235 348c48 0 99 -13 149 -35l-15 -45c-47 21 -93 33 -134 33zM300 316c-47 0 -112 -17 -194 -63
c7 -149 71 -217 157 -217c97 0 153 63 153 143c0 89 -45 137 -116 137z" />
    <glyph glyph-name="seven.pnumonum" horiz-adv-x="462" 
d="M206 -131h-50c0 226 84 425 238 589h-379l4 46h424l4 -46c-181 -218 -241 -395 -241 -589z" />
    <glyph glyph-name="eight.pnumonum" horiz-adv-x="515" 
d="M257 633c133 0 189 -64 189 -153c0 -78 -61 -122 -132 -157c80 -37 156 -82 156 -177c0 -98 -74 -156 -213 -156c-138 0 -212 58 -212 156c0 95 75 140 156 177c-72 35 -132 79 -132 157c0 89 56 153 188 153zM257 348c74 32 139 65 139 132c0 62 -41 107 -139 107
c-97 0 -138 -45 -138 -107c0 -67 65 -100 138 -132zM257 297c-76 -33 -162 -73 -162 -151c0 -69 57 -110 162 -110c106 0 163 41 163 110c0 76 -88 118 -163 151z" />
    <glyph glyph-name="nine.pnumonum" horiz-adv-x="501" 
d="M211 -64c104 0 181 70 185 266c-74 -41 -141 -60 -196 -60c-103 0 -165 67 -165 183c0 107 75 189 203 189c121 0 208 -93 208 -295c0 -245 -105 -330 -235 -330c-48 0 -99 13 -149 35l15 45c47 -21 93 -33 134 -33zM201 188c46 0 111 17 194 62c-8 149 -71 218 -157 218
c-97 0 -153 -63 -153 -143c0 -89 45 -137 116 -137z" />
    <glyph glyph-name="zero.tnumonum" horiz-adv-x="560" 
d="M75 252c0 -135 76 -216 205 -216s205 81 205 216s-76 216 -205 216s-205 -81 -205 -216zM25 252c0 164 95 262 255 262s255 -98 255 -262s-95 -262 -255 -262s-255 98 -255 262z" />
    <glyph glyph-name="one.tnumonum" horiz-adv-x="560" 
d="M315 46h183l-4 -46h-412l4 46h179v408l-183 -70v50l183 70h50v-458z" />
    <glyph glyph-name="two.tnumonum" horiz-adv-x="560" 
d="M444 364c0 -124 -137 -241 -283 -318h312l-4 -46h-378l-4 46c153 92 307 193 307 318c0 73 -55 104 -127 104c-50 0 -112 -15 -159 -41l-11 46c57 28 120 41 172 41c102 0 175 -52 175 -150z" />
    <glyph glyph-name="three.tnumonum" horiz-adv-x="560" 
d="M187 220h117c55 39 79 89 79 136c0 79 -59 112 -134 112c-47 0 -101 -13 -150 -35l-11 45c51 23 108 36 161 36c100 0 184 -45 184 -157c0 -72 -40 -123 -80 -156c68 -38 98 -95 98 -151c0 -113 -89 -161 -195 -161c-55 0 -114 12 -168 35l11 45c44 -20 103 -34 158 -34
c77 0 144 30 144 115c0 48 -38 98 -91 124h-127z" />
    <glyph glyph-name="four.tnumonum" horiz-adv-x="560" 
d="M214 504h50c0 -183 -48 -318 -156 -458h217v191l50 4v-195h133l-4 -46h-129v-156h-50v156h-270l-4 46c115 140 163 285 163 458z" />
    <glyph glyph-name="five.tnumonum" horiz-adv-x="560" 
d="M174 458v-220c216 16 289 -49 289 -173c0 -126 -91 -177 -199 -177c-54 0 -113 14 -167 37l11 45c49 -22 105 -36 156 -36c81 0 149 36 149 131c0 81 -43 129 -173 129h-116v310h307l-4 -46h-253z" />
    <glyph glyph-name="six.tnumonum" horiz-adv-x="560" 
d="M319 586c-104 0 -181 -78 -185 -284c74 40 140 60 196 60c103 0 165 -67 165 -183c0 -107 -75 -189 -203 -189c-121 0 -208 93 -208 295c0 255 105 348 235 348c48 0 99 -13 149 -35l-15 -45c-47 21 -93 33 -134 33zM329 316c-47 0 -112 -17 -194 -63
c7 -149 71 -217 157 -217c97 0 153 63 153 143c0 89 -45 137 -116 137z" />
    <glyph glyph-name="seven.tnumonum" horiz-adv-x="560" 
d="M245 -131h-50c0 226 84 425 238 589h-379l4 46h424l4 -46c-181 -218 -241 -395 -241 -589z" />
    <glyph glyph-name="eight.tnumonum" horiz-adv-x="560" 
d="M279 633c133 0 189 -64 189 -153c0 -78 -61 -122 -132 -157c80 -37 156 -82 156 -177c0 -98 -74 -156 -213 -156c-138 0 -212 58 -212 156c0 95 75 140 156 177c-72 35 -132 79 -132 157c0 89 56 153 188 153zM279 348c74 32 139 65 139 132c0 62 -41 107 -139 107
c-97 0 -138 -45 -138 -107c0 -67 65 -100 138 -132zM279 297c-76 -33 -162 -73 -162 -151c0 -69 57 -110 162 -110c106 0 163 41 163 110c0 76 -88 118 -163 151z" />
    <glyph glyph-name="nine.tnumonum" horiz-adv-x="560" 
d="M240 -64c104 0 181 70 185 266c-74 -41 -141 -60 -196 -60c-103 0 -165 67 -165 183c0 107 75 189 203 189c121 0 208 -93 208 -295c0 -245 -105 -330 -235 -330c-48 0 -99 13 -149 35l15 45c47 -21 93 -33 134 -33zM230 188c46 0 111 17 194 62c-8 149 -71 218 -157 218
c-97 0 -153 -63 -153 -143c0 -89 45 -137 116 -137z" />
    <glyph glyph-name="dollar.smcp" horiz-adv-x="443" 
d="M245 606v-92c41 -2 89 -15 137 -32l-10 -45c-40 18 -91 31 -138 31c-70 0 -131 -26 -131 -83c0 -117 295 -104 295 -263c0 -85 -69 -124 -153 -131v-89l-46 -4v92c-46 2 -93 13 -136 28l11 45c52 -16 102 -27 141 -27c71 0 133 25 133 86c0 119 -295 103 -295 263
c0 78 64 118 146 127v90z" />
    <glyph glyph-name="cent.smcp" horiz-adv-x="407" 
d="M255 606v-92c35 -2 73 -9 107 -19l-8 -45c-34 11 -79 18 -112 18c-79 0 -147 -38 -147 -142s68 -142 147 -142c33 0 78 7 112 18l8 -45c-34 -11 -72 -18 -107 -19v-87l-46 -4v92c-92 10 -164 63 -164 187c0 123 72 176 164 186v90z" />
    <glyph glyph-name="sterling.smcp" horiz-adv-x="431" 
d="M49 260h113c-15 38 -50 88 -50 138c0 58 28 116 114 116c41 0 89 -6 132 -18l-11 -45c-46 12 -81 17 -108 17c-58 0 -77 -26 -77 -70c0 -41 36 -84 51 -138h146l-4 -46h-136c-1 -65 -33 -119 -100 -168h267l-4 -46h-332l-3 46c71 61 115 91 121 168h-123z" />
    <glyph glyph-name="yen.smcp" horiz-adv-x="474" 
d="M69 237h123l-177 265l60 4l162 -253l165 253l57 -4l-178 -265h128l-4 -46h-143v-191h-50v191h-147z" />
    <glyph glyph-name="florin.smcp" horiz-adv-x="292" 
d="M160 209v-213c0 -61 -22 -118 -106 -118c-20 0 -43 3 -71 11l3 45c23 -6 49 -10 68 -10c36 0 56 23 56 72v213h-95l4 46h91v141c0 61 22 118 106 118c20 0 43 -3 71 -11l-3 -45c-23 6 -49 10 -68 10c-36 0 -56 -23 -56 -72v-141h125l-4 -46h-121z" />
    <glyph glyph-name="Euro.smcp" horiz-adv-x="507" 
d="M9 276h56c9 174 119 238 247 238c49 0 102 -9 150 -26l-7 -46c-51 18 -100 26 -143 26c-101 0 -188 -52 -197 -192h234l-4 -46h-230c8 -142 96 -194 197 -194c43 0 92 8 143 26l7 -46c-48 -17 -101 -26 -150 -26c-128 0 -238 64 -247 240h-60z" />
    <glyph glyph-name="numbersign.smcp" horiz-adv-x="455" 
d="M48 362h87l45 144l50 -3l-44 -141h159l45 144l51 -3l-44 -141h58l-3 -46h-69l-40 -127h67l-3 -46h-78l-44 -144l-50 3l43 141h-159l-44 -144l-51 3l43 141h-67l3 46h79l39 127h-76zM172 316l-39 -127h159l39 127h-159z" />
    <glyph glyph-name="zero.smcp" horiz-adv-x="521" 
d="M103 253c0 -158 68 -217 158 -217c89 0 157 59 157 217c0 157 -68 215 -157 215c-90 0 -158 -58 -158 -215zM53 253c0 190 89 261 208 261c117 0 207 -71 207 -261c0 -192 -90 -263 -207 -263c-119 0 -208 71 -208 263z" />
    <glyph glyph-name="one.smcp" horiz-adv-x="269" 
d="M217 0h-50v454l-146 -56v50l146 56h50v-504z" />
    <glyph glyph-name="two.smcp" horiz-adv-x="406" 
d="M355 360c0 -99 -93 -183 -263 -314h277l-4 -46h-333l-4 46c179 145 277 230 277 314c0 79 -55 108 -122 108c-44 0 -94 -13 -137 -32l-9 46c47 21 99 32 146 32c94 0 172 -44 172 -154z" />
    <glyph glyph-name="three.smcp" horiz-adv-x="400" 
d="M116 271h112c43 33 69 68 69 113c0 62 -54 84 -114 84c-40 0 -85 -9 -143 -32l-11 45c53 23 112 33 153 33c89 0 165 -38 165 -130c0 -61 -37 -105 -73 -132c62 -32 89 -81 89 -127c0 -95 -78 -135 -173 -135c-43 0 -110 13 -161 33l11 45c51 -21 118 -32 150 -32
c69 0 123 26 123 89c0 43 -36 78 -82 100h-119z" />
    <glyph glyph-name="four.smcp" horiz-adv-x="450" 
d="M151 504h50c0 -119 -23 -220 -123 -337h182v135l50 4v-139h119l-4 -46h-115v-121h-50v121h-235l-4 46c85 97 130 191 130 337z" />
    <glyph glyph-name="five.smcp" horiz-adv-x="394" 
d="M111 458v-178c189 14 254 -39 254 -143s-82 -147 -173 -147c-53 0 -110 14 -155 34l11 47c43 -21 95 -35 142 -35c68 0 125 29 125 101c0 64 -39 99 -150 99h-104v268h275l-3 -46h-222z" />
    <glyph glyph-name="six.smcp" horiz-adv-x="443" 
d="M255 468c-85 0 -156 -58 -160 -221c65 31 124 46 173 46c94 0 150 -54 150 -149c0 -87 -69 -154 -184 -154c-110 0 -189 75 -189 240c0 210 96 284 210 284c42 0 93 -10 138 -28l-15 -44c-43 16 -85 26 -123 26zM268 247c-42 0 -100 -12 -172 -47
c8 -117 67 -164 138 -164c85 0 134 47 134 108c0 69 -40 103 -100 103z" />
    <glyph glyph-name="seven.smcp" horiz-adv-x="371" 
d="M175 0h-50c0 210 58 340 174 458h-286l4 46h337l4 -46c-145 -153 -183 -276 -183 -458z" />
    <glyph glyph-name="eight.smcp" horiz-adv-x="458" 
d="M237 -10c-124 0 -192 46 -192 124c0 73 72 110 140 139c-60 29 -118 66 -118 129c0 77 61 132 170 132c111 0 170 -55 170 -132c0 -66 -56 -101 -117 -129c68 -29 140 -66 140 -139c0 -78 -68 -124 -193 -124zM237 227c-68 -27 -142 -55 -142 -113c0 -49 50 -78 142 -78
c93 0 143 29 143 78c0 56 -76 87 -143 113zM117 382c0 -52 55 -79 120 -104c64 25 120 52 120 104c0 50 -42 86 -120 86c-77 0 -120 -36 -120 -86z" />
    <glyph glyph-name="nine.smcp" horiz-adv-x="443" 
d="M209 36c85 0 155 58 160 221c-66 -32 -124 -46 -173 -46c-94 0 -150 54 -150 149c0 87 69 154 184 154c110 0 189 -75 189 -240c0 -210 -96 -284 -210 -284c-42 0 -93 10 -138 28l15 44c43 -16 85 -26 123 -26zM196 257c41 0 99 12 172 47c-9 117 -68 164 -138 164
c-85 0 -134 -47 -134 -108c0 -69 40 -103 100 -103z" />
    <glyph glyph-name="asciicircum" unicode="^" horiz-adv-x="466" 
d="M451 230l-54 -4l-164 428l-164 -428l-54 4l186 472h64z" />
    <glyph glyph-name="asciitilde" unicode="~" horiz-adv-x="560" 
d="M394 258c-108 0 -144 110 -225 110c-43 0 -63 -40 -80 -92l-49 8c25 90 69 130 128 130c107 0 146 -110 225 -110c43 0 63 40 80 92l49 -8c-25 -90 -69 -130 -128 -130z" />
    <glyph glyph-name="periodcentered" unicode="&#xb7;" horiz-adv-x="194" 
d="M97 394c24 0 42 -18 42 -42s-18 -42 -42 -42s-42 18 -42 42s18 42 42 42z" />
    <glyph glyph-name="plus" unicode="+" horiz-adv-x="560" 
d="M255 111v218h-215l4 46h211v213l50 4v-217h215l-3 -46h-212v-213z" />
    <glyph glyph-name="minus" unicode="&#x2212;" horiz-adv-x="560" 
d="M44 375h476l-4 -46h-476z" />
    <glyph glyph-name="plusminus" unicode="&#xb1;" horiz-adv-x="560" 
d="M255 111v218h-215l4 46h211v213l50 4v-217h215l-3 -46h-212v-213zM44 46h476l-4 -46h-476z" />
    <glyph glyph-name="multiply" unicode="&#xd7;" horiz-adv-x="560" 
d="M63 169l183 183l-183 183l37 31l180 -180l180 180l37 -31l-183 -183l183 -183l-36 -32l-181 181l-180 -180z" />
    <glyph glyph-name="divide" unicode="&#xf7;" horiz-adv-x="560" 
d="M44 375h476l-4 -46h-476zM280 186c24 0 42 -18 42 -42s-18 -42 -42 -42s-42 18 -42 42s18 42 42 42zM280 602c24 0 42 -18 42 -42s-18 -42 -42 -42s-42 18 -42 42s18 42 42 42z" />
    <glyph glyph-name="less" unicode="&#x3c;" horiz-adv-x="560" 
d="M508 112l-468 218l4 46l464 216l17 -43l-424 -197l424 -197z" />
    <glyph glyph-name="greater" unicode="&#x3e;" horiz-adv-x="560" 
d="M52 592l468 -218l-4 -46l-464 -216l-17 43l424 197l-424 197z" />
    <glyph glyph-name="lessequal" unicode="&#x2264;" horiz-adv-x="560" 
d="M508 112l-468 218l4 46l464 216l17 -43l-424 -197l424 -197zM44 46h476l-4 -46h-476z" />
    <glyph glyph-name="greaterequal" unicode="&#x2265;" horiz-adv-x="560" 
d="M52 592l468 -218l-4 -46l-464 -216l-17 43l424 197l-424 197zM44 46h476l-4 -46h-476z" />
    <glyph glyph-name="equal" unicode="=" horiz-adv-x="560" 
d="M44 511h476l-4 -46h-476zM44 239h476l-4 -46h-476z" />
    <glyph glyph-name="notequal" unicode="&#x2260;" horiz-adv-x="560" 
d="M44 239h168l82 226h-254l4 46h267l47 128l51 -4l-45 -124h156l-4 -46h-169l-82 -226h255l-4 -46h-268l-46 -128l-51 4l45 124h-156z" />
    <glyph glyph-name="approxequal" unicode="&#x2248;" horiz-adv-x="560" 
d="M394 375c-108 0 -144 110 -225 110c-43 0 -63 -40 -80 -92l-49 8c25 90 69 130 128 130c107 0 146 -110 225 -110c43 0 63 40 80 92l49 -8c-25 -90 -69 -130 -128 -130zM394 173c-108 0 -144 110 -225 110c-43 0 -63 -40 -80 -92l-49 8c25 90 69 130 128 130
c107 0 146 -110 225 -110c43 0 63 40 80 92l49 -8c-25 -90 -69 -130 -128 -130z" />
    <glyph glyph-name="logicalnot" unicode="&#xac;" horiz-adv-x="560" 
d="M468 111v218h-428l4 46h474v-259z" />
    <glyph glyph-name="bar" unicode="|" horiz-adv-x="220" 
d="M85 838l50 4v-922l-50 -4v922z" />
    <glyph glyph-name="brokenbar" unicode="&#xa6;" horiz-adv-x="220" 
d="M85 297l50 4v-381l-50 -4v381zM85 838l50 4v-381l-50 -4v381z" />
    <glyph glyph-name="infinity" unicode="&#x221e;" horiz-adv-x="665" 
d="M650 352c0 -105 -57 -165 -153 -165c-87 0 -132 53 -167 114c-35 -62 -80 -114 -160 -114c-92 0 -155 57 -155 165s63 165 155 165c80 0 125 -53 160 -114c35 60 80 114 167 114c96 0 153 -60 153 -165zM600 352c0 76 -38 119 -103 119c-72 0 -108 -60 -139 -119
c31 -59 67 -119 139 -119c65 0 103 43 103 119zM170 233c67 0 100 56 133 119c-33 62 -66 119 -133 119c-62 0 -105 -41 -105 -119s43 -119 105 -119z" />
    <glyph glyph-name="lozenge" unicode="&#x25ca;" horiz-adv-x="584" 
d="M266 702h52l221 -351l-221 -351h-52l-221 351zM105 351l187 -299l187 299l-187 299z" />
    <glyph glyph-name="partialdiff" unicode="&#x2202;" horiz-adv-x="549" 
d="M414 400c-69 28 -112 38 -160 38c-81 0 -149 -52 -149 -201c0 -148 66 -201 165 -201c146 0 196 132 144 364zM172 758h72c111 -85 240 -287 240 -505c0 -198 -86 -263 -214 -263c-129 0 -215 65 -215 247c0 179 90 247 199 247c46 0 98 -13 144 -32
c-58 164 -159 256 -226 306z" />
    <glyph glyph-name="uni00B5" unicode="&#xb5;" horiz-adv-x="520" 
d="M75 472l50 4v-329c0 -75 36 -111 85 -111c59 0 127 38 185 72v364l50 4v-476h-40l-10 58c-68 -40 -130 -68 -185 -68c-38 0 -61 11 -85 34v-228l-50 -4v680z" />
    <glyph glyph-name="pi" unicode="&#x3c0;" horiz-adv-x="623" 
d="M564 428h-96v-349c0 -48 19 -56 86 -31l5 -43c-24 -9 -48 -15 -69 -15c-41 0 -72 23 -72 91v347h-214l-36 -428h-50l36 428h-99l4 46h509z" />
    <glyph glyph-name="uni2206" unicode="&#x2206;" horiz-adv-x="601" 
d="M518 48l-218 606l-218 -606h436zM549 0h-498l-26 38l241 662l68 4l242 -664z" />
    <glyph glyph-name="product" unicode="&#x220f;" horiz-adv-x="654" 
d="M75 702h504v-702h-52v654h-400v-654h-52v702z" />
    <glyph glyph-name="summation" unicode="&#x2211;" horiz-adv-x="520" 
d="M110 654l240 -300l-244 -306h369l-4 -48h-422l-4 48l241 303l-241 303l4 48h426l-4 -48h-361z" />
    <glyph glyph-name="uni2126" unicode="&#x2126;" horiz-adv-x="752" 
d="M310 48l-4 -48h-237l-4 48h178c-119 100 -175 235 -175 356c0 166 101 308 308 308s308 -142 308 -308c0 -121 -56 -256 -175 -356h178l-4 -48h-237l-4 48c127 93 192 233 192 357c0 141 -85 261 -258 261c-172 0 -257 -120 -257 -261c0 -124 64 -264 191 -357z" />
    <glyph glyph-name="radical" unicode="&#x221a;" horiz-adv-x="627" 
d="M549 704l53 -4l-255 -700h-67l-156 428h-99l4 46h133l152 -424z" />
    <glyph glyph-name="integral" unicode="&#x222b;" horiz-adv-x="364" 
d="M137 0v548c0 84 27 164 132 164c26 0 54 -4 90 -15l-5 -45c-28 8 -61 14 -81 14c-73 0 -86 -59 -86 -124v-548c0 -84 -27 -164 -132 -164c-26 0 -54 4 -90 15l5 45c28 -8 61 -14 81 -14c73 0 86 59 86 124z" />
    <glyph glyph-name="estimated" unicode="&#x212e;" horiz-adv-x="792" 
d="M756 327h-619v-156c53 -83 146 -133 259 -133s206 51 259 134l43 -30c-62 -95 -170 -152 -302 -152c-212 0 -361 149 -361 361s149 361 361 361s361 -149 361 -361c0 -8 -1 -16 -1 -24zM137 530v-155h518v155c-53 83 -146 134 -259 134s-206 -51 -259 -134z" />
    <glyph glyph-name="uni2113" unicode="&#x2113;" horiz-adv-x="337" 
d="M173 -10c-59 0 -98 29 -98 114v605c132 16 262 -30 262 -197c0 -102 -72 -207 -212 -343v-66c0 -71 36 -81 140 -49l5 -45c-35 -11 -68 -19 -97 -19zM285 511c0 110 -73 153 -160 154v-428c102 107 160 193 160 274z" />
    <glyph glyph-name="emptyset" unicode="&#x2205;" horiz-adv-x="594" 
d="M472 702l45 -22l-65 -113c66 -45 107 -122 107 -216c0 -154 -108 -262 -262 -262c-41 0 -78 7 -111 21l-63 -110l-45 22l65 112c-67 45 -108 122 -108 217c0 154 108 262 262 262c40 0 78 -7 111 -21zM85 351c0 -76 31 -138 82 -176l217 375c-26 11 -56 17 -87 17
c-125 0 -212 -89 -212 -216zM509 351c0 75 -31 137 -82 175l-217 -375c26 -11 55 -16 87 -16c125 0 212 89 212 216z" />
    <glyph glyph-name="degree" unicode="&#xb0;" horiz-adv-x="319" 
d="M83 585c0 -47 31 -80 76 -80s77 33 77 80c0 48 -32 81 -77 81s-76 -33 -76 -81zM33 585c0 75 52 127 126 127c75 0 127 -52 127 -127c0 -74 -52 -126 -127 -126c-74 0 -126 52 -126 126z" />
    <glyph glyph-name="ordfeminine" unicode="&#xaa;" horiz-adv-x="299" 
d="M206 580v33c0 43 -18 57 -48 57c-28 0 -67 -10 -111 -25l-7 41c41 15 88 26 123 26c55 0 90 -25 90 -97v-208h-35l-7 36c-33 -28 -71 -42 -104 -42c-43 0 -79 24 -79 77c0 55 35 91 178 102zM114 440c34 0 69 18 92 43v60c-109 -8 -133 -32 -133 -62c0 -32 22 -41 41 -41
z" />
    <glyph glyph-name="ordmasculine" unicode="&#xba;" horiz-adv-x="346" 
d="M81 556c0 -80 37 -113 92 -113s92 33 92 113s-37 114 -92 114s-92 -34 -92 -114zM34 556c0 107 55 156 139 156s139 -49 139 -156s-55 -155 -139 -155s-139 48 -139 155z" />
    <glyph glyph-name="quotesingle" unicode="'" horiz-adv-x="125" 
d="M35 702h55l-7 -218h-41z" />
    <glyph glyph-name="quotedbl" unicode="&#x22;" horiz-adv-x="230" 
d="M35 702h55l-7 -218h-41zM140 702h55l-7 -218h-41z" />
    <glyph glyph-name="underscore" unicode="_" horiz-adv-x="448" 
d="M9 -29h434l-4 -46h-434z" />
    <glyph glyph-name="emdash" unicode="&#x2014;" horiz-adv-x="1061" 
d="M29 260h997l-4 -46h-997z" />
    <glyph glyph-name="endash" unicode="&#x2013;" horiz-adv-x="564" 
d="M29 260h510l-4 -46h-510z" />
    <glyph glyph-name="hyphen" unicode="-" horiz-adv-x="265" 
d="M39 260h191l-4 -46h-191z" />
    <glyph glyph-name="uni00AD" unicode="&#xad;" horiz-adv-x="265" 
d="M39 260h191l-4 -46h-191z" />
    <glyph glyph-name="guilsinglleft" unicode="&#x2039;" horiz-adv-x="273" 
d="M215 27l-190 188l4 46l186 186l33 -38l-177 -172l177 -172z" />
    <glyph glyph-name="guilsinglright" unicode="&#x203a;" horiz-adv-x="273" 
d="M58 447l190 -188l-4 -46l-186 -186l-33 38l177 172l-177 172z" />
    <glyph glyph-name="guillemotleft" unicode="&#xab;" horiz-adv-x="443" 
d="M215 27l-190 188l4 46l186 186l33 -38l-177 -172l177 -172zM385 27l-190 188l4 46l186 186l33 -38l-177 -172l177 -172z" />
    <glyph glyph-name="guillemotright" unicode="&#xbb;" horiz-adv-x="443" 
d="M228 447l190 -188l-4 -46l-186 -186l-33 38l177 172l-177 172zM58 447l190 -188l-4 -46l-186 -186l-33 38l177 172l-177 172z" />
    <glyph glyph-name="quotesinglbase" unicode="&#x201a;" horiz-adv-x="150" 
d="M40 100l64 5c30 -86 13 -154 -27 -240l-47 5c40 86 40 144 10 230z" />
    <glyph glyph-name="quotedblbase" unicode="&#x201e;" horiz-adv-x="290" 
d="M40 100l64 5c30 -86 13 -154 -27 -240l-47 5c40 86 40 144 10 230zM180 100l64 5c30 -86 13 -154 -27 -240l-47 5c40 86 40 144 10 230z" />
    <glyph glyph-name="quoteright" unicode="&#x2019;" horiz-adv-x="150" 
d="M40 812l64 5c30 -86 13 -154 -27 -240l-47 5c40 86 40 144 10 230z" />
    <glyph glyph-name="quotedblright" unicode="&#x201d;" horiz-adv-x="290" 
d="M40 812l64 5c30 -86 13 -154 -27 -240l-47 5c40 86 40 144 10 230zM180 812l64 5c30 -86 13 -154 -27 -240l-47 5c40 86 40 144 10 230z" />
    <glyph glyph-name="quoteleft" unicode="&#x2018;" horiz-adv-x="150" 
d="M110 582l-64 -5c-30 86 -13 154 27 240l47 -5c-40 -86 -40 -144 -10 -230z" />
    <glyph glyph-name="quotedblleft" unicode="&#x201c;" horiz-adv-x="290" 
d="M250 582l-64 -5c-30 86 -13 154 27 240l47 -5c-40 -86 -40 -144 -10 -230zM110 582l-64 -5c-30 86 -13 154 27 240l47 -5c-40 -86 -40 -144 -10 -230z" />
    <glyph glyph-name="comma" unicode="," horiz-adv-x="194" 
d="M60 100l64 5c30 -86 13 -154 -27 -240l-47 5c40 86 40 144 10 230z" />
    <glyph glyph-name="period" unicode="." horiz-adv-x="194" 
d="M97 79c24 0 42 -18 42 -42s-18 -42 -42 -42s-42 18 -42 42s18 42 42 42z" />
    <glyph glyph-name="colon" unicode=":" horiz-adv-x="194" 
d="M97 79c24 0 42 -18 42 -42s-18 -42 -42 -42s-42 18 -42 42s18 42 42 42zM97 479c24 0 42 -18 42 -42s-18 -42 -42 -42s-42 18 -42 42s18 42 42 42z" />
    <glyph glyph-name="semicolon" unicode=";" horiz-adv-x="194" 
d="M60 100l64 5c30 -86 13 -154 -27 -240l-47 5c40 86 40 144 10 230zM97 479c24 0 42 -18 42 -42s-18 -42 -42 -42s-42 18 -42 42s18 42 42 42z" />
    <glyph glyph-name="ellipsis" unicode="&#x2026;" horiz-adv-x="770" 
d="M97 79c24 0 42 -18 42 -42s-18 -42 -42 -42s-42 18 -42 42s18 42 42 42zM385 79c24 0 42 -18 42 -42s-18 -42 -42 -42s-42 18 -42 42s18 42 42 42zM673 79c24 0 42 -18 42 -42s-18 -42 -42 -42s-42 18 -42 42s18 42 42 42z" />
    <glyph glyph-name="question" unicode="?" horiz-adv-x="469" 
d="M248 306l-1 -128l-46 -4l-1 164c157 38 182 133 182 193c0 83 -64 133 -154 133c-56 0 -119 -13 -182 -31l-11 48c64 20 128 31 185 31c131 0 214 -66 214 -180c0 -84 -56 -189 -186 -226zM224 79c24 0 42 -18 42 -42s-18 -42 -42 -42s-42 18 -42 42s18 42 42 42z" />
    <glyph glyph-name="questiondown" unicode="&#xbf;" horiz-adv-x="469" 
d="M222 168l1 128l46 4l1 -164c-157 -38 -182 -133 -182 -193c0 -83 64 -133 154 -133c56 0 119 13 182 31l11 -48c-64 -20 -128 -31 -185 -31c-131 0 -214 66 -214 180c0 84 56 189 186 226zM246 395c-24 0 -42 18 -42 42s18 42 42 42s42 -18 42 -42s-18 -42 -42 -42z" />
    <glyph glyph-name="exclam" unicode="!" horiz-adv-x="344" 
d="M195 178l-46 -4l-4 528h54zM172 79c24 0 42 -18 42 -42s-18 -42 -42 -42s-42 18 -42 42s18 42 42 42z" />
    <glyph glyph-name="exclamdown" unicode="&#xa1;" horiz-adv-x="344" 
d="M149 296l46 4l4 -528h-54zM172 395c-24 0 -42 18 -42 42s18 42 42 42s42 -18 42 -42s-18 -42 -42 -42z" />
    <glyph glyph-name="parenleft" unicode="(" horiz-adv-x="316" 
d="M45 379c0 220 88 380 245 462l41 -33c-151 -72 -234 -222 -234 -429s83 -357 234 -429l-41 -33c-157 82 -245 242 -245 462z" />
    <glyph glyph-name="parenright" unicode=")" horiz-adv-x="316" 
d="M271 379c0 -220 -88 -380 -245 -462l-41 33c151 72 234 222 234 429s-83 357 -234 429l41 33c157 -82 245 -242 245 -462z" />
    <glyph glyph-name="bracketleft" unicode="[" horiz-adv-x="262" 
d="M85 838h172l-4 -46h-118v-826h122l-4 -46h-168v918z" />
    <glyph glyph-name="bracketright" unicode="]" horiz-adv-x="262" 
d="M177 -80h-172l4 46h118v826h-122l4 46h168v-918z" />
    <glyph glyph-name="braceleft" unicode="{" horiz-adv-x="322" 
d="M137 526v148c0 84 26 167 160 164l-4 -46c-93 0 -106 -59 -106 -124v-138c0 -64 -16 -125 -70 -151c54 -26 70 -87 70 -151v-138c0 -65 12 -126 110 -124l-4 -46c-129 -2 -156 80 -156 164v148c0 65 -13 124 -86 124h-26l4 46h27c69 3 81 60 81 124z" />
    <glyph glyph-name="braceright" unicode="}" horiz-adv-x="322" 
d="M185 232v-148c0 -84 -26 -167 -160 -164l4 46c93 0 106 59 106 124v138c0 64 16 125 70 151c-54 26 -70 87 -70 151v138c0 65 -12 126 -110 124l4 46c129 2 156 -80 156 -164v-148c0 -65 13 -124 86 -124h26l-4 -46h-27c-69 -3 -81 -60 -81 -124z" />
    <glyph glyph-name="slash" unicode="/" horiz-adv-x="293" 
d="M287 838l51 -4l-332 -914l-51 4z" />
    <glyph glyph-name="backslash" unicode="\" horiz-adv-x="293" 
d="M-45 834l51 4l332 -914l-51 -4z" />
    <glyph glyph-name="fraction" unicode="&#x2044;" horiz-adv-x="179" 
d="M-150 0l426 702h53l-425 -702h-54z" />
    <glyph glyph-name="asterisk" unicode="*" horiz-adv-x="466" 
d="M35 536l14 55l160 -59l-7 168l57 4l-6 -172l157 58l21 -53l-163 -47l103 -130l-44 -37l-96 143l-94 -140l-48 30l105 135z" />
    <glyph glyph-name="bullet" unicode="&#x2022;" horiz-adv-x="382" 
d="M35 351c0 92 64 156 156 156s156 -64 156 -156s-64 -156 -156 -156s-156 64 -156 156z" />
    <glyph glyph-name="section" unicode="&#xa7;" horiz-adv-x="578" 
d="M309 664c-9 0 -18 0 -26 -1c-52 -278 240 -401 240 -646c0 -156 -114 -233 -254 -233c-59 0 -122 14 -184 41l12 47c62 -27 121 -40 172 -40c9 0 17 0 26 1c52 277 -240 400 -240 646c0 156 114 233 254 233c59 0 122 -14 184 -41l-12 -47c-62 27 -121 40 -172 40z
M107 479c0 -209 282 -356 242 -635c72 24 122 81 122 173c0 209 -283 355 -243 635c-71 -24 -121 -81 -121 -173z" />
    <glyph glyph-name="dagger" unicode="&#x2020;" horiz-adv-x="518" 
d="M289 -66l-56 -4l5 497l-213 -5l4 52l209 -5l-5 231l56 4l-5 -235l213 5l-4 -52l-209 5z" />
    <glyph glyph-name="daggerdbl" unicode="&#x2021;" horiz-adv-x="518" 
d="M233 246l5 181l-213 -5l4 52l209 -5l-5 231l56 4l-5 -235l213 5l-4 -52l-209 5l5 -177l-5 -181l213 5l-4 -52l-209 5l5 -231l-56 -4l5 235l-213 -5l4 52l209 -5z" />
    <glyph glyph-name="paragraph" unicode="&#xb6;" horiz-adv-x="503" 
d="M191 702h312l-4 -48h-65v-654h-52v654h-82v-654h-52v390h-57c-92 0 -156 64 -156 156s64 156 156 156z" />
    <glyph glyph-name="copyright" unicode="&#xa9;" horiz-adv-x="792" 
d="M85 351c0 -186 128 -315 311 -315s311 129 311 315s-128 315 -311 315s-311 -129 -311 -315zM35 351c0 213 148 361 361 361s361 -148 361 -361s-148 -361 -361 -361s-361 148 -361 361zM402 501c-72 0 -135 -39 -135 -150s63 -151 135 -151c31 0 72 7 106 20l7 -46
c-36 -13 -76 -20 -113 -20c-99 0 -185 52 -185 197s86 196 185 196c37 0 77 -7 113 -20l-7 -46c-34 13 -75 20 -106 20z" />
    <glyph glyph-name="uni2117" unicode="&#x2117;" horiz-adv-x="792" 
d="M85 351c0 -186 128 -315 311 -315s311 129 311 315s-128 315 -311 315s-311 -129 -311 -315zM35 351c0 213 148 361 361 361s361 -148 361 -361s-148 -361 -361 -361s-361 148 -361 361zM330 292v-132h-50v378h104c105 0 169 -34 169 -121s-70 -129 -166 -129
c-25 0 -37 2 -57 4zM330 492v-154c15 -2 39 -4 58 -4c65 0 115 26 115 82c0 51 -40 76 -115 76h-58z" />
    <glyph glyph-name="registered" unicode="&#xae;" horiz-adv-x="432" 
d="M35 531c0 107 74 181 181 181s181 -74 181 -181s-74 -181 -181 -181s-181 74 -181 181zM73 531c0 -86 59 -146 143 -146s143 60 143 146s-59 146 -143 146s-143 -60 -143 -146zM188 499v-65h-39v192h60c50 0 80 -21 80 -64c0 -27 -15 -45 -36 -56c4 -26 13 -39 25 -39
c8 0 15 2 23 5l5 -34c-13 -5 -25 -7 -35 -7c-27 0 -47 21 -57 66h-6c-8 0 -12 1 -20 2zM188 592v-58c5 -1 12 -2 20 -2c24 0 42 12 42 31s-14 29 -41 29h-21z" />
    <glyph glyph-name="trademark" unicode="&#x2122;" 
d="M95 669h-90l2 33h213l-2 -33h-88v-219h-35v219zM355 449l-69 187l-31 -186h-35l41 251l33 2l80 -209l79 207l32 2l42 -253h-35l-30 186l-68 -185z" />
    <glyph glyph-name="at" unicode="@" horiz-adv-x="1016" 
d="M700 431l-34 -276c-11 -86 16 -119 59 -119c104 0 176 93 176 274c0 219 -126 336 -346 336c-251 0 -440 -155 -440 -493c0 -204 118 -323 336 -323c69 0 135 14 196 40l19 -43c-66 -29 -138 -43 -215 -43c-250 0 -386 136 -386 369c0 368 211 539 490 539
c253 0 396 -133 396 -382c0 -209 -95 -320 -226 -320c-77 0 -110 50 -113 133c-64 -78 -136 -133 -198 -133c-85 0 -125 76 -125 185c0 224 113 309 223 309c55 0 110 -17 188 -53zM646 404c-50 23 -88 34 -134 34c-85 0 -173 -72 -173 -263c0 -82 23 -139 75 -139
c59 0 145 73 208 174z" />
    <glyph glyph-name="ampersand" unicode="&#x26;" horiz-adv-x="646" 
d="M656 33l-25 -44c-52 34 -104 71 -153 108c-71 -70 -149 -107 -232 -107c-126 0 -201 73 -201 172c0 93 64 150 136 202c-61 71 -97 135 -97 186c0 101 65 163 166 163c92 0 166 -56 166 -152c0 -94 -80 -147 -164 -204c59 -62 135 -128 220 -193c33 38 63 86 92 141
l46 -18c-30 -60 -63 -111 -98 -153c46 -34 95 -68 144 -101zM213 329c-62 -45 -116 -96 -116 -167s55 -124 149 -124c68 0 132 31 192 89c-86 68 -164 137 -225 202zM364 559c0 66 -50 106 -114 106c-69 0 -114 -44 -114 -115c0 -43 31 -98 84 -159c69 46 144 99 144 168z
" />
    <glyph glyph-name="emdash.case" horiz-adv-x="1061" 
d="M29 374h997l-4 -46h-997z" />
    <glyph glyph-name="endash.case" horiz-adv-x="564" 
d="M29 374h510l-4 -46h-510z" />
    <glyph glyph-name="hyphen.case" horiz-adv-x="265" 
d="M39 374h191l-4 -46h-191z" />
    <glyph glyph-name="guilsinglleft.case" horiz-adv-x="273" 
d="M215 141l-190 188l4 46l186 186l33 -38l-177 -172l177 -172z" />
    <glyph glyph-name="guilsinglright.case" horiz-adv-x="273" 
d="M58 561l190 -188l-4 -46l-186 -186l-33 38l177 172l-177 172z" />
    <glyph glyph-name="guillemotleft.case" horiz-adv-x="443" 
d="M215 141l-190 188l4 46l186 186l33 -38l-177 -172l177 -172zM385 141l-190 188l4 46l186 186l33 -38l-177 -172l177 -172z" />
    <glyph glyph-name="guillemotright.case" horiz-adv-x="443" 
d="M228 561l190 -188l-4 -46l-186 -186l-33 38l177 172l-177 172zM58 561l190 -188l-4 -46l-186 -186l-33 38l177 172l-177 172z" />
    <glyph glyph-name="questiondown.case" horiz-adv-x="469" 
d="M222 396l1 128l46 4l1 -164c-157 -38 -182 -133 -182 -193c0 -83 64 -133 154 -133c56 0 119 13 182 31l11 -48c-64 -20 -128 -31 -185 -31c-131 0 -214 66 -214 180c0 84 56 189 186 226zM246 623c-24 0 -42 18 -42 42s18 42 42 42s42 -18 42 -42s-18 -42 -42 -42z" />
    <glyph glyph-name="exclamdown.case" horiz-adv-x="344" 
d="M149 524l46 4l4 -528h-54zM172 623c-24 0 -42 18 -42 42s18 42 42 42s42 -18 42 -42s-18 -42 -42 -42z" />
    <glyph glyph-name="at.case" horiz-adv-x="1016" 
d="M700 523l-34 -276c-11 -86 16 -119 59 -119c104 0 176 93 176 274c0 219 -126 336 -346 336c-251 0 -440 -155 -440 -493c0 -204 118 -323 336 -323c69 0 135 14 196 40l19 -43c-66 -29 -138 -43 -215 -43c-250 0 -386 136 -386 369c0 368 211 539 490 539
c253 0 396 -133 396 -382c0 -209 -95 -320 -226 -320c-77 0 -110 50 -113 133c-64 -78 -136 -133 -198 -133c-85 0 -125 76 -125 185c0 224 113 309 223 309c55 0 110 -17 188 -53zM646 496c-50 23 -88 34 -134 34c-85 0 -173 -72 -173 -263c0 -82 23 -139 75 -139
c59 0 145 73 208 174z" />
    <glyph glyph-name="zero.sups" unicode="&#x2070;" horiz-adv-x="396" 
d="M87 651c0 -114 48 -156 112 -156c63 0 111 42 111 156c0 112 -48 153 -111 153c-64 0 -112 -41 -112 -153zM40 651c0 143 67 196 159 196c90 0 158 -53 158 -196c0 -145 -68 -199 -158 -199c-92 0 -159 54 -159 199z" />
    <glyph glyph-name="one.sups" unicode="&#xb9;" horiz-adv-x="297" 
d="M174 502h108l-3 -42h-259l3 42h105v290l-108 -41v47l111 42h43v-338z" />
    <glyph glyph-name="two.sups" unicode="&#xb2;" horiz-adv-x="312" 
d="M273 730c0 -73 -68 -136 -192 -228h202l-3 -42h-255l-3 42c137 106 203 167 203 227c0 55 -39 75 -87 75c-33 0 -71 -9 -102 -24l-9 43c36 16 77 24 114 24c72 0 132 -33 132 -117z" />
    <glyph glyph-name="three.sups" unicode="&#xb3;" horiz-adv-x="309" 
d="M91 668h83c29 23 47 47 47 78c0 43 -37 58 -80 58c-31 0 -66 -6 -108 -24l-10 42c41 18 86 25 118 25c70 0 127 -28 127 -99c0 -45 -27 -77 -55 -98c47 -24 67 -60 67 -95c0 -72 -60 -103 -134 -103c-34 0 -85 10 -123 25l10 42c38 -15 88 -24 113 -24c50 0 87 18 87 62
c0 30 -25 54 -56 70h-89z" />
    <glyph glyph-name="four.sups" unicode="&#x2074;" horiz-adv-x="342" 
d="M111 840h47c0 -90 -19 -164 -91 -250h129v99l46 4v-103h86l-4 -42h-82v-88h-46v88h-176l-4 42c63 73 95 143 95 250z" />
    <glyph glyph-name="five.sups" unicode="&#x2075;" horiz-adv-x="304" 
d="M91 797v-124c140 13 191 -28 191 -108c0 -79 -61 -113 -135 -113c-41 0 -84 11 -120 26l10 43c34 -16 73 -26 108 -26c50 0 90 21 90 71c0 45 -28 69 -106 69h-83v205h213l-2 -43h-166z" />
    <glyph glyph-name="six.sups" unicode="&#x2076;" horiz-adv-x="339" 
d="M196 804c-61 0 -110 -39 -115 -154c47 22 88 33 124 33c71 0 114 -40 114 -113c0 -67 -52 -118 -141 -118c-84 0 -144 57 -144 181c0 159 73 214 161 214c32 0 71 -7 106 -20l-12 -41c-33 12 -65 18 -93 18zM202 642c-30 0 -70 -9 -120 -33c6 -82 46 -114 97 -114
c59 0 94 33 94 75c0 48 -28 72 -71 72z" />
    <glyph glyph-name="seven.sups" unicode="&#x2077;" horiz-adv-x="284" 
d="M139 460h-46c0 155 43 251 129 337h-212l4 43h257l3 -43c-105 -111 -135 -202 -135 -337z" />
    <glyph glyph-name="eight.sups" unicode="&#x2078;" horiz-adv-x="350" 
d="M181 847c87 0 131 -43 131 -100c0 -48 -41 -75 -86 -96c51 -22 102 -50 102 -105c0 -57 -50 -94 -147 -94c-98 0 -147 37 -147 94c0 55 51 83 102 105c-45 21 -87 49 -87 96c0 57 45 100 132 100zM181 672c45 18 84 37 84 73c0 35 -29 61 -84 61s-85 -26 -85 -61
c0 -36 39 -55 85 -73zM181 629c-49 -20 -101 -40 -101 -80c0 -35 36 -55 101 -55s101 20 101 55c0 39 -53 61 -101 80z" />
    <glyph glyph-name="nine.sups" unicode="&#x2079;" horiz-adv-x="339" 
d="M156 495c62 0 111 40 115 154c-46 -22 -88 -32 -124 -32c-70 0 -114 40 -114 113c0 67 53 117 141 117c84 0 145 -56 145 -181c0 -158 -73 -214 -161 -214c-32 0 -71 8 -106 21l13 41c32 -12 64 -19 91 -19zM150 657c30 0 70 10 121 34c-7 81 -48 114 -97 114
c-60 0 -94 -33 -94 -76c0 -48 28 -72 70 -72z" />
    <glyph glyph-name="period.sups" horiz-adv-x="154" 
d="M77 527c20 0 35 -15 35 -35c0 -21 -15 -37 -35 -37s-35 16 -35 37c0 20 15 35 35 35z" />
    <glyph glyph-name="comma.sups" horiz-adv-x="154" 
d="M46 540l55 4c23 -67 10 -122 -21 -188l-42 4c31 67 31 113 8 180z" />
    <glyph glyph-name="plus.sups" unicode="&#x207a;" horiz-adv-x="345" 
d="M151 519v111h-121l4 41h117v107l45 3v-110h120l-3 -41h-117v-107z" />
    <glyph glyph-name="minus.sups" unicode="&#x207b;" horiz-adv-x="345" 
d="M34 671h282l-3 -41h-283z" />
    <glyph glyph-name="equal.sups" unicode="&#x207c;" horiz-adv-x="345" 
d="M34 744h282l-3 -42h-283zM34 604h282l-3 -41h-283z" />
    <glyph glyph-name="parenleft.sups" unicode="&#x207d;" horiz-adv-x="201" 
d="M35 650c0 120 53 208 148 252l29 -29c-80 -40 -130 -114 -130 -223c0 -110 50 -184 130 -223l-29 -30c-95 45 -148 133 -148 253z" />
    <glyph glyph-name="parenright.sups" unicode="&#x207e;" horiz-adv-x="201" 
d="M166 650c0 -120 -53 -208 -147 -252l-30 29c80 40 131 113 131 223s-51 184 -131 223l30 30c94 -45 147 -133 147 -253z" />
    <glyph glyph-name="zero.sinf" unicode="&#x2080;" horiz-adv-x="396" 
d="M87 41c0 -114 48 -156 112 -156c63 0 111 42 111 156c0 112 -48 153 -111 153c-64 0 -112 -41 -112 -153zM40 41c0 143 67 196 159 196c90 0 158 -53 158 -196c0 -145 -68 -199 -158 -199c-92 0 -159 54 -159 199z" />
    <glyph glyph-name="one.sinf" unicode="&#x2081;" horiz-adv-x="297" 
d="M174 -108h108l-3 -42h-259l3 42h105v290l-108 -41v47l111 42h43v-338z" />
    <glyph glyph-name="two.sinf" unicode="&#x2082;" horiz-adv-x="312" 
d="M273 120c0 -73 -68 -136 -192 -228h202l-3 -42h-255l-3 42c137 106 203 167 203 227c0 55 -39 75 -87 75c-33 0 -71 -9 -102 -24l-9 43c36 16 77 24 114 24c72 0 132 -33 132 -117z" />
    <glyph glyph-name="three.sinf" unicode="&#x2083;" horiz-adv-x="309" 
d="M91 58h83c29 23 47 47 47 78c0 43 -37 58 -80 58c-31 0 -66 -6 -108 -24l-10 42c41 18 86 25 118 25c70 0 127 -28 127 -99c0 -45 -27 -77 -55 -98c47 -24 67 -60 67 -95c0 -72 -60 -103 -134 -103c-34 0 -85 10 -123 25l10 42c38 -15 88 -24 113 -24c50 0 87 18 87 62
c0 30 -25 54 -56 70h-89z" />
    <glyph glyph-name="four.sinf" unicode="&#x2084;" horiz-adv-x="342" 
d="M111 230h47c0 -90 -19 -164 -91 -250h129v99l46 4v-103h86l-4 -42h-82v-88h-46v88h-176l-4 42c63 73 95 143 95 250z" />
    <glyph glyph-name="five.sinf" unicode="&#x2085;" horiz-adv-x="304" 
d="M91 187v-124c140 13 191 -28 191 -108c0 -79 -61 -113 -135 -113c-41 0 -84 11 -120 26l10 43c34 -16 73 -26 108 -26c50 0 90 21 90 71c0 45 -28 69 -106 69h-83v205h213l-2 -43h-166z" />
    <glyph glyph-name="six.sinf" unicode="&#x2086;" horiz-adv-x="339" 
d="M196 194c-61 0 -110 -39 -115 -154c47 22 88 33 124 33c71 0 114 -40 114 -113c0 -67 -52 -118 -141 -118c-84 0 -144 57 -144 181c0 159 73 214 161 214c32 0 71 -7 106 -20l-12 -41c-33 12 -65 18 -93 18zM202 32c-30 0 -70 -9 -120 -33c6 -81 46 -114 97 -114
c59 0 94 33 94 75c0 48 -28 72 -71 72z" />
    <glyph glyph-name="seven.sinf" unicode="&#x2087;" horiz-adv-x="284" 
d="M139 -150h-46c0 155 43 251 129 337h-212l4 43h257l3 -43c-105 -111 -135 -202 -135 -337z" />
    <glyph glyph-name="eight.sinf" unicode="&#x2088;" horiz-adv-x="350" 
d="M181 237c87 0 131 -43 131 -100c0 -48 -41 -75 -86 -96c51 -22 102 -50 102 -105c0 -57 -50 -94 -147 -94c-98 0 -147 37 -147 94c0 55 51 83 102 105c-45 21 -87 49 -87 96c0 57 45 100 132 100zM181 62c45 18 84 37 84 73c0 35 -29 61 -84 61s-85 -26 -85 -61
c0 -36 39 -55 85 -73zM181 19c-49 -20 -101 -40 -101 -80c0 -35 36 -55 101 -55s101 20 101 55c0 39 -53 61 -101 80z" />
    <glyph glyph-name="nine.sinf" unicode="&#x2089;" horiz-adv-x="339" 
d="M156 -115c62 0 111 40 115 154c-46 -22 -88 -32 -124 -32c-70 0 -114 40 -114 113c0 67 53 117 141 117c84 0 145 -56 145 -181c0 -158 -73 -214 -161 -214c-32 0 -71 8 -106 21l13 41c32 -12 64 -19 91 -19zM150 47c30 0 70 10 121 34c-7 81 -48 114 -97 114
c-60 0 -94 -33 -94 -76c0 -48 28 -72 70 -72z" />
    <glyph glyph-name="period.sinf" horiz-adv-x="154" 
d="M77 -83c20 0 35 -15 35 -35c0 -21 -15 -37 -35 -37s-35 16 -35 37c0 20 15 35 35 35z" />
    <glyph glyph-name="comma.sinf" horiz-adv-x="154" 
d="M46 -70l55 4c23 -67 10 -122 -21 -188l-42 4c31 67 31 113 8 180z" />
    <glyph glyph-name="plus.sinf" horiz-adv-x="345" 
d="M151 -91v111h-121l4 41h117v107l45 3v-110h120l-3 -41h-117v-107z" />
    <glyph glyph-name="minus.sinf" horiz-adv-x="345" 
d="M34 61h282l-3 -41h-283z" />
    <glyph glyph-name="equal.sinf" horiz-adv-x="345" 
d="M34 134h282l-3 -42h-283zM34 -6h282l-3 -41h-283z" />
    <glyph glyph-name="parenleft.sinf" unicode="&#x208d;" horiz-adv-x="201" 
d="M35 40c0 120 53 208 148 252l29 -29c-80 -40 -130 -114 -130 -223c0 -110 50 -184 130 -223l-29 -30c-95 45 -148 133 -148 253z" />
    <glyph glyph-name="parenright.sinf" unicode="&#x208e;" horiz-adv-x="201" 
d="M166 40c0 -120 -53 -208 -147 -252l-30 29c80 40 131 113 131 223s-51 184 -131 223l30 30c94 -45 147 -133 147 -253z" />
    <glyph glyph-name="zero.numr" horiz-adv-x="396" 
d="M87 513c0 -114 48 -156 112 -156c63 0 111 42 111 156c0 112 -48 153 -111 153c-64 0 -112 -41 -112 -153zM40 513c0 143 67 196 159 196c90 0 158 -53 158 -196c0 -145 -68 -199 -158 -199c-92 0 -159 54 -159 199z" />
    <glyph glyph-name="one.numr" horiz-adv-x="297" 
d="M174 364h108l-3 -42h-259l3 42h105v290l-108 -41v47l111 42h43v-338z" />
    <glyph glyph-name="two.numr" horiz-adv-x="312" 
d="M273 592c0 -73 -68 -136 -192 -228h202l-3 -42h-255l-3 42c137 106 203 167 203 227c0 55 -39 75 -87 75c-33 0 -71 -9 -102 -24l-9 43c36 16 77 24 114 24c72 0 132 -33 132 -117z" />
    <glyph glyph-name="three.numr" horiz-adv-x="309" 
d="M91 530h83c29 23 47 47 47 78c0 43 -37 58 -80 58c-31 0 -66 -6 -108 -24l-10 42c41 18 86 25 118 25c70 0 127 -28 127 -99c0 -45 -27 -77 -55 -98c47 -24 67 -60 67 -95c0 -72 -60 -103 -134 -103c-34 0 -85 10 -123 25l10 42c38 -15 88 -24 113 -24c50 0 87 18 87 62
c0 30 -25 54 -56 70h-89z" />
    <glyph glyph-name="four.numr" horiz-adv-x="342" 
d="M111 702h47c0 -90 -19 -164 -91 -250h129v99l46 4v-103h86l-4 -42h-82v-88h-46v88h-176l-4 42c63 73 95 143 95 250z" />
    <glyph glyph-name="five.numr" horiz-adv-x="304" 
d="M91 659v-124c140 13 191 -28 191 -108c0 -79 -61 -113 -135 -113c-41 0 -84 11 -120 26l10 43c34 -16 73 -26 108 -26c50 0 90 21 90 71c0 45 -28 69 -106 69h-83v205h213l-2 -43h-166z" />
    <glyph glyph-name="six.numr" horiz-adv-x="339" 
d="M196 666c-61 0 -110 -39 -115 -154c47 22 88 33 124 33c71 0 114 -40 114 -113c0 -67 -52 -118 -141 -118c-84 0 -144 57 -144 181c0 159 73 214 161 214c32 0 71 -7 106 -20l-12 -41c-33 12 -65 18 -93 18zM202 504c-30 0 -70 -9 -120 -33c6 -82 46 -114 97 -114
c59 0 94 33 94 75c0 48 -28 72 -71 72z" />
    <glyph glyph-name="seven.numr" horiz-adv-x="284" 
d="M139 322h-46c0 155 43 251 129 337h-212l4 43h257l3 -43c-105 -111 -135 -202 -135 -337z" />
    <glyph glyph-name="eight.numr" horiz-adv-x="350" 
d="M181 709c87 0 131 -43 131 -100c0 -48 -41 -75 -86 -96c51 -22 102 -50 102 -105c0 -57 -50 -94 -147 -94c-98 0 -147 37 -147 94c0 55 51 83 102 105c-45 21 -87 49 -87 96c0 57 45 100 132 100zM181 534c45 18 84 37 84 73c0 35 -29 61 -84 61s-85 -26 -85 -61
c0 -36 39 -55 85 -73zM181 491c-49 -20 -101 -40 -101 -80c0 -35 36 -55 101 -55s101 20 101 55c0 39 -53 61 -101 80z" />
    <glyph glyph-name="nine.numr" horiz-adv-x="339" 
d="M156 357c62 0 111 40 115 154c-46 -22 -88 -32 -124 -32c-70 0 -114 40 -114 113c0 67 53 117 141 117c84 0 145 -56 145 -181c0 -158 -73 -214 -161 -214c-32 0 -71 8 -106 21l13 41c32 -12 64 -19 91 -19zM150 519c30 0 70 10 121 34c-7 81 -48 114 -97 114
c-60 0 -94 -33 -94 -76c0 -48 28 -72 70 -72z" />
    <glyph glyph-name="zero.dnom" horiz-adv-x="396" 
d="M87 191c0 -114 48 -156 112 -156c63 0 111 42 111 156c0 112 -48 153 -111 153c-64 0 -112 -41 -112 -153zM40 191c0 143 67 196 159 196c90 0 158 -53 158 -196c0 -145 -68 -199 -158 -199c-92 0 -159 54 -159 199z" />
    <glyph glyph-name="one.dnom" horiz-adv-x="297" 
d="M174 42h108l-3 -42h-259l3 42h105v290l-108 -41v47l111 42h43v-338z" />
    <glyph glyph-name="two.dnom" horiz-adv-x="312" 
d="M273 270c0 -73 -68 -136 -192 -228h202l-3 -42h-255l-3 42c137 106 203 167 203 227c0 55 -39 75 -87 75c-33 0 -71 -9 -102 -24l-9 43c36 16 77 24 114 24c72 0 132 -33 132 -117z" />
    <glyph glyph-name="three.dnom" horiz-adv-x="309" 
d="M91 208h83c29 23 47 47 47 78c0 43 -37 58 -80 58c-31 0 -66 -6 -108 -24l-10 42c41 18 86 25 118 25c70 0 127 -28 127 -99c0 -45 -27 -77 -55 -98c47 -24 67 -60 67 -95c0 -72 -60 -103 -134 -103c-34 0 -85 10 -123 25l10 42c38 -15 88 -24 113 -24c50 0 87 18 87 62
c0 30 -25 54 -56 70h-89z" />
    <glyph glyph-name="four.dnom" horiz-adv-x="342" 
d="M111 380h47c0 -90 -19 -164 -91 -250h129v99l46 4v-103h86l-4 -42h-82v-88h-46v88h-176l-4 42c63 73 95 143 95 250z" />
    <glyph glyph-name="five.dnom" horiz-adv-x="304" 
d="M91 337v-124c140 13 191 -28 191 -108c0 -79 -61 -113 -135 -113c-41 0 -84 11 -120 26l10 43c34 -16 73 -26 108 -26c50 0 90 21 90 71c0 45 -28 69 -106 69h-83v205h213l-2 -43h-166z" />
    <glyph glyph-name="six.dnom" horiz-adv-x="339" 
d="M196 344c-61 0 -110 -39 -115 -154c47 22 88 33 124 33c71 0 114 -40 114 -113c0 -67 -52 -118 -141 -118c-84 0 -144 57 -144 181c0 159 73 214 161 214c32 0 71 -7 106 -20l-12 -41c-33 12 -65 18 -93 18zM202 182c-30 0 -70 -9 -120 -33c6 -82 46 -114 97 -114
c59 0 94 33 94 75c0 48 -28 72 -71 72z" />
    <glyph glyph-name="seven.dnom" horiz-adv-x="284" 
d="M139 0h-46c0 155 43 251 129 337h-212l4 43h257l3 -43c-105 -111 -135 -202 -135 -337z" />
    <glyph glyph-name="eight.dnom" horiz-adv-x="350" 
d="M181 387c87 0 131 -43 131 -100c0 -48 -41 -75 -86 -96c51 -22 102 -50 102 -105c0 -57 -50 -94 -147 -94c-98 0 -147 37 -147 94c0 55 51 83 102 105c-45 21 -87 49 -87 96c0 57 45 100 132 100zM181 212c45 18 84 37 84 73c0 35 -29 61 -84 61s-85 -26 -85 -61
c0 -36 39 -55 85 -73zM181 169c-49 -20 -101 -40 -101 -80c0 -35 36 -55 101 -55s101 20 101 55c0 39 -53 61 -101 80z" />
    <glyph glyph-name="nine.dnom" horiz-adv-x="339" 
d="M156 35c62 0 111 40 115 154c-46 -22 -88 -32 -124 -32c-70 0 -114 40 -114 113c0 67 53 117 141 117c84 0 145 -56 145 -181c0 -158 -73 -214 -161 -214c-32 0 -71 8 -106 21l13 41c32 -12 64 -19 91 -19zM150 197c30 0 70 10 121 34c-7 81 -48 114 -97 114
c-60 0 -94 -33 -94 -76c0 -48 28 -72 70 -72z" />
    <glyph glyph-name="onequarter" unicode="&#xbc;" horiz-adv-x="736" 
d="M179 364h108l-3 -42h-259l3 42h105v290l-108 -41v47l111 42h43v-338zM142 0l426 702h53l-425 -702h-54zM494 380h47c0 -90 -19 -164 -91 -250h129v99l46 4v-103h86l-4 -42h-82v-88h-46v88h-176l-4 42c63 73 95 143 95 250z" />
    <glyph glyph-name="onehalf" unicode="&#xbd;" horiz-adv-x="742" 
d="M179 364h108l-3 -42h-259l3 42h105v290l-108 -41v47l111 42h43v-338zM142 0l426 702h53l-425 -702h-54zM707 270c0 -73 -68 -136 -192 -228h202l-3 -42h-255l-3 42c137 106 203 167 203 227c0 55 -39 75 -87 75c-33 0 -71 -9 -102 -24l-9 43c36 16 77 24 114 24
c72 0 132 -33 132 -117z" />
    <glyph glyph-name="threequarters" unicode="&#xbe;" horiz-adv-x="717" 
d="M93 530h83c29 23 47 47 47 78c0 43 -37 58 -80 58c-31 0 -66 -6 -108 -24l-10 42c41 18 86 25 118 25c70 0 127 -28 127 -99c0 -45 -27 -77 -55 -98c47 -24 67 -60 67 -95c0 -72 -60 -103 -134 -103c-34 0 -85 10 -123 25l10 42c38 -15 88 -24 113 -24c50 0 87 18 87 62
c0 30 -25 54 -56 70h-89zM114 0l426 702h53l-425 -702h-54zM475 380h47c0 -90 -19 -164 -91 -250h129v99l46 4v-103h86l-4 -42h-82v-88h-46v88h-176l-4 42c63 73 95 143 95 250z" />
    <glyph glyph-name="oneeighth" unicode="&#x215b;" horiz-adv-x="755" 
d="M179 364h108l-3 -42h-259l3 42h105v290l-108 -41v47l111 42h43v-338zM142 0l426 702h53l-425 -702h-54zM583 387c87 0 131 -43 131 -100c0 -48 -41 -75 -86 -96c51 -22 102 -50 102 -105c0 -57 -50 -94 -147 -94c-98 0 -147 37 -147 94c0 55 51 83 102 105
c-45 21 -87 49 -87 96c0 57 45 100 132 100zM583 212c45 18 84 37 84 73c0 35 -29 61 -84 61s-85 -26 -85 -61c0 -36 39 -55 85 -73zM583 169c-49 -20 -101 -40 -101 -80c0 -35 36 -55 101 -55s101 20 101 55c0 39 -53 61 -101 80z" />
    <glyph glyph-name="threeeighths" unicode="&#x215c;" horiz-adv-x="727" 
d="M93 530h83c29 23 47 47 47 78c0 43 -37 58 -80 58c-31 0 -66 -6 -108 -24l-10 42c41 18 86 25 118 25c70 0 127 -28 127 -99c0 -45 -27 -77 -55 -98c47 -24 67 -60 67 -95c0 -72 -60 -103 -134 -103c-34 0 -85 10 -123 25l10 42c38 -15 88 -24 113 -24c50 0 87 18 87 62
c0 30 -25 54 -56 70h-89zM114 0l426 702h53l-425 -702h-54zM555 387c87 0 131 -43 131 -100c0 -48 -41 -75 -86 -96c51 -22 102 -50 102 -105c0 -57 -50 -94 -147 -94c-98 0 -147 37 -147 94c0 55 51 83 102 105c-45 21 -87 49 -87 96c0 57 45 100 132 100zM555 212
c45 18 84 37 84 73c0 35 -29 61 -84 61s-85 -26 -85 -61c0 -36 39 -55 85 -73zM555 169c-49 -20 -101 -40 -101 -80c0 -35 36 -55 101 -55s101 20 101 55c0 39 -53 61 -101 80z" />
    <glyph glyph-name="fiveeighths" unicode="&#x215d;" horiz-adv-x="713" 
d="M89 659v-124c140 13 191 -28 191 -108c0 -79 -61 -113 -135 -113c-41 0 -84 11 -120 26l10 43c34 -16 73 -26 108 -26c50 0 90 21 90 71c0 45 -28 69 -106 69h-83v205h213l-2 -43h-166zM100 0l426 702h53l-425 -702h-54zM541 387c87 0 131 -43 131 -100
c0 -48 -41 -75 -86 -96c51 -22 102 -50 102 -105c0 -57 -50 -94 -147 -94c-98 0 -147 37 -147 94c0 55 51 83 102 105c-45 21 -87 49 -87 96c0 57 45 100 132 100zM541 212c45 18 84 37 84 73c0 35 -29 61 -84 61s-85 -26 -85 -61c0 -36 39 -55 85 -73zM541 169
c-49 -20 -101 -40 -101 -80c0 -35 36 -55 101 -55s101 20 101 55c0 39 -53 61 -101 80z" />
    </font>
</defs>
</svg>
