<?xml version="1.0" standalone="no"?>
<!DOCTYPE svg PUBLIC "-//W3C//DTD SVG 1.1//EN" "http://www.w3.org/Graphics/SVG/1.1/DTD/svg11.dtd" >
<svg xmlns="http://www.w3.org/2000/svg">
<metadata></metadata>
<defs>
<font id="gloriolasemibold" horiz-adv-x="1157" >
<font-face units-per-em="2048" ascent="1552" descent="-496" />
<missing-glyph horiz-adv-x="501" />
<glyph unicode="&#xfb01;" horiz-adv-x="1247" d="M184 999v162q0 391 326 391q92 0 223 -32l-22 -242q-78 20 -131 20q-61 0 -85 -40t-24 -125v-134h662v-999h-287v745h-375v-745h-287v745h-155l16 254h139zM989 1446q71 0 117.5 -47t46.5 -117t-46.5 -117t-117.5 -47t-117.5 47t-46.5 117t46.5 117t117.5 47z" />
<glyph unicode="&#xfb02;" horiz-adv-x="1355" d="M184 999v162q0 215 114.5 303t360.5 88q193 0 474 -34v-1205q0 -63 48 -72.5t148 19.5l23 -242q-139 -38 -254 -38q-109 0 -180.5 68t-71.5 206v1032q-114 12 -178 12q-110 0 -153.5 -40t-43.5 -134v-125h234l-17 -254h-217v-745h-287v745h-155l16 254h139z" />
<glyph unicode="&#xfb03;" horiz-adv-x="1908" d="M184 999v162q0 391 344 391q100 0 236 -32l-23 -242q-88 20 -147 20q-69 0 -96 -39.5t-27 -125.5v-134h375v162q0 67 9 122t31.5 106.5t58.5 86t93.5 55.5t132.5 21q93 0 224 -32l-23 -242q-78 20 -131 20q-62 0 -85 -39.5t-23 -125.5v-134h659v-999h-287v745h-372v-745 h-287v745h-375v-745h-287v745h-155l16 254h139zM1649 1446q70 0 116.5 -46.5t46.5 -117.5t-46.5 -117.5t-116.5 -46.5q-71 0 -117.5 47t-46.5 117t46.5 117t117.5 47z" />
<glyph unicode="&#xfb04;" horiz-adv-x="2015" d="M1505 1286q-111 12 -178 12q-108 0 -151 -40t-43 -134v-125h233l-18 -254h-215v-745h-287v745h-375v-745h-287v745h-155l16 254h139v162q0 391 344 391q100 0 236 -32l-23 -242q-88 20 -147 20q-69 0 -96 -39.5t-27 -125.5v-134h375v162q0 215 113.5 303t359.5 88 q195 0 473 -34v-1205q0 -63 49 -72.5t150 19.5l22 -242q-142 -38 -254 -38q-110 0 -182 68t-72 206v1032z" />
<glyph horiz-adv-x="0" />
<glyph horiz-adv-x="682" />
<glyph unicode=" "  horiz-adv-x="501" />
<glyph unicode="&#x09;" horiz-adv-x="501" />
<glyph unicode="&#xa0;" horiz-adv-x="501" />
<glyph unicode="!" horiz-adv-x="714" d="M500 453l-285 -19l-18 1004h319zM356 313q72 0 119 -47t47 -119q0 -71 -47 -118t-119 -47q-71 0 -118.5 47.5t-47.5 117.5q0 72 47.5 119t118.5 47z" />
<glyph unicode="&#x22;" horiz-adv-x="782" d="M63 1438h277l-35 -613h-207zM442 1438h275l-33 -613h-207z" />
<glyph unicode="#" horiz-adv-x="1132" d="M82 1110h192l74 332l252 -8l-72 -324h236l72 332l251 -8l-69 -324h131l-19 -254h-163l-62 -272h160l-18 -254h-193l-74 -334l-252 8l72 326h-235l-72 -334l-252 8l70 326h-131l18 254h164l61 272h-157zM477 856l-61 -272h235l62 272h-236z" />
<glyph unicode="$" horiz-adv-x="1187" d="M717 1688v-234q199 -13 350 -70l-55 -282q-95 31 -215.5 51.5t-214.5 20.5q-91 0 -135.5 -51t-34.5 -124q3 -26 35.5 -48.5t82.5 -39t113.5 -38.5t128.5 -45t127.5 -61t111 -83.5t78 -115t29.5 -154.5q0 -183 -100.5 -290.5t-300.5 -133.5v-223l-240 -17v234 q-202 13 -356 71l55 283q95 -32 215.5 -52t216.5 -20q93 0 138 51t36 127q-4 29 -45 53.5t-103.5 45t-137.5 44.5t-149 61t-135.5 84.5t-99.5 123.5t-38 172q0 368 403 420v223z" />
<glyph unicode="%" horiz-adv-x="1644" d="M1153 399q0 -243 117 -243q119 0 119 243q0 242 -119 242q-117 0 -117 -242zM942 399q0 213 88 311.5t240 98.5q329 0 329 -410q0 -411 -329 -411q-152 0 -240 98t-88 313zM330 0l760 1438h221l-758 -1438h-223zM254 1040q0 -243 117 -243q118 0 118 243q0 242 -118 242 q-117 0 -117 -242zM43 1040q0 213 88 311.5t240 98.5q329 0 329 -410q0 -411 -329 -411q-152 0 -240 98t-88 313z" />
<glyph unicode="&#x26;" horiz-adv-x="1388" d="M1393 219l-152 -237q-109 68 -235 159q-199 -161 -459 -161q-231 0 -350 108.5t-119 290.5q0 119 62.5 201.5t178.5 156.5q-167 194 -167 322q0 176 126.5 287.5t329.5 111.5q195 0 322 -103t127 -270q0 -56 -17.5 -105t-43 -84t-71.5 -71.5t-85 -61t-101 -58.5 q102 -91 236 -195q53 69 139 215l254 -121q-87 -151 -168 -256zM494 557q-105 -87 -105 -178q0 -59 44 -101t122 -42q113 0 219 77q-156 123 -280 244zM743 1075q0 53 -38 83t-97 30q-64 0 -103.5 -36t-39.5 -93q0 -72 100 -189q178 107 178 205z" />
<glyph unicode="'" horiz-adv-x="403" d="M63 1438h277l-35 -613h-207z" />
<glyph unicode="(" horiz-adv-x="770" d="M100 776q0 358 135.5 619.5t380.5 398.5l193 -172q-217 -148 -319.5 -353.5t-102.5 -492.5t102.5 -492.5t319.5 -353.5l-193 -172q-245 137 -380.5 399t-135.5 619z" />
<glyph unicode=")" horiz-adv-x="770" d="M670 776q0 -357 -135.5 -619t-380.5 -399l-193 172q218 147 320 352.5t102 493.5t-102 493.5t-320 352.5l193 172q245 -137 380.5 -398.5t135.5 -619.5z" />
<glyph unicode="*" horiz-adv-x="1040" d="M49 1024l70 272l287 -129l-33 297l280 19l-32 -309l268 120l102 -262l-301 -63l199 -219l-217 -179l-158 277l-152 -264l-237 149l209 232z" />
<glyph unicode="+" horiz-adv-x="1132" d="M422 188v404h-385l16 254h369v387l287 16v-403h387l-17 -254h-370v-385z" />
<glyph unicode="," horiz-adv-x="512" d="M98 301l281 25q40 -112 40 -226.5t-28 -215t-84 -226.5l-235 25q77 174 82.5 310t-56.5 308z" />
<glyph unicode="-" horiz-adv-x="651" d="M82 627h504l-17 -254h-506z" />
<glyph unicode="." horiz-adv-x="512" d="M256 313q71 0 118.5 -47t47.5 -119q0 -70 -47.5 -117.5t-118.5 -47.5q-72 0 -119 47t-47 118q0 72 47 119t119 47z" />
<glyph unicode="/" horiz-adv-x="733" d="M580 1716l251 -8l-679 -1872l-252 8z" />
<glyph unicode="0" horiz-adv-x="1378" d="M428 719q0 -453 262 -453q258 0 258 453q0 126 -20 217t-56.5 141.5t-81 73.5t-100.5 23q-45 0 -82.5 -13.5t-71.5 -46.5t-57.5 -84t-37 -130t-13.5 -181zM94 719q0 197 43.5 342t124.5 230.5t187 126t241 40.5q106 0 194.5 -25t163 -80.5t126 -140.5t80 -209.5 t28.5 -283.5t-28.5 -283.5t-80 -209.5t-126 -140.5t-163 -80.5t-194.5 -25q-135 0 -241 40.5t-187 126t-124.5 230.5t-43.5 342z" />
<glyph unicode="1" horiz-adv-x="782" d="M666 0h-318v1104l-319 -127v309l381 152h256v-1438z" />
<glyph unicode="2" horiz-adv-x="1118" d="M999 987q0 -337 -522 -700h572l-17 -287h-964l-17 287q323 233 476 399t153 301q0 187 -219 187q-133 0 -352 -72l-56 282q257 74 449 74q88 0 161 -15t136 -50t106.5 -88.5t68.5 -134t25 -183.5z" />
<glyph unicode="3" horiz-adv-x="1105" d="M336 860h244q96 67 96 168q0 68 -54.5 107t-160.5 39q-131 0 -350 -72l-56 282q250 74 447 74q109 0 197 -21.5t156 -66t105 -120t37 -177.5q0 -212 -200 -344q241 -129 241 -360q0 -194 -147.5 -291.5t-392.5 -97.5t-449 75l55 283q213 -72 377 -72q115 0 175.5 37.5 t60.5 110.5q0 96 -101 159h-299z" />
<glyph unicode="4" horiz-adv-x="1183" d="M301 1438h317q0 -273 -68.5 -469t-219.5 -402h309v297l317 19v-316h201l-18 -286h-183v-281h-317v281h-594l-16 286q144 193 208 401t64 470z" />
<glyph unicode="5" horiz-adv-x="1087" d="M418 1153v-309q160 27 276.5 10t193 -75t113.5 -144t37 -199q0 -219 -136 -337.5t-402 -118.5q-226 0 -430 75l55 283q213 -72 358 -72q113 0 175.5 49t62.5 134q0 83 -57 123t-181 40h-352v826h832l-17 -285h-528z" />
<glyph unicode="6" horiz-adv-x="1222" d="M733 1174q-139 0 -213 -83.5t-92 -283.5q171 88 330 88q182 0 299 -113.5t117 -337.5q0 -210 -143 -337t-392 -127q-123 0 -222 41t-173 122.5t-114 212t-40 301.5q0 173 30.5 309t84.5 227.5t133 151.5t171 86.5t202 26.5q195 0 391 -57l-58 -283q-123 34 -180.5 45 t-130.5 11zM680 643q-97 0 -254 -65q11 -178 66.5 -253t148.5 -75q99 0 157 58t58 149q0 88 -44 137t-132 49z" />
<glyph unicode="7" horiz-adv-x="1001" d="M559 0h-319q0 372 112 645.5t340 507.5h-684l17 285h952l16 -285q-237 -288 -335.5 -549t-98.5 -604z" />
<glyph unicode="8" horiz-adv-x="1230" d="M614 1458q123 0 221.5 -31.5t159.5 -84.5t93 -120.5t32 -142.5q0 -114 -60 -196t-175 -148q276 -138 276 -373q0 -189 -145 -285.5t-402 -96.5q-256 0 -400 96.5t-144 285.5q0 235 276 373q-115 66 -175 148t-60 196q0 75 32 142.5t92.5 120.5t158 84.5t220.5 31.5z M614 854q90 33 138.5 87.5t48.5 107.5q0 59 -46.5 99t-140.5 40t-140 -40t-46 -99q0 -53 48.5 -107t137.5 -88zM614 612q-109 -42 -168 -102t-59 -117q0 -67 58 -105t169 -38q112 0 170 38t58 105q0 57 -59.5 117t-168.5 102z" />
<glyph unicode="9" horiz-adv-x="1222" d="M489 266q140 0 213.5 81.5t90.5 281.5q-164 -86 -328 -86q-87 0 -161 27t-132 80t-90.5 141t-32.5 202q0 210 143 337.5t392 127.5q123 0 222 -41t173 -123t114 -212.5t40 -301.5q0 -173 -30.5 -309t-84.5 -227t-133 -151t-171 -86.5t-202 -26.5q-199 0 -391 59l57 280 q123 -32 180.5 -42.5t130.5 -10.5zM543 797q108 0 252 61q-10 179 -65 254.5t-148 75.5q-99 0 -157 -58t-58 -149q0 -87 44 -135.5t132 -48.5z" />
<glyph unicode=":" horiz-adv-x="512" d="M256 313q71 0 118.5 -47t47.5 -119q0 -70 -47.5 -117.5t-118.5 -47.5q-72 0 -119 47t-47 118q0 72 47 119t119 47zM256 1016q71 0 118.5 -47t47.5 -119q0 -70 -48 -118t-118 -48q-72 0 -119 47.5t-47 118.5q0 72 47 119t119 47z" />
<glyph unicode=";" horiz-adv-x="512" d="M98 301l281 25q40 -112 40 -226.5t-28 -215t-84 -226.5l-235 25q77 174 82.5 310t-56.5 308zM227 1016q72 0 119 -47t47 -119q0 -71 -47 -118.5t-119 -47.5q-71 0 -118.5 48t-47.5 118q0 72 47.5 119t118.5 47z" />
<glyph unicode="&#x3c;" horiz-adv-x="1132" d="M973 178l-905 418l16 254l889 412l94 -238l-702 -305l702 -305z" />
<glyph unicode="=" horiz-adv-x="1132" d="M53 1147h1043l-17 -254h-1042zM53 547h1043l-17 -254h-1042z" />
<glyph unicode="&#x3e;" horiz-adv-x="1132" d="M160 1262l905 -418l-16 -254l-889 -412l-94 236l700 305l-700 305z" />
<glyph unicode="?" horiz-adv-x="1038" d="M649 655l-4 -202l-285 -19l-6 365q161 26 238.5 91.5t77.5 137.5q0 68 -54 107t-157 39q-133 0 -355 -68l-55 283q250 69 447 69q107 0 194.5 -21.5t156 -66t106.5 -120t38 -177.5q0 -130 -85.5 -242.5t-256.5 -175.5zM504 313q71 0 118.5 -47t47.5 -119 q0 -70 -47.5 -117.5t-118.5 -47.5q-72 0 -119 47t-47 118q0 72 47 119t119 47z" />
<glyph unicode="@" horiz-adv-x="2035" d="M1487 850l-66 -547q-6 -88 58 -88q94 0 146 111t52 309q0 266 -147.5 405.5t-415.5 139.5q-164 0 -299 -51t-239 -153.5t-162 -271.5t-58 -391q0 -254 141.5 -386t403.5 -132q177 0 348 74l92 -223q-201 -88 -440 -88q-384 0 -595.5 198.5t-211.5 556.5q0 221 51.5 403.5 t143 311.5t220 217t280.5 130t325 42q392 0 608.5 -201.5t216.5 -580.5q0 -315 -132 -485t-361 -170q-196 0 -236 198q-89 -94 -191 -146t-194 -52q-99 0 -167.5 53.5t-99 139t-30.5 196.5q0 287 142.5 454.5t369.5 167.5q236 0 447 -141zM1194 690q-81 47 -166 47 q-94 0 -155.5 -83t-61.5 -251q0 -161 82 -161q49 0 124 58.5t148 158.5z" />
<glyph unicode="A" horiz-adv-x="1347" d="M846 559l-174 608l-172 -608h346zM920 274h-492l-78 -274h-330l431 1430l438 16l438 -1446h-330z" />
<glyph unicode="B" horiz-adv-x="1253" d="M115 23v1415h620q187 0 294.5 -104.5t107.5 -258.5q0 -114 -50 -196.5t-147 -147.5q244 -131 244 -362q0 -193 -154.5 -291t-435.5 -98q-231 0 -479 43zM762 573h-328v-292q103 -15 182 -15q118 0 183 39.5t65 108.5q0 96 -102 159zM434 860h287q96 69 96 170 q0 54 -35 88.5t-98 34.5h-250v-293z" />
<glyph unicode="C" horiz-adv-x="1224" d="M778 1174q-83 0 -145 -23t-109.5 -74.5t-71.5 -141t-24 -216.5t24 -216.5t71.5 -140.5t109.5 -73.5t145 -22.5q80 0 144.5 11t179.5 42l55 -282q-199 -57 -401 -57q-114 0 -210.5 23.5t-181.5 78.5t-143.5 139t-92.5 210.5t-34 287.5t34 287.5t92.5 210.5t143.5 139 t181.5 78.5t210.5 23.5q202 0 401 -57l-55 -283q-122 33 -184.5 44.5t-139.5 11.5z" />
<glyph unicode="D" horiz-adv-x="1411" d="M653 1438q316 0 489 -177.5t173 -543.5q0 -365 -190 -551t-543 -186q-233 0 -467 57v1401h538zM649 1153h-215v-872q76 -15 178 -15q178 0 273.5 113.5t95.5 331.5q0 226 -86.5 334t-245.5 108z" />
<glyph unicode="E" horiz-adv-x="1134" d="M115 0v1438h950l-16 -285h-615v-293h514l-18 -287h-496v-286h631l-16 -287h-934z" />
<glyph unicode="F" horiz-adv-x="1089" d="M434 506v-506h-319v1438h950l-16 -285h-615v-362h514l-18 -285h-496z" />
<glyph unicode="G" horiz-adv-x="1370" d="M799 1174q-87 0 -153.5 -24.5t-116 -77t-75.5 -141.5t-26 -212q0 -244 88.5 -348.5t265.5 -104.5q88 0 154 19v235h-236l19 287h536v-737q-251 -90 -487 -90q-120 0 -219.5 24t-185 79t-144 139t-92 210t-33.5 287t35 287.5t96 210.5t148.5 139t186.5 78.5t216 23.5 q211 0 416 -57l-55 -283q-192 56 -338 56z" />
<glyph unicode="H" horiz-adv-x="1380" d="M115 1438h319v-578h512v578h318v-1438h-318v573h-512v-573h-319v1438z" />
<glyph unicode="I" horiz-adv-x="548" d="M115 1438h319v-1438h-319v1438z" />
<glyph unicode="J" horiz-adv-x="600" d="M166 1438h319v-1188q0 -190 -67.5 -316t-224.5 -253l-242 186q111 95 163 184t52 199v1188z" />
<glyph unicode="K" horiz-adv-x="1300" d="M918 -8l-484 622v-614h-319v1438h319v-617l484 625l362 -16l-557 -699l575 -723z" />
<glyph unicode="L" horiz-adv-x="1073" d="M115 1438h319v-1151h590l-16 -287h-893v1438z" />
<glyph unicode="M" horiz-adv-x="1875" d="M772 -8l-297 1067l-117 -1059h-309l205 1430l393 16l289 -1045l283 1029l393 16l215 -1446h-314l-116 1061l-291 -1053z" />
<glyph unicode="N" horiz-adv-x="1380" d="M426 889v-889h-311v1430l297 16l542 -897v889h310v-1430l-295 -16z" />
<glyph unicode="O" horiz-adv-x="1521" d="M428 719q0 -243 85 -348t249 -105q79 0 138.5 23.5t104 75.5t67 141t22.5 213q0 243 -85 349t-247 106q-80 0 -140 -24t-104.5 -76.5t-67 -141t-22.5 -213.5zM94 719q0 739 668 739q665 0 665 -739t-665 -739q-668 0 -668 739z" />
<glyph unicode="P" horiz-adv-x="1218" d="M434 1153v-426q78 -12 135 -12q121 0 194 55.5t73 171.5q0 107 -67 159t-204 52h-131zM434 440v-440h-319v1438h483q270 0 420.5 -125t150.5 -375q0 -164 -76 -281t-204.5 -173t-296.5 -56q-60 0 -158 12z" />
<glyph unicode="Q" horiz-adv-x="1521" d="M94 719q0 739 668 739q665 0 665 -739q0 -503 -305 -662q27 -89 61 -127.5t87 -38.5q27 0 137 31l37 -260q-148 -41 -264 -41q-129 0 -215 83t-138 278q-11 0 -32 -1t-33 -1q-668 0 -668 739zM428 719q0 -243 85 -348t249 -105q79 0 138.5 23.5t104 75.5t67 141t22.5 213 q0 243 -85 349t-247 106q-80 0 -140 -24t-104.5 -76.5t-67 -141t-22.5 -213.5z" />
<glyph unicode="R" horiz-adv-x="1269" d="M434 475v-475h-319v1438h465q271 0 422 -122t151 -364q0 -275 -219 -405l293 -539l-367 -16l-229 473h-41q-78 0 -156 10zM434 1167v-419q80 -13 135 -13q121 0 193 55t72 171q0 105 -66 155.5t-205 50.5h-129z" />
<glyph unicode="S" horiz-adv-x="1167" d="M111 55l55 283q95 -32 215.5 -52t216.5 -20q93 0 138 51t36 127q-3 26 -35.5 48.5t-83 39t-114 38.5t-129 45t-128 61t-111.5 83.5t-78.5 115t-29.5 153.5q0 212 137 321t410 109q246 0 447 -74l-56 -282q-95 31 -215.5 51.5t-214.5 20.5q-91 0 -135.5 -51t-34.5 -124 q3 -23 29 -43t67.5 -36t94.5 -33t111 -37.5t116 -45.5t110 -61.5t92 -81t63.5 -108t23.5 -139.5q0 -214 -137 -324t-412 -110q-244 0 -448 75z" />
<glyph unicode="T" horiz-adv-x="1177" d="M430 1153h-412l17 285h1124l-16 -285h-395v-1153h-318v1153z" />
<glyph unicode="U" horiz-adv-x="1380" d="M434 1438v-932q0 -134 64 -187t192 -53q127 0 191.5 53t64.5 187v932h318v-967q0 -129 -42.5 -225.5t-120.5 -153.5t-180.5 -84.5t-230.5 -27.5q-129 0 -232 27.5t-181 85t-120 153t-42 225.5v967h319z" />
<glyph unicode="V" horiz-adv-x="1343" d="M997 1446l326 -16l-432 -1430h-436l-435 1430l326 16l326 -1174z" />
<glyph unicode="W" horiz-adv-x="1945" d="M1636 1446l289 -16l-362 -1430h-373l-209 905l-209 -905h-389l-363 1430l320 16l248 -1131l223 1115l352 16l226 -1131z" />
<glyph unicode="X" horiz-adv-x="1351" d="M23 8l464 711l-464 711l368 16l285 -465l285 465l368 -16l-465 -711l465 -711l-366 -16l-287 465l-285 -465z" />
<glyph unicode="Y" horiz-adv-x="1320" d="M502 0v559l-494 871l369 16l285 -578l282 578l369 -16l-494 -871v-559h-317z" />
<glyph unicode="Z" horiz-adv-x="1185" d="M61 1153l19 285h1024l18 -285l-663 -866h665l-16 -287h-1026l-16 287l661 866h-666z" />
<glyph unicode="[" horiz-adv-x="706" d="M166 1716h536l-16 -254h-233v-1372h249l-16 -254h-520v1880z" />
<glyph unicode="\" horiz-adv-x="733" d="M-100 1708l252 8l679 -1872l-251 -8z" />
<glyph unicode="]" horiz-adv-x="706" d="M539 -164h-537l18 254h232v1372h-250l18 254h519v-1880z" />
<glyph unicode="^" horiz-adv-x="1044" d="M1036 449l-313 -19l-201 705l-200 -705l-314 19l328 989h371z" />
<glyph unicode="_" horiz-adv-x="995" d="M20 -59h971l-16 -224h-973z" />
<glyph unicode="`" horiz-adv-x="700" d="M104 1454h320l172 -340h-242z" />
<glyph unicode="a" horiz-adv-x="1007" d="M604 598v59q0 57 -27.5 83t-84.5 26q-108 0 -349 -70l-41 246q248 78 449 78q167 0 253.5 -81.5t86.5 -268.5v-670h-215l-33 86q-154 -106 -305 -106q-121 0 -203 74t-82 210q0 104 50.5 169t170.5 105t330 60zM420 199q87 0 184 61v150q-162 -17 -219 -44t-57 -83 q0 -43 26 -63.5t66 -20.5z" />
<glyph unicode="b" horiz-adv-x="1155" d="M115 61v1475l286 16v-651q185 119 324 119q159 0 257.5 -134.5t98.5 -385.5q0 -140 -37.5 -242.5t-106 -162t-156.5 -87.5t-199 -28q-207 0 -467 81zM401 262q102 -29 183 -29q92 0 148 64.5t56 206.5q0 241 -155 241q-11 0 -22 -1t-24 -3.5t-23.5 -4.5t-26 -7t-24.5 -8 t-27.5 -9.5t-26.5 -9.5t-29.5 -11t-28.5 -11v-418z" />
<glyph unicode="c" horiz-adv-x="919" d="M561 -20q-108 0 -195 29.5t-153.5 90t-102.5 162.5t-36 238t36 237.5t102.5 162.5t153.5 90.5t195 29.5q141 0 303 -39l-35 -248q-155 33 -235 33q-120 0 -173.5 -64.5t-53.5 -201.5t53.5 -202t173.5 -65q80 0 235 33l35 -248q-158 -38 -303 -38z" />
<glyph unicode="d" horiz-adv-x="1155" d="M754 967v569l286 16v-1552h-266l-20 98q-179 -118 -322 -118q-160 0 -259 134.5t-99 385.5q0 133 35 235.5t95.5 163t137 91t164.5 30.5q116 0 248 -53zM754 731q-115 35 -183 35q-93 0 -148.5 -64.5t-55.5 -207.5q0 -240 157 -240q31 0 73 10t71 20.5t86 32.5v414z" />
<glyph unicode="e" horiz-adv-x="1038" d="M952 403h-592q3 -184 215 -184q28 0 55.5 2.5t61 8.5t54 10.5t63 14t59.5 13.5l37 -225q-177 -63 -354 -63q-231 0 -354 124t-123 394q0 135 36 237.5t101.5 163.5t150 91t187.5 30q221 0 332.5 -154t70.5 -463zM530 791q-73 0 -116.5 -49t-51.5 -138h316q3 88 -36 137.5 t-112 49.5z" />
<glyph unicode="f" horiz-adv-x="765" d="M184 999v162q0 391 344 391q100 0 236 -32l-23 -242q-88 20 -147 20q-69 0 -96 -39.5t-27 -125.5v-134h264l-16 -254h-248v-745h-287v745h-155l16 254h139z" />
<glyph unicode="g" horiz-adv-x="1069" d="M922 680q0 -163 -107 -249.5t-305 -86.5h-43q-39 -50 -22.5 -88.5t77.5 -38.5h68q213 0 327.5 -76.5t114.5 -214.5q0 -73 -33.5 -138t-99 -117t-174.5 -82.5t-248 -30.5q-114 0 -199 22t-132.5 61t-70 85t-22.5 100q0 149 174 262q-37 51 -37 125q0 105 76 178 q-166 83 -166 289q0 164 107 252t303 88q80 0 166 -21h352l-16 -254h-97q7 -35 7 -65zM492 -18q-42 0 -80 6q-36 -26 -57 -60t-21 -67q0 -109 178 -109q102 0 170 33.5t68 97.5q0 46 -58 72.5t-162 26.5h-38zM651 680q0 62 -37 96.5t-104 34.5t-103 -34.5t-36 -96.5 t36 -95.5t103 -33.5t104 33.5t37 95.5z" />
<glyph unicode="h" d="M401 680v-680h-286v1536l286 16v-649q217 117 363 117q57 0 104.5 -17t87.5 -53.5t63 -103t23 -156.5v-690h-286v600q0 145 -123 145q-31 0 -74.5 -11t-69.5 -20.5t-88 -33.5z" />
<glyph unicode="i" horiz-adv-x="518" d="M115 989l286 19v-1008h-286v989zM258 1446q70 0 117 -47t47 -117t-47 -117t-117 -47t-117 47t-47 117t47 117t117 47z" />
<glyph unicode="j" horiz-adv-x="573" d="M172 989l287 19v-932q0 -172 -61.5 -286.5t-204.5 -231.5l-218 168q100 89 148.5 170t48.5 180v913zM315 1446q71 0 117.5 -47t46.5 -117t-46.5 -117t-117.5 -47q-70 0 -116.5 46.5t-46.5 117.5t46.5 117.5t116.5 46.5z" />
<glyph unicode="k" horiz-adv-x="1097" d="M745 -8l-344 430v-422h-286v1536l286 16v-936l312 392l329 -19l-385 -457l435 -524z" />
<glyph unicode="l" horiz-adv-x="624" d="M115 1536l286 16v-1239q0 -63 49 -72.5t150 19.5l23 -242q-142 -38 -254 -38q-110 0 -182 68t-72 206v1282z" />
<glyph unicode="m" horiz-adv-x="1716" d="M954 903q116 62 206.5 89.5t180.5 27.5q117 0 187.5 -80.5t70.5 -249.5v-690h-286v600q0 145 -107 145q-76 0 -209 -61q4 -27 4 -90v-594h-286v600q0 145 -107 145q-28 0 -66.5 -11t-63 -21t-77.5 -33v-680h-286v989l286 19v-105q203 117 340 117q147 0 213 -117z" />
<glyph unicode="n" d="M401 680v-680h-286v989l286 19v-105q217 117 363 117q57 0 104.5 -17t87.5 -53.5t63 -103t23 -156.5v-690h-286v600q0 145 -123 145q-31 0 -74.5 -11t-69.5 -20.5t-88 -33.5z" />
<glyph unicode="o" horiz-adv-x="1150" d="M367 500q0 -267 208 -267q209 0 209 267q0 266 -209 266q-208 0 -208 -266zM74 500q0 256 132 388t369 132q238 0 370 -132t132 -388q0 -257 -132 -388.5t-370 -131.5q-237 0 -369 131.5t-132 388.5z" />
<glyph unicode="p" horiz-adv-x="1155" d="M401 33v-447l-286 -16v1419l286 19v-107q185 119 324 119q159 0 257.5 -134.5t98.5 -385.5q0 -133 -34.5 -235t-95 -163t-136.5 -91.5t-164 -30.5q-126 0 -250 53zM401 268q115 -35 183 -35q92 0 148 64.5t56 206.5q0 241 -155 241q-11 0 -22 -1t-24 -3.5t-23.5 -4.5 t-26 -7t-24.5 -8t-27.5 -9.5t-26.5 -9.5t-29.5 -11t-28.5 -11v-412z" />
<glyph unicode="q" horiz-adv-x="1155" d="M1040 936v-1350l-286 -16v528q-179 -118 -322 -118q-160 0 -259 134.5t-99 385.5q0 140 37.5 242.5t106 162t156.5 87.5t199 28q198 0 467 -84zM754 737q-114 29 -183 29q-93 0 -148.5 -64.5t-55.5 -207.5q0 -240 157 -240q31 0 73 10t71 20.5t86 32.5v420z" />
<glyph unicode="r" horiz-adv-x="825" d="M805 997l-33 -303q-51 16 -77.5 22.5t-60.5 9t-55 -6t-51 -29t-58.5 -53t-68.5 -84.5v-553h-286v989l286 19v-168q111 136 198 166.5t206 -9.5z" />
<glyph unicode="s" horiz-adv-x="921" d="M111 33l41 235q66 -22 152 -35.5t151 -13.5q52 0 81.5 22.5t22.5 71.5q-2 18 -29.5 32.5t-70 26.5t-93 27t-101 40t-92 59t-67.5 90t-26 127q0 305 401 305q169 0 330 -53l-41 -238q-66 24 -150.5 37.5t-148.5 13.5q-52 0 -81 -22t-21 -68q2 -18 29.5 -32.5t70 -26.5 t93 -27t101 -39.5t92 -58.5t67.5 -90t26 -127q0 -152 -102.5 -230.5t-305.5 -78.5q-168 0 -329 53z" />
<glyph unicode="t" horiz-adv-x="815" d="M184 371v374h-155l16 254h139v301l287 17v-318h264l-16 -254h-248v-346q0 -86 28 -126t97 -40q54 0 147 21l23 -240q-133 -34 -236 -34q-346 0 -346 391z" />
<glyph unicode="u" d="M756 317v672l286 19v-1008h-266l-20 96q-213 -116 -363 -116q-57 0 -104.5 17t-87.5 53.5t-63 102.5t-23 156v680l286 19v-609q0 -145 123 -145q68 0 232 63z" />
<glyph unicode="v" horiz-adv-x="1044" d="M8 989l314 19l200 -703l201 703l313 -19l-329 -989h-371z" />
<glyph unicode="w" horiz-adv-x="1570" d="M8 989l297 19l170 -734l152 715l313 19l154 -734l170 734l299 -19l-283 -989h-332l-164 580l-161 -580h-332z" />
<glyph unicode="x" horiz-adv-x="1032" d="M516 705l176 303l330 -19l-320 -489l320 -492l-332 -16l-174 301l-176 -301l-330 16l320 492l-320 489l332 19z" />
<glyph unicode="y" horiz-adv-x="1044" d="M322 1008l200 -703l201 703l313 -19l-473 -1419l-311 16l139 414h-55l-328 989z" />
<glyph unicode="z" horiz-adv-x="962" d="M440 254h451l-19 -254h-790l-19 238l459 507h-440l16 254h783l16 -237z" />
<glyph unicode="{" horiz-adv-x="792" d="M254 1069v272q0 222 139.5 326.5t356.5 40.5l-17 -244q-34 5 -58.5 6t-51 -5.5t-43.5 -23t-28 -49.5t-11 -81v-189q0 -260 -150 -346q150 -89 150 -346v-188q0 -50 12.5 -83.5t30 -49.5t49 -21.5t55 -4t62.5 6.5l-17 -248q-212 -62 -345.5 45t-133.5 326v270 q0 86 -26.5 126t-94.5 40h-90l18 254h82q62 3 86.5 43.5t24.5 122.5z" />
<glyph unicode="|" horiz-adv-x="589" d="M166 1716l256 19v-1899l-256 -18v1898z" />
<glyph unicode="}" horiz-adv-x="792" d="M539 483v-270q0 -224 -138.5 -328.5t-357.5 -40.5l18 244q36 -9 70.5 -6t61 15t43 49t16.5 96v188q0 259 151 346q-151 89 -151 346v189q0 37 -6.5 64.5t-16 45t-27.5 28t-33 15.5t-40 5t-41.5 -1.5t-44.5 -5.5l18 248q211 62 344.5 -45t133.5 -324v-272q0 -86 27 -126 t96 -40h88l-17 -254h-82q-63 -1 -87.5 -42t-24.5 -124z" />
<glyph unicode="~" horiz-adv-x="1132" d="M752 512q-66 0 -118.5 18t-84.5 44t-57.5 52t-51.5 44t-53 18q-33 0 -59 -35t-37 -106l-254 39q8 93 41.5 168.5t81.5 122.5t105 72.5t116 25.5q65 0 117.5 -18t85 -44t59 -52t53 -44t52.5 -18q32 0 58 35t36 106l254 -37q-8 -93 -41 -169t-81 -123.5t-105 -73 t-117 -25.5z" />
<glyph unicode="&#xa1;" horiz-adv-x="714" d="M215 547l285 16l16 -1003h-319zM356 684q-70 0 -118 48t-48 118q0 72 47.5 119t118.5 47q72 0 119 -47t47 -119q0 -71 -47 -118.5t-119 -47.5z" />
<glyph unicode="&#xa2;" horiz-adv-x="993" d="M690 1688v-234q107 -8 234 -37l-37 -262q-146 35 -266 35q-134 0 -196.5 -70.5t-62.5 -218.5t62.5 -218.5t196.5 -70.5q120 0 266 35l37 -248q-120 -30 -234 -39v-215l-237 -16v242q-180 36 -281.5 167.5t-101.5 368.5q0 121 27.5 216t79 159.5t120.5 104.5t156 57v227z " />
<glyph unicode="&#xa3;" horiz-adv-x="1142" d="M104 799h222q-4 5 -25.5 36.5t-28.5 44t-24 44t-23.5 55t-13 59t-6.5 72.5q0 69 23.5 129t71.5 110.5t130.5 79.5t190.5 29q226 0 426 -51l-60 -283q-80 23 -188 36.5t-148 13.5q-66 0 -90.5 -35.5t-19.5 -85.5q2 -18 21 -44t42 -50.5t48.5 -68t37.5 -91.5h338l-18 -224 h-320q-23 -89 -75.5 -164.5t-122.5 -123.5h583l-20 -287h-961l-24 287q130 95 192 155.5t88 132.5h-266z" />
<glyph unicode="&#xa4;" horiz-adv-x="1132" d="M150 719q0 103 38 184l-139 141l203 181l129 -129q83 39 184 39q102 0 185 -39l129 129l204 -181l-141 -141q39 -83 39 -184t-39 -184l141 -142l-202 -178l-131 127q-83 -39 -185 -39q-101 0 -184 39l-129 -127l-203 178l139 142q-38 81 -38 184zM389 719 q0 -79 49 -128.5t127 -49.5q79 0 128.5 49.5t49.5 128.5q0 80 -49.5 130t-128.5 50q-78 0 -127 -50t-49 -130z" />
<glyph unicode="&#xa5;" horiz-adv-x="1320" d="M166 842h174l-332 588l369 16l285 -578l282 578l369 -16l-334 -588h192l-16 -224h-303l-33 -59v-63h352l-16 -224h-336v-272h-317v272h-352l16 224h336v63l-35 59h-317z" />
<glyph unicode="&#xa6;" horiz-adv-x="589" d="M166 604l256 17v-785l-256 -18v786zM166 1716l256 19v-787l-256 -16v784z" />
<glyph unicode="&#xa7;" horiz-adv-x="1349" d="M1126 1116q-108 33 -249 47q-5 -84 14.5 -167.5t54.5 -154t78.5 -140.5t87.5 -140t81 -139t60 -149.5t23 -161.5q0 -140 -51 -247.5t-142.5 -173.5t-210 -99t-260.5 -33q-240 0 -444 59l55 283q107 -33 250 -47q5 84 -14.5 167.5t-54.5 154.5t-78.5 141t-87.5 140 t-81 139t-60 149.5t-23 160.5q0 112 33.5 204t93.5 156.5t143.5 108t182 64t210.5 20.5q241 0 445 -59zM377 905q0 -57 22.5 -120.5t58.5 -125.5t79 -129.5t86 -143t77.5 -155t55 -176.5t18.5 -196q199 54 199 252q0 57 -22.5 121t-58.5 126t-79.5 129.5t-86.5 143 t-78 154.5t-55.5 176t-17.5 196q-198 -54 -198 -252z" />
<glyph unicode="&#xa8;" horiz-adv-x="944" d="M248 1423q62 0 101.5 -39.5t39.5 -101.5t-40 -102.5t-101 -40.5q-62 0 -103 41t-41 102t41 101t103 40zM711 1423q62 0 102.5 -40t40.5 -101q0 -62 -41 -102.5t-102 -40.5t-101.5 40.5t-40.5 102.5q0 61 40 101t102 40z" />
<glyph unicode="&#xa9;" horiz-adv-x="1607" d="M264 719q0 -246 150.5 -401.5t388.5 -155.5q239 0 389.5 155.5t150.5 401.5q0 247 -150.5 402t-389.5 155q-238 0 -388.5 -155t-150.5 -402zM63 719q0 215 93.5 383.5t262 262t384.5 93.5t384 -93.5t261.5 -261.5t93.5 -384t-93.5 -384t-261.5 -261.5t-384 -93.5 t-384.5 93.5t-262 262t-93.5 383.5zM838 940q-181 0 -181 -221t181 -221q10 0 18.5 0.5t18.5 1.5t16 1.5t18 2.5t16.5 3t20 4.5t19.5 4.5t23.5 6t25.5 6l35 -182q-115 -33 -228 -33q-81 0 -146.5 21.5t-118 67.5t-81.5 126.5t-29 190.5t29 190.5t81.5 126t118 67t146.5 21.5 q116 0 228 -32l-35 -183q-10 2 -36.5 9t-33.5 8.5t-25.5 5.5t-28 5t-23.5 2t-29 1z" />
<glyph unicode="&#xaa;" horiz-adv-x="638" d="M365 1198v25q0 30 -14.5 42.5t-47.5 12.5q-73 0 -213 -39l-29 174q150 45 289 45q108 0 163.5 -51.5t55.5 -171.5v-416h-151l-27 55q-75 -67 -180 -67q-75 0 -127.5 48t-52.5 134q0 98 73.5 144t260.5 65zM274 961q51 0 91 32v78q-77 -6 -108.5 -23t-31.5 -47 q0 -40 49 -40z" />
<glyph unicode="&#xab;" horiz-adv-x="1169" d="M432 37l-389 389l18 162l371 375l191 -215l-246 -248l246 -248zM934 37l-389 389l18 162l371 375l190 -215l-245 -248l245 -248z" />
<glyph unicode="&#xac;" horiz-adv-x="1132" d="M801 188v404h-764l16 254h1034v-639z" />
<glyph unicode="&#xad;" horiz-adv-x="651" d="M82 627h504l-17 -254h-506z" />
<glyph unicode="&#xae;" horiz-adv-x="870" d="M63 1087q0 164 103.5 267.5t267.5 103.5t267.5 -103.5t103.5 -267.5t-103.5 -267t-267.5 -103t-267.5 103t-103.5 267zM172 1087q0 -120 73 -196t189 -76q117 0 190.5 76t73.5 196q0 121 -73.5 197t-190.5 76q-116 0 -189 -76t-73 -197zM395 1004v-117h-110v397h143 q76 0 119 -36t43 -105q0 -74 -60 -115q9 -43 35 -43q2 0 37 10l12 -96q-52 -18 -79 -18q-80 0 -111 120q-14 0 -29 3zM395 1190v-88q16 -4 29 -4q55 0 55 47q0 45 -57 45h-27z" />
<glyph unicode="&#xaf;" horiz-adv-x="866" d="M123 1354h639l-19 -207h-639z" />
<glyph unicode="&#xb0;" horiz-adv-x="704" d="M250 1153q0 -51 26.5 -81t75.5 -30t76 30.5t27 80.5q0 52 -27 82.5t-76 30.5t-75.5 -30.5t-26.5 -82.5zM47 1153q0 135 85 220t220 85t220 -85t85 -220q0 -134 -85 -218.5t-220 -84.5t-220 84.5t-85 218.5z" />
<glyph unicode="&#xb1;" horiz-adv-x="1132" d="M422 342v358h-385l16 254h369v340l287 17v-357h387l-17 -254h-370v-340zM53 254h1043l-17 -254h-1042z" />
<glyph unicode="&#xb2;" horiz-adv-x="673" d="M610 1485q0 -186 -309 -375h340l-12 -168h-586l-12 168q196 127 286.5 215.5t90.5 159.5q0 98 -127 98q-91 0 -213 -41l-35 166q150 43 272 43q140 0 222.5 -62.5t82.5 -203.5z" />
<glyph unicode="&#xb3;" horiz-adv-x="673" d="M205 1421h147q56 44 56 90q0 72 -123 72q-85 0 -215 -41l-37 166q153 43 276 43q137 0 218 -52t81 -163q0 -118 -121 -188q146 -73 146 -201q0 -108 -88.5 -162.5t-237.5 -54.5q-154 0 -276 43l35 166q131 -41 231 -41q135 0 135 73q0 44 -59 86h-178z" />
<glyph unicode="&#xb4;" horiz-adv-x="700" d="M276 1454h320l-250 -340h-242z" />
<glyph unicode="&#xb5;" d="M115 989l286 19v-609q0 -145 123 -145q79 0 232 63v672l286 19v-1008h-266l-20 96q-205 -116 -338 -116q-53 0 -90 22l61 -416l-274 -16v1419z" />
<glyph unicode="&#xb6;" horiz-adv-x="1091" d="M391 1438h701l-9 -174h-116v-1264h-185v1264h-137v-1264h-168v799h-86q-141 0 -230 89t-89 230t89 230.5t230 89.5z" />
<glyph unicode="&#xb7;" horiz-adv-x="512" d="M256 885q71 0 118.5 -47t47.5 -119q0 -71 -48 -118.5t-118 -47.5q-72 0 -119 47.5t-47 118.5q0 72 47 119t119 47z" />
<glyph unicode="&#xb8;" horiz-adv-x="628" d="M217 20h195l-84 -104q10 2 28 2q76 0 123 -51t47 -123q0 -78 -66.5 -132t-191.5 -54q-81 0 -164 24l29 148q76 -25 131 -25q72 0 72 37q0 45 -57 45q-27 0 -62 -14l-72 112z" />
<glyph unicode="&#xb9;" horiz-adv-x="651" d="M442 1110h176l-10 -168h-561l12 168h183v432l-195 -72v183l232 86h163v-629z" />
<glyph unicode="&#xba;" horiz-adv-x="727" d="M252 1130q0 -143 113 -143q112 0 112 143q0 148 -112 148q-113 0 -113 -148zM43 1130q0 161 84.5 244.5t237.5 83.5q151 0 235 -84t84 -244q0 -158 -84 -240.5t-235 -82.5q-153 0 -237.5 82.5t-84.5 240.5z" />
<glyph unicode="&#xbb;" horiz-adv-x="1169" d="M735 963l389 -392l-16 -161l-373 -373l-190 215l248 248l-248 248zM233 963l390 -392l-17 -161l-373 -373l-190 215l248 248l-248 248z" />
<glyph unicode="&#xbc;" horiz-adv-x="1591" d="M1055 797h200q0 -148 -41 -257t-133 -223h158v144l203 12v-156h104l-12 -167h-92v-150h-203v150h-338l-10 167q85 107 124.5 221t39.5 259zM440 809h176l-10 -168h-561l12 168h183v432l-195 -72v183l231 86h164v-629zM324 0l759 1438h222l-758 -1438h-223z" />
<glyph unicode="&#xbd;" horiz-adv-x="1648" d="M1573 543q0 -186 -309 -375h340l-13 -168h-585l-13 168q196 127 286.5 215.5t90.5 159.5q0 98 -127 98q-91 0 -213 -41l-35 166q150 43 273 43q140 0 222.5 -62.5t82.5 -203.5zM440 809h176l-10 -168h-561l12 168h183v432l-195 -72v183l231 86h164v-629zM324 0l759 1438 h222l-758 -1438h-223z" />
<glyph unicode="&#xbe;" horiz-adv-x="1583" d="M1049 797h200q0 -148 -41 -257t-133 -223h158v144l203 12v-156h104l-12 -167h-92v-150h-203v150h-338l-10 167q85 107 124.5 221t39.5 259zM217 1120h148q55 43 55 90q0 72 -123 72q-85 0 -215 -41l-37 166q153 43 277 43q137 0 218 -52t81 -163q0 -118 -121 -188 q145 -73 145 -201q0 -108 -88.5 -162.5t-237.5 -54.5q-154 0 -276 43l35 166q131 -41 231 -41q135 0 135 73q0 44 -59 86h-178zM311 0l760 1438h221l-757 -1438h-224z" />
<glyph unicode="&#xbf;" horiz-adv-x="1038" d="M391 342l2 205l285 16l8 -362q-84 -13 -148 -39.5t-99.5 -59t-52.5 -65.5t-17 -66q0 -69 54 -107t157 -38q134 0 356 65l55 -282q-266 -70 -446 -70q-86 0 -159 13.5t-136 43t-107 73.5t-69 109.5t-25 147.5q0 129 86 241t256 175zM537 684q-72 0 -119 47.5t-47 118.5 q0 72 47 119t119 47q71 0 118 -47t47 -119q0 -71 -47.5 -118.5t-117.5 -47.5z" />
<glyph unicode="&#xc0;" horiz-adv-x="1347" d="M846 559l-174 608l-172 -608h346zM920 274h-492l-78 -274h-330l431 1430l438 16l438 -1446h-330zM274 1839h388l233 -293h-305z" />
<glyph unicode="&#xc1;" horiz-adv-x="1347" d="M846 559l-174 608l-172 -608h346zM920 274h-492l-78 -274h-330l431 1430l438 16l438 -1446h-330zM666 1839h387l-314 -293h-307z" />
<glyph unicode="&#xc2;" horiz-adv-x="1347" d="M846 559l-174 608l-172 -608h346zM920 274h-492l-78 -274h-330l431 1430l438 16l438 -1446h-330zM846 1839l229 -293h-301l-106 135l-107 -135h-295l232 293h348z" />
<glyph unicode="&#xc3;" horiz-adv-x="1347" d="M846 559l-174 608l-172 -608h346zM920 274h-492l-78 -274h-330l431 1430l438 16l438 -1446h-330zM301 1567q9 126 78 198t158 72q53 0 98 -17.5t69 -39t49 -39t42 -17.5q22 0 39.5 22.5t23.5 68.5l186 -33q-9 -125 -78 -198t-157 -73q-53 0 -98 18t-69 39.5t-49 39.5 t-42 18q-23 0 -40.5 -22t-23.5 -68z" />
<glyph unicode="&#xc4;" horiz-adv-x="1347" d="M846 559l-174 608l-172 -608h346zM920 274h-492l-78 -274h-330l431 1430l438 16l438 -1446h-330zM440 1827q62 0 102 -40t40 -101q0 -62 -40.5 -103t-101.5 -41t-102 41t-41 103q0 61 40.5 101t102.5 40zM903 1827q62 0 103 -40t41 -101q0 -62 -41.5 -103t-102.5 -41 t-101 41t-40 103t40 101.5t101 39.5z" />
<glyph unicode="&#xc5;" horiz-adv-x="1347" d="M434 1645q0 101 67 165t171 64t170.5 -64t66.5 -165q0 -68 -32.5 -121.5t-90.5 -81.5l103 4l438 -1446h-330l-77 274h-492l-78 -274h-330l431 1430l122 4q-65 25 -102 80.5t-37 130.5zM846 559l-174 608l-172 -608h346zM596 1645q0 -36 20.5 -58t55.5 -22q36 0 56 22 t20 58q0 37 -20 59t-56 22q-35 0 -55.5 -22t-20.5 -59z" />
<glyph unicode="&#xc6;" horiz-adv-x="1941" d="M338 0h-361l773 1438h1122l-17 -285h-614v-293h514l-18 -287h-496v-286h631l-17 -287h-933v274h-445zM608 559h314v617z" />
<glyph unicode="&#xc7;" horiz-adv-x="1224" d="M778 1174q-83 0 -145 -23t-109.5 -74.5t-71.5 -141t-24 -216.5t24 -216.5t71.5 -140.5t109.5 -73.5t145 -22.5q80 0 144.5 11t179.5 42l55 -282q-151 -45 -326 -55l-51 -66q10 2 29 2q76 0 123 -51t47 -123q0 -78 -66.5 -132t-191.5 -54q-81 0 -164 24l29 148 q76 -25 131 -25q71 0 71 37q0 45 -57 45q-26 0 -61 -14l-72 112l53 101q-124 14 -222.5 60.5t-175 132t-118 222.5t-41.5 318q0 161 34 287.5t92.5 210.5t143.5 139t181.5 78.5t210.5 23.5q202 0 401 -57l-55 -283q-122 33 -184.5 44.5t-139.5 11.5z" />
<glyph unicode="&#xc8;" horiz-adv-x="1134" d="M221 1839h387l234 -293h-305zM115 0v1438h950l-16 -285h-615v-293h514l-18 -287h-496v-286h631l-16 -287h-934z" />
<glyph unicode="&#xc9;" horiz-adv-x="1134" d="M567 1839h387l-313 -293h-307zM115 0v1438h950l-16 -285h-615v-293h514l-18 -287h-496v-286h631l-16 -287h-934z" />
<glyph unicode="&#xca;" horiz-adv-x="1134" d="M115 0v1438h950l-16 -285h-615v-293h514l-18 -287h-496v-286h631l-16 -287h-934zM764 1839l229 -293h-301l-106 135l-107 -135h-295l232 293h348z" />
<glyph unicode="&#xcb;" horiz-adv-x="1134" d="M358 1827q62 0 102 -40t40 -101q0 -62 -40.5 -103t-101.5 -41t-102 41t-41 103q0 61 40.5 101t102.5 40zM821 1827q62 0 103 -40t41 -101q0 -62 -41.5 -103t-102.5 -41t-101 41t-40 103t40 101.5t101 39.5zM115 0v1438h950l-16 -285h-615v-293h514l-18 -287h-496v-286 h631l-16 -287h-934z" />
<glyph unicode="&#xcc;" horiz-adv-x="548" d="M115 1438h319v-1438h-319v1438zM-184 1839h387l233 -293h-305z" />
<glyph unicode="&#xcd;" horiz-adv-x="548" d="M115 1438h319v-1438h-319v1438zM346 1839h387l-313 -293h-307z" />
<glyph unicode="&#xce;" horiz-adv-x="548" d="M115 1438h319v-1438h-319v1438zM451 1839l229 -293h-301l-107 135l-106 -135h-295l231 293h349z" />
<glyph unicode="&#xcf;" horiz-adv-x="548" d="M115 1438h319v-1438h-319v1438zM43 1827q61 0 101 -39.5t40 -101.5t-40 -103t-101 -41t-102 41t-41 103q0 61 40.5 101t102.5 40zM506 1827q62 0 102.5 -40t40.5 -101q0 -62 -41 -103t-102 -41t-101 41t-40 103t39.5 101.5t101.5 39.5z" />
<glyph unicode="&#xd0;" horiz-adv-x="1411" d="M653 1438q316 0 489 -177.5t173 -543.5q0 -365 -190 -551t-543 -186q-233 0 -467 57v579h-113l18 207h95v615h538zM649 1153h-215v-330h225l-18 -207h-207v-335q76 -15 178 -15q178 0 273.5 113.5t95.5 331.5q0 226 -86.5 334t-245.5 108z" />
<glyph unicode="&#xd1;" horiz-adv-x="1380" d="M317 1567q9 126 78 198t158 72q53 0 98 -17.5t69 -39t49 -39t42 -17.5q22 0 39.5 22.5t23.5 68.5l187 -33q-9 -125 -78 -198t-158 -73q-53 0 -98 18t-69 39.5t-49 39.5t-42 18q-22 0 -39.5 -22t-23.5 -68zM426 889v-889h-311v1430l297 16l542 -897v889h310v-1430 l-295 -16z" />
<glyph unicode="&#xd2;" horiz-adv-x="1521" d="M373 1839h387l233 -293h-305zM428 719q0 -243 85 -348t249 -105q79 0 138.5 23.5t104 75.5t67 141t22.5 213q0 243 -85 349t-247 106q-80 0 -140 -24t-104.5 -76.5t-67 -141t-22.5 -213.5zM94 719q0 739 668 739q665 0 665 -739t-665 -739q-668 0 -668 739z" />
<glyph unicode="&#xd3;" horiz-adv-x="1521" d="M760 1839h387l-313 -293h-308zM428 719q0 -243 85 -348t249 -105q79 0 138.5 23.5t104 75.5t67 141t22.5 213q0 243 -85 349t-247 106q-80 0 -140 -24t-104.5 -76.5t-67 -141t-22.5 -213.5zM94 719q0 739 668 739q665 0 665 -739t-665 -739q-668 0 -668 739z" />
<glyph unicode="&#xd4;" horiz-adv-x="1521" d="M428 719q0 -243 85 -348t249 -105q79 0 138.5 23.5t104 75.5t67 141t22.5 213q0 243 -85 349t-247 106q-80 0 -140 -24t-104.5 -76.5t-67 -141t-22.5 -213.5zM94 719q0 739 668 739q665 0 665 -739t-665 -739q-668 0 -668 739zM936 1839l229 -293h-301l-106 135 l-107 -135h-295l232 293h348z" />
<glyph unicode="&#xd5;" horiz-adv-x="1521" d="M389 1567q9 126 78 198t158 72q53 0 98 -17.5t69 -39t49 -39t42 -17.5q22 0 39.5 22.5t23.5 68.5l187 -33q-9 -125 -78 -198t-158 -73q-53 0 -98 18t-69 39.5t-49 39.5t-42 18q-23 0 -40.5 -22t-23.5 -68zM428 719q0 -243 85 -348t249 -105q79 0 138.5 23.5t104 75.5 t67 141t22.5 213q0 243 -85 349t-247 106q-80 0 -140 -24t-104.5 -76.5t-67 -141t-22.5 -213.5zM94 719q0 739 668 739q665 0 665 -739t-665 -739q-668 0 -668 739z" />
<glyph unicode="&#xd6;" horiz-adv-x="1521" d="M528 1827q62 0 102 -40t40 -101q0 -62 -40.5 -103t-101.5 -41t-102 41t-41 103q0 61 40.5 101t102.5 40zM991 1827q62 0 103 -40t41 -101q0 -62 -41.5 -103t-102.5 -41t-101 41t-40 103t40 101.5t101 39.5zM428 719q0 -243 85 -348t249 -105q79 0 138.5 23.5t104 75.5 t67 141t22.5 213q0 243 -85 349t-247 106q-80 0 -140 -24t-104.5 -76.5t-67 -141t-22.5 -213.5zM94 719q0 739 668 739q665 0 665 -739t-665 -739q-668 0 -668 739z" />
<glyph unicode="&#xd7;" horiz-adv-x="1132" d="M49 393l326 326l-326 325l203 181l313 -314l314 314l204 -181l-325 -325l325 -326l-202 -178l-316 313l-313 -313z" />
<glyph unicode="&#xd8;" horiz-adv-x="1521" d="M1233 1610l149 -70l-151 -237q196 -183 196 -584q0 -739 -665 -739q-202 0 -336 63l-137 -215l-152 70l152 237q-195 185 -195 584q0 739 668 739q191 0 332 -63zM1094 719q0 181 -52 291l-450 -707q64 -37 170 -37q79 0 138.5 23.5t104 75.5t67 141t22.5 213zM428 719 q0 -185 49 -289l453 705q-68 39 -168 39q-80 0 -140 -24t-104.5 -76.5t-67 -141t-22.5 -213.5z" />
<glyph unicode="&#xd9;" horiz-adv-x="1380" d="M301 1839h387l234 -293h-306zM434 1438v-932q0 -134 64 -187t192 -53q127 0 191.5 53t64.5 187v932h318v-967q0 -129 -42.5 -225.5t-120.5 -153.5t-180.5 -84.5t-230.5 -27.5q-129 0 -232 27.5t-181 85t-120 153t-42 225.5v967h319z" />
<glyph unicode="&#xda;" horiz-adv-x="1380" d="M688 1839h387l-313 -293h-307zM434 1438v-932q0 -134 64 -187t192 -53q127 0 191.5 53t64.5 187v932h318v-967q0 -129 -42.5 -225.5t-120.5 -153.5t-180.5 -84.5t-230.5 -27.5q-129 0 -232 27.5t-181 85t-120 153t-42 225.5v967h319z" />
<glyph unicode="&#xdb;" horiz-adv-x="1380" d="M434 1438v-932q0 -134 64 -187t192 -53q127 0 191.5 53t64.5 187v932h318v-967q0 -129 -42.5 -225.5t-120.5 -153.5t-180.5 -84.5t-230.5 -27.5q-129 0 -232 27.5t-181 85t-120 153t-42 225.5v967h319zM864 1839l230 -293h-301l-107 135l-106 -135h-295l231 293h348z" />
<glyph unicode="&#xdc;" horiz-adv-x="1380" d="M457 1827q61 0 101 -39.5t40 -101.5t-40 -103t-101 -41t-102.5 41t-41.5 103q0 61 41 101t103 40zM920 1827q62 0 102.5 -40t40.5 -101q0 -62 -41 -103t-102 -41t-101.5 41t-40.5 103q0 61 40 101t102 40zM434 1438v-932q0 -134 64 -187t192 -53q127 0 191.5 53t64.5 187 v932h318v-967q0 -129 -42.5 -225.5t-120.5 -153.5t-180.5 -84.5t-230.5 -27.5q-129 0 -232 27.5t-181 85t-120 153t-42 225.5v967h319z" />
<glyph unicode="&#xdd;" horiz-adv-x="1320" d="M502 0v559l-494 871l369 16l285 -578l282 578l369 -16l-494 -871v-559h-317zM659 1839h388l-314 -293h-307z" />
<glyph unicode="&#xde;" horiz-adv-x="1218" d="M434 928v-418q117 -12 135 -12q121 0 194 54.5t73 166.5t-73 166.5t-194 54.5q-18 0 -135 -12zM115 0v1438h319v-224q90 11 158 11q168 0 296.5 -55.5t204.5 -171.5t76 -279q0 -122 -43.5 -219t-121.5 -159t-182.5 -95t-229.5 -33q-36 0 -158 10v-223h-319z" />
<glyph unicode="&#xdf;" horiz-adv-x="1236" d="M586 674l-27 127l129 225q37 62 37 129q0 63 -36.5 103t-102.5 40q-89 0 -137 -55.5t-48 -159.5v-1083h-286v1083q0 237 115.5 353t355.5 116q198 0 306.5 -102t108.5 -260q0 -137 -81 -270l-64 -115q143 -44 221 -160t78 -254q0 -80 -26 -152.5t-75.5 -131t-128.5 -93 t-177 -34.5q-140 0 -234 47l41 235q67 -31 123 -31q79 0 127.5 53.5t48.5 139.5q0 87 -78.5 161t-189.5 89z" />
<glyph unicode="&#xe0;" horiz-adv-x="1007" d="M604 598v59q0 57 -27.5 83t-84.5 26q-108 0 -349 -70l-41 246q248 78 449 78q167 0 253.5 -81.5t86.5 -268.5v-670h-215l-33 86q-154 -106 -305 -106q-121 0 -203 74t-82 210q0 104 50.5 169t170.5 105t330 60zM420 199q87 0 184 61v150q-162 -17 -219 -44t-57 -83 q0 -43 26 -63.5t66 -20.5zM215 1454h320l172 -340h-242z" />
<glyph unicode="&#xe1;" horiz-adv-x="1007" d="M604 598v59q0 57 -27.5 83t-84.5 26q-108 0 -349 -70l-41 246q248 78 449 78q167 0 253.5 -81.5t86.5 -268.5v-670h-215l-33 86q-154 -106 -305 -106q-121 0 -203 74t-82 210q0 104 50.5 169t170.5 105t330 60zM420 199q87 0 184 61v150q-162 -17 -219 -44t-57 -83 q0 -43 26 -63.5t66 -20.5zM498 1454h319l-250 -340h-241z" />
<glyph unicode="&#xe2;" horiz-adv-x="1007" d="M604 598v59q0 57 -27.5 83t-84.5 26q-108 0 -349 -70l-41 246q248 78 449 78q167 0 253.5 -81.5t86.5 -268.5v-670h-215l-33 86q-154 -106 -305 -106q-121 0 -203 74t-82 210q0 104 50.5 169t170.5 105t330 60zM420 199q87 0 184 61v150q-162 -17 -219 -44t-57 -83 q0 -43 26 -63.5t66 -20.5zM653 1454l203 -340h-262l-96 176l-95 -176h-258l205 340h303z" />
<glyph unicode="&#xe3;" horiz-adv-x="1007" d="M604 598v59q0 57 -27.5 83t-84.5 26q-108 0 -349 -70l-41 246q248 78 449 78q167 0 253.5 -81.5t86.5 -268.5v-670h-215l-33 86q-154 -106 -305 -106q-121 0 -203 74t-82 210q0 104 50.5 169t170.5 105t330 60zM420 199q87 0 184 61v150q-162 -17 -219 -44t-57 -83 q0 -43 26 -63.5t66 -20.5zM143 1163q9 126 78 198.5t158 72.5q49 0 90.5 -17.5t63 -39t42.5 -39t35 -17.5q53 0 64 90l186 -33q-7 -124 -75.5 -197t-157.5 -73q-49 0 -91 17.5t-64 39t-43.5 39t-35.5 17.5q-52 0 -63 -91z" />
<glyph unicode="&#xe4;" horiz-adv-x="1007" d="M604 598v59q0 57 -27.5 83t-84.5 26q-108 0 -349 -70l-41 246q248 78 449 78q167 0 253.5 -81.5t86.5 -268.5v-670h-215l-33 86q-154 -106 -305 -106q-121 0 -203 74t-82 210q0 104 50.5 169t170.5 105t330 60zM420 199q87 0 184 61v150q-162 -17 -219 -44t-57 -83 q0 -43 26 -63.5t66 -20.5zM272 1423q62 0 102 -40t40 -101q0 -62 -40.5 -102.5t-101.5 -40.5q-62 0 -102.5 40.5t-40.5 102.5q0 61 40.5 101t102.5 40zM735 1423q62 0 103 -40t41 -101t-41 -102t-103 -41q-61 0 -101 40.5t-40 102.5t40 101.5t101 39.5z" />
<glyph unicode="&#xe5;" horiz-adv-x="1007" d="M604 598v59q0 57 -27.5 83t-84.5 26q-108 0 -349 -70l-41 246q248 78 449 78q167 0 253.5 -81.5t86.5 -268.5v-670h-215l-33 86q-154 -106 -305 -106q-121 0 -203 74t-82 210q0 104 50.5 169t170.5 105t330 60zM420 199q87 0 184 61v150q-162 -17 -219 -44t-57 -83 q0 -43 26 -63.5t66 -20.5zM440 1296q0 -36 20.5 -57.5t55.5 -21.5q36 0 56 21.5t20 57.5q0 37 -20 59.5t-56 22.5q-35 0 -55.5 -22.5t-20.5 -59.5zM279 1296q0 101 66.5 165.5t170.5 64.5t171 -64.5t67 -165.5q0 -100 -67 -163.5t-171 -63.5t-170.5 63.5t-66.5 163.5z" />
<glyph unicode="&#xe6;" horiz-adv-x="1566" d="M1079 -20q-241 76 -298 98.5t-72 48.5q-205 -147 -371 -147q-121 0 -203 74t-82 210q0 103 50 168t170.5 106t330.5 60v59q0 57 -27.5 83t-84.5 26q-108 0 -349 -70l-41 246q234 78 422 78q185 0 258 -117q111 117 297 117q97 0 177.5 -37t139 -110t82.5 -194t3 -276 h-592q3 -184 217 -184q27 0 54 2.5t62.5 9t52.5 10t64 14.5t58 13l37 -225q-174 -63 -355 -63zM1061 791q-75 0 -118.5 -48.5t-51.5 -138.5h315q3 88 -35 137.5t-110 49.5zM420 199q102 0 211 80q-16 50 -23 129q-162 -13 -221 -41t-59 -84q0 -43 26 -63.5t66 -20.5z" />
<glyph unicode="&#xe7;" horiz-adv-x="919" d="M864 18q-119 -27 -235 -36l-54 -66q10 2 29 2q76 0 123 -51t47 -123q0 -78 -66.5 -132t-191.5 -54q-82 0 -164 24l29 148q76 -25 131 -25q72 0 72 37q0 19 -14 32t-44 13q-26 0 -61 -14l-72 112l53 105q-174 28 -273 153t-99 357q0 136 36 237.5t102.5 162.5t153.5 90.5 t195 29.5q141 0 303 -39l-35 -248q-155 33 -235 33q-120 0 -173.5 -64.5t-53.5 -201.5t53.5 -202t173.5 -65q80 0 235 33z" />
<glyph unicode="&#xe8;" horiz-adv-x="1038" d="M952 403h-592q3 -184 215 -184q28 0 55.5 2.5t61 8.5t54 10.5t63 14t59.5 13.5l37 -225q-177 -63 -354 -63q-231 0 -354 124t-123 394q0 135 36 237.5t101.5 163.5t150 91t187.5 30q221 0 332.5 -154t70.5 -463zM530 791q-73 0 -116.5 -49t-51.5 -138h316q3 88 -36 137.5 t-112 49.5zM215 1454h320l172 -340h-242z" />
<glyph unicode="&#xe9;" horiz-adv-x="1038" d="M520 1454h320l-250 -340h-242zM952 403h-592q3 -184 215 -184q28 0 55.5 2.5t61 8.5t54 10.5t63 14t59.5 13.5l37 -225q-177 -63 -354 -63q-231 0 -354 124t-123 394q0 135 36 237.5t101.5 163.5t150 91t187.5 30q221 0 332.5 -154t70.5 -463zM530 791q-73 0 -116.5 -49 t-51.5 -138h316q3 88 -36 137.5t-112 49.5z" />
<glyph unicode="&#xea;" horiz-adv-x="1038" d="M690 1454l203 -340h-262l-96 176l-95 -176h-258l205 340h303zM952 403h-592q3 -184 215 -184q28 0 55.5 2.5t61 8.5t54 10.5t63 14t59.5 13.5l37 -225q-177 -63 -354 -63q-231 0 -354 124t-123 394q0 135 36 237.5t101.5 163.5t150 91t187.5 30q221 0 332.5 -154 t70.5 -463zM530 791q-73 0 -116.5 -49t-51.5 -138h316q3 88 -36 137.5t-112 49.5z" />
<glyph unicode="&#xeb;" horiz-adv-x="1038" d="M299 1423q61 0 101 -39.5t40 -101.5t-40 -102.5t-101 -40.5t-102 40.5t-41 102.5q0 61 40.5 101t102.5 40zM762 1423q62 0 102.5 -40t40.5 -101q0 -62 -40.5 -102.5t-102.5 -40.5q-61 0 -101 40.5t-40 102.5t39.5 101.5t101.5 39.5zM952 403h-592q3 -184 215 -184 q28 0 55.5 2.5t61 8.5t54 10.5t63 14t59.5 13.5l37 -225q-177 -63 -354 -63q-231 0 -354 124t-123 394q0 135 36 237.5t101.5 163.5t150 91t187.5 30q221 0 332.5 -154t70.5 -463zM530 791q-73 0 -116.5 -49t-51.5 -138h316q3 88 -36 137.5t-112 49.5z" />
<glyph unicode="&#xec;" horiz-adv-x="518" d="M115 989l286 19v-1008h-286v989zM-86 1454h319l173 -340h-242z" />
<glyph unicode="&#xed;" horiz-adv-x="518" d="M285 1454h319l-250 -340h-241zM115 989l286 19v-1008h-286v989z" />
<glyph unicode="&#xee;" horiz-adv-x="518" d="M412 1454l202 -340h-262l-96 176l-94 -176h-258l205 340h303zM115 989l286 19v-1008h-286v989z" />
<glyph unicode="&#xef;" horiz-adv-x="518" d="M29 1423q61 0 101 -39.5t40 -101.5t-40 -102.5t-101 -40.5q-62 0 -103 41t-41 102t41 101t103 40zM492 1423q62 0 102.5 -40t40.5 -101q0 -62 -40.5 -102.5t-102.5 -40.5q-61 0 -101.5 40.5t-40.5 102.5q0 61 40 101t102 40zM115 989l286 19v-1008h-286v989z" />
<glyph unicode="&#xf0;" horiz-adv-x="1171" d="M248 1253l219 84q-112 125 -238 215h355q76 -58 131 -116l280 108l52 -186l-205 -80q106 -158 170.5 -344.5t64.5 -382.5q0 -272 -133.5 -421.5t-368.5 -149.5q-238 0 -369.5 129.5t-131.5 390.5q0 133 35 235.5t95.5 163t137 91t164.5 30.5q87 0 184 -33 q-35 89 -100 193l-291 -113zM770 725q-116 41 -199 41q-92 0 -148 -63.5t-56 -202.5q0 -144 54.5 -205.5t153.5 -61.5q76 0 126 44.5t69 117t18.5 157t-18.5 173.5z" />
<glyph unicode="&#xf1;" d="M401 680v-680h-286v989l286 19v-105q217 117 363 117q57 0 104.5 -17t87.5 -53.5t63 -103t23 -156.5v-690h-286v600q0 145 -123 145q-31 0 -74.5 -11t-69.5 -20.5t-88 -33.5zM219 1163q9 126 78 198.5t158 72.5q49 0 90.5 -17.5t63 -39t42.5 -39t35 -17.5q53 0 64 90 l186 -33q-7 -124 -76 -197t-158 -73q-49 0 -90.5 17.5t-63.5 39t-43.5 39t-35.5 17.5q-52 0 -63 -91z" />
<glyph unicode="&#xf2;" horiz-adv-x="1150" d="M367 500q0 -267 208 -267q209 0 209 267q0 266 -209 266q-208 0 -208 -266zM74 500q0 256 132 388t369 132q238 0 370 -132t132 -388q0 -257 -132 -388.5t-370 -131.5q-237 0 -369 131.5t-132 388.5zM272 1454h320l172 -340h-242z" />
<glyph unicode="&#xf3;" horiz-adv-x="1150" d="M557 1454h320l-250 -340h-242zM367 500q0 -267 208 -267q209 0 209 267q0 266 -209 266q-208 0 -208 -266zM74 500q0 256 132 388t369 132q238 0 370 -132t132 -388q0 -257 -132 -388.5t-370 -131.5q-237 0 -369 131.5t-132 388.5z" />
<glyph unicode="&#xf4;" horiz-adv-x="1150" d="M727 1454l203 -340h-262l-97 176l-94 -176h-258l205 340h303zM367 500q0 -267 208 -267q209 0 209 267q0 266 -209 266q-208 0 -208 -266zM74 500q0 256 132 388t369 132q238 0 370 -132t132 -388q0 -257 -132 -388.5t-370 -131.5q-237 0 -369 131.5t-132 388.5z" />
<glyph unicode="&#xf5;" horiz-adv-x="1150" d="M367 500q0 -267 208 -267q209 0 209 267q0 266 -209 266q-208 0 -208 -266zM74 500q0 256 132 388t369 132q238 0 370 -132t132 -388q0 -257 -132 -388.5t-370 -131.5q-237 0 -369 131.5t-132 388.5zM217 1163q9 126 78 198.5t158 72.5q49 0 90.5 -17.5t63 -39t42.5 -39 t35 -17.5q53 0 64 90l186 -33q-7 -124 -76 -197t-158 -73q-49 0 -90.5 17.5t-63.5 39t-43.5 39t-35.5 17.5q-23 0 -40.5 -22t-23.5 -69z" />
<glyph unicode="&#xf6;" horiz-adv-x="1150" d="M346 1423q62 0 101.5 -39.5t39.5 -101.5t-40 -102.5t-101 -40.5q-62 0 -102.5 40.5t-40.5 102.5q0 61 40.5 101t102.5 40zM809 1423q62 0 102.5 -40t40.5 -101q0 -62 -41 -102.5t-102 -40.5t-101 40.5t-40 102.5t40 101.5t101 39.5zM367 500q0 -267 208 -267 q209 0 209 267q0 266 -209 266q-208 0 -208 -266zM74 500q0 256 132 388t369 132q238 0 370 -132t132 -388q0 -257 -132 -388.5t-370 -131.5q-237 0 -369 131.5t-132 388.5z" />
<glyph unicode="&#xf7;" horiz-adv-x="1132" d="M53 846h1043l-17 -254h-1042zM565 440q72 0 119 -47.5t47 -118.5q0 -72 -47 -118.5t-119 -46.5q-71 0 -118.5 46.5t-47.5 118.5q0 70 47.5 118t118.5 48zM565 1331q72 0 119 -47t47 -119q0 -71 -47 -118.5t-119 -47.5q-71 0 -118.5 47.5t-47.5 118.5q0 72 47.5 119 t118.5 47z" />
<glyph unicode="&#xf8;" horiz-adv-x="1150" d="M913 1155l119 -53l-117 -187q162 -134 162 -415q0 -257 -132 -388.5t-370 -131.5q-127 0 -227 38l-110 -174l-119 54l117 184q-162 134 -162 418q0 256 132 388t369 132q125 0 228 -39zM367 500q0 -103 28 -164l264 416q-38 14 -84 14q-208 0 -208 -266zM784 500 q0 104 -30 162l-262 -416q44 -13 83 -13q209 0 209 267z" />
<glyph unicode="&#xf9;" d="M756 317v672l286 19v-1008h-266l-20 96q-213 -116 -363 -116q-57 0 -104.5 17t-87.5 53.5t-63 102.5t-23 156v680l286 19v-609q0 -145 123 -145q68 0 232 63zM276 1454h320l172 -340h-242z" />
<glyph unicode="&#xfa;" d="M561 1454h320l-250 -340h-242zM756 317v672l286 19v-1008h-266l-20 96q-213 -116 -363 -116q-57 0 -104.5 17t-87.5 53.5t-63 102.5t-23 156v680l286 19v-609q0 -145 123 -145q68 0 232 63z" />
<glyph unicode="&#xfb;" d="M729 1454l203 -340h-262l-97 176l-94 -176h-258l205 340h303zM756 317v672l286 19v-1008h-266l-20 96q-213 -116 -363 -116q-57 0 -104.5 17t-87.5 53.5t-63 102.5t-23 156v680l286 19v-609q0 -145 123 -145q68 0 232 63z" />
<glyph unicode="&#xfc;" d="M346 1423q62 0 101.5 -39.5t39.5 -101.5t-40 -102.5t-101 -40.5q-62 0 -102.5 40.5t-40.5 102.5q0 61 40.5 101t102.5 40zM809 1423q62 0 102.5 -40t40.5 -101q0 -62 -41 -102.5t-102 -40.5t-101 40.5t-40 102.5t40 101.5t101 39.5zM756 317v672l286 19v-1008h-266 l-20 96q-213 -116 -363 -116q-57 0 -104.5 17t-87.5 53.5t-63 102.5t-23 156v680l286 19v-609q0 -145 123 -145q68 0 232 63z" />
<glyph unicode="&#xfd;" horiz-adv-x="1044" d="M322 1008l200 -703l201 703l313 -19l-473 -1419l-311 16l139 414h-55l-328 989zM510 1454h319l-249 -340h-242z" />
<glyph unicode="&#xfe;" horiz-adv-x="1155" d="M401 33v-447l-286 -16v1966l286 16v-651q185 119 324 119q159 0 257.5 -134.5t98.5 -385.5q0 -133 -34.5 -235t-95 -163t-136.5 -91.5t-164 -30.5q-126 0 -250 53zM401 268q115 -35 183 -35q92 0 148 64.5t56 206.5q0 241 -155 241q-11 0 -22 -1t-24 -3.5t-23.5 -4.5 t-26 -7t-24.5 -8t-27.5 -9.5t-26.5 -9.5t-29.5 -11t-28.5 -11v-412z" />
<glyph unicode="&#xff;" horiz-adv-x="1044" d="M322 1008l200 -703l201 703l313 -19l-473 -1419l-311 16l139 414h-55l-328 989zM289 1423q61 0 101 -39.5t40 -101.5t-40 -102.5t-101 -40.5q-62 0 -103 41t-41 102t41 101t103 40zM752 1423q62 0 102.5 -40t40.5 -101q0 -62 -40.5 -102.5t-102.5 -40.5 q-61 0 -101.5 40.5t-40.5 102.5q0 61 40 101t102 40z" />
<glyph unicode="&#x100;" horiz-adv-x="1347" d="M846 559l-174 608l-172 -608h346zM920 274h-492l-78 -274h-330l431 1430l438 16l438 -1446h-330zM346 1774h670l-19 -207h-669z" />
<glyph unicode="&#x101;" horiz-adv-x="1007" d="M604 598v59q0 57 -27.5 83t-84.5 26q-108 0 -349 -70l-41 246q248 78 449 78q167 0 253.5 -81.5t86.5 -268.5v-670h-215l-33 86q-154 -106 -305 -106q-121 0 -203 74t-82 210q0 104 50.5 169t170.5 105t330 60zM420 199q87 0 184 61v150q-162 -17 -219 -44t-57 -83 q0 -43 26 -63.5t66 -20.5zM180 1354h639l-18 -207h-639z" />
<glyph unicode="&#x102;" horiz-adv-x="1347" d="M846 559l-174 608l-172 -608h346zM920 274h-492l-78 -274h-330l431 1430l438 16l438 -1446h-330zM317 1829l205 18q19 -123 146 -123q126 0 145 123l203 -18q-14 -158 -106.5 -229.5t-241.5 -71.5q-324 0 -351 301z" />
<glyph unicode="&#x103;" horiz-adv-x="1007" d="M604 598v59q0 57 -27.5 83t-84.5 26q-108 0 -349 -70l-41 246q248 78 449 78q167 0 253.5 -81.5t86.5 -268.5v-670h-215l-33 86q-154 -106 -305 -106q-121 0 -203 74t-82 210q0 104 50.5 169t170.5 105t330 60zM420 199q87 0 184 61v150q-162 -17 -219 -44t-57 -83 q0 -43 26 -63.5t66 -20.5zM166 1444l205 16q3 -160 137 -160q137 0 137 160l203 -16q0 -89 -27 -156t-74.5 -106t-107.5 -58.5t-131 -19.5q-72 0 -132.5 19.5t-108 58.5t-74.5 106t-27 156z" />
<glyph unicode="&#x104;" horiz-adv-x="1347" d="M920 274h-492l-78 -274h-330l431 1430l438 16l438 -1446h-106q-65 -32 -100.5 -79.5t-35.5 -92.5q0 -34 24 -56t67 -22q32 0 75 12l29 -174q-72 -30 -156 -30q-120 0 -188 65t-68 162q0 123 127 221zM846 559l-174 608l-172 -608h346z" />
<glyph unicode="&#x105;" horiz-adv-x="1007" d="M922 -238l28 -174q-72 -30 -155 -30q-120 0 -188 65t-68 162q0 127 133 225l-29 76q-154 -106 -305 -106q-121 0 -203 74t-82 210q0 104 50.5 169t170.5 105t330 60v59q0 57 -27.5 83t-84.5 26q-108 0 -349 -70l-41 246q248 78 449 78q167 0 253.5 -81.5t86.5 -268.5 v-670q-65 -32 -100 -79.5t-35 -92.5q0 -34 23.5 -56t66.5 -22q32 0 76 12zM420 199q87 0 184 61v150q-162 -17 -219 -44t-57 -83q0 -43 26 -63.5t66 -20.5z" />
<glyph unicode="&#x106;" horiz-adv-x="1224" d="M778 1174q-83 0 -145 -23t-109.5 -74.5t-71.5 -141t-24 -216.5t24 -216.5t71.5 -140.5t109.5 -73.5t145 -22.5q80 0 144.5 11t179.5 42l55 -282q-199 -57 -401 -57q-114 0 -210.5 23.5t-181.5 78.5t-143.5 139t-92.5 210.5t-34 287.5t34 287.5t92.5 210.5t143.5 139 t181.5 78.5t210.5 23.5q202 0 401 -57l-55 -283q-122 33 -184.5 44.5t-139.5 11.5zM709 1839h387l-314 -293h-307z" />
<glyph unicode="&#x107;" horiz-adv-x="919" d="M502 1454h319l-250 -340h-241zM561 -20q-108 0 -195 29.5t-153.5 90t-102.5 162.5t-36 238t36 237.5t102.5 162.5t153.5 90.5t195 29.5q141 0 303 -39l-35 -248q-155 33 -235 33q-120 0 -173.5 -64.5t-53.5 -201.5t53.5 -202t173.5 -65q80 0 235 33l35 -248 q-158 -38 -303 -38z" />
<glyph unicode="&#x108;" horiz-adv-x="1224" d="M778 1174q-83 0 -145 -23t-109.5 -74.5t-71.5 -141t-24 -216.5t24 -216.5t71.5 -140.5t109.5 -73.5t145 -22.5q80 0 144.5 11t179.5 42l55 -282q-199 -57 -401 -57q-114 0 -210.5 23.5t-181.5 78.5t-143.5 139t-92.5 210.5t-34 287.5t34 287.5t92.5 210.5t143.5 139 t181.5 78.5t210.5 23.5q202 0 401 -57l-55 -283q-122 33 -184.5 44.5t-139.5 11.5zM926 1839l229 -293h-301l-106 135l-107 -135h-295l232 293h348z" />
<glyph unicode="&#x109;" horiz-adv-x="919" d="M692 1454l203 -340h-262l-96 176l-95 -176h-258l205 340h303zM561 -20q-108 0 -195 29.5t-153.5 90t-102.5 162.5t-36 238t36 237.5t102.5 162.5t153.5 90.5t195 29.5q141 0 303 -39l-35 -248q-155 33 -235 33q-120 0 -173.5 -64.5t-53.5 -201.5t53.5 -202t173.5 -65 q80 0 235 33l35 -248q-158 -38 -303 -38z" />
<glyph unicode="&#x10a;" horiz-adv-x="1224" d="M750 1870q70 0 116.5 -46.5t46.5 -117.5t-46.5 -117.5t-116.5 -46.5t-117 47t-47 117t47 117t117 47zM778 1174q-83 0 -145 -23t-109.5 -74.5t-71.5 -141t-24 -216.5t24 -216.5t71.5 -140.5t109.5 -73.5t145 -22.5q80 0 144.5 11t179.5 42l55 -282q-199 -57 -401 -57 q-114 0 -210.5 23.5t-181.5 78.5t-143.5 139t-92.5 210.5t-34 287.5t34 287.5t92.5 210.5t143.5 139t181.5 78.5t210.5 23.5q202 0 401 -57l-55 -283q-122 33 -184.5 44.5t-139.5 11.5z" />
<glyph unicode="&#x10b;" horiz-adv-x="919" d="M561 -20q-108 0 -195 29.5t-153.5 90t-102.5 162.5t-36 238t36 237.5t102.5 162.5t153.5 90.5t195 29.5q141 0 303 -39l-35 -248q-155 33 -235 33q-120 0 -173.5 -64.5t-53.5 -201.5t53.5 -202t173.5 -65q80 0 235 33l35 -248q-158 -38 -303 -38zM549 1446 q71 0 117.5 -47t46.5 -117t-46.5 -117t-117.5 -47t-117.5 47t-46.5 117t46.5 117t117.5 47z" />
<glyph unicode="&#x10c;" horiz-adv-x="1224" d="M778 1174q-83 0 -145 -23t-109.5 -74.5t-71.5 -141t-24 -216.5t24 -216.5t71.5 -140.5t109.5 -73.5t145 -22.5q80 0 144.5 11t179.5 42l55 -282q-199 -57 -401 -57q-114 0 -210.5 23.5t-181.5 78.5t-143.5 139t-92.5 210.5t-34 287.5t34 287.5t92.5 210.5t143.5 139 t181.5 78.5t210.5 23.5q202 0 401 -57l-55 -283q-122 33 -184.5 44.5t-139.5 11.5zM578 1546l-232 293h301l107 -137l106 137h295l-229 -293h-348z" />
<glyph unicode="&#x10d;" horiz-adv-x="919" d="M399 1114l-204 340h264l94 -178l96 178h256l-203 -340h-303zM561 -20q-108 0 -195 29.5t-153.5 90t-102.5 162.5t-36 238t36 237.5t102.5 162.5t153.5 90.5t195 29.5q141 0 303 -39l-35 -248q-155 33 -235 33q-120 0 -173.5 -64.5t-53.5 -201.5t53.5 -202t173.5 -65 q80 0 235 33l35 -248q-158 -38 -303 -38z" />
<glyph unicode="&#x10e;" horiz-adv-x="1411" d="M420 1546l-232 293h301l107 -137l106 137h295l-229 -293h-348zM653 1438q316 0 489 -177.5t173 -543.5q0 -365 -190 -551t-543 -186q-233 0 -467 57v1401h538zM649 1153h-215v-872q76 -15 178 -15q178 0 273.5 113.5t95.5 331.5q0 226 -86.5 334t-245.5 108z" />
<glyph unicode="&#x10f;" horiz-adv-x="1386" d="M1096 1556l235 35q115 -236 -18 -471h-213q38 62 53 118.5t8 112.5t-21.5 99t-43.5 106zM754 967v569l286 16v-1552h-266l-20 98q-179 -118 -322 -118q-160 0 -259 134.5t-99 385.5q0 133 35 235.5t95.5 163t137 91t164.5 30.5q116 0 248 -53zM754 731q-115 35 -183 35 q-93 0 -148.5 -64.5t-55.5 -207.5q0 -240 157 -240q31 0 73 10t71 20.5t86 32.5v414z" />
<glyph unicode="&#x110;" horiz-adv-x="1411" d="M653 1438q316 0 489 -177.5t173 -543.5q0 -365 -190 -551t-543 -186q-233 0 -467 57v579h-113l18 207h95v615h538zM649 1153h-215v-330h225l-18 -207h-207v-335q76 -15 178 -15q178 0 273.5 113.5t95.5 331.5q0 226 -86.5 334t-245.5 108z" />
<glyph unicode="&#x111;" horiz-adv-x="1155" d="M754 967v180h-258l18 207h240v182l286 16v-198h113l-18 -207h-95v-1147h-266l-20 98q-179 -118 -322 -118q-160 0 -259 134.5t-99 385.5q0 133 35 235.5t95.5 163t137 91t164.5 30.5q116 0 248 -53zM754 731q-115 35 -183 35q-93 0 -148.5 -64.5t-55.5 -207.5 q0 -240 157 -240q31 0 73 10t71 20.5t86 32.5v414z" />
<glyph unicode="&#x112;" horiz-adv-x="1134" d="M264 1774h670l-19 -207h-669zM115 0v1438h950l-16 -285h-615v-293h514l-18 -287h-496v-286h631l-16 -287h-934z" />
<glyph unicode="&#x113;" horiz-adv-x="1038" d="M952 403h-592q3 -184 215 -184q28 0 55.5 2.5t61 8.5t54 10.5t63 14t59.5 13.5l37 -225q-177 -63 -354 -63q-231 0 -354 124t-123 394q0 135 36 237.5t101.5 163.5t150 91t187.5 30q221 0 332.5 -154t70.5 -463zM530 791q-73 0 -116.5 -49t-51.5 -138h316q3 88 -36 137.5 t-112 49.5zM227 1354h639l-18 -207h-639z" />
<glyph unicode="&#x114;" horiz-adv-x="1134" d="M242 1829l204 18q19 -123 146 -123q126 0 145 123l203 -18q-14 -158 -106.5 -229.5t-241.5 -71.5q-323 0 -350 301zM115 0v1438h950l-16 -285h-615v-293h514l-18 -287h-496v-286h631l-16 -287h-934z" />
<glyph unicode="&#x115;" horiz-adv-x="1038" d="M952 403h-592q3 -184 215 -184q28 0 55.5 2.5t61 8.5t54 10.5t63 14t59.5 13.5l37 -225q-177 -63 -354 -63q-231 0 -354 124t-123 394q0 135 36 237.5t101.5 163.5t150 91t187.5 30q221 0 332.5 -154t70.5 -463zM530 791q-73 0 -116.5 -49t-51.5 -138h316q3 88 -36 137.5 t-112 49.5zM197 1444l204 16q3 -160 138 -160q137 0 137 160l203 -16q0 -89 -27 -156t-74.5 -106t-107.5 -58.5t-131 -19.5q-72 0 -132.5 19.5t-108 58.5t-74.5 106t-27 156z" />
<glyph unicode="&#x116;" horiz-adv-x="1134" d="M588 1870q70 0 117 -47t47 -117t-47 -117t-117 -47t-117 47t-47 117t47 117t117 47zM115 0v1438h950l-16 -285h-615v-293h514l-18 -287h-496v-286h631l-16 -287h-934z" />
<glyph unicode="&#x117;" horiz-adv-x="1038" d="M952 403h-592q3 -184 215 -184q28 0 55.5 2.5t61 8.5t54 10.5t63 14t59.5 13.5l37 -225q-177 -63 -354 -63q-231 0 -354 124t-123 394q0 135 36 237.5t101.5 163.5t150 91t187.5 30q221 0 332.5 -154t70.5 -463zM530 791q-73 0 -116.5 -49t-51.5 -138h316q3 88 -36 137.5 t-112 49.5zM539 1446q70 0 116.5 -46.5t46.5 -117.5t-46.5 -117.5t-116.5 -46.5q-71 0 -117.5 47t-46.5 117t46.5 117t117.5 47z" />
<glyph unicode="&#x118;" horiz-adv-x="1134" d="M115 0v1438h950l-16 -285h-615v-293h514l-18 -287h-496v-286h631l-16 -287h-2q-65 -32 -100.5 -79.5t-35.5 -92.5q0 -34 23.5 -56t66.5 -22q33 0 76 12l29 -174q-72 -30 -156 -30q-120 0 -188 65t-68 162q0 119 119 215h-698z" />
<glyph unicode="&#x119;" horiz-adv-x="1038" d="M952 403h-592q3 -184 215 -184q28 0 55.5 2.5t61 8.5t54 10.5t63 14t59.5 13.5l37 -225q-79 -38 -120.5 -93t-41.5 -110q0 -40 25.5 -65t73.5 -25q32 0 76 12l26 -174q-72 -30 -153 -30q-117 0 -186.5 64t-69.5 165q0 98 67 195q-16 -2 -51 -2q-231 0 -354 124t-123 394 q0 135 36 237.5t101.5 163.5t150 91t187.5 30q221 0 332.5 -154t70.5 -463zM530 791q-73 0 -116.5 -49t-51.5 -138h316q3 88 -36 137.5t-112 49.5z" />
<glyph unicode="&#x11a;" horiz-adv-x="1134" d="M416 1546l-232 293h301l107 -137l106 137h295l-229 -293h-348zM115 0v1438h950l-16 -285h-615v-293h514l-18 -287h-496v-286h631l-16 -287h-934z" />
<glyph unicode="&#x11b;" horiz-adv-x="1038" d="M385 1114l-205 340h264l95 -178l96 178h256l-203 -340h-303zM952 403h-592q3 -184 215 -184q28 0 55.5 2.5t61 8.5t54 10.5t63 14t59.5 13.5l37 -225q-177 -63 -354 -63q-231 0 -354 124t-123 394q0 135 36 237.5t101.5 163.5t150 91t187.5 30q221 0 332.5 -154 t70.5 -463zM530 791q-73 0 -116.5 -49t-51.5 -138h316q3 88 -36 137.5t-112 49.5z" />
<glyph unicode="&#x11c;" horiz-adv-x="1370" d="M799 1174q-87 0 -153.5 -24.5t-116 -77t-75.5 -141.5t-26 -212q0 -244 88.5 -348.5t265.5 -104.5q88 0 154 19v235h-236l19 287h536v-737q-251 -90 -487 -90q-120 0 -219.5 24t-185 79t-144 139t-92 210t-33.5 287t35 287.5t96 210.5t148.5 139t186.5 78.5t216 23.5 q211 0 416 -57l-55 -283q-192 56 -338 56zM928 1839l229 -293h-301l-106 135l-107 -135h-295l232 293h348z" />
<glyph unicode="&#x11d;" horiz-adv-x="1069" d="M659 1454l203 -340h-262l-96 176l-94 -176h-258l204 340h303zM922 680q0 -163 -107 -249.5t-305 -86.5h-43q-39 -50 -22.5 -88.5t77.5 -38.5h68q213 0 327.5 -76.5t114.5 -214.5q0 -73 -33.5 -138t-99 -117t-174.5 -82.5t-248 -30.5q-114 0 -199 22t-132.5 61t-70 85 t-22.5 100q0 149 174 262q-37 51 -37 125q0 105 76 178q-166 83 -166 289q0 164 107 252t303 88q80 0 166 -21h352l-16 -254h-97q7 -35 7 -65zM492 -18q-42 0 -80 6q-36 -26 -57 -60t-21 -67q0 -109 178 -109q102 0 170 33.5t68 97.5q0 46 -58 72.5t-162 26.5h-38zM651 680 q0 62 -37 96.5t-104 34.5t-103 -34.5t-36 -96.5t36 -95.5t103 -33.5t104 33.5t37 95.5z" />
<glyph unicode="&#x11e;" horiz-adv-x="1370" d="M406 1829l204 18q19 -123 146 -123q126 0 145 123l203 -18q-14 -158 -106.5 -229.5t-241.5 -71.5q-323 0 -350 301zM799 1174q-87 0 -153.5 -24.5t-116 -77t-75.5 -141.5t-26 -212q0 -244 88.5 -348.5t265.5 -104.5q88 0 154 19v235h-236l19 287h536v-737 q-251 -90 -487 -90q-120 0 -219.5 24t-185 79t-144 139t-92 210t-33.5 287t35 287.5t96 210.5t148.5 139t186.5 78.5t216 23.5q211 0 416 -57l-55 -283q-192 56 -338 56z" />
<glyph unicode="&#x11f;" horiz-adv-x="1069" d="M922 680q0 -163 -107 -249.5t-305 -86.5h-43q-39 -50 -22.5 -88.5t77.5 -38.5h68q213 0 327.5 -76.5t114.5 -214.5q0 -73 -33.5 -138t-99 -117t-174.5 -82.5t-248 -30.5q-114 0 -199 22t-132.5 61t-70 85t-22.5 100q0 149 174 262q-37 51 -37 125q0 105 76 178 q-166 83 -166 289q0 164 107 252t303 88q80 0 166 -21h352l-16 -254h-97q7 -35 7 -65zM492 -18q-42 0 -80 6q-36 -26 -57 -60t-21 -67q0 -109 178 -109q102 0 170 33.5t68 97.5q0 46 -58 72.5t-162 26.5h-38zM651 680q0 62 -37 96.5t-104 34.5t-103 -34.5t-36 -96.5 t36 -95.5t103 -33.5t104 33.5t37 95.5zM168 1444l205 16q3 -160 137 -160q137 0 137 160l203 -16q0 -89 -27 -156t-74.5 -106t-107.5 -58.5t-131 -19.5q-72 0 -132.5 19.5t-108 58.5t-74.5 106t-27 156z" />
<glyph unicode="&#x120;" horiz-adv-x="1370" d="M754 1870q70 0 117 -47t47 -117t-47 -117t-117 -47t-117 47t-47 117t47 117t117 47zM799 1174q-87 0 -153.5 -24.5t-116 -77t-75.5 -141.5t-26 -212q0 -244 88.5 -348.5t265.5 -104.5q88 0 154 19v235h-236l19 287h536v-737q-251 -90 -487 -90q-120 0 -219.5 24t-185 79 t-144 139t-92 210t-33.5 287t35 287.5t96 210.5t148.5 139t186.5 78.5t216 23.5q211 0 416 -57l-55 -283q-192 56 -338 56z" />
<glyph unicode="&#x121;" horiz-adv-x="1069" d="M922 680q0 -163 -107 -249.5t-305 -86.5h-43q-39 -50 -22.5 -88.5t77.5 -38.5h68q213 0 327.5 -76.5t114.5 -214.5q0 -73 -33.5 -138t-99 -117t-174.5 -82.5t-248 -30.5q-114 0 -199 22t-132.5 61t-70 85t-22.5 100q0 149 174 262q-37 51 -37 125q0 105 76 178 q-166 83 -166 289q0 164 107 252t303 88q80 0 166 -21h352l-16 -254h-97q7 -35 7 -65zM492 -18q-42 0 -80 6q-36 -26 -57 -60t-21 -67q0 -109 178 -109q102 0 170 33.5t68 97.5q0 46 -58 72.5t-162 26.5h-38zM651 680q0 62 -37 96.5t-104 34.5t-103 -34.5t-36 -96.5 t36 -95.5t103 -33.5t104 33.5t37 95.5zM508 1446q70 0 117 -47t47 -117t-47 -117t-117 -47t-117 47t-47 117t47 117t117 47z" />
<glyph unicode="&#x122;" horiz-adv-x="1370" d="M616 -131l250 43q69 -79 58 -183.5t-90 -170.5l-222 14q66 75 65.5 151.5t-61.5 145.5zM799 1174q-87 0 -153.5 -24.5t-116 -77t-75.5 -141.5t-26 -212q0 -244 88.5 -348.5t265.5 -104.5q88 0 154 19v235h-236l19 287h536v-737q-251 -90 -487 -90q-120 0 -219.5 24 t-185 79t-144 139t-92 210t-33.5 287t35 287.5t96 210.5t148.5 139t186.5 78.5t216 23.5q211 0 416 -57l-55 -283q-192 56 -338 56z" />
<glyph unicode="&#x123;" horiz-adv-x="1069" d="M639 1149l-250 -43q-69 79 -57.5 183.5t90.5 170.5l221 -14q-66 -75 -65.5 -151.5t61.5 -145.5zM922 680q0 -163 -107 -249.5t-305 -86.5h-43q-39 -50 -22.5 -88.5t77.5 -38.5h68q213 0 327.5 -76.5t114.5 -214.5q0 -73 -33.5 -138t-99 -117t-174.5 -82.5t-248 -30.5 q-114 0 -199 22t-132.5 61t-70 85t-22.5 100q0 149 174 262q-37 51 -37 125q0 105 76 178q-166 83 -166 289q0 164 107 252t303 88q80 0 166 -21h352l-16 -254h-97q7 -35 7 -65zM492 -18q-42 0 -80 6q-36 -26 -57 -60t-21 -67q0 -109 178 -109q102 0 170 33.5t68 97.5 q0 46 -58 72.5t-162 26.5h-38zM651 680q0 62 -37 96.5t-104 34.5t-103 -34.5t-36 -96.5t36 -95.5t103 -33.5t104 33.5t37 95.5z" />
<glyph unicode="&#x124;" horiz-adv-x="1380" d="M115 1438h319v-578h512v578h318v-1438h-318v573h-512v-573h-319v1438zM866 1839l230 -293h-301l-107 135l-106 -135h-295l231 293h348z" />
<glyph unicode="&#x125;" d="M401 680v-680h-286v1536l286 16v-649q217 117 363 117q57 0 104.5 -17t87.5 -53.5t63 -103t23 -156.5v-690h-286v600q0 145 -123 145q-31 0 -74.5 -11t-69.5 -20.5t-88 -33.5zM434 1894l230 -292h-302l-106 135l-106 -135h-295l231 292h348z" />
<glyph unicode="&#x126;" horiz-adv-x="1380" d="M115 1438h319v-197h512v197h318v-197h112l-16 -207h-96v-1034h-318v573h-512v-573h-319v1034h-113l18 207h95v197zM434 860h512v174h-512v-174z" />
<glyph unicode="&#x127;" d="M20 1354h95v182l286 16v-198h258l-18 -207h-240v-244q217 117 363 117q57 0 104.5 -17t87.5 -53.5t63 -103t23 -156.5v-690h-286v600q0 145 -123 145q-31 0 -74.5 -11t-69.5 -20.5t-88 -33.5v-680h-286v1147h-113z" />
<glyph unicode="&#x128;" horiz-adv-x="548" d="M115 1438h319v-1438h-319v1438zM-96 1567q9 126 77.5 198t157.5 72q53 0 98 -17.5t69 -39t49 -39t42 -17.5q22 0 40 22.5t24 68.5l186 -33q-9 -125 -78 -198t-157 -73q-53 0 -98 18t-69 39.5t-49 39.5t-42 18q-23 0 -40.5 -22t-23.5 -68z" />
<glyph unicode="&#x129;" horiz-adv-x="518" d="M115 989l286 19v-1008h-286v989zM-98 1163q9 126 77.5 198.5t157.5 72.5q49 0 90.5 -17.5t63.5 -39t43 -39t35 -17.5q52 0 63 90l186 -33q-7 -124 -75.5 -197t-157.5 -73q-49 0 -90.5 17.5t-63.5 39t-43.5 39t-35.5 17.5q-23 0 -40.5 -22t-23.5 -69z" />
<glyph unicode="&#x12a;" horiz-adv-x="548" d="M115 1438h319v-1438h-319v1438zM-49 1774h670l-19 -207h-670z" />
<glyph unicode="&#x12b;" horiz-adv-x="518" d="M115 989l286 19v-1008h-286v989zM-49 1354h639l-19 -207h-639z" />
<glyph unicode="&#x12c;" horiz-adv-x="548" d="M115 1438h319v-1438h-319v1438zM-74 1829l205 18q19 -123 145 -123q127 0 146 123l203 -18q-14 -158 -107 -229.5t-242 -71.5q-323 0 -350 301z" />
<glyph unicode="&#x12d;" horiz-adv-x="518" d="M115 989l286 19v-1008h-286v989zM-82 1444l205 16q3 -160 137 -160q137 0 137 160l203 -16q0 -89 -27 -156t-74.5 -106t-107.5 -58.5t-131 -19.5q-72 0 -132.5 19.5t-108 58.5t-74.5 106t-27 156z" />
<glyph unicode="&#x12e;" horiz-adv-x="548" d="M465 -238l29 -174q-72 -30 -156 -30q-120 0 -188 65t-68 162q0 119 119 215h-86v1438h319v-1438q-65 -32 -100 -79.5t-35 -92.5q0 -34 23.5 -56t66.5 -22q33 0 76 12z" />
<glyph unicode="&#x12f;" horiz-adv-x="518" d="M432 -238l29 -174q-72 -30 -156 -30q-120 0 -188 65t-68 162q0 119 119 215h-53v989l286 19v-1008q-65 -32 -100 -79.5t-35 -92.5q0 -34 23.5 -56t66.5 -22q32 0 76 12zM258 1446q70 0 117 -47t47 -117t-47 -117t-117 -47t-117 47t-47 117t47 117t117 47z" />
<glyph unicode="&#x130;" horiz-adv-x="548" d="M115 1438h319v-1438h-319v1438zM272 1870q70 0 117 -47t47 -117t-47 -117t-117 -47t-116.5 46.5t-46.5 117.5t46.5 117.5t116.5 46.5z" />
<glyph unicode="&#x131;" horiz-adv-x="518" d="M115 989l286 19v-1008h-286v989z" />
<glyph unicode="&#x132;" horiz-adv-x="1144" d="M115 1438h319v-1438h-319v1438zM709 1438h319v-1188q0 -189 -67.5 -315.5t-225.5 -253.5l-241 186q111 95 163 184t52 199v1188z" />
<glyph unicode="&#x133;" horiz-adv-x="1085" d="M115 989l286 19v-1008h-286v989zM258 1446q70 0 117 -47t47 -117t-47 -117t-117 -47t-117 47t-47 117t47 117t117 47zM684 989l287 19v-932q0 -172 -61.5 -286.5t-204.5 -231.5l-218 168q100 89 148.5 170t48.5 180v913zM827 1446q71 0 117.5 -47t46.5 -117t-46.5 -117 t-117.5 -47q-70 0 -116.5 46.5t-46.5 117.5t46.5 117.5t116.5 46.5z" />
<glyph unicode="&#x134;" horiz-adv-x="600" d="M166 1438h319v-1188q0 -190 -67.5 -316t-224.5 -253l-242 186q111 95 163 184t52 199v1188zM500 1839l229 -293h-301l-106 135l-107 -135h-295l232 293h348z" />
<glyph unicode="&#x135;" horiz-adv-x="573" d="M170 989l287 19v-932q0 -117 -29.5 -207t-85.5 -161.5t-152 -149.5l-219 168q101 89 150 170t49 180v913zM467 1454l203 -340h-262l-97 176l-94 -176h-258l205 340h303z" />
<glyph unicode="&#x136;" horiz-adv-x="1300" d="M510 -131l250 43q69 -79 57.5 -183.5t-90.5 -170.5l-221 14q66 75 65.5 151.5t-61.5 145.5zM918 -8l-484 622v-614h-319v1438h319v-617l484 625l362 -16l-557 -699l575 -723z" />
<glyph unicode="&#x137;" horiz-adv-x="1097" d="M385 -131l250 43q69 -79 57.5 -183.5t-90.5 -170.5l-221 14q66 75 65.5 151.5t-61.5 145.5zM745 -8l-344 430v-422h-286v1536l286 16v-936l312 392l329 -19l-385 -457l435 -524z" />
<glyph unicode="&#x138;" horiz-adv-x="1097" d="M745 -8l-344 430v-422h-286v989l286 19v-392l312 392l329 -19l-385 -457l435 -524z" />
<glyph unicode="&#x139;" horiz-adv-x="1073" d="M346 1839h387l-313 -293h-307zM115 1438h319v-1151h590l-16 -287h-893v1438z" />
<glyph unicode="&#x13a;" horiz-adv-x="624" d="M346 1894h387l-313 -292h-307zM115 1536l286 16v-1239q0 -63 49 -72.5t150 19.5l23 -242q-142 -38 -254 -38q-110 0 -182 68t-72 206v1282z" />
<glyph unicode="&#x13b;" horiz-adv-x="1073" d="M416 -131l250 43q69 -79 57.5 -183.5t-90.5 -170.5l-221 14q66 75 65.5 151.5t-61.5 145.5zM115 1438h319v-1151h590l-16 -287h-893v1438z" />
<glyph unicode="&#x13c;" horiz-adv-x="624" d="M205 -131l250 43q69 -79 57.5 -183.5t-90.5 -170.5l-221 14q66 75 65.5 151.5t-61.5 145.5zM115 1536l286 16v-1239q0 -63 49 -72.5t150 19.5l23 -242q-142 -38 -254 -38q-110 0 -182 68t-72 206v1282z" />
<glyph unicode="&#x13d;" horiz-adv-x="1073" d="M561 1556l236 35q114 -235 -19 -471h-213q38 62 53 118.5t8 112.5t-21.5 99t-43.5 106zM115 1438h319v-1151h590l-16 -287h-893v1438z" />
<glyph unicode="&#x13e;" horiz-adv-x="749" d="M459 1556l235 35q115 -236 -18 -471h-213q38 62 53 118.5t8 112.5t-21.5 99t-43.5 106zM115 1536l286 16v-1239q0 -63 49 -72.5t150 19.5l23 -242q-142 -38 -254 -38q-110 0 -182 68t-72 206v1282z" />
<glyph unicode="&#x13f;" horiz-adv-x="1073" d="M115 1438h319v-1151h590l-16 -287h-893v1438zM813 961q71 0 117.5 -46.5t46.5 -117.5t-46.5 -117.5t-117.5 -46.5t-117.5 46.5t-46.5 117.5t46.5 117.5t117.5 46.5z" />
<glyph unicode="&#x140;" horiz-adv-x="833" d="M115 1536l286 16v-1239q0 -63 49 -72.5t150 19.5l23 -242q-142 -38 -254 -38q-110 0 -182 68t-72 206v1282zM680 967q70 0 117 -46.5t47 -117.5t-47 -117.5t-117 -46.5t-117 46.5t-47 117.5t47 117.5t117 46.5z" />
<glyph unicode="&#x141;" horiz-adv-x="1073" d="M115 1438h319v-621l416 144l18 -256l-434 -150v-268h590l-16 -287h-893v444l-129 -45l-17 258l146 50v731z" />
<glyph unicode="&#x142;" horiz-adv-x="696" d="M156 1536l286 16v-688l174 86l19 -256l-193 -96v-285q0 -63 49 -72.5t150 19.5l23 -242q-142 -38 -254 -38q-110 0 -182 68t-72 206v203l-138 -68l-18 258l156 76v813z" />
<glyph unicode="&#x143;" horiz-adv-x="1380" d="M688 1839h387l-313 -293h-307zM426 889v-889h-311v1430l297 16l542 -897v889h310v-1430l-295 -16z" />
<glyph unicode="&#x144;" d="M541 1454h319l-250 -340h-241zM401 680v-680h-286v989l286 19v-105q217 117 363 117q57 0 104.5 -17t87.5 -53.5t63 -103t23 -156.5v-690h-286v600q0 145 -123 145q-31 0 -74.5 -11t-69.5 -20.5t-88 -33.5z" />
<glyph unicode="&#x145;" horiz-adv-x="1380" d="M543 -131l250 43q69 -79 57.5 -183.5t-90.5 -170.5l-221 14q66 75 65.5 151.5t-61.5 145.5zM426 889v-889h-311v1430l297 16l542 -897v889h310v-1430l-295 -16z" />
<glyph unicode="&#x146;" d="M414 -131l250 43q69 -79 57.5 -183.5t-90.5 -170.5l-221 14q66 75 65.5 151.5t-61.5 145.5zM401 680v-680h-286v989l286 19v-105q217 117 363 117q57 0 104.5 -17t87.5 -53.5t63 -103t23 -156.5v-690h-286v600q0 145 -123 145q-31 0 -74.5 -11t-69.5 -20.5t-88 -33.5z " />
<glyph unicode="&#x147;" horiz-adv-x="1380" d="M516 1546l-231 293h301l106 -137l107 137h295l-230 -293h-348zM426 889v-889h-311v1430l297 16l542 -897v889h310v-1430l-295 -16z" />
<glyph unicode="&#x148;" d="M426 1114l-205 340h264l95 -178l96 178h256l-203 -340h-303zM401 680v-680h-286v989l286 19v-105q217 117 363 117q57 0 104.5 -17t87.5 -53.5t63 -103t23 -156.5v-690h-286v600q0 145 -123 145q-31 0 -74.5 -11t-69.5 -20.5t-88 -33.5z" />
<glyph unicode="&#x149;" d="M119 1415l250 43q69 -79 57.5 -183.5t-90.5 -170.5l-221 14q66 75 65.5 151.5t-61.5 145.5zM401 680v-680h-286v989l286 19v-105q217 117 363 117q57 0 104.5 -17t87.5 -53.5t63 -103t23 -156.5v-690h-286v600q0 145 -123 145q-31 0 -74.5 -11t-69.5 -20.5t-88 -33.5z " />
<glyph unicode="&#x14a;" horiz-adv-x="1380" d="M938 49l-512 840v-889h-311v1430l297 16l542 -897v889h310v-1311q0 -190 -67 -316t-224 -253l-242 186q90 78 140 149.5t67 155.5z" />
<glyph unicode="&#x14b;" d="M401 680v-680h-286v989l286 19v-105q217 117 363 117q57 0 104.5 -17t87.5 -53.5t63 -103t23 -156.5v-614q0 -172 -61.5 -286.5t-204.5 -231.5l-217 168q100 89 148.5 170t48.5 180v524q0 145 -123 145q-31 0 -74.5 -11t-69.5 -20.5t-88 -33.5z" />
<glyph unicode="&#x14c;" horiz-adv-x="1521" d="M436 1774h670l-19 -207h-669zM428 719q0 -243 85 -348t249 -105q79 0 138.5 23.5t104 75.5t67 141t22.5 213q0 243 -85 349t-247 106q-80 0 -140 -24t-104.5 -76.5t-67 -141t-22.5 -213.5zM94 719q0 739 668 739q665 0 665 -739t-665 -739q-668 0 -668 739z" />
<glyph unicode="&#x14d;" horiz-adv-x="1150" d="M264 1354h639l-18 -207h-639zM367 500q0 -267 208 -267q209 0 209 267q0 266 -209 266q-208 0 -208 -266zM74 500q0 256 132 388t369 132q238 0 370 -132t132 -388q0 -257 -132 -388.5t-370 -131.5q-237 0 -369 131.5t-132 388.5z" />
<glyph unicode="&#x14e;" horiz-adv-x="1521" d="M412 1829l204 18q19 -123 146 -123q126 0 145 123l203 -18q-14 -158 -106.5 -229.5t-241.5 -71.5q-323 0 -350 301zM428 719q0 -243 85 -348t249 -105q79 0 138.5 23.5t104 75.5t67 141t22.5 213q0 243 -85 349t-247 106q-80 0 -140 -24t-104.5 -76.5t-67 -141 t-22.5 -213.5zM94 719q0 739 668 739q665 0 665 -739t-665 -739q-668 0 -668 739z" />
<glyph unicode="&#x14f;" horiz-adv-x="1150" d="M367 500q0 -267 208 -267q209 0 209 267q0 266 -209 266q-208 0 -208 -266zM74 500q0 256 132 388t369 132q238 0 370 -132t132 -388q0 -257 -132 -388.5t-370 -131.5q-237 0 -369 131.5t-132 388.5zM233 1444l205 16q3 -160 137 -160q138 0 138 160l202 -16 q0 -89 -27 -156t-74.5 -106t-107.5 -58.5t-131 -19.5q-72 0 -132.5 19.5t-108 58.5t-74.5 106t-27 156z" />
<glyph unicode="&#x150;" horiz-adv-x="1521" d="M428 719q0 -243 85 -348t249 -105q79 0 138.5 23.5t104 75.5t67 141t22.5 213q0 243 -85 349t-247 106q-80 0 -140 -24t-104.5 -76.5t-67 -141t-22.5 -213.5zM94 719q0 739 668 739q665 0 665 -739t-665 -739q-668 0 -668 739zM565 1839h295l-268 -293h-215zM989 1839 h309l-268 -293h-229z" />
<glyph unicode="&#x151;" horiz-adv-x="1150" d="M356 1454h289l-219 -340h-211zM756 1454h288l-219 -340h-211zM367 500q0 -267 208 -267q209 0 209 267q0 266 -209 266q-208 0 -208 -266zM74 500q0 256 132 388t369 132q238 0 370 -132t132 -388q0 -257 -132 -388.5t-370 -131.5q-237 0 -369 131.5t-132 388.5z" />
<glyph unicode="&#x152;" horiz-adv-x="2113" d="M1094 0v129q-143 -149 -408 -149q-98 0 -183 23.5t-161.5 78.5t-130.5 138.5t-85.5 210.5t-31.5 288t31.5 288.5t85.5 211t130.5 138t161.5 78t183 23.5q265 0 408 -149v129h950l-19 -285h-614v-293h514l-16 -287h-498v-286h633l-19 -287h-931zM428 719q0 -243 85 -348 t249 -105q158 0 243 99.5t89 328.5v49q-4 228 -89.5 329.5t-242.5 101.5q-80 0 -140 -24t-104.5 -76.5t-67 -141t-22.5 -213.5z" />
<glyph unicode="&#x153;" horiz-adv-x="1748" d="M1663 403h-594q15 -170 217 -170q33 0 73 5.5t67 11t79 18t74 17.5l37 -242q-177 -63 -354 -63q-231 0 -338 147q-117 -147 -349 -147q-107 0 -197 32.5t-158.5 95.5t-107 163.5t-38.5 228.5q0 127 38.5 227.5t107 163.5t158.5 96t197 33q236 0 353 -156q112 156 332 156 q78 0 145 -23t123 -71t91 -121t48.5 -173.5t-4.5 -228.5zM367 500q0 -267 208 -267q209 0 209 267q0 266 -209 266q-208 0 -208 -266zM1241 791q-74 0 -117.5 -48.5t-52.5 -138.5h315q5 88 -33.5 137.5t-111.5 49.5z" />
<glyph unicode="&#x154;" horiz-adv-x="1269" d="M434 475v-475h-319v1438h465q271 0 422 -122t151 -364q0 -275 -219 -405l293 -539l-367 -16l-229 473h-41q-78 0 -156 10zM434 1167v-419q80 -13 135 -13q121 0 193 55t72 171q0 105 -66 155.5t-205 50.5h-129zM571 1839h387l-313 -293h-307z" />
<glyph unicode="&#x155;" horiz-adv-x="825" d="M393 1454h320l-250 -340h-242zM805 997l-33 -303q-51 16 -77.5 22.5t-60.5 9t-55 -6t-51 -29t-58.5 -53t-68.5 -84.5v-553h-286v989l286 19v-168q111 136 198 166.5t206 -9.5z" />
<glyph unicode="&#x156;" horiz-adv-x="1269" d="M463 -131l250 43q69 -79 57.5 -183.5t-90.5 -170.5l-221 14q66 75 65.5 151.5t-61.5 145.5zM434 475v-475h-319v1438h465q271 0 422 -122t151 -364q0 -275 -219 -405l293 -539l-367 -16l-229 473h-41q-78 0 -156 10zM434 1167v-419q80 -13 135 -13q121 0 193 55t72 171 q0 105 -66 155.5t-205 50.5h-129z" />
<glyph unicode="&#x157;" horiz-adv-x="825" d="M123 -131l250 43q69 -79 57.5 -183.5t-90.5 -170.5l-221 14q66 75 65.5 151.5t-61.5 145.5zM805 997l-33 -303q-51 16 -77.5 22.5t-60.5 9t-55 -6t-51 -29t-58.5 -53t-68.5 -84.5v-553h-286v989l286 19v-168q111 136 198 166.5t206 -9.5z" />
<glyph unicode="&#x158;" horiz-adv-x="1269" d="M430 1546l-231 293h301l106 -137l107 137h295l-230 -293h-348zM434 475v-475h-319v1438h465q271 0 422 -122t151 -364q0 -275 -219 -405l293 -539l-367 -16l-229 473h-41q-78 0 -156 10zM434 1167v-419q80 -13 135 -13q121 0 193 55t72 171q0 105 -66 155.5t-205 50.5 h-129z" />
<glyph unicode="&#x159;" horiz-adv-x="825" d="M262 1114l-205 340h265l94 -178l96 178h256l-203 -340h-303zM805 997l-33 -303q-51 16 -77.5 22.5t-60.5 9t-55 -6t-51 -29t-58.5 -53t-68.5 -84.5v-553h-286v989l286 19v-168q111 136 198 166.5t206 -9.5z" />
<glyph unicode="&#x15a;" horiz-adv-x="1167" d="M111 55l55 283q95 -32 215.5 -52t216.5 -20q93 0 138 51t36 127q-3 26 -35.5 48.5t-83 39t-114 38.5t-129 45t-128 61t-111.5 83.5t-78.5 115t-29.5 153.5q0 212 137 321t410 109q246 0 447 -74l-56 -282q-95 31 -215.5 51.5t-214.5 20.5q-91 0 -135.5 -51t-34.5 -124 q3 -23 29 -43t67.5 -36t94.5 -33t111 -37.5t116 -45.5t110 -61.5t92 -81t63.5 -108t23.5 -139.5q0 -214 -137 -324t-412 -110q-244 0 -448 75zM561 1839h387l-313 -293h-307z" />
<glyph unicode="&#x15b;" horiz-adv-x="921" d="M422 1454h319l-249 -340h-242zM111 33l41 235q66 -22 152 -35.5t151 -13.5q52 0 81.5 22.5t22.5 71.5q-2 18 -29.5 32.5t-70 26.5t-93 27t-101 40t-92 59t-67.5 90t-26 127q0 305 401 305q169 0 330 -53l-41 -238q-66 24 -150.5 37.5t-148.5 13.5q-52 0 -81 -22t-21 -68 q2 -18 29.5 -32.5t70 -26.5t93 -27t101 -39.5t92 -58.5t67.5 -90t26 -127q0 -152 -102.5 -230.5t-305.5 -78.5q-168 0 -329 53z" />
<glyph unicode="&#x15c;" horiz-adv-x="1167" d="M111 55l55 283q95 -32 215.5 -52t216.5 -20q93 0 138 51t36 127q-3 26 -35.5 48.5t-83 39t-114 38.5t-129 45t-128 61t-111.5 83.5t-78.5 115t-29.5 153.5q0 212 137 321t410 109q246 0 447 -74l-56 -282q-95 31 -215.5 51.5t-214.5 20.5q-91 0 -135.5 -51t-34.5 -124 q3 -23 29 -43t67.5 -36t94.5 -33t111 -37.5t116 -45.5t110 -61.5t92 -81t63.5 -108t23.5 -139.5q0 -214 -137 -324t-412 -110q-244 0 -448 75zM758 1839l229 -293h-301l-106 135l-107 -135h-295l232 293h348z" />
<glyph unicode="&#x15d;" horiz-adv-x="921" d="M608 1454l203 -340h-262l-96 176l-95 -176h-258l205 340h303zM111 33l41 235q66 -22 152 -35.5t151 -13.5q52 0 81.5 22.5t22.5 71.5q-2 18 -29.5 32.5t-70 26.5t-93 27t-101 40t-92 59t-67.5 90t-26 127q0 305 401 305q169 0 330 -53l-41 -238q-66 24 -150.5 37.5 t-148.5 13.5q-52 0 -81 -22t-21 -68q2 -18 29.5 -32.5t70 -26.5t93 -27t101 -39.5t92 -58.5t67.5 -90t26 -127q0 -152 -102.5 -230.5t-305.5 -78.5q-168 0 -329 53z" />
<glyph unicode="&#x15e;" horiz-adv-x="1167" d="M111 55l55 283q95 -32 215.5 -52t216.5 -20q93 0 138 51t36 127q-3 26 -35.5 48.5t-83 39t-114 38.5t-129 45t-128 61t-111.5 83.5t-78.5 115t-29.5 153.5q0 212 137 321t410 109q246 0 447 -74l-56 -282q-95 31 -215.5 51.5t-214.5 20.5q-91 0 -135.5 -51t-34.5 -124 q3 -23 29 -43t67.5 -36t94.5 -33t111 -37.5t116 -45.5t110 -61.5t92 -81t63.5 -108t23.5 -139.5q0 -382 -430 -428l-55 -70q10 2 28 2q76 0 123 -51t47 -123q0 -78 -66.5 -132t-191.5 -54q-81 0 -164 24l29 148q76 -25 131 -25q72 0 72 37q0 19 -14 32t-44 13q-26 0 -61 -14 l-72 112l52 97q-226 14 -381 73z" />
<glyph unicode="&#x15f;" horiz-adv-x="921" d="M111 33l41 235q66 -22 152 -35.5t151 -13.5q52 0 81.5 22.5t22.5 71.5q-2 18 -29.5 32.5t-70 26.5t-93 27t-101 40t-92 59t-67.5 90t-26 127q0 305 401 305q169 0 330 -53l-41 -238q-66 24 -150.5 37.5t-148.5 13.5q-52 0 -81 -22t-21 -68q2 -18 29.5 -32.5t70 -26.5 t93 -27t101 -39.5t92 -58.5t67.5 -90t26 -127q0 -269 -313 -303l-56 -70q10 2 29 2q76 0 123 -51t47 -123q0 -78 -66.5 -132t-191.5 -54q-82 0 -164 24l29 148q76 -25 131 -25q71 0 71 37q0 45 -57 45q-26 0 -61 -14l-72 112l51 99q-138 14 -237 49z" />
<glyph unicode="&#x160;" horiz-adv-x="1167" d="M111 55l55 283q95 -32 215.5 -52t216.5 -20q93 0 138 51t36 127q-3 26 -35.5 48.5t-83 39t-114 38.5t-129 45t-128 61t-111.5 83.5t-78.5 115t-29.5 153.5q0 212 137 321t410 109q246 0 447 -74l-56 -282q-95 31 -215.5 51.5t-214.5 20.5q-91 0 -135.5 -51t-34.5 -124 q3 -23 29 -43t67.5 -36t94.5 -33t111 -37.5t116 -45.5t110 -61.5t92 -81t63.5 -108t23.5 -139.5q0 -214 -137 -324t-412 -110q-244 0 -448 75zM410 1546l-232 293h301l107 -137l106 137h295l-229 -293h-348z" />
<glyph unicode="&#x161;" horiz-adv-x="921" d="M289 1114l-205 340h264l94 -178l97 178h256l-203 -340h-303zM111 33l41 235q66 -22 152 -35.5t151 -13.5q52 0 81.5 22.5t22.5 71.5q-2 18 -29.5 32.5t-70 26.5t-93 27t-101 40t-92 59t-67.5 90t-26 127q0 305 401 305q169 0 330 -53l-41 -238q-66 24 -150.5 37.5 t-148.5 13.5q-52 0 -81 -22t-21 -68q2 -18 29.5 -32.5t70 -26.5t93 -27t101 -39.5t92 -58.5t67.5 -90t26 -127q0 -152 -102.5 -230.5t-305.5 -78.5q-168 0 -329 53z" />
<glyph unicode="&#x162;" horiz-adv-x="1177" d="M430 1153h-412l17 285h1124l-16 -285h-395v-1153h-80l-68 -84q10 2 29 2q76 0 123 -51t47 -123q0 -78 -66.5 -132t-191.5 -54q-81 0 -164 24l29 148q76 -25 131 -25q71 0 71 37q0 45 -57 45q-27 0 -62 -14l-71 112l59 115h-47v1153z" />
<glyph unicode="&#x163;" horiz-adv-x="815" d="M184 371v374h-155l16 254h139v301l287 17v-318h264l-16 -254h-248v-346q0 -86 28 -126t97 -40q54 0 147 21l23 -240q-133 -34 -236 -34h-24l-51 -64q10 2 28 2q76 0 123 -51t47 -123q0 -78 -66.5 -132t-191.5 -54q-81 0 -164 24l29 148q76 -25 131 -25q72 0 72 37 q0 45 -57 45q-27 0 -62 -14l-72 112l72 133q-160 86 -160 353z" />
<glyph unicode="&#x164;" horiz-adv-x="1177" d="M414 1546l-232 293h301l107 -137l106 137h295l-229 -293h-348zM430 1153h-412l17 285h1124l-16 -285h-395v-1153h-318v1153z" />
<glyph unicode="&#x165;" horiz-adv-x="815" d="M528 1556l236 35q114 -235 -19 -471h-213q38 62 53 118.5t8 112.5t-21.5 99t-43.5 106zM184 371v374h-155l16 254h139v301l287 17v-318h264l-16 -254h-248v-346q0 -86 28 -126t97 -40q54 0 147 21l23 -240q-133 -34 -236 -34q-346 0 -346 391z" />
<glyph unicode="&#x166;" horiz-adv-x="1177" d="M430 1153h-412l17 285h1124l-16 -285h-395v-422h184l-19 -207h-165v-524h-318v524h-186l18 207h168v422z" />
<glyph unicode="&#x167;" horiz-adv-x="815" d="M184 371v35h-133l19 206h114v133h-155l16 254h139v301l287 17v-318h264l-16 -254h-248v-133h238l-19 -206h-219v-7q0 -86 28 -126t97 -40q54 0 147 21l23 -240q-133 -34 -236 -34q-346 0 -346 391z" />
<glyph unicode="&#x168;" horiz-adv-x="1380" d="M317 1567q9 126 78 198t158 72q53 0 98 -17.5t69 -39t49 -39t42 -17.5q22 0 39.5 22.5t23.5 68.5l187 -33q-9 -125 -78 -198t-158 -73q-53 0 -98 18t-69 39.5t-49 39.5t-42 18q-22 0 -39.5 -22t-23.5 -68zM434 1438v-932q0 -134 64 -187t192 -53q127 0 191.5 53t64.5 187 v932h318v-967q0 -129 -42.5 -225.5t-120.5 -153.5t-180.5 -84.5t-230.5 -27.5q-129 0 -232 27.5t-181 85t-120 153t-42 225.5v967h319z" />
<glyph unicode="&#x169;" d="M756 317v672l286 19v-1008h-266l-20 96q-213 -116 -363 -116q-57 0 -104.5 17t-87.5 53.5t-63 102.5t-23 156v680l286 19v-609q0 -145 123 -145q68 0 232 63zM219 1163q9 126 78 198.5t158 72.5q49 0 90.5 -17.5t63 -39t42.5 -39t35 -17.5q53 0 64 90l186 -33 q-7 -124 -76 -197t-158 -73q-49 0 -90.5 17.5t-63.5 39t-43.5 39t-35.5 17.5q-52 0 -63 -91z" />
<glyph unicode="&#x16a;" horiz-adv-x="1380" d="M365 1774h669l-18 -207h-670zM434 1438v-932q0 -134 64 -187t192 -53q127 0 191.5 53t64.5 187v932h318v-967q0 -129 -42.5 -225.5t-120.5 -153.5t-180.5 -84.5t-230.5 -27.5q-129 0 -232 27.5t-181 85t-120 153t-42 225.5v967h319z" />
<glyph unicode="&#x16b;" d="M756 317v672l286 19v-1008h-266l-20 96q-213 -116 -363 -116q-57 0 -104.5 17t-87.5 53.5t-63 102.5t-23 156v680l286 19v-609q0 -145 123 -145q68 0 232 63zM266 1354h639l-18 -207h-639z" />
<glyph unicode="&#x16c;" horiz-adv-x="1380" d="M340 1829l205 18q19 -123 145 -123q127 0 146 123l202 -18q-14 -158 -106.5 -229.5t-241.5 -71.5q-323 0 -350 301zM434 1438v-932q0 -134 64 -187t192 -53q127 0 191.5 53t64.5 187v932h318v-967q0 -129 -42.5 -225.5t-120.5 -153.5t-180.5 -84.5t-230.5 -27.5 q-129 0 -232 27.5t-181 85t-120 153t-42 225.5v967h319z" />
<glyph unicode="&#x16d;" d="M756 317v672l286 19v-1008h-266l-20 96q-213 -116 -363 -116q-57 0 -104.5 17t-87.5 53.5t-63 102.5t-23 156v680l286 19v-609q0 -145 123 -145q68 0 232 63zM236 1444l204 16q3 -160 138 -160q137 0 137 160l203 -16q0 -89 -27 -156t-74.5 -106t-107.5 -58.5t-131 -19.5 q-72 0 -132.5 19.5t-108 58.5t-74.5 106t-27 156z" />
<glyph unicode="&#x16e;" horiz-adv-x="1380" d="M434 1438v-932q0 -134 64 -187t192 -53q127 0 191.5 53t64.5 187v932h318v-967q0 -129 -42.5 -225.5t-120.5 -153.5t-180.5 -84.5t-230.5 -27.5q-129 0 -232 27.5t-181 85t-120 153t-42 225.5v967h319zM612 1645q0 -36 20.5 -58t55.5 -22q36 0 56 22t20 58q0 37 -20 59 t-56 22q-35 0 -55.5 -22t-20.5 -59zM451 1645q0 101 66.5 165t170.5 64t171 -64t67 -165q0 -100 -67 -164t-171 -64t-170.5 64t-66.5 164z" />
<glyph unicode="&#x16f;" d="M502 1296q0 -36 20.5 -57.5t55.5 -21.5q36 0 55.5 21.5t19.5 57.5q0 38 -19.5 60t-55.5 22q-35 0 -55.5 -22.5t-20.5 -59.5zM340 1296q0 101 67 165.5t171 64.5t170.5 -64.5t66.5 -165.5q0 -100 -66.5 -163.5t-170.5 -63.5t-171 63.5t-67 163.5zM756 317v672l286 19 v-1008h-266l-20 96q-213 -116 -363 -116q-57 0 -104.5 17t-87.5 53.5t-63 102.5t-23 156v680l286 19v-609q0 -145 123 -145q68 0 232 63z" />
<glyph unicode="&#x170;" horiz-adv-x="1380" d="M434 1438v-932q0 -134 64 -187t192 -53q127 0 191.5 53t64.5 187v932h318v-967q0 -129 -42.5 -225.5t-120.5 -153.5t-180.5 -84.5t-230.5 -27.5q-129 0 -232 27.5t-181 85t-120 153t-42 225.5v967h319zM494 1839h294l-268 -293h-215zM918 1839h309l-269 -293h-229z" />
<glyph unicode="&#x171;" d="M756 317v672l286 19v-1008h-266l-20 96q-213 -116 -363 -116q-57 0 -104.5 17t-87.5 53.5t-63 102.5t-23 156v680l286 19v-609q0 -145 123 -145q68 0 232 63zM352 1454h289l-219 -340h-211zM752 1454h288l-219 -340h-211z" />
<glyph unicode="&#x172;" horiz-adv-x="1380" d="M434 1438v-932q0 -134 64 -187t192 -53q127 0 191.5 53t64.5 187v932h318v-967q0 -201 -99 -317.5t-276 -153.5q-64 -32 -98.5 -79.5t-34.5 -92.5q0 -34 23.5 -56t66.5 -22q32 0 76 12l28 -174q-72 -30 -155 -30q-120 0 -188 65t-68 162q0 108 96 197q-118 5 -211 35.5 t-163.5 88t-108 150t-37.5 215.5v967h319z" />
<glyph unicode="&#x173;" d="M756 317v672l286 19v-1008h-2q-65 -32 -100 -79.5t-35 -92.5q0 -34 23.5 -56t66.5 -22q33 0 76 12l29 -174q-72 -30 -156 -30q-120 0 -188 65t-68 162q0 119 119 215h-31l-20 96q-213 -116 -363 -116q-57 0 -104.5 17t-87.5 53.5t-63 102.5t-23 156v680l286 19v-609 q0 -145 123 -145q68 0 232 63z" />
<glyph unicode="&#x174;" horiz-adv-x="1945" d="M1636 1446l289 -16l-362 -1430h-373l-209 905l-209 -905h-389l-363 1430l320 16l248 -1131l223 1115l352 16l226 -1131zM1147 1839l229 -293h-301l-106 135l-107 -135h-295l232 293h348z" />
<glyph unicode="&#x175;" horiz-adv-x="1570" d="M936 1454l203 -340h-262l-97 176l-94 -176h-258l205 340h303zM8 989l297 19l170 -734l152 715l313 19l154 -734l170 734l299 -19l-283 -989h-332l-164 580l-161 -580h-332z" />
<glyph unicode="&#x176;" horiz-adv-x="1320" d="M502 0v559l-494 871l369 16l285 -578l282 578l369 -16l-494 -871v-559h-317zM836 1839l229 -293h-301l-107 135l-106 -135h-295l231 293h349z" />
<glyph unicode="&#x177;" horiz-adv-x="1044" d="M322 1008l200 -703l201 703l313 -19l-473 -1419l-311 16l139 414h-55l-328 989zM674 1454l203 -340h-263l-96 176l-94 -176h-258l205 340h303z" />
<glyph unicode="&#x178;" horiz-adv-x="1320" d="M502 0v559l-494 871l369 16l285 -578l282 578l369 -16l-494 -871v-559h-317zM428 1827q62 0 101.5 -39.5t39.5 -101.5t-40 -103t-101 -41t-102 41t-41 103q0 61 40.5 101t102.5 40zM891 1827q62 0 102.5 -40t40.5 -101q0 -62 -41 -103t-102 -41t-101 41t-40 103t40 101.5 t101 39.5z" />
<glyph unicode="&#x179;" horiz-adv-x="1185" d="M61 1153l19 285h1024l18 -285l-663 -866h665l-16 -287h-1026l-16 287l661 866h-666zM594 1839h387l-313 -293h-308z" />
<glyph unicode="&#x17a;" horiz-adv-x="962" d="M463 1454h319l-250 -340h-241zM440 254h451l-19 -254h-790l-19 238l459 507h-440l16 254h783l16 -237z" />
<glyph unicode="&#x17b;" horiz-adv-x="1185" d="M594 1870q70 0 117 -47t47 -117t-47 -117t-117 -47t-117 47t-47 117t47 117t117 47zM61 1153l19 285h1024l18 -285l-663 -866h665l-16 -287h-1026l-16 287l661 866h-666z" />
<glyph unicode="&#x17c;" horiz-adv-x="962" d="M440 254h451l-19 -254h-790l-19 238l459 507h-440l16 254h783l16 -237zM479 1446q71 0 117.5 -47t46.5 -117t-46.5 -117t-117.5 -47t-117.5 47t-46.5 117t46.5 117t117.5 47z" />
<glyph unicode="&#x17d;" horiz-adv-x="1185" d="M422 1546l-232 293h302l106 -137l107 137h294l-229 -293h-348zM61 1153l19 285h1024l18 -285l-663 -866h665l-16 -287h-1026l-16 287l661 866h-666z" />
<glyph unicode="&#x17e;" horiz-adv-x="962" d="M330 1114l-205 340h264l94 -178l97 178h256l-203 -340h-303zM440 254h451l-19 -254h-790l-19 238l459 507h-440l16 254h783l16 -237z" />
<glyph unicode="&#x17f;" horiz-adv-x="696" d="M115 0v1161q0 391 344 391q99 0 235 -32l-22 -242q-88 20 -148 20q-69 0 -96 -39.5t-27 -125.5v-1133h-286z" />
<glyph unicode="&#x192;" horiz-adv-x="811" d="M229 782v285q0 391 344 391q93 0 234 -33l-23 -241q-85 20 -147 20q-68 0 -94.5 -40t-26.5 -126v-256h264l-18 -254h-246v-485q0 -391 -344 -391q-94 0 -235 33l22 241q88 -20 147 -20q69 0 96 40t27 126v456h-219l17 254h202z" />
<glyph unicode="&#x218;" horiz-adv-x="1167" d="M436 -131l250 43q69 -79 57.5 -183.5t-90.5 -170.5l-221 14q66 75 65.5 151.5t-61.5 145.5zM111 55l55 283q95 -32 215.5 -52t216.5 -20q93 0 138 51t36 127q-3 26 -35.5 48.5t-83 39t-114 38.5t-129 45t-128 61t-111.5 83.5t-78.5 115t-29.5 153.5q0 212 137 321 t410 109q246 0 447 -74l-56 -282q-95 31 -215.5 51.5t-214.5 20.5q-91 0 -135.5 -51t-34.5 -124q3 -23 29 -43t67.5 -36t94.5 -33t111 -37.5t116 -45.5t110 -61.5t92 -81t63.5 -108t23.5 -139.5q0 -214 -137 -324t-412 -110q-244 0 -448 75z" />
<glyph unicode="&#x219;" horiz-adv-x="921" d="M313 -131l250 43q69 -79 57.5 -183.5t-90.5 -170.5l-221 14q66 75 65.5 151.5t-61.5 145.5zM111 33l41 235q66 -22 152 -35.5t151 -13.5q52 0 81.5 22.5t22.5 71.5q-2 18 -29.5 32.5t-70 26.5t-93 27t-101 40t-92 59t-67.5 90t-26 127q0 305 401 305q169 0 330 -53 l-41 -238q-66 24 -150.5 37.5t-148.5 13.5q-52 0 -81 -22t-21 -68q2 -18 29.5 -32.5t70 -26.5t93 -27t101 -39.5t92 -58.5t67.5 -90t26 -127q0 -152 -102.5 -230.5t-305.5 -78.5q-168 0 -329 53z" />
<glyph unicode="&#x21a;" horiz-adv-x="1177" d="M446 -131l250 43q69 -79 58 -183.5t-90 -170.5l-222 14q66 75 65.5 151.5t-61.5 145.5zM430 1153h-412l17 285h1124l-16 -285h-395v-1153h-318v1153z" />
<glyph unicode="&#x21b;" horiz-adv-x="815" d="M315 -131l250 43q69 -79 57.5 -183.5t-90.5 -170.5l-221 14q66 75 65.5 151.5t-61.5 145.5zM184 371v374h-155l16 254h139v301l287 17v-318h264l-16 -254h-248v-346q0 -86 28 -126t97 -40q54 0 147 21l23 -240q-133 -34 -236 -34q-346 0 -346 391z" />
<glyph unicode="&#x2c6;" horiz-adv-x="921" d="M612 1454l203 -340h-262l-96 176l-95 -176h-258l205 340h303z" />
<glyph unicode="&#x2c7;" horiz-adv-x="921" d="M309 1114l-205 340h265l94 -178l96 178h256l-203 -340h-303z" />
<glyph unicode="&#x2d8;" horiz-adv-x="890" d="M104 1444l205 16q3 -160 137 -160q138 0 138 160l202 -16q0 -89 -27 -156t-74.5 -106t-107.5 -58.5t-131 -19.5q-72 0 -132.5 19.5t-108 58.5t-74.5 106t-27 156z" />
<glyph unicode="&#x2d9;" horiz-adv-x="538" d="M268 1446q70 0 117 -47t47 -117t-47 -117t-117 -47t-117 47t-47 117t47 117t117 47z" />
<glyph unicode="&#x2da;" horiz-adv-x="686" d="M266 1296q0 -36 20.5 -57.5t55.5 -21.5q36 0 56 21.5t20 57.5q0 37 -20 59.5t-56 22.5q-35 0 -55.5 -22.5t-20.5 -59.5zM104 1296q0 101 67 165.5t171 64.5t171 -64.5t67 -165.5q0 -100 -67 -163.5t-171 -63.5t-171 63.5t-67 163.5z" />
<glyph unicode="&#x2db;" horiz-adv-x="622" d="M489 -238l29 -174q-72 -30 -156 -30q-120 0 -188 65t-68 162q0 127 140 229l213 -14q-65 -32 -100 -79.5t-35 -92.5q0 -34 23.5 -56t66.5 -22q31 0 75 12z" />
<glyph unicode="&#x2dc;" horiz-adv-x="925" d="M104 1163q9 126 78 198.5t158 72.5q49 0 90.5 -17.5t63 -39t42.5 -39t35 -17.5q53 0 64 90l186 -33q-7 -124 -75.5 -197t-157.5 -73q-49 0 -91 17.5t-64 39t-43.5 39t-35.5 17.5q-52 0 -63 -91z" />
<glyph unicode="&#x2dd;" horiz-adv-x="1038" d="M246 1454h289l-220 -340h-211zM645 1454h289l-219 -340h-211z" />
<glyph unicode="&#x3c0;" horiz-adv-x="1323" d="M1231 745h-182v-444q0 -37 18.5 -52.5t53 -13.5t96.5 19l22 -240q-118 -34 -252 -34q-99 0 -156 64.5t-57 199.5v501h-256l-61 -745h-287l92 745h-188l18 254h1155z" />
<glyph unicode="&#x1e80;" horiz-adv-x="1945" d="M584 1839h387l233 -293h-305zM1636 1446l289 -16l-362 -1430h-373l-209 905l-209 -905h-389l-363 1430l320 16l248 -1131l223 1115l352 16l226 -1131z" />
<glyph unicode="&#x1e81;" horiz-adv-x="1570" d="M8 989l297 19l170 -734l152 715l313 19l154 -734l170 734l299 -19l-283 -989h-332l-164 580l-161 -580h-332zM481 1454h320l172 -340h-242z" />
<glyph unicode="&#x1e82;" horiz-adv-x="1945" d="M971 1839h387l-314 -293h-307zM1636 1446l289 -16l-362 -1430h-373l-209 905l-209 -905h-389l-363 1430l320 16l248 -1131l223 1115l352 16l226 -1131z" />
<glyph unicode="&#x1e83;" horiz-adv-x="1570" d="M766 1454h319l-249 -340h-242zM8 989l297 19l170 -734l152 715l313 19l154 -734l170 734l299 -19l-283 -989h-332l-164 580l-161 -580h-332z" />
<glyph unicode="&#x1e84;" horiz-adv-x="1945" d="M739 1827q62 0 102 -40t40 -101q0 -62 -40.5 -103t-101.5 -41t-102 41t-41 103q0 61 40.5 101t102.5 40zM1202 1827q62 0 103 -40t41 -101q0 -62 -41 -103t-103 -41q-61 0 -101 41t-40 103t39.5 101.5t101.5 39.5zM1636 1446l289 -16l-362 -1430h-373l-209 905l-209 -905 h-389l-363 1430l320 16l248 -1131l223 1115l352 16l226 -1131z" />
<glyph unicode="&#x1e85;" horiz-adv-x="1570" d="M553 1423q61 0 101 -39.5t40 -101.5t-40 -102.5t-101 -40.5t-102 40.5t-41 102.5q0 61 40.5 101t102.5 40zM1016 1423q62 0 102.5 -40t40.5 -101q0 -62 -40.5 -102.5t-102.5 -40.5q-61 0 -101.5 40.5t-40.5 102.5q0 61 40 101t102 40zM8 989l297 19l170 -734l152 715 l313 19l154 -734l170 734l299 -19l-283 -989h-332l-164 580l-161 -580h-332z" />
<glyph unicode="&#x1ef2;" horiz-adv-x="1320" d="M502 0v559l-494 871l369 16l285 -578l282 578l369 -16l-494 -871v-559h-317zM272 1839h387l234 -293h-305z" />
<glyph unicode="&#x1ef3;" horiz-adv-x="1044" d="M322 1008l200 -703l201 703l313 -19l-473 -1419l-311 16l139 414h-55l-328 989zM213 1454h319l173 -340h-242z" />
<glyph unicode="&#x2000;" horiz-adv-x="947" />
<glyph unicode="&#x2001;" horiz-adv-x="1894" />
<glyph unicode="&#x2002;" horiz-adv-x="947" />
<glyph unicode="&#x2003;" horiz-adv-x="1894" />
<glyph unicode="&#x2004;" horiz-adv-x="631" />
<glyph unicode="&#x2005;" horiz-adv-x="473" />
<glyph unicode="&#x2006;" horiz-adv-x="315" />
<glyph unicode="&#x2007;" horiz-adv-x="315" />
<glyph unicode="&#x2008;" horiz-adv-x="236" />
<glyph unicode="&#x2009;" horiz-adv-x="378" />
<glyph unicode="&#x200a;" horiz-adv-x="105" />
<glyph unicode="&#x2010;" horiz-adv-x="651" d="M82 627h504l-17 -254h-506z" />
<glyph unicode="&#x2011;" horiz-adv-x="651" d="M82 627h504l-17 -254h-506z" />
<glyph unicode="&#x2012;" horiz-adv-x="651" d="M82 627h504l-17 -254h-506z" />
<glyph unicode="&#x2013;" horiz-adv-x="1140" d="M61 627h1035l-17 -254h-1036z" />
<glyph unicode="&#x2014;" horiz-adv-x="2158" d="M61 627h2032l-16 -254h-2034z" />
<glyph unicode="&#x2018;" horiz-adv-x="491" d="M401 1126l-280 -24q-40 112 -40 226.5t27.5 214t84.5 226.5l235 -24q-79 -173 -84 -309.5t57 -309.5z" />
<glyph unicode="&#x2019;" horiz-adv-x="491" d="M104 1745l279 24q40 -112 40 -226.5t-27.5 -214t-84.5 -226.5l-233 24q77 173 82 309.5t-56 309.5z" />
<glyph unicode="&#x201a;" horiz-adv-x="491" d="M104 301l279 25q40 -112 40 -226.5t-28 -215t-84 -226.5l-233 25q77 173 82 310t-56 308z" />
<glyph unicode="&#x201c;" horiz-adv-x="917" d="M825 1126l-280 -24q-39 113 -39.5 226.5t27.5 214.5t85 226l234 -24q-78 -174 -83.5 -309.5t56.5 -309.5zM401 1126l-280 -24q-40 112 -40 226.5t27.5 214t84.5 226.5l235 -24q-79 -173 -84 -309.5t57 -309.5z" />
<glyph unicode="&#x201d;" horiz-adv-x="917" d="M104 1745l279 24q40 -112 40 -226.5t-27.5 -214t-84.5 -226.5l-233 24q77 173 82 309.5t-56 309.5zM528 1745l281 24q40 -112 40 -226.5t-27.5 -214t-84.5 -226.5l-235 24q77 174 82.5 309.5t-56.5 309.5z" />
<glyph unicode="&#x201e;" horiz-adv-x="917" d="M104 301l279 25q40 -112 40 -226.5t-28 -215t-84 -226.5l-233 25q77 173 82 310t-56 308zM528 301l281 25q40 -112 40 -226.5t-28 -215t-84 -226.5l-235 25q77 174 82.5 310t-56.5 308z" />
<glyph unicode="&#x2020;" horiz-adv-x="1124" d="M723 -127l-322 -16l62 886l-420 -32l18 288l402 -34l-60 465l320 16l-59 -481l419 34l-18 -288l-401 32z" />
<glyph unicode="&#x2021;" horiz-adv-x="1124" d="M406 500l57 243l-420 -32l18 288l402 -34l-60 465l320 16l-59 -481l419 34l-18 -288l-401 32l59 -227l-57 -244l417 33l-16 -287l-401 33l59 -465l-319 -16l59 481l-420 -33l18 287l402 -33z" />
<glyph unicode="&#x2022;" horiz-adv-x="768" d="M63 719q0 141 89.5 230t230.5 89t230 -89t89 -230t-89 -230.5t-230 -89.5t-230.5 89.5t-89.5 230.5z" />
<glyph unicode="&#x2026;" horiz-adv-x="1957" d="M256 313q71 0 118.5 -47t47.5 -119q0 -70 -47.5 -117.5t-118.5 -47.5q-72 0 -119 47t-47 118q0 72 47 119t119 47zM979 313q72 0 119 -47t47 -119q0 -71 -47 -118t-119 -47q-71 0 -118.5 47.5t-47.5 117.5q0 72 47.5 119t118.5 47zM1702 313q72 0 119 -47t47 -119 q0 -71 -47 -118t-119 -47q-71 0 -118.5 47.5t-47.5 117.5q0 72 47.5 119t118.5 47z" />
<glyph unicode="&#x202f;" horiz-adv-x="378" />
<glyph unicode="&#x2030;" horiz-adv-x="2394" d="M1153 399q0 -243 117 -243q119 0 119 243q0 242 -119 242q-117 0 -117 -242zM942 399q0 213 88 311.5t240 98.5q329 0 329 -410q0 -411 -329 -411q-152 0 -240 98t-88 313zM1905 399q0 -243 116 -243q119 0 119 243q0 242 -119 242q-116 0 -116 -242zM1694 399 q0 214 87.5 312t239.5 98q330 0 330 -410q0 -411 -330 -411q-152 0 -239.5 98t-87.5 313zM330 0l760 1438h221l-758 -1438h-223zM254 1040q0 -243 117 -243q118 0 118 243q0 242 -118 242q-117 0 -117 -242zM43 1040q0 213 88 311.5t240 98.5q329 0 329 -410 q0 -411 -329 -411q-152 0 -240 98t-88 313z" />
<glyph unicode="&#x2039;" horiz-adv-x="667" d="M432 37l-389 389l18 162l371 375l191 -215l-246 -248l246 -248z" />
<glyph unicode="&#x203a;" horiz-adv-x="667" d="M233 963l390 -392l-17 -161l-373 -373l-190 215l248 248l-248 248z" />
<glyph unicode="&#x2044;" horiz-adv-x="366" d="M-307 0l760 1438h221l-758 -1438h-223z" />
<glyph unicode="&#x205f;" horiz-adv-x="473" />
<glyph unicode="&#x20ac;" horiz-adv-x="1224" d="M20 1004h166q29 121 86 210.5t136 141.5t170.5 77t199.5 25q193 0 379 -57l-51 -283q-112 31 -168.5 42t-126.5 11q-204 0 -276 -167h454l-18 -224h-482v-59q0 -34 3 -64h415l-18 -223h-354q38 -90 107 -129t169 -39q71 0 129.5 10.5t165.5 40.5l51 -280 q-186 -57 -379 -57q-223 0 -378 108.5t-214 345.5h-184l18 223h138q-2 20 -2 64v59h-154z" />
<glyph unicode="&#x2122;" horiz-adv-x="1222" d="M164 1307h-162l8 131h463l-6 -131h-154v-400h-149v400zM743 903l-79 352l-33 -348h-150l76 527l184 8l90 -350l70 342l201 8l78 -535h-150l-35 348l-75 -344z" />
<glyph unicode="&#x2202;" horiz-adv-x="1171" d="M770 725q-116 41 -199 41q-92 0 -148 -63.5t-56 -202.5q0 -144 54.5 -205.5t153.5 -61.5q76 0 126 44.5t69 117t18.5 157t-18.5 173.5zM229 1552h355q88 -64 173 -164.5t158 -228.5t117.5 -288t44.5 -320q0 -272 -133.5 -421.5t-368.5 -149.5q-238 0 -369.5 129.5 t-131.5 390.5q0 133 35 235.5t95.5 163t137 91t164.5 30.5q87 0 184 -33q-58 150 -180 300.5t-281 264.5z" />
<glyph unicode="&#x2206;" horiz-adv-x="1316" d="M909 287l-252 880l-251 -880h503zM1147 0h-979l-109 184l377 1246l438 16l383 -1262z" />
<glyph unicode="&#x220f;" horiz-adv-x="1380" d="M115 1438h1149v-1438h-318v1153h-512v-1153h-319v1438z" />
<glyph unicode="&#x2211;" horiz-adv-x="1105" d="M467 1153l383 -430l-389 -436h575l-18 -287h-932l-16 287l403 434l-403 432l16 285h950l-18 -285h-551z" />
<glyph unicode="&#x221a;" horiz-adv-x="1343" d="M997 1446l326 -16l-432 -1430h-436l-230 745h-196l16 254h426l201 -727z" />
<glyph unicode="&#x221e;" horiz-adv-x="1470" d="M1446 721q0 -94 -30.5 -173t-81.5 -130t-115 -79t-132 -28q-121 0 -202.5 58t-151.5 163q-68 -104 -150 -162.5t-200 -58.5q-67 0 -131 28t-115.5 79t-82.5 130t-31 173q0 95 31 174t82.5 129.5t115 78t131.5 27.5q118 0 200 -58.5t150 -162.5q34 49 65.5 84.5t74.5 69 t97 50.5t117 17q68 0 132 -28t115 -78.5t81.5 -129.5t30.5 -173zM1221 721q0 73 -43.5 114.5t-108.5 41.5q-69 0 -119 -40.5t-98 -115.5q48 -75 98 -115.5t119 -40.5q65 0 108.5 41.5t43.5 114.5zM401 565q66 0 115 40t98 116q-49 76 -98 116t-115 40q-64 0 -108.5 -41.5 t-44.5 -114.5t44.5 -114.5t108.5 -41.5z" />
<glyph unicode="&#x222b;" horiz-adv-x="811" d="M229 72v995q0 391 344 391q93 0 234 -33l-23 -241q-85 20 -147 20q-68 0 -94.5 -40t-26.5 -126v-995q0 -391 -344 -391q-94 0 -235 33l22 241q88 -20 147 -20q69 0 96 40t27 126z" />
<glyph unicode="&#x2248;" horiz-adv-x="1132" d="M752 754q-66 0 -118.5 18t-84.5 44t-57.5 52t-51.5 44t-53 18q-33 0 -59 -34t-37 -105l-254 36q8 93 41.5 169t81.5 123.5t105 73.5t116 26q65 0 117.5 -18t85 -44.5t59 -52.5t53 -44t52.5 -18q32 0 58 35.5t36 106.5l254 -39q-8 -93 -41 -168.5t-81 -123.5t-105.5 -73.5 t-116.5 -25.5zM752 221q-66 0 -118.5 18t-84.5 44t-57.5 52t-51.5 44t-53 18q-33 0 -59 -35t-37 -106l-254 39q8 93 41.5 168.5t81.5 122.5t105 72.5t116 25.5q65 0 117.5 -18t85 -44t59 -52t53 -44t52.5 -18q32 0 58 35t36 106l254 -37q-8 -93 -41 -169t-81 -123.5 t-105 -73t-117 -25.5z" />
<glyph unicode="&#x2260;" horiz-adv-x="1132" d="M53 547h324l125 346h-465l16 254h541l78 215l252 -8l-76 -207h248l-17 -254h-323l-125 -346h465l-17 -254h-540l-78 -217l-252 8l76 209h-248z" />
<glyph unicode="&#x2264;" horiz-adv-x="1132" d="M942 332l-905 373l16 253l889 365l94 -238l-702 -258l702 -260zM53 254h1043l-17 -254h-1042z" />
<glyph unicode="&#x2265;" horiz-adv-x="1132" d="M131 1323l907 -373l-18 -254l-889 -364l-92 235l700 260l-700 258zM53 254h1043l-17 -254h-1042z" />
<glyph unicode="&#x25ca;" horiz-adv-x="1306" d="M494 1438h319l410 -719l-410 -719h-319l-410 719zM446 719l207 -408l209 408l-209 407z" />
<glyph unicode="&#x25fc;" horiz-adv-x="1003" d="M0 1004h1004v-1004h-1004v1004z" />
</font>
</defs>
</svg>
