<?xml version="1.0" standalone="no"?>
<!DOCTYPE svg PUBLIC "-//W3C//DTD SVG 1.1//EN" "http://www.w3.org/Graphics/SVG/1.1/DTD/svg11.dtd" >
<svg xmlns="http://www.w3.org/2000/svg">
<metadata></metadata>
<defs>
<font id="gloriolasemibold_italic" horiz-adv-x="1157" >
<font-face units-per-em="2048" ascent="1552" descent="-496" />
<missing-glyph horiz-adv-x="501" />
<glyph unicode="&#xfb01;" horiz-adv-x="1247" d="M854 745h-375l-96 -796q-46 -391 -391 -391q-98 0 -232 32l54 242q85 -20 143 -20q69 0 101.5 40t41.5 125l93 768h-156l49 254h139l19 162q9 67 24.5 122t44.5 106.5t69.5 86t100.5 55.5t135 21q93 0 218 -32l-52 -242q-72 20 -127 20q-62 0 -91 -39.5t-38 -125.5 l-16 -134h659l-120 -999h-287zM1083 1446q65 0 105.5 -39t40.5 -100q0 -79 -55 -134t-132 -55q-64 0 -104.5 39.5t-40.5 102.5q0 77 55 131.5t131 54.5z" />
<glyph unicode="&#xfb02;" horiz-adv-x="1355" d="M795 254l127 1032q-114 12 -179 12q-110 0 -157.5 -39.5t-59.5 -134.5l-14 -125h233l-49 -254h-217l-96 -796q-46 -391 -391 -391q-98 0 -232 32l54 242q85 -20 143 -20q69 0 101.5 40t41.5 125l93 768h-156l49 254h139l19 162q27 215 152 303t372 88q192 0 467 -34 l-148 -1205q-7 -63 40.5 -72.5t150.5 19.5l-6 -242q-145 -38 -260 -38q-52 0 -94 16t-73.5 47.5t-45 85.5t-4.5 125z" />
<glyph unicode="&#xfb03;" horiz-adv-x="1908" d="M1833 999l-123 -999h-287l90 745h-372l-97 -796q-11 -85 -35 -151t-68 -122.5t-117 -87t-171 -30.5q-100 0 -231 32l51 242q88 -20 145 -20q69 0 101 39.5t43 125.5l92 768h-375l-96 -796q-46 -391 -391 -391q-98 0 -232 32l54 242q85 -20 143 -20q69 0 101.5 40 t41.5 125l93 768h-156l49 254h139l19 162q50 391 393 391q98 0 229 -32l-51 -242q-82 20 -145 20q-68 0 -100.5 -40t-41.5 -125l-16 -134h373l20 162q46 391 375 391q92 0 217 -32l-51 -242q-75 20 -129 20q-61 0 -89.5 -39.5t-39.5 -125.5l-17 -134h662zM1743 1446 q66 0 105.5 -38.5t39.5 -100.5q0 -79 -53.5 -134t-130.5 -55q-66 0 -105.5 39.5t-39.5 102.5q0 77 55 131.5t129 54.5z" />
<glyph unicode="&#xfb04;" horiz-adv-x="2015" d="M1454 254l127 1032q-111 12 -178 12q-109 0 -156.5 -40t-58.5 -134l-17 -125h234l-49 -254h-215l-97 -796q-46 -391 -391 -391q-100 0 -231 32l51 242q88 -20 145 -20q69 0 101 39.5t43 125.5l92 768h-375l-96 -796q-46 -391 -391 -391q-98 0 -232 32l54 242 q85 -20 143 -20q69 0 101.5 40t41.5 125l93 768h-156l49 254h139l19 162q50 391 393 391q98 0 229 -32l-51 -242q-82 20 -145 20q-68 0 -100.5 -40t-41.5 -125l-16 -134h373l20 162q27 215 151.5 303t370.5 88q194 0 469 -34l-149 -1205q-7 -63 40 -72.5t152 19.5l-6 -242 q-149 -38 -260 -38q-110 0 -173.5 68t-45.5 206z" />
<glyph horiz-adv-x="0" />
<glyph horiz-adv-x="682" />
<glyph unicode=" "  horiz-adv-x="501" />
<glyph unicode="&#x09;" horiz-adv-x="501" />
<glyph unicode="&#xa0;" horiz-adv-x="501" />
<glyph unicode="!" horiz-adv-x="714" d="M471 453l-287 -19l107 1004h319zM311 313q66 0 108 -40t42 -103q0 -78 -56.5 -133t-132.5 -55q-65 0 -106 40.5t-41 102.5q0 79 54.5 133.5t131.5 54.5z" />
<glyph unicode="&#x22;" horiz-adv-x="782" d="M158 1438h276l-110 -613h-207zM537 1438h274l-109 -613h-206z" />
<glyph unicode="#" horiz-adv-x="1132" d="M82 1110h192l74 332l252 -8l-72 -324h236l72 332l251 -8l-69 -324h131l-19 -254h-163l-62 -272h160l-18 -254h-193l-74 -334l-252 8l72 326h-235l-72 -334l-252 8l70 326h-131l18 254h164l61 272h-157zM477 856l-61 -272h235l62 272h-236z" />
<glyph unicode="$" horiz-adv-x="1187" d="M842 1688l-31 -234q195 -13 344 -70l-90 -282q-92 31 -210 51.5t-212 20.5q-92 0 -144.5 -53t-47.5 -128q2 -24 30.5 -45.5t73.5 -36.5t102 -35.5t116 -41t115.5 -54t100.5 -74t71 -102.5t27 -137q0 -196 -116 -320.5t-338 -156.5l-27 -223l-241 -17l28 234 q-200 13 -348 71l88 283q92 -32 210 -52t214 -20q94 0 148 53.5t49 131.5q-2 24 -30.5 45.5t-73.5 36.5t-102 35.5t-116 41t-116 54.5t-101 74.5t-71 103t-27 137.5q0 188 115 313t341 156l27 223z" />
<glyph unicode="%" horiz-adv-x="1644" d="M1108 287q0 -131 86 -131q68 0 118 86.5t50 265.5q0 133 -88 133q-67 0 -116.5 -86.5t-49.5 -267.5zM899 299q0 130 30 230t83.5 160t122 90t151.5 30q285 0 285 -309q0 -256 -108 -384t-281 -128q-283 0 -283 311zM248 0l932 1438h225l-930 -1438h-227zM289 928 q0 -131 86 -131q68 0 118 86.5t50 265.5q0 133 -88 133q-67 0 -116.5 -86.5t-49.5 -267.5zM80 940q0 130 30 230t83.5 160t122 90t151.5 30q285 0 285 -309q0 -256 -108.5 -384t-281.5 -128q-282 0 -282 311z" />
<glyph unicode="&#x26;" horiz-adv-x="1304" d="M555 860h750l-52 -287h-188l-94 -772l-322 -18l27 223q-104 -26 -213 -26q-191 0 -308.5 84t-117.5 245q0 275 287 420q-162 116 -162 293q0 209 147.5 322.5t399.5 113.5q198 0 436 -74l-88 -282q-210 72 -344 72q-110 0 -172 -44.5t-62 -123.5q0 -84 76 -146zM745 573 h-260q-123 -70 -123 -184q0 -63 51.5 -94t139.5 -31q65 0 158 21z" />
<glyph unicode="'" horiz-adv-x="403" d="M158 1438h276l-110 -613h-207z" />
<glyph unicode="(" horiz-adv-x="770" d="M100 575q0 262 72 493t220.5 420.5t361.5 305.5l172 -172q-537 -334 -537 -1020q0 -217 81 -382t247 -290l-211 -172q-196 118 -301 326.5t-105 490.5z" />
<glyph unicode=")" horiz-adv-x="770" d="M696 977q0 -262 -71.5 -493t-220 -420.5t-361.5 -305.5l-172 172q537 337 537 1020q0 429 -328 672l211 172q196 -118 300.5 -326t104.5 -491z" />
<glyph unicode="*" horiz-adv-x="1040" d="M90 1024l105 272l270 -129l4 297l283 19l-70 -309l283 120l71 -262l-309 -63l172 -219l-240 -179l-124 277l-183 -264l-219 149l236 232z" />
<glyph unicode="+" horiz-adv-x="1132" d="M422 188v404h-385l16 254h369v387l287 16v-403h387l-17 -254h-370v-385z" />
<glyph unicode="," horiz-adv-x="512" d="M53 301l283 25q16 -69 17 -137t-9.5 -131t-34.5 -131.5t-54.5 -131.5t-72.5 -137l-233 25q100 172 122 310t-18 308z" />
<glyph unicode="-" horiz-adv-x="651" d="M76 627h504l-50 -254h-503z" />
<glyph unicode="." horiz-adv-x="512" d="M211 313q66 0 106.5 -40t40.5 -103q0 -78 -56 -133t-132 -55q-64 0 -104.5 40.5t-40.5 102.5q0 79 54.5 133.5t131.5 54.5z" />
<glyph unicode="/" horiz-adv-x="733" d="M702 1716l256 -8l-903 -1872l-256 8z" />
<glyph unicode="0" horiz-adv-x="1378" d="M420 545q0 -279 203 -279q159 0 251.5 170t92.5 453q0 285 -205 285q-159 0 -250.5 -170.5t-91.5 -458.5zM88 541q0 427 190.5 672t507.5 245q118 0 210 -31t161.5 -96.5t106 -175t36.5 -258.5q0 -426 -190 -671.5t-506 -245.5q-118 0 -210.5 31.5t-162 97.5t-106.5 175 t-37 257z" />
<glyph unicode="1" horiz-adv-x="782" d="M584 0h-318l133 1104l-333 -127l36 309l402 152h256z" />
<glyph unicode="2" horiz-adv-x="1118" d="M1036 1004q-13 -182 -165.5 -357t-440.5 -360h569l-49 -287h-964l16 287q364 242 535.5 409t181.5 308q6 85 -42.5 127.5t-156.5 42.5q-133 0 -358 -72l-21 282q263 74 457 74q86 0 155.5 -14.5t128 -48t96 -85t53.5 -129t5 -177.5z" />
<glyph unicode="3" horiz-adv-x="1105" d="M358 860h244q59 38 89 87t30 97q0 62 -50 96t-149 34q-130 0 -360 -72l-19 282q257 74 455 74q100 0 180.5 -18t142 -55.5t95 -101t33.5 -148.5q0 -255 -246 -406q201 -116 201 -311q0 -89 -30.5 -162t-84 -124t-128.5 -85.5t-162.5 -50.5t-186.5 -16q-245 0 -439 75 l88 283q206 -72 369 -72q123 0 189.5 42t66.5 126q0 82 -82 139h-299z" />
<glyph unicode="4" horiz-adv-x="1183" d="M395 1438h318q-35 -273 -128 -469t-268 -402h308l37 297l321 19l-41 -316h201l-53 -286h-183l-33 -281h-317l33 281h-594l18 286q168 194 258.5 402t122.5 469z" />
<glyph unicode="5" horiz-adv-x="1087" d="M477 1153l-37 -309q99 18 176 18q102 0 179.5 -27.5t124 -76.5t69.5 -113t23 -141q0 -242 -154 -383t-444 -141q-226 0 -420 75l88 283q206 -72 350 -72q120 0 192 54.5t72 156.5q0 66 -52 100.5t-169 34.5h-352l102 826h832l-51 -285h-529z" />
<glyph unicode="6" horiz-adv-x="1222" d="M795 1174q-136 0 -227 -95t-128 -274q178 90 344 90q79 0 144.5 -22t116.5 -65t79.5 -114t28.5 -164q0 -245 -161.5 -397.5t-438.5 -152.5q-221 0 -347 132.5t-126 395.5q0 230 57 413t156.5 299t230.5 177t283 61q197 0 383 -57l-92 -283q-118 33 -174 44.5t-129 11.5z M678 643q-98 0 -264 -65v-62q0 -144 44.5 -205t127.5 -61q112 0 178.5 71t66.5 179q0 68 -38 105.5t-115 37.5z" />
<glyph unicode="7" horiz-adv-x="1001" d="M477 0h-319q31 252 110.5 461.5t196.5 373t287 318.5h-684l51 285h952l-18 -285q-274 -288 -404.5 -548.5t-171.5 -604.5z" />
<glyph unicode="8" horiz-adv-x="1230" d="M709 1458q226 0 344 -97t118 -243q0 -128 -72.5 -220t-205.5 -163q117 -62 176 -139.5t59 -181.5q0 -142 -77.5 -241t-210 -146t-310.5 -47q-238 0 -369.5 83.5t-131.5 247.5q0 271 325 426q-96 57 -146 128.5t-50 168.5q0 81 35.5 156t102 135.5t173.5 96.5t240 36z M637 856q105 36 159 95.5t54 115.5q0 52 -43.5 86.5t-128.5 34.5q-98 0 -150.5 -46t-52.5 -106q0 -53 41.5 -101t120.5 -79zM612 612q-130 -49 -195 -112.5t-65 -128.5q0 -56 54 -88.5t155 -32.5q120 0 185 44t65 122q0 54 -51 105.5t-148 90.5z" />
<glyph unicode="9" horiz-adv-x="1222" d="M438 266q136 0 226.5 93.5t128.5 273.5q-178 -90 -344 -90q-163 0 -265 92t-102 274q0 245 161 397t437 152q221 0 348 -133t127 -395q0 -184 -37.5 -339.5t-104 -267t-158 -189.5t-200 -116t-229.5 -38q-197 0 -383 59l92 280q117 -32 173.5 -42.5t129.5 -10.5zM555 797 q103 0 264 63q2 20 2 62q0 143 -45 204.5t-129 61.5q-112 0 -179 -70.5t-67 -177.5q0 -68 38.5 -105.5t115.5 -37.5z" />
<glyph unicode=":" horiz-adv-x="512" d="M211 313q66 0 106.5 -40t40.5 -103q0 -78 -56 -133t-132 -55q-64 0 -104.5 40.5t-40.5 102.5q0 79 54.5 133.5t131.5 54.5zM297 1016q66 0 106.5 -40.5t40.5 -103.5q0 -79 -55.5 -133.5t-132.5 -54.5q-64 0 -104.5 40.5t-40.5 102.5q0 79 54.5 134t131.5 55z" />
<glyph unicode=";" horiz-adv-x="512" d="M53 301l283 25q16 -69 17 -137t-9.5 -131t-34.5 -131.5t-54.5 -131.5t-72.5 -137l-233 25q100 172 122 310t-18 308zM270 1016q66 0 107 -40.5t41 -103.5q0 -78 -56.5 -133t-132.5 -55q-64 0 -105.5 40.5t-41.5 102.5q0 79 55.5 134t132.5 55z" />
<glyph unicode="&#x3c;" horiz-adv-x="1132" d="M973 178l-905 418l16 254l889 412l94 -238l-702 -305l702 -305z" />
<glyph unicode="=" horiz-adv-x="1132" d="M53 1147h1043l-17 -254h-1042zM53 547h1043l-17 -254h-1042z" />
<glyph unicode="&#x3e;" horiz-adv-x="1132" d="M160 1262l905 -418l-16 -254l-889 -412l-94 236l700 305l-700 305z" />
<glyph unicode="?" horiz-adv-x="1038" d="M647 655l-29 -202l-286 -19l37 365q177 27 262.5 100.5t85.5 149.5q0 58 -50.5 91.5t-146.5 33.5q-131 0 -364 -68l-19 283q257 69 455 69q133 0 231 -31.5t158.5 -106t60.5 -187.5q0 -148 -97.5 -277t-297.5 -201zM459 313q66 0 106.5 -40t40.5 -103q0 -78 -56 -133 t-132 -55q-64 0 -105 40.5t-41 102.5q0 79 55 133.5t132 54.5z" />
<glyph unicode="@" horiz-adv-x="2066" d="M1483 850l-68 -547q-6 -88 60 -88q93 0 145.5 111.5t52.5 308.5q0 265 -148 405t-417 140q-129 0 -241.5 -31.5t-207.5 -99t-163 -168t-106 -245.5t-38 -323q0 -254 140.5 -386t402.5 -132q180 0 348 74l92 -223q-201 -88 -440 -88q-383 0 -594 198.5t-211 556.5 q0 221 51 403.5t142.5 311.5t219.5 217t280 130t325 42q392 0 609.5 -201.5t217.5 -580.5q0 -315 -132 -485t-361 -170q-196 0 -236 198q-89 -94 -191 -146t-196 -52q-99 0 -167 53.5t-98 139t-30 196.5q0 287 142.5 454.5t369.5 167.5q236 0 447 -141zM1190 690 q-84 47 -166 47q-95 0 -156 -82.5t-61 -251.5q0 -161 80 -161q51 0 125.5 58.5t146.5 158.5z" />
<glyph unicode="A" horiz-adv-x="1347" d="M836 559l-99 608l-250 -608h349zM874 274h-491l-111 -274h-333l604 1430l440 16l262 -1446h-325z" />
<glyph unicode="B" horiz-adv-x="1253" d="M457 860h286q58 39 88.5 88.5t30.5 100.5q0 46 -31 75t-88 29h-249zM35 23l174 1415h620q172 0 266.5 -88t94.5 -226q0 -241 -244 -393q203 -117 203 -313q0 -109 -46 -192.5t-130.5 -137t-201.5 -81t-263 -27.5q-231 0 -473 43zM750 573h-328l-37 -292q99 -15 182 -15 q128 0 197.5 45.5t69.5 122.5q0 80 -84 139z" />
<glyph unicode="C" horiz-adv-x="1224" d="M840 1174q-89 0 -160.5 -29t-130 -93.5t-91 -181.5t-32.5 -280q0 -175 77 -249.5t224 -74.5q80 0 147 11t185 42l18 -282q-205 -57 -407 -57q-102 0 -187.5 19t-159 62.5t-124.5 109.5t-80 164.5t-29 223.5q0 195 42.5 350.5t114 256.5t170.5 168t206.5 95.5t228.5 28.5 q204 0 393 -57l-90 -283q-116 33 -177.5 44.5t-137.5 11.5z" />
<glyph unicode="D" horiz-adv-x="1411" d="M748 1438q281 0 432 -140t151 -428q0 -219 -60 -389t-170.5 -279.5t-263 -165.5t-341.5 -56q-234 0 -459 57l172 1401h539zM709 1153h-215l-109 -872q76 -15 178 -15q202 0 317 149t115 416q0 322 -286 322z" />
<glyph unicode="E" horiz-adv-x="1134" d="M33 0l176 1438h950l-51 -285h-614l-37 -293h514l-53 -287h-496l-37 -286h633l-51 -287h-934z" />
<glyph unicode="F" horiz-adv-x="1089" d="M414 506l-62 -506h-319l176 1438h950l-51 -285h-614l-45 -362h514l-54 -285h-495z" />
<glyph unicode="G" horiz-adv-x="1370" d="M860 1174q-95 0 -171.5 -31t-136.5 -97.5t-93 -182.5t-33 -275q0 -172 77 -247t230 -75q87 0 156 19l29 235h-236l53 287h537l-90 -737q-263 -90 -500 -90q-106 0 -194.5 19t-163 62.5t-126 110t-80 164t-28.5 221.5q0 196 43.5 352t117 257t175.5 168t212 95.5t234 28.5 q211 0 410 -57l-90 -283q-188 56 -332 56z" />
<glyph unicode="H" horiz-adv-x="1380" d="M209 1438h319l-71 -578h512l71 578h318l-176 -1438h-318l70 573h-512l-70 -573h-319z" />
<glyph unicode="I" horiz-adv-x="548" d="M209 1438h319l-176 -1438h-319z" />
<glyph unicode="J" horiz-adv-x="600" d="M260 1438h320l-146 -1188q-16 -129 -60.5 -228t-115.5 -177.5t-186 -163.5l-217 186q121 95 184 184t76 199z" />
<glyph unicode="K" horiz-adv-x="1300" d="M844 -8l-416 624l-76 -616h-319l176 1438h319l-75 -615l551 623l368 -16l-643 -711l488 -711z" />
<glyph unicode="L" horiz-adv-x="1073" d="M209 1438h319l-143 -1151h592l-51 -287h-893z" />
<glyph unicode="M" horiz-adv-x="1875" d="M688 -8l-166 1067l-246 -1059h-309l379 1430l395 16l160 -1045l410 1029l395 16l39 -1446h-313l12 1061l-420 -1053z" />
<glyph unicode="N" horiz-adv-x="1380" d="M453 899l-109 -899h-311l174 1430l299 16l432 -907l111 899h309l-176 -1430l-297 -16z" />
<glyph unicode="O" horiz-adv-x="1521" d="M688 266q86 0 161 36.5t134 107t93 187t34 265.5q0 154 -71 233t-201 79q-86 0 -161 -36.5t-134 -107.5t-93 -187.5t-34 -264.5q0 -156 70.5 -234t201.5 -78zM672 -20q-133 0 -238 34t-184 104t-121.5 184t-42.5 267q0 211 57.5 380t160 280t243 170t307.5 59 q132 0 238 -34t184.5 -104t121 -184.5t42.5 -267.5q0 -211 -57 -380t-159.5 -279.5t-243 -169.5t-308.5 -59z" />
<glyph unicode="P" horiz-adv-x="1218" d="M494 1153l-54 -426q78 -12 133 -12q129 0 213 65.5t84 198.5q0 174 -245 174h-131zM406 440l-54 -440h-319l176 1438h483q246 0 381 -103.5t135 -310.5q0 -143 -51 -258t-140 -188t-205.5 -111.5t-250.5 -38.5q-57 0 -155 12z" />
<glyph unicode="Q" horiz-adv-x="1521" d="M672 -20q-133 0 -238 34t-184 104t-121.5 184t-42.5 267q0 211 57.5 380t160 280t243 170t307.5 59q132 0 238 -34t184.5 -104t121 -184.5t42.5 -267.5q0 -288 -103.5 -491.5t-287.5 -304.5q24 -181 137 -181q29 0 139 31l6 -260q-151 -41 -268 -41q-131 0 -214 84 t-112 277q-23 -2 -65 -2zM688 266q86 0 161 36.5t134 107t93 187t34 265.5q0 154 -71 233t-201 79q-86 0 -161 -36.5t-134 -107.5t-93 -187.5t-34 -264.5q0 -156 70.5 -234t201.5 -78z" />
<glyph unicode="R" horiz-adv-x="1269" d="M410 475l-58 -475h-319l176 1438h465q247 0 382.5 -101.5t135.5 -302.5q0 -170 -72.5 -293.5t-201.5 -193.5l227 -539l-367 -16l-172 473h-43q-78 0 -153 10zM494 1167l-52 -419q80 -13 133 -13q130 0 213.5 64t83.5 196q0 88 -60.5 130t-186.5 42h-131z" />
<glyph unicode="S" horiz-adv-x="1167" d="M35 55l88 283q92 -32 210 -52t214 -20q94 0 147.5 53.5t48.5 131.5q-2 24 -30.5 45.5t-73.5 36.5t-102 35.5t-116 41t-116 54.5t-101 74.5t-71 103t-27 137.5q0 217 152.5 348t448.5 131q243 0 438 -74l-90 -282q-92 31 -210 51.5t-212 20.5q-92 0 -145 -53t-48 -128 q2 -24 30.5 -45.5t73.5 -36.5t102 -35.5t116 -41t116 -54t101 -74t71 -102.5t27 -137q0 -227 -155.5 -357t-448.5 -130q-244 0 -438 75z" />
<glyph unicode="T" horiz-adv-x="1177" d="M489 1153h-411l51 285h1124l-51 -285h-395l-141 -1153h-318z" />
<glyph unicode="U" horiz-adv-x="1380" d="M528 1438l-116 -932q-16 -134 41.5 -187t185.5 -53q127 0 198 53t87 187l116 932h318l-119 -967q-13 -104 -51 -186.5t-95.5 -139t-134.5 -94t-164.5 -54.5t-189.5 -17q-129 0 -228.5 27.5t-170 85t-101 153t-14.5 225.5l119 967h319z" />
<glyph unicode="V" horiz-adv-x="1343" d="M1087 1446l328 -16l-606 -1430h-436l-260 1430l323 16l182 -1174z" />
<glyph unicode="W" horiz-adv-x="1945" d="M1718 1446l299 -16l-536 -1430h-373l-100 905l-318 -905h-389l-188 1430l323 16l105 -1131l350 1115l369 16l81 -1131z" />
<glyph unicode="X" horiz-adv-x="1351" d="M-59 8l553 723l-379 699l354 16l236 -465l335 465l381 -16l-555 -721l379 -701l-354 -16l-238 463l-336 -463z" />
<glyph unicode="Y" horiz-adv-x="1320" d="M420 0l67 559l-387 871l363 16l215 -578l354 578l373 -16l-598 -871l-70 -559h-317z" />
<glyph unicode="Z" horiz-adv-x="1185" d="M121 1153l53 285h1024l-18 -285l-760 -866h655l-49 -287h-1026l16 287l760 866h-655z" />
<glyph unicode="[" horiz-adv-x="706" d="M293 1716h536l-47 -254h-231l-170 -1372h250l-47 -254h-521z" />
<glyph unicode="\" horiz-adv-x="733" d="M27 1708l247 8l455 -1872l-248 -8z" />
<glyph unicode="]" horiz-adv-x="706" d="M436 -164h-534l47 254h231l170 1372h-250l47 254h519z" />
<glyph unicode="^" horiz-adv-x="1044" d="M1008 449l-314 -19l-114 705l-287 -705l-313 19l450 989h371z" />
<glyph unicode="_" horiz-adv-x="995" d="M-70 -59h971l-45 -224h-969z" />
<glyph unicode="`" horiz-adv-x="700" d="M201 1454h313l135 -340h-235z" />
<glyph unicode="a" horiz-adv-x="1120" d="M1034 915l-110 -915h-287l20 188q-202 -208 -358 -208q-83 0 -144.5 55t-91.5 146t-30 204q0 136 32.5 249t96.5 200.5t169.5 136.5t243.5 49q191 0 459 -105zM723 717q-88 49 -170 49q-97 0 -160 -86t-63 -260q0 -166 82 -166q51 0 129 60.5t153 162.5z" />
<glyph unicode="b" horiz-adv-x="1118" d="M43 84l178 1452l291 16l-92 -741q203 209 358 209q83 0 144.5 -55.5t91.5 -146.5t30 -204q0 -136 -32.5 -249t-96.5 -200t-169.5 -136t-243.5 -49q-193 0 -459 104zM354 283q84 -50 170 -50q97 0 160.5 86.5t63.5 260.5q0 165 -82 165q-51 0 -130 -61t-153 -164z" />
<glyph unicode="c" horiz-adv-x="915" d="M45 389q0 130 30 236.5t82 179t122.5 121.5t150.5 71.5t168 22.5q137 0 303 -35l-67 -248q-151 29 -234 29q-262 0 -262 -340q0 -91 32 -139.5t105 -48.5q100 0 299 96l39 -238q-217 -116 -383 -116q-179 0 -282 111t-103 298z" />
<glyph unicode="d" horiz-adv-x="1120" d="M1114 1552l-190 -1552h-289l22 188q-202 -208 -358 -208q-83 0 -144.5 55t-91.5 146t-30 204q0 151 41 273.5t111 200.5t161 119.5t193 41.5q99 0 217 -41l67 557zM723 717q-88 49 -170 49q-97 0 -160 -86t-63 -260q0 -166 82 -166q51 0 129 60.5t153 162.5z" />
<glyph unicode="e" horiz-adv-x="962" d="M762 328l41 -232q-223 -116 -389 -116q-178 0 -279.5 110.5t-101.5 298.5q0 157 45 280t122 198.5t174.5 114t209.5 38.5q156 0 240.5 -77.5t84.5 -184.5q0 -164 -142.5 -273t-434.5 -145q-3 -50 23 -83.5t85 -33.5q109 0 322 105zM547 782q-77 0 -139.5 -66.5 t-75.5 -176.5q152 23 222.5 74t70.5 106q0 27 -21 45t-57 18z" />
<glyph unicode="f" horiz-adv-x="765" d="M225 999l19 162q50 391 393 391q98 0 229 -32l-51 -242q-82 20 -145 20q-68 0 -100.5 -40t-41.5 -125l-16 -134h264l-49 -254h-248l-96 -796q-46 -391 -391 -391q-98 0 -232 32l54 242q85 -20 143 -20q69 0 101.5 40t41.5 125l93 768h-156l49 254h139z" />
<glyph unicode="g" horiz-adv-x="1126" d="M729 717q-88 49 -170 49q-97 0 -161 -86t-64 -260q0 -166 84 -166q51 0 128 60.5t152 162.5zM643 6l21 182q-202 -208 -361 -208q-123 0 -193.5 115.5t-70.5 289.5q0 136 32.5 249t97 200.5t169.5 136.5t242 49q192 0 460 -105l-108 -884q-16 -124 -68.5 -218 t-130.5 -148t-167.5 -80.5t-188.5 -26.5q-192 0 -369 73l66 250q214 -69 336 -69q87 0 154.5 50t78.5 144z" />
<glyph unicode="h" d="M674 0l76 625q13 120 -76 120q-45 0 -121.5 -57.5t-169.5 -167.5l-64 -520h-286l188 1536l289 16l-90 -741q212 209 393 209q270 0 231 -330l-83 -690h-287z" />
<glyph unicode="i" horiz-adv-x="518" d="M154 989l290 19l-125 -1008h-286zM352 1446q66 0 106 -38.5t40 -100.5q0 -79 -54 -134t-131 -55q-66 0 -105.5 39.5t-39.5 102.5q0 77 55 131.5t129 54.5z" />
<glyph unicode="j" horiz-adv-x="573" d="M209 989l291 19l-115 -932q-21 -172 -96.5 -287t-233.5 -231l-194 168q110 89 168 170t69 180zM410 1446q64 0 104.5 -38.5t40.5 -100.5q0 -79 -54.5 -134t-131.5 -55q-65 0 -105.5 39.5t-40.5 102.5q0 77 55.5 131.5t131.5 54.5z" />
<glyph unicode="k" horiz-adv-x="1097" d="M664 -8l-293 428l-52 -420h-286l188 1536l289 16l-115 -925l350 381l334 -19l-442 -463l367 -518z" />
<glyph unicode="l" horiz-adv-x="624" d="M221 1536l289 16l-154 -1239q-7 -63 40.5 -72.5t152.5 19.5l-6 -242q-149 -38 -260 -38q-110 0 -174 68t-46 206z" />
<glyph unicode="m" horiz-adv-x="1716" d="M983 520l-63 -520h-287l74 625q16 120 -68 120q-39 0 -107 -57.5t-149 -167.5l-64 -520h-286l121 989l290 19l-24 -195q198 207 366 207q100 0 156 -54.5t64 -156.5q214 211 380 211q127 0 182 -85.5t36 -244.5l-84 -690h-287l74 625q13 120 -68 120q-40 0 -107.5 -57 t-148.5 -168z" />
<glyph unicode="n" d="M674 0l76 625q13 120 -76 120q-45 0 -121.5 -57.5t-169.5 -167.5l-64 -520h-286l121 989l290 19l-24 -197q212 209 393 209q270 0 231 -330l-83 -690h-287z" />
<glyph unicode="o" horiz-adv-x="1079" d="M479 233q97 0 164.5 97t67.5 241q1 96 -38 145.5t-114 49.5q-96 0 -164 -97t-69 -241q0 -195 153 -195zM449 -20q-203 0 -309.5 112t-106.5 320q0 176 70 314.5t197 216t290 77.5q204 0 310 -111.5t106 -320.5q0 -176 -70 -314.5t-197 -216t-290 -77.5z" />
<glyph unicode="p" horiz-adv-x="1118" d="M-20 -430l174 1419l290 19l-26 -197q203 209 360 209q123 0 193.5 -116t70.5 -290q0 -152 -40.5 -274t-110 -199.5t-160.5 -119t-194 -41.5q-110 0 -215 40l-54 -434zM354 283q84 -50 170 -50q97 0 160.5 86.5t63.5 260.5q0 165 -84 165q-51 0 -128.5 -61t-152.5 -164z " />
<glyph unicode="q" horiz-adv-x="1120" d="M1034 915l-162 -1329l-288 -16l73 618q-202 -208 -358 -208q-83 0 -144.5 55t-91.5 146t-30 204q0 136 32.5 249t96.5 200.5t169.5 136.5t243.5 49q191 0 459 -105zM723 717q-88 49 -170 49q-97 0 -160 -86t-63 -260q0 -166 82 -166q51 0 129 60.5t153 162.5z" />
<glyph unicode="r" horiz-adv-x="825" d="M844 997l-70 -303q-82 29 -131 29q-58 0 -118 -47t-142 -160l-64 -516h-286l121 989l290 19l-24 -191q92 105 166 154t147 49q44 0 111 -23z" />
<glyph unicode="s" horiz-adv-x="921" d="M33 33l69 235q63 -22 146.5 -35.5t148.5 -13.5q54 0 88.5 23.5t30.5 74.5q-2 17 -26.5 30.5t-63 24.5t-84.5 24.5t-92 35.5t-83.5 51.5t-61 78.5t-23.5 112q0 170 115 258t323 88q172 0 326 -53l-70 -238q-61 23 -145 37t-148 14q-51 0 -83.5 -22.5t-28.5 -71.5 q1 -17 25.5 -30.5t63 -24.5t84 -24.5t91.5 -35.5t83.5 -51.5t61 -79t23.5 -112.5q0 -167 -115.5 -257.5t-327.5 -90.5q-176 0 -327 53z" />
<glyph unicode="t" horiz-adv-x="815" d="M135 268l60 477h-158l49 254h139l37 301l289 17l-39 -318h264l-49 -254h-248l-49 -411q-9 -66 14 -79q39 -22 224 77l41 -240q-194 -112 -338 -112q-116 0 -181.5 69.5t-54.5 218.5z" />
<glyph unicode="u" d="M444 1008l-77 -633q-16 -121 75 -121q45 0 120.5 56.5t170.5 166.5l60 512l290 19l-122 -1008h-287l22 188q-208 -208 -393 -208q-273 0 -231 329l82 680z" />
<glyph unicode="v" horiz-adv-x="1044" d="M616 0h-362l-209 989l317 19l111 -693q156 302 260 693l309 -19q-141 -554 -426 -989z" />
<glyph unicode="w" horiz-adv-x="1570" d="M866 0l-94 580l-231 -580h-332l-164 989l301 19l80 -734l238 715l317 19l63 -734q161 317 236 734l293 -19q-115 -556 -377 -989h-330z" />
<glyph unicode="x" horiz-adv-x="1032" d="M518 707l207 301l336 -19l-385 -489l264 -492l-340 -16l-143 301l-207 -301l-322 16l377 492l-256 489l326 19z" />
<glyph unicode="y" horiz-adv-x="1044" d="M250 -449l-219 156q136 128 258 293h-35l-209 989l317 19l113 -703q155 295 262 703l310 -19q-114 -446 -317.5 -809t-479.5 -629z" />
<glyph unicode="z" horiz-adv-x="962" d="M397 254h441l-47 -254h-791l10 238l510 507h-430l49 254h781l-11 -237z" />
<glyph unicode="{" horiz-adv-x="792" d="M303 1069l33 272q28 223 179.5 327t361.5 40l-48 -244q-36 9 -70.5 6.5t-62 -14.5t-48 -48.5t-27.5 -96.5l-23 -189q-35 -260 -195 -346q140 -90 109 -346l-25 -188q-6 -50 3 -83.5t24.5 -49.5t46 -21.5t54 -4t63.5 6.5l-47 -248q-219 -62 -339 45t-93 326l32 270 q11 86 -11 126t-91 40h-88l47 254h82q63 3 93.5 43.5t39.5 122.5z" />
<glyph unicode="|" horiz-adv-x="589" d="M223 1716l258 19l-233 -1899l-258 -18z" />
<glyph unicode="}" horiz-adv-x="792" d="M516 483l-35 -270q-26 -224 -177.5 -328.5t-362.5 -40.5l47 244q36 -9 71 -6t63.5 15t49.5 49t27 96l24 188q28 257 193 346q-141 88 -109 346l23 189q7 51 -1.5 84.5t-24 49t-46.5 20.5t-54 3.5t-63 -6.5l47 248q219 62 339.5 -45t93.5 -324l-35 -272q-9 -86 12.5 -126 t89.5 -40h90l-49 -254h-82q-62 -1 -92 -42.5t-39 -123.5z" />
<glyph unicode="~" horiz-adv-x="1132" d="M731 512q-65 0 -114.5 18t-78.5 44t-52 52t-47.5 44t-51.5 18q-33 0 -62.5 -35t-48.5 -106l-249 39q38 181 152.5 285t238.5 104q65 0 115.5 -18t79.5 -44t52.5 -52t47 -44t49.5 -18q33 0 62.5 35t47.5 106l252 -37q-39 -183 -153 -287t-240 -104z" />
<glyph unicode="&#xa1;" horiz-adv-x="714" d="M199 547l286 16l-104 -1003h-320zM358 684q-64 0 -105.5 40.5t-41.5 102.5q0 79 55.5 134t132.5 55q66 0 107 -40.5t41 -103.5q0 -78 -56.5 -133t-132.5 -55z" />
<glyph unicode="&#xa2;" horiz-adv-x="993" d="M815 1688l-29 -234q104 -8 228 -37l-68 -250q-140 37 -262 37q-149 0 -225 -95.5t-76 -277.5q0 -219 229 -219q118 0 271 35l4 -248q-123 -30 -234 -39l-26 -215l-242 -16l31 242q-326 65 -326 426q0 146 34.5 262t97.5 193.5t143.5 124.5t179.5 67l28 227z" />
<glyph unicode="&#xa3;" horiz-adv-x="1142" d="M119 799h219q-1 2 -20 37t-24.5 48.5t-18 45t-17 61.5t-4.5 64q0 62 16 119t52 109.5t89 91t131.5 61t174.5 22.5q226 0 420 -51l-95 -283q-78 23 -182.5 36.5t-144.5 13.5q-62 0 -95.5 -34.5t-33.5 -92.5q0 -22 15 -49t34 -51t39 -64t28 -84h342l-47 -224h-319 q-34 -88 -96.5 -164.5t-139.5 -123.5h584l-53 -287h-961l8 287q63 42 100 68t85 64.5t79.5 77t51.5 78.5h-264z" />
<glyph unicode="&#xa4;" horiz-adv-x="1132" d="M150 719q0 103 38 184l-139 141l203 181l129 -129q83 39 184 39q102 0 185 -39l129 129l204 -181l-141 -141q39 -83 39 -184t-39 -184l141 -142l-202 -178l-131 127q-83 -39 -185 -39q-101 0 -184 39l-129 -127l-203 178l139 142q-38 81 -38 184zM389 719 q0 -79 49 -128.5t127 -49.5q79 0 128.5 49.5t49.5 128.5q0 80 -49.5 130t-128.5 50q-78 0 -127 -50t-49 -130z" />
<glyph unicode="&#xa5;" horiz-adv-x="1320" d="M186 842h174l-260 588l363 16l215 -578l354 578l373 -16l-404 -588h191l-45 -224h-299l-41 -59l-8 -63h350l-45 -224h-334l-33 -272h-317l33 272h-355l45 224h336l8 63l-26 59h-320z" />
<glyph unicode="&#xa6;" horiz-adv-x="589" d="M86 604l258 17l-96 -785l-258 -18zM223 1716l258 19l-96 -787l-258 -16z" />
<glyph unicode="&#xa7;" horiz-adv-x="1349" d="M1180 1116q-105 33 -246 47q-19 -106 2.5 -212.5t65.5 -198.5t91 -181t82 -192.5t35 -200.5q0 -124 -40 -227.5t-108.5 -175t-162.5 -121.5t-200.5 -73t-223.5 -23q-241 0 -436 59l90 283q102 -33 244 -47q17 89 3 181t-44.5 165t-70.5 156t-76.5 154.5t-61.5 159.5 t-25 171q0 154 60.5 274.5t164.5 194t234 111.5t277 38q240 0 438 -59zM403 870q0 -69 34.5 -157.5t81 -179t90 -191.5t64 -228t1.5 -255q108 27 170.5 100.5t62.5 185.5q0 68 -34.5 157t-81 180t-90 192t-64.5 228t-2 255q-108 -27 -170 -101t-62 -186z" />
<glyph unicode="&#xa8;" horiz-adv-x="944" d="M338 1423q57 0 92 -33t35 -87q0 -69 -47 -116.5t-113 -47.5q-57 0 -92 34.5t-35 90.5q0 66 48 112.5t112 46.5zM803 1423q56 0 91.5 -33t35.5 -87q0 -69 -47 -116.5t-115 -47.5q-57 0 -91 34.5t-34 90.5q0 67 47.5 113t112.5 46z" />
<glyph unicode="&#xa9;" horiz-adv-x="1607" d="M262 637q0 -214 130.5 -344.5t348.5 -130.5q125 0 238 48t195.5 132t131 203.5t48.5 255.5q0 215 -129 345t-348 130q-126 0 -239 -48t-196 -131.5t-131.5 -203t-48.5 -256.5zM61 610q0 182 66 340.5t178.5 269.5t267 174.5t326.5 63.5q298 0 476.5 -173.5t178.5 -457.5 q0 -182 -65.5 -340.5t-178 -269t-267 -174t-326.5 -63.5q-298 0 -477 173t-179 457zM868 940q-93 0 -152 -65t-59 -211q0 -166 156 -166q57 0 180 30l15 -182q-122 -33 -232 -33q-73 0 -131 17t-104 53t-71.5 99t-25.5 149q0 108 24.5 193.5t65 140.5t97 91.5t117 52 t129.5 15.5q112 0 221 -32l-58 -183q-8 2 -26.5 7t-25 6.5t-21 5t-21 4.5t-18 3t-20 3t-19 1.5t-21.5 0.5z" />
<glyph unicode="&#xaa;" horiz-adv-x="714" d="M743 1395l-71 -576h-203l12 111q-123 -123 -219 -123q-77 0 -122.5 74.5t-45.5 183.5q0 81 19.5 150t59.5 125.5t109.5 89t161.5 32.5q122 0 299 -67zM520 1253q-46 27 -92 27q-53 0 -87 -47t-34 -143q0 -86 41 -86q28 0 71 32t87 90z" />
<glyph unicode="&#xab;" horiz-adv-x="1169" d="M354 37l-340 389l37 162l416 375l164 -232l-277 -248l217 -247zM856 37l-340 389l37 162l416 375l164 -232l-277 -248l217 -247z" />
<glyph unicode="&#xac;" horiz-adv-x="1132" d="M801 188v404h-764l16 254h1034v-639z" />
<glyph unicode="&#xad;" horiz-adv-x="651" d="M76 627h504l-50 -254h-503z" />
<glyph unicode="&#xae;" horiz-adv-x="870" d="M438 717q-150 0 -239.5 86.5t-89.5 228.5q0 184 121 305t300 121q150 0 240 -86.5t90 -228.5q0 -184 -121.5 -305t-300.5 -121zM520 1360h-2q-126 0 -212.5 -88.5t-86.5 -222.5q0 -106 63 -170t171 -64q126 0 212.5 89t86.5 224q0 105 -63.5 168.5t-168.5 63.5zM434 1004 l-12 -117h-111l47 397h144q70 0 109.5 -30.5t39.5 -88.5q0 -94 -78 -139q8 -41 29 -41q4 0 39 10v-96q-52 -18 -82 -18q-39 0 -62 28t-32 92q-13 0 -31 3zM457 1190l-11 -88q20 -4 29 -4q26 0 43.5 12.5t20.5 36.5q0 43 -54 43h-28z" />
<glyph unicode="&#xaf;" horiz-adv-x="866" d="M205 1354h639l-41 -207h-639z" />
<glyph unicode="&#xb0;" horiz-adv-x="704" d="M305 1135q0 -43 24 -68t68 -25q54 0 86.5 36.5t32.5 95.5q0 43 -24 67.5t-68 24.5q-54 0 -86.5 -36t-32.5 -95zM104 1108q0 151 99.5 250.5t245.5 99.5q122 0 195 -71t73 -187q0 -151 -98 -250.5t-244 -99.5q-123 0 -197 71t-74 187z" />
<glyph unicode="&#xb1;" horiz-adv-x="1132" d="M422 342v358h-385l16 254h369v340l287 17v-357h387l-17 -254h-370v-340zM53 254h1043l-17 -254h-1042z" />
<glyph unicode="&#xb2;" horiz-adv-x="673" d="M713 1528q0 -63 -26 -121t-76 -110t-110.5 -96.5t-140.5 -90.5h336l-34 -168h-586l10 168q224 136 323 223.5t99 167.5q0 82 -117 82q-93 0 -217 -41l-14 166q153 43 278 43q275 0 275 -223z" />
<glyph unicode="&#xb3;" horiz-adv-x="673" d="M297 1421h147q66 51 66 99q0 63 -115 63q-86 0 -219 -41l-16 166q159 43 280 43q128 0 202.5 -44.5t74.5 -139.5q0 -142 -148 -219q123 -64 123 -174q0 -121 -97.5 -182.5t-256.5 -61.5q-154 0 -270 43l55 166q125 -41 227 -41q70 0 107 22t37 62q0 36 -52 75h-178z" />
<glyph unicode="&#xb4;" horiz-adv-x="700" d="M367 1454h325l-286 -340h-248z" />
<glyph unicode="&#xb5;" d="M444 1008l-77 -633q-16 -121 75 -121q45 0 120.5 56.5t170.5 166.5l60 512l290 19l-122 -1008h-287l22 188q-208 -208 -393 -208q-35 0 -59 12l12 -406l-276 -16l174 1419z" />
<glyph unicode="&#xb6;" horiz-adv-x="1091" d="M391 1438h701l-9 -174h-116v-1264h-185v1264h-137v-1264h-168v799h-86q-141 0 -230 89t-89 230t89 230.5t230 89.5z" />
<glyph unicode="&#xb7;" horiz-adv-x="512" d="M281 885q66 0 107.5 -40.5t41.5 -103.5q0 -78 -56 -133t-132 -55q-65 0 -106.5 40.5t-41.5 102.5q0 79 55 134t132 55z" />
<glyph unicode="&#xb8;" horiz-adv-x="628" d="M137 20h195l-82 -104q80 1 120 -38t40 -107q0 -73 -43 -123t-103.5 -70t-132.5 -20q-83 0 -162 24l49 148q74 -25 127 -25q76 0 76 43q0 17 -12.5 29t-38.5 12q-21 0 -64 -16l-57 112z" />
<glyph unicode="&#xb9;" horiz-adv-x="651" d="M496 1110h178l-33 -168h-561l33 168h182l51 432l-201 -72l23 183l242 86h163z" />
<glyph unicode="&#xba;" horiz-adv-x="686" d="M383 987q51 0 87 53t36 131q3 107 -80 107q-51 0 -87.5 -52.5t-37.5 -131.5q0 -107 82 -107zM358 807q-132 0 -199 71t-67 203q0 168 100 273.5t259 105.5q132 0 199 -71.5t67 -206.5q0 -165 -99.5 -270t-259.5 -105z" />
<glyph unicode="&#xbb;" horiz-adv-x="1169" d="M770 963l342 -392l-37 -161l-418 -373l-163 231l278 248l-219 248zM268 963l342 -392l-37 -161l-417 -373l-164 231l278 248l-219 248z" />
<glyph unicode="&#xbc;" horiz-adv-x="1591" d="M1069 797h201q-18 -147 -72.5 -256t-159.5 -224h156l16 144l207 12l-20 -156h104l-33 -167h-92l-18 -150h-203l19 150h-338l10 167q98 106 151 220t72 260zM459 809h176l-33 -168h-561l35 168h180l53 432l-203 -72l23 183l242 86h164zM242 0l932 1438h225l-930 -1438 h-227z" />
<glyph unicode="&#xbd;" horiz-adv-x="1648" d="M1559 586q0 -121 -92 -222t-259 -196h334l-35 -168h-585l10 168q224 136 323 223.5t99 167.5q0 82 -117 82q-93 0 -217 -41l-14 166q156 43 278 43q275 0 275 -223zM459 809h176l-33 -168h-561l35 168h180l53 432l-203 -72l23 183l242 86h164zM242 0l932 1438h225 l-930 -1438h-227z" />
<glyph unicode="&#xbe;" horiz-adv-x="1583" d="M1063 797h201q-18 -147 -72.5 -256t-159.5 -224h156l16 144l207 12l-20 -156h104l-33 -167h-92l-18 -150h-203l18 150h-338l11 167q98 106 151 220t72 260zM272 1120h148q65 50 65 99q0 63 -114 63q-86 0 -219 -41l-17 166q159 43 283 43q126 0 200 -44.5t74 -139.5 q0 -142 -145 -219q123 -66 123 -175q0 -81 -48 -137t-126.5 -81t-182.5 -25q-154 0 -270 43l55 166q128 -41 228 -41q70 0 106.5 22t36.5 62q0 39 -51 75h-176zM229 0l932 1438h225l-929 -1438h-228z" />
<glyph unicode="&#xbf;" horiz-adv-x="1038" d="M350 342l29 205l285 16l-37 -362q-93 -15 -163 -44t-108 -65t-56.5 -71.5t-18.5 -69.5q0 -59 49.5 -92t144.5 -33q132 0 365 65l18 -282q-273 -70 -455 -70q-99 0 -179 18.5t-141.5 56.5t-95.5 102t-34 149q0 149 97.5 277.5t299.5 199.5zM537 684q-66 0 -107 41t-41 104 q0 78 56.5 132.5t132.5 54.5q64 0 105.5 -40t41.5 -102q0 -79 -55.5 -134.5t-132.5 -55.5z" />
<glyph unicode="&#xc0;" horiz-adv-x="1347" d="M836 559l-99 608l-250 -608h349zM874 274h-491l-111 -274h-333l604 1430l440 16l262 -1446h-325zM418 1839h381l205 -293h-302z" />
<glyph unicode="&#xc1;" horiz-adv-x="1347" d="M836 559l-99 608l-250 -608h349zM874 274h-491l-111 -274h-333l604 1430l440 16l262 -1446h-325zM803 1839h393l-344 -293h-311z" />
<glyph unicode="&#xc2;" horiz-adv-x="1347" d="M836 559l-99 608l-250 -608h349zM874 274h-491l-111 -274h-333l604 1430l440 16l262 -1446h-325zM987 1839l195 -293h-295l-90 135l-123 -135h-299l264 293h348z" />
<glyph unicode="&#xc3;" horiz-adv-x="1347" d="M836 559l-99 608l-250 -608h349zM874 274h-491l-111 -274h-333l604 1430l440 16l262 -1446h-325zM412 1567q24 126 100.5 198t165.5 72q43 0 79 -11.5t59 -28.5t41 -33.5t34 -28t31 -11.5q22 0 42 22.5t31 68.5l185 -33q-24 -125 -101.5 -198t-165.5 -73q-53 0 -95.5 18 t-64 39.5t-44 39.5t-39.5 18q-54 0 -76 -90z" />
<glyph unicode="&#xc4;" horiz-adv-x="1347" d="M836 559l-99 608l-250 -608h349zM874 274h-491l-111 -274h-333l604 1430l440 16l262 -1446h-325zM582 1827q57 0 92 -33.5t35 -87.5q0 -68 -48.5 -116t-113.5 -48q-57 0 -92 34.5t-35 88.5q0 68 48 115t114 47zM1047 1827q55 0 89.5 -33.5t34.5 -87.5q0 -69 -47.5 -116.5 t-113.5 -47.5q-55 0 -90 34.5t-35 88.5q0 68 47.5 115t114.5 47z" />
<glyph unicode="&#xc5;" horiz-adv-x="1347" d="M553 1614q0 113 77 186.5t189 73.5q96 0 154.5 -54.5t58.5 -142.5q0 -80 -41.5 -142.5t-109.5 -92.5l102 4l262 -1446h-325l-46 274h-491l-111 -274h-333l604 1430l127 4q-117 49 -117 180zM836 559l-99 608l-250 -608h349zM715 1630q0 -30 17 -47.5t50 -17.5 q39 0 63.5 27t24.5 69q0 30 -18 47.5t-51 17.5q-39 0 -62.5 -26.5t-23.5 -69.5z" />
<glyph unicode="&#xc6;" horiz-adv-x="1941" d="M256 0h-360l946 1438h1124l-51 -285h-615l-36 -293h514l-54 -287h-495l-37 -286h633l-53 -287h-932l32 274h-444zM594 559h313l76 617z" />
<glyph unicode="&#xc7;" horiz-adv-x="1224" d="M840 1174q-89 0 -160.5 -29t-130 -93.5t-91 -181.5t-32.5 -280q0 -175 77 -249.5t224 -74.5q80 0 147 11t185 42l18 -282q-155 -43 -323 -53l-52 -68q80 1 120 -38t40 -107q0 -73 -42.5 -123t-103 -70t-132.5 -20q-82 0 -162 24l49 148q74 -25 127 -25q76 0 76 43 q0 17 -12.5 29t-38.5 12q-21 0 -64 -16l-57 112l65 101q-108 12 -193 49.5t-150 105t-99.5 173.5t-34.5 245q0 195 42.5 350.5t114 256.5t170.5 168t206.5 95.5t228.5 28.5q204 0 393 -57l-90 -283q-116 33 -177.5 44.5t-137.5 11.5z" />
<glyph unicode="&#xc8;" horiz-adv-x="1134" d="M365 1839h380l205 -293h-301zM33 0l176 1438h950l-51 -285h-614l-37 -293h514l-53 -287h-496l-37 -286h633l-51 -287h-934z" />
<glyph unicode="&#xc9;" horiz-adv-x="1134" d="M705 1839h393l-344 -293h-312zM33 0l176 1438h950l-51 -285h-614l-37 -293h514l-53 -287h-496l-37 -286h633l-51 -287h-934z" />
<glyph unicode="&#xca;" horiz-adv-x="1134" d="M33 0l176 1438h950l-51 -285h-614l-37 -293h514l-53 -287h-496l-37 -286h633l-51 -287h-934zM905 1839l195 -293h-295l-90 135l-123 -135h-299l264 293h348z" />
<glyph unicode="&#xcb;" horiz-adv-x="1134" d="M500 1827q57 0 92 -33.5t35 -87.5q0 -68 -48.5 -116t-113.5 -48q-57 0 -92 34.5t-35 88.5q0 68 48 115t114 47zM965 1827q56 0 90.5 -33.5t34.5 -87.5q0 -68 -48 -116t-114 -48q-55 0 -90 34.5t-35 88.5q0 68 47.5 115t114.5 47zM33 0l176 1438h950l-51 -285h-614 l-37 -293h514l-53 -287h-496l-37 -286h633l-51 -287h-934z" />
<glyph unicode="&#xcc;" horiz-adv-x="548" d="M209 1438h319l-176 -1438h-319zM-41 1839h381l205 -293h-301z" />
<glyph unicode="&#xcd;" horiz-adv-x="548" d="M209 1438h319l-176 -1438h-319zM483 1839h394l-345 -293h-311z" />
<glyph unicode="&#xce;" horiz-adv-x="548" d="M209 1438h319l-176 -1438h-319zM592 1839l194 -293h-294l-91 135l-122 -135h-299l264 293h348z" />
<glyph unicode="&#xcf;" horiz-adv-x="548" d="M209 1438h319l-176 -1438h-319zM184 1827q57 0 92 -33.5t35 -87.5q0 -68 -48 -116t-113 -48q-57 0 -92 34.5t-35 88.5q0 68 48 115t113 47zM649 1827q56 0 90.5 -33.5t34.5 -87.5q0 -68 -48 -116t-114 -48q-55 0 -90 34.5t-35 88.5q0 68 47.5 115t114.5 47z" />
<glyph unicode="&#xd0;" horiz-adv-x="1411" d="M748 1438q281 0 432 -140t151 -428q0 -219 -60 -389t-170.5 -279.5t-263 -165.5t-341.5 -56q-234 0 -459 57l72 579h-111l41 207h94l76 615h539zM709 1153h-215l-41 -330h225l-41 -207h-211l-41 -335q76 -15 178 -15q202 0 317 149t115 416q0 322 -286 322z" />
<glyph unicode="&#xd1;" horiz-adv-x="1380" d="M428 1567q24 126 100.5 198t165.5 72q43 0 79 -11.5t59 -28.5t41 -33.5t34 -28t31 -11.5q22 0 42.5 22.5t31.5 68.5l184 -33q-24 -125 -101 -198t-165 -73q-53 0 -96 18t-64.5 39.5t-44 39.5t-39.5 18q-54 0 -76 -90zM453 899l-109 -899h-311l174 1430l299 16l432 -907 l111 899h309l-176 -1430l-297 -16z" />
<glyph unicode="&#xd2;" horiz-adv-x="1521" d="M516 1839h381l205 -293h-301zM690 266q86 0 161 36.5t134 107t93 187t34 265.5q0 154 -71 233t-201 79q-86 0 -161 -36.5t-134 -107.5t-93 -187.5t-34 -264.5q0 -156 70.5 -234t201.5 -78zM674 -20q-133 0 -238 34t-184 104t-121.5 184t-42.5 267q0 211 57.5 380t160 280 t243 170t307.5 59q132 0 238 -34t184.5 -104t121 -184.5t42.5 -267.5q0 -211 -57 -380t-159.5 -279.5t-243 -169.5t-308.5 -59z" />
<glyph unicode="&#xd3;" horiz-adv-x="1521" d="M897 1839h393l-344 -293h-311zM690 266q86 0 161 36.5t134 107t93 187t34 265.5q0 154 -71 233t-201 79q-86 0 -161 -36.5t-134 -107.5t-93 -187.5t-34 -264.5q0 -156 70.5 -234t201.5 -78zM674 -20q-133 0 -238 34t-184 104t-121.5 184t-42.5 267q0 211 57.5 380 t160 280t243 170t307.5 59q132 0 238 -34t184.5 -104t121 -184.5t42.5 -267.5q0 -211 -57 -380t-159.5 -279.5t-243 -169.5t-308.5 -59z" />
<glyph unicode="&#xd4;" horiz-adv-x="1521" d="M690 266q86 0 161 36.5t134 107t93 187t34 265.5q0 154 -71 233t-201 79q-86 0 -161 -36.5t-134 -107.5t-93 -187.5t-34 -264.5q0 -156 70.5 -234t201.5 -78zM674 -20q-133 0 -238 34t-184 104t-121.5 184t-42.5 267q0 211 57.5 380t160 280t243 170t307.5 59 q132 0 238 -34t184.5 -104t121 -184.5t42.5 -267.5q0 -211 -57 -380t-159.5 -279.5t-243 -169.5t-308.5 -59zM1077 1839l195 -293h-295l-90 135l-123 -135h-299l264 293h348z" />
<glyph unicode="&#xd5;" horiz-adv-x="1521" d="M500 1567q24 126 100.5 198t165.5 72q43 0 79 -11.5t59 -28.5t41 -33.5t34 -28t31 -11.5q22 0 42 22.5t31 68.5l185 -33q-24 -125 -101.5 -198t-165.5 -73q-53 0 -95.5 18t-64 39.5t-44 39.5t-39.5 18q-54 0 -76 -90zM690 266q86 0 161 36.5t134 107t93 187t34 265.5 q0 154 -71 233t-201 79q-86 0 -161 -36.5t-134 -107.5t-93 -187.5t-34 -264.5q0 -156 70.5 -234t201.5 -78zM674 -20q-133 0 -238 34t-184 104t-121.5 184t-42.5 267q0 211 57.5 380t160 280t243 170t307.5 59q132 0 238 -34t184.5 -104t121 -184.5t42.5 -267.5 q0 -211 -57 -380t-159.5 -279.5t-243 -169.5t-308.5 -59z" />
<glyph unicode="&#xd6;" horiz-adv-x="1521" d="M670 1827q57 0 92 -33.5t35 -87.5q0 -68 -48.5 -116t-113.5 -48q-57 0 -92 34.5t-35 88.5q0 68 48 115t114 47zM1135 1827q56 0 90.5 -33.5t34.5 -87.5q0 -68 -48 -116t-114 -48q-55 0 -90 34.5t-35 88.5q0 68 47.5 115t114.5 47zM690 266q86 0 161 36.5t134 107t93 187 t34 265.5q0 154 -71 233t-201 79q-86 0 -161 -36.5t-134 -107.5t-93 -187.5t-34 -264.5q0 -156 70.5 -234t201.5 -78zM674 -20q-133 0 -238 34t-184 104t-121.5 184t-42.5 267q0 211 57.5 380t160 280t243 170t307.5 59q132 0 238 -34t184.5 -104t121 -184.5t42.5 -267.5 q0 -211 -57 -380t-159.5 -279.5t-243 -169.5t-308.5 -59z" />
<glyph unicode="&#xd7;" horiz-adv-x="1132" d="M49 393l326 326l-326 325l203 181l313 -314l314 314l204 -181l-325 -325l325 -326l-202 -178l-316 313l-313 -313z" />
<glyph unicode="&#xd8;" horiz-adv-x="1521" d="M672 -20q-194 0 -322 67l-166 -219l-145 70l186 243q-139 152 -139 428q0 211 57.5 380t160 280t243 170t307.5 59q190 0 322 -69l167 221l142 -70l-185 -244q140 -153 140 -428q0 -211 -57 -380t-159.5 -279.5t-243 -169.5t-308.5 -59zM416 578q0 -90 22 -154l545 715 q-59 35 -145 35t-161 -36.5t-134 -107.5t-93 -187.5t-34 -264.5zM688 266q86 0 161 36.5t134 107t93 187t34 265.5q0 88 -25 152l-542 -715q56 -33 145 -33z" />
<glyph unicode="&#xd9;" horiz-adv-x="1380" d="M444 1839h381l205 -293h-301zM528 1438l-116 -932q-16 -134 41.5 -187t185.5 -53q127 0 198 53t87 187l116 932h318l-119 -967q-13 -104 -51 -186.5t-95.5 -139t-134.5 -94t-164.5 -54.5t-189.5 -17q-129 0 -228.5 27.5t-170 85t-101 153t-14.5 225.5l119 967h319z" />
<glyph unicode="&#xda;" horiz-adv-x="1380" d="M825 1839h394l-345 -293h-311zM528 1438l-116 -932q-16 -134 41.5 -187t185.5 -53q127 0 198 53t87 187l116 932h318l-119 -967q-13 -104 -51 -186.5t-95.5 -139t-134.5 -94t-164.5 -54.5t-189.5 -17q-129 0 -228.5 27.5t-170 85t-101 153t-14.5 225.5l119 967h319z" />
<glyph unicode="&#xdb;" horiz-adv-x="1380" d="M528 1438l-116 -932q-16 -134 41.5 -187t185.5 -53q127 0 198 53t87 187l116 932h318l-119 -967q-13 -104 -51 -186.5t-95.5 -139t-134.5 -94t-164.5 -54.5t-189.5 -17q-129 0 -228.5 27.5t-170 85t-101 153t-14.5 225.5l119 967h319zM1006 1839l194 -293h-295l-90 135 l-123 -135h-299l264 293h349z" />
<glyph unicode="&#xdc;" horiz-adv-x="1380" d="M598 1827q57 0 92 -33.5t35 -87.5q0 -68 -48.5 -116t-113.5 -48q-57 0 -92 34.5t-35 88.5q0 68 48 115t114 47zM1063 1827q56 0 90.5 -33.5t34.5 -87.5q0 -68 -48 -116t-114 -48q-55 0 -90 34.5t-35 88.5q0 68 47.5 115t114.5 47zM528 1438l-116 -932q-16 -134 41.5 -187 t185.5 -53q127 0 198 53t87 187l116 932h318l-119 -967q-13 -104 -51 -186.5t-95.5 -139t-134.5 -94t-164.5 -54.5t-189.5 -17q-129 0 -228.5 27.5t-170 85t-101 153t-14.5 225.5l119 967h319z" />
<glyph unicode="&#xdd;" horiz-adv-x="1320" d="M420 0l67 559l-387 871l363 16l215 -578l354 578l373 -16l-598 -871l-70 -559h-317zM797 1839h393l-344 -293h-311z" />
<glyph unicode="&#xde;" horiz-adv-x="1218" d="M465 928l-51 -418q117 -12 133 -12q82 0 147.5 25.5t107.5 85t42 145.5q0 94 -65.5 140t-176.5 46q-20 0 -137 -12zM33 0l176 1438h319l-28 -224q93 11 162 11q235 0 376.5 -110.5t141.5 -319.5q0 -139 -51.5 -251t-140 -183.5t-204 -109.5t-247.5 -38q-35 0 -158 10 l-27 -223h-319z" />
<glyph unicode="&#xdf;" horiz-adv-x="1236" d="M453 1083l-185 -1505l-286 -2l184 1507q29 237 158.5 353t367.5 116q98 0 172.5 -26t117.5 -71t64 -99t21 -115q0 -161 -117 -321l-80 -115q126 -40 189 -139.5t63 -216.5q0 -122 -55 -228t-162 -173.5t-243 -67.5q-141 0 -228 47l70 235q60 -31 119 -31q83 0 141.5 62 t58.5 156q0 77 -65.5 144t-171.5 81l-13 127l160 225q51 79 51 154q0 51 -29.5 84.5t-92.5 33.5q-89 0 -143 -55.5t-66 -159.5z" />
<glyph unicode="&#xe0;" horiz-adv-x="1120" d="M1034 915l-110 -915h-287l20 188q-202 -208 -358 -208q-83 0 -144.5 55t-91.5 146t-30 204q0 136 32.5 249t96.5 200.5t169.5 136.5t243.5 49q191 0 459 -105zM723 717q-88 49 -170 49q-97 0 -160 -86t-63 -260q0 -166 82 -166q51 0 129 60.5t153 162.5zM348 1454h314 l135 -340h-236z" />
<glyph unicode="&#xe1;" horiz-adv-x="1120" d="M1034 915l-110 -915h-287l20 188q-202 -208 -358 -208q-83 0 -144.5 55t-91.5 146t-30 204q0 136 32.5 249t96.5 200.5t169.5 136.5t243.5 49q191 0 459 -105zM723 717q-88 49 -170 49q-97 0 -160 -86t-63 -260q0 -166 82 -166q51 0 129 60.5t153 162.5zM641 1454h326 l-287 -340h-248z" />
<glyph unicode="&#xe2;" horiz-adv-x="1120" d="M1034 915l-110 -915h-287l20 188q-202 -208 -358 -208q-83 0 -144.5 55t-91.5 146t-30 204q0 136 32.5 249t96.5 200.5t169.5 136.5t243.5 49q191 0 459 -105zM723 717q-88 49 -170 49q-97 0 -160 -86t-63 -260q0 -166 82 -166q51 0 129 60.5t153 162.5zM831 1454 l162 -340h-258l-71 176l-117 -176h-264l247 340h301z" />
<glyph unicode="&#xe3;" horiz-adv-x="1120" d="M1034 915l-110 -915h-287l20 188q-202 -208 -358 -208q-83 0 -144.5 55t-91.5 146t-30 204q0 136 32.5 249t96.5 200.5t169.5 136.5t243.5 49q191 0 459 -105zM723 717q-88 49 -170 49q-97 0 -160 -86t-63 -260q0 -166 82 -166q51 0 129 60.5t153 162.5zM270 1163 q24 126 101 198.5t166 72.5q40 0 73 -11.5t53.5 -28t36 -33.5t29 -28.5t25.5 -11.5q51 0 75 90l183 -33q-24 -125 -101.5 -197.5t-165.5 -72.5q-49 0 -88.5 17.5t-58.5 39t-38 39t-32 17.5q-54 0 -75 -91z" />
<glyph unicode="&#xe4;" horiz-adv-x="1120" d="M1034 915l-110 -915h-287l20 188q-202 -208 -358 -208q-83 0 -144.5 55t-91.5 146t-30 204q0 136 32.5 249t96.5 200.5t169.5 136.5t243.5 49q191 0 459 -105zM723 717q-88 49 -170 49q-97 0 -160 -86t-63 -260q0 -166 82 -166q51 0 129 60.5t153 162.5zM432 1423 q57 0 92 -33t35 -87q0 -69 -47 -116.5t-113 -47.5q-57 0 -92 34.5t-35 90.5q0 66 48 112.5t112 46.5zM897 1423q56 0 91.5 -33t35.5 -87q0 -69 -47 -116.5t-115 -47.5q-57 0 -91 34.5t-34 90.5q0 67 47.5 113t112.5 46z" />
<glyph unicode="&#xe5;" horiz-adv-x="1120" d="M1034 915l-110 -915h-287l20 188q-202 -208 -358 -208q-83 0 -144.5 55t-91.5 146t-30 204q0 136 32.5 249t96.5 200.5t169.5 136.5t243.5 49q191 0 459 -105zM723 717q-88 49 -170 49q-97 0 -160 -86t-63 -260q0 -166 82 -166q51 0 129 60.5t153 162.5zM567 1282 q0 -30 17.5 -47.5t50.5 -17.5q39 0 63.5 27t24.5 69q0 30 -18.5 47.5t-51.5 17.5q-39 0 -62.5 -26.5t-23.5 -69.5zM406 1266q0 113 77 186.5t189 73.5q96 0 154.5 -54.5t58.5 -142.5q0 -112 -78.5 -186t-190.5 -74q-96 0 -153 54.5t-57 142.5z" />
<glyph unicode="&#xe6;" horiz-adv-x="1488" d="M578 598l6 59q7 58 -17 83.5t-82 25.5q-106 0 -356 -70l-10 246q244 78 432 78q100 0 155 -33.5t70 -107.5q129 141 334 141q156 0 241 -77.5t85 -184.5q0 -164 -143 -273t-435 -145q-3 -50 23.5 -83.5t85.5 -33.5q108 0 321 105l41 -232q-223 -116 -389 -116 q-102 0 -180.5 39t-126.5 110q-211 -149 -381 -149q-117 0 -190.5 64.5t-73.5 172.5q0 182 134 266.5t456 114.5zM346 199q103 0 223 82q-11 67 -8 127q-168 -13 -233.5 -44t-65.5 -92q0 -73 84 -73zM1073 782q-77 0 -139.5 -66.5t-75.5 -176.5q152 23 222.5 74t70.5 106 q0 27 -21 45t-57 18z" />
<glyph unicode="&#xe7;" horiz-adv-x="915" d="M45 389q0 130 30 236.5t82 179t122.5 121.5t150.5 71.5t168 22.5q137 0 303 -35l-67 -248q-151 29 -234 29q-262 0 -262 -340q0 -91 32 -139.5t105 -48.5q100 0 299 96l39 -238q-153 -81 -268 -104l-60 -76q80 1 120 -38t40 -107q0 -73 -42.5 -123t-103 -70t-132.5 -20 q-83 0 -162 24l49 148q74 -25 127 -25q76 0 76 43q0 17 -12.5 29t-38.5 12q-21 0 -64 -16l-57 112l65 101q-144 25 -224.5 131.5t-80.5 271.5z" />
<glyph unicode="&#xe8;" horiz-adv-x="962" d="M762 328l41 -232q-223 -116 -389 -116q-178 0 -279.5 110.5t-101.5 298.5q0 157 45 280t122 198.5t174.5 114t209.5 38.5q156 0 240.5 -77.5t84.5 -184.5q0 -164 -142.5 -273t-434.5 -145q-3 -50 23 -83.5t85 -33.5q109 0 322 105zM547 782q-77 0 -139.5 -66.5 t-75.5 -176.5q152 23 222.5 74t70.5 106q0 27 -21 45t-57 18zM295 1454h313l135 -340h-235z" />
<glyph unicode="&#xe9;" horiz-adv-x="962" d="M578 1454h325l-287 -340h-247zM762 328l41 -232q-223 -116 -389 -116q-178 0 -279.5 110.5t-101.5 298.5q0 157 45 280t122 198.5t174.5 114t209.5 38.5q156 0 240.5 -77.5t84.5 -184.5q0 -164 -142.5 -273t-434.5 -145q-3 -50 23 -83.5t85 -33.5q109 0 322 105zM547 782 q-77 0 -139.5 -66.5t-75.5 -176.5q152 23 222.5 74t70.5 106q0 27 -21 45t-57 18z" />
<glyph unicode="&#xea;" horiz-adv-x="962" d="M766 1454l162 -340h-258l-72 176l-117 -176h-264l248 340h301zM762 328l41 -232q-223 -116 -389 -116q-178 0 -279.5 110.5t-101.5 298.5q0 157 45 280t122 198.5t174.5 114t209.5 38.5q156 0 240.5 -77.5t84.5 -184.5q0 -164 -142.5 -273t-434.5 -145q-3 -50 23 -83.5 t85 -33.5q109 0 322 105zM547 782q-77 0 -139.5 -66.5t-75.5 -176.5q152 23 222.5 74t70.5 106q0 27 -21 45t-57 18z" />
<glyph unicode="&#xeb;" horiz-adv-x="962" d="M367 1423q57 0 92 -33t35 -87q0 -69 -47 -116.5t-113 -47.5q-57 0 -92 34.5t-35 90.5q0 66 48 112.5t112 46.5zM831 1423q56 0 91.5 -33t35.5 -87q0 -69 -46.5 -116.5t-114.5 -47.5q-57 0 -91 34.5t-34 90.5q0 67 47 113t112 46zM762 328l41 -232q-223 -116 -389 -116 q-178 0 -279.5 110.5t-101.5 298.5q0 157 45 280t122 198.5t174.5 114t209.5 38.5q156 0 240.5 -77.5t84.5 -184.5q0 -164 -142.5 -273t-434.5 -145q-3 -50 23 -83.5t85 -33.5q109 0 322 105zM547 782q-77 0 -139.5 -66.5t-75.5 -176.5q152 23 222.5 74t70.5 106 q0 27 -21 45t-57 18z" />
<glyph unicode="&#xec;" horiz-adv-x="518" d="M154 989l290 19l-125 -1008h-286zM10 1454h314l135 -340h-236z" />
<glyph unicode="&#xed;" horiz-adv-x="518" d="M375 1454h325l-286 -340h-248zM154 989l290 19l-125 -1008h-286z" />
<glyph unicode="&#xee;" horiz-adv-x="518" d="M506 1454l162 -340h-258l-72 176l-117 -176h-264l248 340h301zM154 989l290 19l-125 -1008h-286z" />
<glyph unicode="&#xef;" horiz-adv-x="518" d="M119 1423q57 0 92 -33t35 -87q0 -69 -47 -116.5t-113 -47.5q-57 0 -92 34.5t-35 90.5q0 66 48 112.5t112 46.5zM584 1423q56 0 91.5 -33t35.5 -87q0 -69 -47 -116.5t-115 -47.5q-57 0 -91 34.5t-34 90.5q0 67 47.5 113t112.5 46zM154 989l290 19l-125 -1008h-286z" />
<glyph unicode="&#xf0;" horiz-adv-x="1105" d="M281 1552h354q69 -58 115 -112l282 104l29 -186l-203 -76q154 -268 154 -582q0 -210 -69.5 -375t-192 -255t-275.5 -90q-215 0 -328.5 122.5t-113.5 321.5q0 162 51 299t140 217t196 80q148 0 289 -170q-27 169 -115 334l-295 -109l-29 189l217 79q-87 114 -206 209z M498 236q78 0 137.5 86t77.5 233q-110 188 -224 188q-70 0 -114.5 -76.5t-44.5 -213.5q-2 -99 42 -158t126 -59z" />
<glyph unicode="&#xf1;" d="M674 0l76 625q13 120 -76 120q-45 0 -121.5 -57.5t-169.5 -167.5l-64 -520h-286l121 989l290 19l-24 -197q212 209 393 209q270 0 231 -330l-83 -690h-287zM281 1163q24 126 100.5 198.5t165.5 72.5q40 0 73 -11.5t53.5 -28t36 -33.5t29 -28.5t25.5 -11.5q52 0 76 90 l182 -33q-24 -125 -101 -197.5t-165 -72.5q-49 0 -88.5 17.5t-58.5 39t-38 39t-32 17.5q-55 0 -76 -91z" />
<glyph unicode="&#xf2;" horiz-adv-x="1079" d="M479 233q97 0 164.5 97t67.5 241q1 96 -38 145.5t-114 49.5q-96 0 -164 -97t-69 -241q0 -195 153 -195zM449 -20q-203 0 -309.5 112t-106.5 320q0 176 70 314.5t197 216t290 77.5q204 0 310 -111.5t106 -320.5q0 -176 -70 -314.5t-197 -216t-290 -77.5zM346 1454h313 l136 -340h-236z" />
<glyph unicode="&#xf3;" horiz-adv-x="1079" d="M625 1454h325l-286 -340h-248zM479 233q97 0 164.5 97t67.5 241q1 96 -38 145.5t-114 49.5q-96 0 -164 -97t-69 -241q0 -195 153 -195zM449 -20q-203 0 -309.5 112t-106.5 320q0 176 70 314.5t197 216t290 77.5q204 0 310 -111.5t106 -320.5q0 -176 -70 -314.5t-197 -216 t-290 -77.5z" />
<glyph unicode="&#xf4;" horiz-adv-x="1079" d="M813 1454l162 -340h-258l-72 176l-117 -176h-264l248 340h301zM479 233q97 0 164.5 97t67.5 241q1 96 -38 145.5t-114 49.5q-96 0 -164 -97t-69 -241q0 -195 153 -195zM449 -20q-203 0 -309.5 112t-106.5 320q0 176 70 314.5t197 216t290 77.5q204 0 310 -111.5 t106 -320.5q0 -176 -70 -314.5t-197 -216t-290 -77.5z" />
<glyph unicode="&#xf5;" horiz-adv-x="1079" d="M479 233q97 0 164.5 97t67.5 241q1 96 -38 145.5t-114 49.5q-96 0 -164 -97t-69 -241q0 -195 153 -195zM449 -20q-203 0 -309.5 112t-106.5 320q0 176 70 314.5t197 216t290 77.5q204 0 310 -111.5t106 -320.5q0 -176 -70 -314.5t-197 -216t-290 -77.5zM254 1163 q24 126 100.5 198.5t165.5 72.5q40 0 73 -11.5t53.5 -28t36 -33.5t29 -28.5t25.5 -11.5q52 0 76 90l182 -33q-24 -125 -101 -197.5t-165 -72.5q-49 0 -88.5 17.5t-58.5 39t-38 39t-32 17.5q-55 0 -76 -91z" />
<glyph unicode="&#xf6;" horiz-adv-x="1079" d="M412 1423q57 0 92 -33t35 -87q0 -69 -47 -116.5t-113 -47.5q-57 0 -92 34.5t-35 90.5q0 66 48 112.5t112 46.5zM877 1423q56 0 91.5 -33t35.5 -87q0 -69 -47 -116.5t-115 -47.5q-57 0 -91 34.5t-34 90.5q0 67 47.5 113t112.5 46zM479 233q97 0 164.5 97t67.5 241 q1 96 -38 145.5t-114 49.5q-96 0 -164 -97t-69 -241q0 -195 153 -195zM449 -20q-203 0 -309.5 112t-106.5 320q0 176 70 314.5t197 216t290 77.5q204 0 310 -111.5t106 -320.5q0 -176 -70 -314.5t-197 -216t-290 -77.5z" />
<glyph unicode="&#xf7;" horiz-adv-x="1132" d="M53 846h1043l-17 -254h-1042zM565 440q72 0 119 -47.5t47 -118.5q0 -72 -47 -118.5t-119 -46.5q-71 0 -118.5 46.5t-47.5 118.5q0 70 47.5 118t118.5 48zM565 1331q72 0 119 -47t47 -119q0 -71 -47 -118.5t-119 -47.5q-71 0 -118.5 47.5t-47.5 118.5q0 72 47.5 119 t118.5 47z" />
<glyph unicode="&#xf8;" horiz-adv-x="1079" d="M449 -20q-129 0 -213 40l-134 -176l-114 54l147 196q-102 111 -102 318q0 176 70 314.5t197 216t290 77.5q126 0 213 -43l133 178l113 -53l-148 -195q105 -111 105 -319q0 -176 -70 -314.5t-197 -216t-290 -77.5zM479 233q97 0 164.5 97t67.5 241q0 39 -6 74l-299 -397 q30 -15 73 -15zM326 428q0 -40 6 -74l299 398q-28 14 -72 14q-96 0 -164 -97t-69 -241z" />
<glyph unicode="&#xf9;" d="M444 1008l-77 -633q-16 -121 75 -121q45 0 120.5 56.5t170.5 166.5l60 512l290 19l-122 -1008h-287l22 188q-208 -208 -393 -208q-273 0 -231 329l82 680zM373 1454h313l135 -340h-235z" />
<glyph unicode="&#xfa;" d="M651 1454h326l-287 -340h-248zM444 1008l-77 -633q-16 -121 75 -121q45 0 120.5 56.5t170.5 166.5l60 512l290 19l-122 -1008h-287l22 188q-208 -208 -393 -208q-273 0 -231 329l82 680z" />
<glyph unicode="&#xfb;" d="M823 1454l162 -340h-258l-72 176l-116 -176h-265l248 340h301zM444 1008l-77 -633q-16 -121 75 -121q45 0 120.5 56.5t170.5 166.5l60 512l290 19l-122 -1008h-287l22 188q-208 -208 -393 -208q-273 0 -231 329l82 680z" />
<glyph unicode="&#xfc;" d="M436 1423q57 0 92 -33t35 -87q0 -69 -47 -116.5t-113 -47.5q-57 0 -92 34.5t-35 90.5q0 66 48 112.5t112 46.5zM901 1423q56 0 91.5 -33t35.5 -87q0 -69 -47 -116.5t-115 -47.5q-57 0 -91 34.5t-34 90.5q0 67 47.5 113t112.5 46zM444 1008l-77 -633q-16 -121 75 -121 q45 0 120.5 56.5t170.5 166.5l60 512l290 19l-122 -1008h-287l22 188q-208 -208 -393 -208q-273 0 -231 329l82 680z" />
<glyph unicode="&#xfd;" horiz-adv-x="1044" d="M250 -449l-219 156q136 128 258 293h-35l-209 989l317 19l113 -703q155 295 262 703l310 -19q-114 -446 -317.5 -809t-479.5 -629zM600 1454h326l-287 -340h-248z" />
<glyph unicode="&#xfe;" horiz-adv-x="1118" d="M-20 -430l241 1966l289 16l-92 -741q203 209 360 209q123 0 193.5 -116t70.5 -290q0 -152 -40.5 -274t-110 -199.5t-160.5 -119t-194 -41.5q-110 0 -215 40l-54 -434zM354 283q84 -50 170 -50q97 0 160.5 86.5t63.5 260.5q0 165 -84 165q-51 0 -128.5 -61t-152.5 -164z " />
<glyph unicode="&#xff;" horiz-adv-x="1044" d="M250 -449l-219 156q136 128 258 293h-35l-209 989l317 19l113 -703q155 295 262 703l310 -19q-114 -446 -317.5 -809t-479.5 -629zM379 1423q57 0 92 -33t35 -87q0 -69 -47 -116.5t-113 -47.5q-57 0 -92 34.5t-35 90.5q0 66 48 112.5t112 46.5zM844 1423q56 0 91.5 -33 t35.5 -87q0 -69 -47 -116.5t-115 -47.5q-57 0 -91 34.5t-34 90.5q0 67 47.5 113t112.5 46z" />
<glyph unicode="&#x100;" horiz-adv-x="1347" d="M836 559l-99 608l-250 -608h349zM874 274h-491l-111 -274h-333l604 1430l440 16l262 -1446h-325zM481 1774h670l-43 -207h-670z" />
<glyph unicode="&#x101;" horiz-adv-x="1120" d="M1034 915l-110 -915h-287l20 188q-202 -208 -358 -208q-83 0 -144.5 55t-91.5 146t-30 204q0 136 32.5 249t96.5 200.5t169.5 136.5t243.5 49q191 0 459 -105zM723 717q-88 49 -170 49q-97 0 -160 -86t-63 -260q0 -166 82 -166q51 0 129 60.5t153 162.5zM338 1354h639 l-41 -207h-639z" />
<glyph unicode="&#x102;" horiz-adv-x="1347" d="M836 559l-99 608l-250 -608h349zM874 274h-491l-111 -274h-333l604 1430l440 16l262 -1446h-325zM459 1829l200 18q5 -123 132 -123q126 0 159 123l207 -18q-66 -301 -383 -301q-323 0 -315 301z" />
<glyph unicode="&#x103;" horiz-adv-x="1120" d="M1034 915l-110 -915h-287l20 188q-202 -208 -358 -208q-83 0 -144.5 55t-91.5 146t-30 204q0 136 32.5 249t96.5 200.5t169.5 136.5t243.5 49q191 0 459 -105zM723 717q-88 49 -170 49q-97 0 -160 -86t-63 -260q0 -166 82 -166q51 0 129 60.5t153 162.5zM317 1444l205 16 q-20 -160 117 -160q135 0 158 160l202 -16q-22 -173 -127 -256.5t-254 -83.5q-72 0 -130 19.5t-101 58.5t-62 106t-8 156z" />
<glyph unicode="&#x104;" horiz-adv-x="1347" d="M874 274h-491l-111 -274h-333l604 1430l440 16l262 -1446h-102q-72 -33 -114 -83.5t-42 -100.5q0 -29 20 -47.5t60 -18.5q29 0 76 12l6 -174q-74 -30 -158 -30q-114 0 -171.5 57t-57.5 139q0 145 156 252zM836 559l-99 608l-250 -608h349z" />
<glyph unicode="&#x105;" horiz-adv-x="1120" d="M922 -238l6 -174q-74 -30 -158 -30q-114 0 -171.5 57t-57.5 139q0 142 147 246h-51l20 188q-202 -208 -358 -208q-83 0 -144.5 55t-91.5 146t-30 204q0 136 32.5 249t96.5 200.5t169.5 136.5t243.5 49q191 0 459 -105l-110 -915h-2q-72 -33 -114 -83.5t-42 -100.5 q0 -29 20 -47.5t60 -18.5q30 0 76 12zM723 717q-88 49 -170 49q-97 0 -160 -86t-63 -260q0 -166 82 -166q51 0 129 60.5t153 162.5z" />
<glyph unicode="&#x106;" horiz-adv-x="1224" d="M840 1174q-89 0 -160.5 -29t-130 -93.5t-91 -181.5t-32.5 -280q0 -175 77 -249.5t224 -74.5q80 0 147 11t185 42l18 -282q-205 -57 -407 -57q-102 0 -187.5 19t-159 62.5t-124.5 109.5t-80 164.5t-29 223.5q0 195 42.5 350.5t114 256.5t170.5 168t206.5 95.5t228.5 28.5 q204 0 393 -57l-90 -283q-116 33 -177.5 44.5t-137.5 11.5zM846 1839h393l-344 -293h-311z" />
<glyph unicode="&#x107;" horiz-adv-x="915" d="M590 1454h325l-286 -340h-248zM45 389q0 130 30 236.5t82 179t122.5 121.5t150.5 71.5t168 22.5q137 0 303 -35l-67 -248q-151 29 -234 29q-262 0 -262 -340q0 -91 32 -139.5t105 -48.5q100 0 299 96l39 -238q-217 -116 -383 -116q-179 0 -282 111t-103 298z" />
<glyph unicode="&#x108;" horiz-adv-x="1224" d="M840 1174q-89 0 -160.5 -29t-130 -93.5t-91 -181.5t-32.5 -280q0 -175 77 -249.5t224 -74.5q80 0 147 11t185 42l18 -282q-205 -57 -407 -57q-102 0 -187.5 19t-159 62.5t-124.5 109.5t-80 164.5t-29 223.5q0 195 42.5 350.5t114 256.5t170.5 168t206.5 95.5t228.5 28.5 q204 0 393 -57l-90 -283q-116 33 -177.5 44.5t-137.5 11.5zM1067 1839l195 -293h-295l-90 135l-123 -135h-299l264 293h348z" />
<glyph unicode="&#x109;" horiz-adv-x="915" d="M784 1454l162 -340h-258l-72 176l-116 -176h-264l247 340h301zM45 389q0 130 30 236.5t82 179t122.5 121.5t150.5 71.5t168 22.5q137 0 303 -35l-67 -248q-151 29 -234 29q-262 0 -262 -340q0 -91 32 -139.5t105 -48.5q100 0 299 96l39 -238q-217 -116 -383 -116 q-179 0 -282 111t-103 298z" />
<glyph unicode="&#x10a;" horiz-adv-x="1224" d="M897 1870q65 0 105 -39t40 -102q0 -77 -55 -132t-131 -55q-64 0 -103.5 39.5t-39.5 101.5q0 78 54.5 132.5t129.5 54.5zM840 1174q-89 0 -160.5 -29t-130 -93.5t-91 -181.5t-32.5 -280q0 -175 77 -249.5t224 -74.5q80 0 147 11t185 42l18 -282q-205 -57 -407 -57 q-102 0 -187.5 19t-159 62.5t-124.5 109.5t-80 164.5t-29 223.5q0 195 42.5 350.5t114 256.5t170.5 168t206.5 95.5t228.5 28.5q204 0 393 -57l-90 -283q-116 33 -177.5 44.5t-137.5 11.5z" />
<glyph unicode="&#x10b;" horiz-adv-x="915" d="M45 389q0 130 30 236.5t82 179t122.5 121.5t150.5 71.5t168 22.5q137 0 303 -35l-67 -248q-151 29 -234 29q-262 0 -262 -340q0 -91 32 -139.5t105 -48.5q100 0 299 96l39 -238q-217 -116 -383 -116q-179 0 -282 111t-103 298zM641 1446q66 0 105.5 -38.5t39.5 -100.5 q0 -79 -53.5 -134t-130.5 -55q-66 0 -105.5 39.5t-39.5 102.5q0 77 55 131.5t129 54.5z" />
<glyph unicode="&#x10c;" horiz-adv-x="1224" d="M840 1174q-89 0 -160.5 -29t-130 -93.5t-91 -181.5t-32.5 -280q0 -175 77 -249.5t224 -74.5q80 0 147 11t185 42l18 -282q-205 -57 -407 -57q-102 0 -187.5 19t-159 62.5t-124.5 109.5t-80 164.5t-29 223.5q0 195 42.5 350.5t114 256.5t170.5 168t206.5 95.5t228.5 28.5 q204 0 393 -57l-90 -283q-116 33 -177.5 44.5t-137.5 11.5zM684 1546l-195 293h295l90 -137l125 137h299l-266 -293h-348z" />
<glyph unicode="&#x10d;" horiz-adv-x="915" d="M451 1114l-162 340h258l74 -178l116 178h262l-245 -340h-303zM45 389q0 130 30 236.5t82 179t122.5 121.5t150.5 71.5t168 22.5q137 0 303 -35l-67 -248q-151 29 -234 29q-262 0 -262 -340q0 -91 32 -139.5t105 -48.5q100 0 299 96l39 -238q-217 -116 -383 -116 q-179 0 -282 111t-103 298z" />
<glyph unicode="&#x10e;" horiz-adv-x="1411" d="M526 1546l-194 293h295l90 -137l125 137h299l-267 -293h-348zM748 1438q281 0 432 -140t151 -428q0 -219 -60 -389t-170.5 -279.5t-263 -165.5t-341.5 -56q-234 0 -459 57l172 1401h539zM709 1153h-215l-109 -872q76 -15 178 -15q202 0 317 149t115 416q0 322 -286 322z " />
<glyph unicode="&#x10f;" horiz-adv-x="1372" d="M1194 1556l240 35q85 -238 -78 -471h-213q46 62 68.5 118.5t22 112.5t-9.5 98.5t-30 106.5zM1137 1552l-191 -1552h-289l23 188q-202 -208 -358 -208q-125 0 -196 115.5t-71 289.5q0 151 41 273.5t111 200.5t161 119.5t193 41.5q99 0 217 -41l68 557zM745 717 q-88 49 -170 49q-97 0 -160 -86t-63 -260q0 -166 82 -166q51 0 129.5 60.5t153.5 162.5z" />
<glyph unicode="&#x110;" horiz-adv-x="1411" d="M748 1438q281 0 432 -140t151 -428q0 -219 -60 -389t-170.5 -279.5t-263 -165.5t-341.5 -56q-234 0 -459 57l72 579h-111l41 207h94l76 615h539zM709 1153h-215l-41 -330h225l-41 -207h-211l-41 -335q76 -15 178 -15q202 0 317 149t115 416q0 322 -286 322z" />
<glyph unicode="&#x111;" horiz-adv-x="1142" d="M1137 1552l-25 -198h111l-41 -207h-97l-139 -1147h-289l23 188q-202 -208 -358 -208q-125 0 -196 115.5t-71 289.5q0 151 41 273.5t111 200.5t161 119.5t193 41.5q99 0 217 -41l21 168h-256l41 207h239l23 182zM745 717q-88 49 -170 49q-97 0 -160 -86t-63 -260 q0 -166 82 -166q51 0 129.5 60.5t153.5 162.5z" />
<glyph unicode="&#x112;" horiz-adv-x="1134" d="M399 1774h670l-43 -207h-670zM33 0l176 1438h950l-51 -285h-614l-37 -293h514l-53 -287h-496l-37 -286h633l-51 -287h-934z" />
<glyph unicode="&#x113;" horiz-adv-x="962" d="M762 328l41 -232q-223 -116 -389 -116q-178 0 -279.5 110.5t-101.5 298.5q0 157 45 280t122 198.5t174.5 114t209.5 38.5q156 0 240.5 -77.5t84.5 -184.5q0 -164 -142.5 -273t-434.5 -145q-3 -50 23 -83.5t85 -33.5q109 0 322 105zM547 782q-77 0 -139.5 -66.5 t-75.5 -176.5q152 23 222.5 74t70.5 106q0 27 -21 45t-57 18zM279 1354h639l-41 -207h-639z" />
<glyph unicode="&#x114;" horiz-adv-x="1134" d="M383 1829l201 18q5 -123 131 -123t159 123l207 -18q-66 -301 -383 -301q-323 0 -315 301zM33 0l176 1438h950l-51 -285h-614l-37 -293h514l-53 -287h-496l-37 -286h633l-51 -287h-934z" />
<glyph unicode="&#x115;" horiz-adv-x="962" d="M762 328l41 -232q-223 -116 -389 -116q-178 0 -279.5 110.5t-101.5 298.5q0 157 45 280t122 198.5t174.5 114t209.5 38.5q156 0 240.5 -77.5t84.5 -184.5q0 -164 -142.5 -273t-434.5 -145q-3 -50 23 -83.5t85 -33.5q109 0 322 105zM547 782q-77 0 -139.5 -66.5 t-75.5 -176.5q152 23 222.5 74t70.5 106q0 27 -21 45t-57 18zM254 1444l205 16q-20 -160 116 -160q135 0 158 160l203 -16q-22 -173 -127 -256.5t-254 -83.5q-72 0 -130 19.5t-101 58.5t-62 106t-8 156z" />
<glyph unicode="&#x116;" horiz-adv-x="1134" d="M735 1870q65 0 105.5 -39t40.5 -102q0 -77 -55.5 -132t-131.5 -55q-64 0 -103.5 39.5t-39.5 101.5q0 78 54.5 132.5t129.5 54.5zM33 0l176 1438h950l-51 -285h-614l-37 -293h514l-53 -287h-496l-37 -286h633l-51 -287h-934z" />
<glyph unicode="&#x117;" horiz-adv-x="962" d="M762 328l41 -232q-223 -116 -389 -116q-178 0 -279.5 110.5t-101.5 298.5q0 157 45 280t122 198.5t174.5 114t209.5 38.5q156 0 240.5 -77.5t84.5 -184.5q0 -164 -142.5 -273t-434.5 -145q-3 -50 23 -83.5t85 -33.5q109 0 322 105zM547 782q-77 0 -139.5 -66.5 t-75.5 -176.5q152 23 222.5 74t70.5 106q0 27 -21 45t-57 18zM602 1446q66 0 106 -38.5t40 -100.5q0 -79 -54 -134t-131 -55q-66 0 -105.5 39.5t-39.5 102.5q0 77 55 131.5t129 54.5z" />
<glyph unicode="&#x118;" horiz-adv-x="1134" d="M33 0l176 1438h950l-51 -285h-614l-37 -293h514l-53 -287h-496l-37 -286h633l-51 -287h-2q-72 -33 -114 -83.5t-42 -100.5q0 -29 20 -47.5t60 -18.5q29 0 76 12l6 -174q-74 -30 -158 -30q-114 0 -171.5 57t-57.5 139q0 142 147 246h-698z" />
<glyph unicode="&#x119;" horiz-adv-x="962" d="M762 328l41 -232q-189 -149 -189 -266q0 -80 88 -80q32 0 78 12l6 -174q-77 -30 -157 -30q-111 0 -170.5 56t-59.5 144q0 116 84 226q-50 -4 -69 -4q-178 0 -279.5 110.5t-101.5 298.5q0 157 45 280t122 198.5t174.5 114t209.5 38.5q156 0 240.5 -77.5t84.5 -184.5 q0 -164 -142.5 -273t-434.5 -145q-3 -50 23 -83.5t85 -33.5q109 0 322 105zM547 782q-77 0 -139.5 -66.5t-75.5 -176.5q152 23 222.5 74t70.5 106q0 27 -21 45t-57 18z" />
<glyph unicode="&#x11a;" horiz-adv-x="1134" d="M522 1546l-194 293h295l90 -137l125 137h299l-267 -293h-348zM33 0l176 1438h950l-51 -285h-614l-37 -293h514l-53 -287h-496l-37 -286h633l-51 -287h-934z" />
<glyph unicode="&#x11b;" horiz-adv-x="962" d="M391 1114l-162 340h258l74 -178l117 178h262l-246 -340h-303zM762 328l41 -232q-223 -116 -389 -116q-178 0 -279.5 110.5t-101.5 298.5q0 157 45 280t122 198.5t174.5 114t209.5 38.5q156 0 240.5 -77.5t84.5 -184.5q0 -164 -142.5 -273t-434.5 -145q-3 -50 23 -83.5 t85 -33.5q109 0 322 105zM547 782q-77 0 -139.5 -66.5t-75.5 -176.5q152 23 222.5 74t70.5 106q0 27 -21 45t-57 18z" />
<glyph unicode="&#x11c;" horiz-adv-x="1370" d="M860 1174q-95 0 -171.5 -31t-136.5 -97.5t-93 -182.5t-33 -275q0 -172 77 -247t230 -75q87 0 156 19l29 235h-236l53 287h537l-90 -737q-263 -90 -500 -90q-106 0 -194.5 19t-163 62.5t-126 110t-80 164t-28.5 221.5q0 196 43.5 352t117 257t175.5 168t212 95.5t234 28.5 q211 0 410 -57l-90 -283q-188 56 -332 56zM1075 1839l195 -293h-295l-90 135l-123 -135h-299l264 293h348z" />
<glyph unicode="&#x11d;" horiz-adv-x="1126" d="M813 1454l162 -340h-258l-72 176l-117 -176h-264l248 340h301zM729 717q-88 49 -170 49q-97 0 -161 -86t-64 -260q0 -166 84 -166q51 0 128 60.5t152 162.5zM643 6l21 182q-202 -208 -361 -208q-123 0 -193.5 115.5t-70.5 289.5q0 136 32.5 249t97 200.5t169.5 136.5 t242 49q192 0 460 -105l-108 -884q-16 -124 -68.5 -218t-130.5 -148t-167.5 -80.5t-188.5 -26.5q-192 0 -369 73l66 250q214 -69 336 -69q87 0 154.5 50t78.5 144z" />
<glyph unicode="&#x11e;" horiz-adv-x="1370" d="M553 1829l201 18q5 -123 131 -123t159 123l207 -18q-66 -301 -383 -301q-323 0 -315 301zM860 1174q-95 0 -171.5 -31t-136.5 -97.5t-93 -182.5t-33 -275q0 -172 77 -247t230 -75q87 0 156 19l29 235h-236l53 287h537l-90 -737q-263 -90 -500 -90q-106 0 -194.5 19 t-163 62.5t-126 110t-80 164t-28.5 221.5q0 196 43.5 352t117 257t175.5 168t212 95.5t234 28.5q211 0 410 -57l-90 -283q-188 56 -332 56z" />
<glyph unicode="&#x11f;" horiz-adv-x="1126" d="M729 717q-88 49 -170 49q-97 0 -161 -86t-64 -260q0 -166 84 -166q51 0 128 60.5t152 162.5zM643 6l21 182q-202 -208 -361 -208q-123 0 -193.5 115.5t-70.5 289.5q0 136 32.5 249t97 200.5t169.5 136.5t242 49q192 0 460 -105l-108 -884q-16 -124 -68.5 -218 t-130.5 -148t-167.5 -80.5t-188.5 -26.5q-192 0 -369 73l66 250q214 -69 336 -69q87 0 154.5 50t78.5 144zM301 1444l205 16q-20 -160 117 -160q134 0 157 160l203 -16q-22 -173 -127 -256.5t-254 -83.5q-72 0 -130 19.5t-101 58.5t-62 106t-8 156z" />
<glyph unicode="&#x120;" horiz-adv-x="1370" d="M905 1870q65 0 105.5 -39t40.5 -102q0 -77 -55.5 -132t-131.5 -55q-64 0 -103.5 39.5t-39.5 101.5q0 78 54.5 132.5t129.5 54.5zM860 1174q-95 0 -171.5 -31t-136.5 -97.5t-93 -182.5t-33 -275q0 -172 77 -247t230 -75q87 0 156 19l29 235h-236l53 287h537l-90 -737 q-263 -90 -500 -90q-106 0 -194.5 19t-163 62.5t-126 110t-80 164t-28.5 221.5q0 196 43.5 352t117 257t175.5 168t212 95.5t234 28.5q211 0 410 -57l-90 -283q-188 56 -332 56z" />
<glyph unicode="&#x121;" horiz-adv-x="1126" d="M729 717q-88 49 -170 49q-97 0 -161 -86t-64 -260q0 -166 84 -166q51 0 128 60.5t152 162.5zM643 6l21 182q-202 -208 -361 -208q-123 0 -193.5 115.5t-70.5 289.5q0 136 32.5 249t97 200.5t169.5 136.5t242 49q192 0 460 -105l-108 -884q-16 -124 -68.5 -218 t-130.5 -148t-167.5 -80.5t-188.5 -26.5q-192 0 -369 73l66 250q214 -69 336 -69q87 0 154.5 50t78.5 144zM643 1446q66 0 105.5 -38.5t39.5 -100.5q0 -79 -53.5 -134t-130.5 -55q-66 0 -105.5 39.5t-39.5 102.5q0 77 55 131.5t129 54.5z" />
<glyph unicode="&#x122;" horiz-adv-x="1370" d="M516 -131l258 43q59 -79 34.5 -183.5t-112.5 -170.5l-219 14q75 72 84.5 151.5t-45.5 145.5zM860 1174q-95 0 -171.5 -31t-136.5 -97.5t-93 -182.5t-33 -275q0 -172 77 -247t230 -75q87 0 156 19l29 235h-236l53 287h537l-90 -737q-263 -90 -500 -90q-106 0 -194.5 19 t-163 62.5t-126 110t-80 164t-28.5 221.5q0 196 43.5 352t117 257t175.5 168t212 95.5t234 28.5q211 0 410 -57l-90 -283q-188 56 -332 56z" />
<glyph unicode="&#x123;" horiz-adv-x="1126" d="M770 1149l-258 -43q-59 79 -34.5 183.5t112.5 170.5l219 -14q-75 -72 -84.5 -151.5t45.5 -145.5zM729 717q-88 49 -170 49q-97 0 -161 -86t-64 -260q0 -166 84 -166q51 0 128 60.5t152 162.5zM643 6l21 182q-202 -208 -361 -208q-123 0 -193.5 115.5t-70.5 289.5 q0 136 32.5 249t97 200.5t169.5 136.5t242 49q192 0 460 -105l-108 -884q-16 -124 -68.5 -218t-130.5 -148t-167.5 -80.5t-188.5 -26.5q-192 0 -369 73l66 250q214 -69 336 -69q87 0 154.5 50t78.5 144z" />
<glyph unicode="&#x124;" horiz-adv-x="1380" d="M209 1438h319l-71 -578h512l71 578h318l-176 -1438h-318l70 573h-512l-70 -573h-319zM1008 1839l194 -293h-295l-90 135l-123 -135h-299l264 293h349z" />
<glyph unicode="&#x125;" d="M674 0l76 625q13 120 -76 120q-45 0 -121.5 -57.5t-169.5 -167.5l-64 -520h-286l188 1536l289 16l-90 -741q212 209 393 209q270 0 231 -330l-83 -690h-287zM584 1894l194 -292h-295l-90 135l-123 -135h-299l265 292h348z" />
<glyph unicode="&#x126;" horiz-adv-x="1380" d="M209 1438h319l-24 -197h512l24 197h318l-25 -197h113l-43 -207h-94l-127 -1034h-318l70 573h-512l-70 -573h-319l127 1034h-113l43 207h94zM457 860h512l20 174h-512z" />
<glyph unicode="&#x127;" d="M102 1354h97l22 182l289 16l-25 -198h256l-41 -207h-239l-41 -336q212 209 393 209q270 0 231 -330l-83 -690h-287l76 625q13 120 -76 120q-45 0 -121.5 -57.5t-169.5 -167.5l-64 -520h-286l139 1147h-111z" />
<glyph unicode="&#x128;" horiz-adv-x="548" d="M209 1438h319l-176 -1438h-319zM14 1567q24 126 101 198t166 72q53 0 95.5 -17.5t64 -39t44 -39t39.5 -17.5q22 0 42.5 22.5t31.5 68.5l184 -33q-24 -125 -101 -198t-165 -73q-53 0 -96 18t-64.5 39.5t-44 39.5t-39.5 18q-53 0 -75 -90z" />
<glyph unicode="&#x129;" horiz-adv-x="518" d="M154 989l290 19l-125 -1008h-286zM-37 1163q24 126 100.5 198.5t165.5 72.5q40 0 73 -11.5t53.5 -28t36 -33.5t29 -28.5t25.5 -11.5q52 0 76 90l183 -33q-24 -125 -101.5 -197.5t-165.5 -72.5q-49 0 -88.5 17.5t-58.5 39t-38 39t-32 17.5q-55 0 -76 -91z" />
<glyph unicode="&#x12a;" horiz-adv-x="548" d="M209 1438h319l-176 -1438h-319zM86 1774h670l-43 -207h-670z" />
<glyph unicode="&#x12b;" horiz-adv-x="518" d="M154 989l290 19l-125 -1008h-286zM33 1354h639l-41 -207h-639z" />
<glyph unicode="&#x12c;" horiz-adv-x="548" d="M209 1438h319l-176 -1438h-319zM66 1829l200 18q5 -123 131 -123q127 0 160 123l207 -18q-66 -301 -383 -301q-323 0 -315 301z" />
<glyph unicode="&#x12d;" horiz-adv-x="518" d="M154 989l290 19l-125 -1008h-286zM12 1444l205 16q-20 -160 117 -160q135 0 158 160l202 -16q-22 -173 -127 -256.5t-254 -83.5q-72 0 -130 19.5t-101 58.5t-62 106t-8 156z" />
<glyph unicode="&#x12e;" horiz-adv-x="548" d="M352 -238l6 -174q-74 -30 -157 -30q-114 0 -172 57t-58 139q0 141 148 246h-86l176 1438h319l-176 -1438q-72 -33 -113.5 -83.5t-41.5 -100.5q0 -29 19.5 -47.5t59.5 -18.5q30 0 76 12z" />
<glyph unicode="&#x12f;" horiz-adv-x="518" d="M319 -238l7 -174q-74 -30 -158 -30q-114 0 -171.5 57t-57.5 139q0 140 147 246h-53l121 989l290 19l-125 -1008q-72 -33 -113.5 -83.5t-41.5 -100.5q0 -29 20 -47.5t60 -18.5q28 0 75 12zM352 1446q66 0 106 -38.5t40 -100.5q0 -79 -54 -134t-131 -55q-66 0 -105.5 39.5 t-39.5 102.5q0 77 55 131.5t129 54.5z" />
<glyph unicode="&#x130;" horiz-adv-x="548" d="M209 1438h319l-176 -1438h-319zM420 1870q65 0 105 -39t40 -102q0 -77 -55 -132t-131 -55q-64 0 -103.5 39.5t-39.5 101.5q0 78 54.5 132.5t129.5 54.5z" />
<glyph unicode="&#x131;" horiz-adv-x="518" d="M154 989l290 19l-125 -1008h-286z" />
<glyph unicode="&#x132;" horiz-adv-x="1144" d="M209 1438h319l-176 -1438h-319zM803 1438h319l-145 -1188q-16 -129 -61 -228t-116 -177t-186 -164l-217 186q121 95 184 184t76 199z" />
<glyph unicode="&#x133;" horiz-adv-x="1085" d="M154 989l290 19l-125 -1008h-286zM352 1446q66 0 106 -38.5t40 -100.5q0 -79 -54 -134t-131 -55q-66 0 -105.5 39.5t-39.5 102.5q0 77 55 131.5t129 54.5zM721 989l291 19l-115 -932q-21 -172 -96.5 -287t-233.5 -231l-194 168q110 89 168 170t69 180zM922 1446 q64 0 104.5 -38.5t40.5 -100.5q0 -79 -54.5 -134t-131.5 -55q-65 0 -105.5 39.5t-40.5 102.5q0 77 55.5 131.5t131.5 54.5z" />
<glyph unicode="&#x134;" horiz-adv-x="600" d="M260 1438h320l-146 -1188q-16 -129 -60.5 -228t-115.5 -177.5t-186 -163.5l-217 186q121 95 184 184t76 199zM664 1839l194 -293h-295l-90 135l-123 -135h-299l264 293h349z" />
<glyph unicode="&#x135;" horiz-adv-x="573" d="M209 989l291 19l-115 -932q-21 -172 -96.5 -287t-233.5 -231l-194 168q110 89 168 170t69 180zM569 1454l162 -340h-258l-72 176l-116 -176h-265l248 340h301z" />
<glyph unicode="&#x136;" horiz-adv-x="1300" d="M410 -131l258 43q59 -79 34.5 -183.5t-112.5 -170.5l-219 14q75 72 84.5 151.5t-45.5 145.5zM844 -8l-416 624l-76 -616h-319l176 1438h319l-75 -615l551 623l368 -16l-643 -711l488 -711z" />
<glyph unicode="&#x137;" horiz-adv-x="1097" d="M285 -131l258 43q59 -79 34.5 -183.5t-112.5 -170.5l-219 14q75 72 84.5 151.5t-45.5 145.5zM664 -8l-293 428l-52 -420h-286l188 1536l289 16l-115 -925l350 381l334 -19l-442 -463l367 -518z" />
<glyph unicode="&#x138;" horiz-adv-x="1097" d="M664 -8l-293 428l-52 -420h-286l121 989l290 19l-47 -379l348 379l334 -19l-442 -463l367 -518z" />
<glyph unicode="&#x139;" horiz-adv-x="1073" d="M483 1839h394l-345 -293h-311zM209 1438h319l-143 -1151h592l-51 -287h-893z" />
<glyph unicode="&#x13a;" horiz-adv-x="624" d="M489 1894h394l-344 -292h-312zM221 1536l289 16l-154 -1239q-7 -63 40.5 -72.5t152.5 19.5l-6 -242q-149 -38 -260 -38q-110 0 -174 68t-46 206z" />
<glyph unicode="&#x13b;" horiz-adv-x="1073" d="M315 -131l258 43q59 -79 35 -184t-112 -170l-220 14q75 72 84.5 151.5t-45.5 145.5zM209 1438h319l-143 -1151h592l-51 -287h-893z" />
<glyph unicode="&#x13c;" horiz-adv-x="624" d="M104 -131l258 43q59 -79 35 -184t-112 -170l-219 14q75 72 84 151.5t-46 145.5zM221 1536l289 16l-154 -1239q-7 -63 40.5 -72.5t152.5 19.5l-6 -242q-149 -38 -260 -38q-110 0 -174 68t-46 206z" />
<glyph unicode="&#x13d;" horiz-adv-x="1073" d="M670 1556l239 35q85 -238 -78 -471h-213q46 62 68.5 118.5t22.5 112.5t-9 98.5t-30 106.5zM209 1438h319l-143 -1151h592l-51 -287h-893z" />
<glyph unicode="&#x13e;" horiz-adv-x="745" d="M567 1556l240 35q85 -238 -78 -471h-213q46 62 68.5 118.5t22 112.5t-9.5 98.5t-30 106.5zM221 1536l289 16l-154 -1239q-7 -63 40.5 -72.5t152.5 19.5l-6 -242q-149 -38 -260 -38q-110 0 -174 68t-46 206z" />
<glyph unicode="&#x13f;" horiz-adv-x="1073" d="M209 1438h319l-143 -1151h592l-51 -287h-893zM838 961q65 0 105 -39t40 -101q0 -79 -53.5 -133.5t-130.5 -54.5q-66 0 -106 39t-40 102q0 77 55.5 132t129.5 55z" />
<glyph unicode="&#x140;" horiz-adv-x="833" d="M221 1536l289 16l-154 -1239q-7 -63 40.5 -72.5t152.5 19.5l-6 -242q-149 -38 -260 -38q-110 0 -174 68t-46 206zM713 967q65 0 105 -39t40 -101q0 -79 -53.5 -133.5t-130.5 -54.5q-66 0 -106 39t-40 102q0 77 55.5 132t129.5 55z" />
<glyph unicode="&#x141;" horiz-adv-x="1073" d="M209 1438h319l-77 -621l438 144l-17 -263l-454 -149l-33 -262h592l-51 -287h-893l53 442l-131 -43l14 263l150 49z" />
<glyph unicode="&#x142;" horiz-adv-x="696" d="M262 1536l289 16l-86 -688l188 86l-14 -262l-207 -96l-35 -279q-7 -63 40.5 -72.5t152.5 19.5l-6 -242q-149 -38 -260 -38q-110 0 -174 68t-46 206l25 201l-143 -66l12 262l164 74z" />
<glyph unicode="&#x143;" horiz-adv-x="1380" d="M825 1839h394l-345 -293h-311zM453 899l-109 -899h-311l174 1430l299 16l432 -907l111 899h309l-176 -1430l-297 -16z" />
<glyph unicode="&#x144;" d="M631 1454h325l-286 -340h-248zM674 0l76 625q13 120 -76 120q-45 0 -121.5 -57.5t-169.5 -167.5l-64 -520h-286l121 989l290 19l-24 -197q212 209 393 209q270 0 231 -330l-83 -690h-287z" />
<glyph unicode="&#x145;" horiz-adv-x="1380" d="M442 -131l258 43q59 -79 35 -184t-112 -170l-220 14q75 72 84.5 151.5t-45.5 145.5zM453 899l-109 -899h-311l174 1430l299 16l432 -907l111 899h309l-176 -1430l-297 -16z" />
<glyph unicode="&#x146;" d="M313 -131l258 43q59 -79 35 -184t-112 -170l-220 14q75 72 84.5 151.5t-45.5 145.5zM674 0l76 625q13 120 -76 120q-45 0 -121.5 -57.5t-169.5 -167.5l-64 -520h-286l121 989l290 19l-24 -197q212 209 393 209q270 0 231 -330l-83 -690h-287z" />
<glyph unicode="&#x147;" horiz-adv-x="1380" d="M623 1546l-195 293h295l90 -137l125 137h299l-266 -293h-348zM453 899l-109 -899h-311l174 1430l299 16l432 -907l111 899h309l-176 -1430l-297 -16z" />
<glyph unicode="&#x148;" d="M479 1114l-162 340h258l74 -178l117 178h262l-246 -340h-303zM674 0l76 625q13 120 -76 120q-45 0 -121.5 -57.5t-169.5 -167.5l-64 -520h-286l121 989l290 19l-24 -197q212 209 393 209q270 0 231 -330l-83 -690h-287z" />
<glyph unicode="&#x149;" d="M197 1415l258 43q59 -79 34.5 -183.5t-112.5 -170.5l-219 14q75 72 84.5 151.5t-45.5 145.5zM674 0l76 625q13 120 -76 120q-45 0 -121.5 -57.5t-169.5 -167.5l-64 -520h-286l121 989l290 19l-24 -197q212 209 393 209q270 0 231 -330l-83 -690h-287z" />
<glyph unicode="&#x14a;" horiz-adv-x="1380" d="M860 49l-407 850l-109 -899h-311l174 1430l299 16l432 -907l111 899h309l-162 -1311q-24 -189 -106.5 -316t-253.5 -253l-220 186q99 78 158 149.5t86 155.5z" />
<glyph unicode="&#x14b;" d="M383 520l-64 -520h-286l121 989l290 19l-24 -197q212 209 393 209q270 0 231 -330l-75 -614q-14 -117 -54.5 -207t-104.5 -161.5t-169 -149.5l-197 168q111 89 169 170t69 180l68 549q13 120 -76 120q-45 0 -121.5 -57.5t-169.5 -167.5z" />
<glyph unicode="&#x14c;" horiz-adv-x="1521" d="M571 1774h670l-43 -207h-670zM690 266q86 0 161 36.5t134 107t93 187t34 265.5q0 154 -71 233t-201 79q-86 0 -161 -36.5t-134 -107.5t-93 -187.5t-34 -264.5q0 -156 70.5 -234t201.5 -78zM674 -20q-133 0 -238 34t-184 104t-121.5 184t-42.5 267q0 211 57.5 380t160 280 t243 170t307.5 59q132 0 238 -34t184.5 -104t121 -184.5t42.5 -267.5q0 -211 -57 -380t-159.5 -279.5t-243 -169.5t-308.5 -59z" />
<glyph unicode="&#x14d;" horiz-adv-x="1079" d="M324 1354h639l-41 -207h-639zM479 233q97 0 164.5 97t67.5 241q1 96 -38 145.5t-114 49.5q-96 0 -164 -97t-69 -241q0 -195 153 -195zM449 -20q-203 0 -309.5 112t-106.5 320q0 176 70 314.5t197 216t290 77.5q204 0 310 -111.5t106 -320.5q0 -176 -70 -314.5t-197 -216 t-290 -77.5z" />
<glyph unicode="&#x14e;" horiz-adv-x="1521" d="M553 1829l201 18q5 -123 131 -123t159 123l207 -18q-66 -301 -383 -301q-323 0 -315 301zM690 266q86 0 161 36.5t134 107t93 187t34 265.5q0 154 -71 233t-201 79q-86 0 -161 -36.5t-134 -107.5t-93 -187.5t-34 -264.5q0 -156 70.5 -234t201.5 -78zM674 -20 q-133 0 -238 34t-184 104t-121.5 184t-42.5 267q0 211 57.5 380t160 280t243 170t307.5 59q132 0 238 -34t184.5 -104t121 -184.5t42.5 -267.5q0 -211 -57 -380t-159.5 -279.5t-243 -169.5t-308.5 -59z" />
<glyph unicode="&#x14f;" horiz-adv-x="1079" d="M479 233q97 0 164.5 97t67.5 241q1 96 -38 145.5t-114 49.5q-96 0 -164 -97t-69 -241q0 -195 153 -195zM449 -20q-203 0 -309.5 112t-106.5 320q0 176 70 314.5t197 216t290 77.5q204 0 310 -111.5t106 -320.5q0 -176 -70 -314.5t-197 -216t-290 -77.5zM301 1444l205 16 q-20 -160 117 -160q134 0 157 160l203 -16q-22 -173 -127 -256.5t-254 -83.5q-72 0 -130 19.5t-101 58.5t-62 106t-8 156z" />
<glyph unicode="&#x150;" horiz-adv-x="1521" d="M690 266q86 0 161 36.5t134 107t93 187t34 265.5q0 154 -71 233t-201 79q-86 0 -161 -36.5t-134 -107.5t-93 -187.5t-34 -264.5q0 -156 70.5 -234t201.5 -78zM674 -20q-133 0 -238 34t-184 104t-121.5 184t-42.5 267q0 211 57.5 380t160 280t243 170t307.5 59 q132 0 238 -34t184.5 -104t121 -184.5t42.5 -267.5q0 -211 -57 -380t-159.5 -279.5t-243 -169.5t-308.5 -59zM702 1839h302l-299 -293h-220zM1126 1839h316l-299 -293h-234z" />
<glyph unicode="&#x151;" horiz-adv-x="1079" d="M424 1454h295l-256 -340h-217zM823 1454h293l-256 -340h-215zM479 233q97 0 164.5 97t67.5 241q1 96 -38 145.5t-114 49.5q-96 0 -164 -97t-69 -241q0 -195 153 -195zM449 -20q-203 0 -309.5 112t-106.5 320q0 176 70 314.5t197 216t290 77.5q204 0 310 -111.5 t106 -320.5q0 -176 -70 -314.5t-197 -216t-290 -77.5z" />
<glyph unicode="&#x152;" horiz-adv-x="2113" d="M1014 0l16 137q-177 -157 -422 -157q-243 0 -382.5 144.5t-139.5 444.5q0 211 51 380t142.5 280t217 170t275.5 59q265 0 399 -168l19 148h950l-53 -285h-614l-37 -293h514l-54 -287h-495l-37 -286h633l-51 -287h-932zM688 266q86 0 161 36.5t134 107t93 187t34 265.5 q0 154 -71 233t-201 79q-86 0 -161 -36.5t-134 -107.5t-93 -187.5t-34 -264.5q0 -156 70.5 -234t201.5 -78z" />
<glyph unicode="&#x153;" horiz-adv-x="1634" d="M1434 328l41 -232q-223 -116 -390 -116q-197 0 -276 159q-134 -159 -360 -159q-203 0 -309.5 112t-106.5 320q0 176 70 314.5t197 216t290 77.5q224 0 309 -158q137 158 356 158q156 0 241 -77.5t85 -184.5q0 -164 -142.5 -273t-434.5 -145q-3 -50 23 -83.5t85 -33.5 q109 0 322 105zM479 233q97 0 164.5 97t67.5 241q1 96 -38 145.5t-114 49.5q-96 0 -164 -97t-69 -241q0 -195 153 -195zM1219 782q-77 0 -139.5 -66.5t-75.5 -176.5q152 23 222 74t70 106q0 27 -20.5 45t-56.5 18z" />
<glyph unicode="&#x154;" horiz-adv-x="1269" d="M410 475l-58 -475h-319l176 1438h465q247 0 382.5 -101.5t135.5 -302.5q0 -170 -72.5 -293.5t-201.5 -193.5l227 -539l-367 -16l-172 473h-43q-78 0 -153 10zM494 1167l-52 -419q80 -13 133 -13q130 0 213.5 64t83.5 196q0 88 -60.5 130t-186.5 42h-131zM709 1839h393 l-344 -293h-312z" />
<glyph unicode="&#x155;" horiz-adv-x="825" d="M483 1454h326l-287 -340h-248zM844 997l-70 -303q-82 29 -131 29q-58 0 -118 -47t-142 -160l-64 -516h-286l121 989l290 19l-24 -191q92 105 166 154t147 49q44 0 111 -23z" />
<glyph unicode="&#x156;" horiz-adv-x="1269" d="M362 -131l259 43q59 -79 34.5 -183.5t-112.5 -170.5l-219 14q75 72 84 151.5t-46 145.5zM410 475l-58 -475h-319l176 1438h465q247 0 382.5 -101.5t135.5 -302.5q0 -170 -72.5 -293.5t-201.5 -193.5l227 -539l-367 -16l-172 473h-43q-78 0 -153 10zM494 1167l-52 -419 q80 -13 133 -13q130 0 213.5 64t83.5 196q0 88 -60.5 130t-186.5 42h-131z" />
<glyph unicode="&#x157;" horiz-adv-x="825" d="M23 -131l258 43q59 -79 34.5 -183.5t-112.5 -170.5l-219 14q75 72 84.5 151.5t-45.5 145.5zM844 997l-70 -303q-82 29 -131 29q-58 0 -118 -47t-142 -160l-64 -516h-286l121 989l290 19l-24 -191q92 105 166 154t147 49q44 0 111 -23z" />
<glyph unicode="&#x158;" horiz-adv-x="1269" d="M537 1546l-195 293h295l90 -137l125 137h299l-266 -293h-348zM410 475l-58 -475h-319l176 1438h465q247 0 382.5 -101.5t135.5 -302.5q0 -170 -72.5 -293.5t-201.5 -193.5l227 -539l-367 -16l-172 473h-43q-78 0 -153 10zM494 1167l-52 -419q80 -13 133 -13 q130 0 213.5 64t83.5 196q0 88 -60.5 130t-186.5 42h-131z" />
<glyph unicode="&#x159;" horiz-adv-x="825" d="M315 1114l-161 340h258l73 -178l117 178h262l-246 -340h-303zM844 997l-70 -303q-82 29 -131 29q-58 0 -118 -47t-142 -160l-64 -516h-286l121 989l290 19l-24 -191q92 105 166 154t147 49q44 0 111 -23z" />
<glyph unicode="&#x15a;" horiz-adv-x="1167" d="M35 55l88 283q92 -32 210 -52t214 -20q94 0 147.5 53.5t48.5 131.5q-2 24 -30.5 45.5t-73.5 36.5t-102 35.5t-116 41t-116 54.5t-101 74.5t-71 103t-27 137.5q0 217 152.5 348t448.5 131q243 0 438 -74l-90 -282q-92 31 -210 51.5t-212 20.5q-92 0 -145 -53t-48 -128 q2 -24 30.5 -45.5t73.5 -36.5t102 -35.5t116 -41t116 -54t101 -74t71 -102.5t27 -137q0 -227 -155.5 -357t-448.5 -130q-244 0 -438 75zM698 1839h394l-344 -293h-312z" />
<glyph unicode="&#x15b;" horiz-adv-x="921" d="M512 1454h326l-287 -340h-248zM33 33l69 235q63 -22 146.5 -35.5t148.5 -13.5q54 0 88.5 23.5t30.5 74.5q-2 17 -26.5 30.5t-63 24.5t-84.5 24.5t-92 35.5t-83.5 51.5t-61 78.5t-23.5 112q0 170 115 258t323 88q172 0 326 -53l-70 -238q-61 23 -145 37t-148 14 q-51 0 -83.5 -22.5t-28.5 -71.5q1 -17 25.5 -30.5t63 -24.5t84 -24.5t91.5 -35.5t83.5 -51.5t61 -79t23.5 -112.5q0 -167 -115.5 -257.5t-327.5 -90.5q-176 0 -327 53z" />
<glyph unicode="&#x15c;" horiz-adv-x="1167" d="M35 55l88 283q92 -32 210 -52t214 -20q94 0 147.5 53.5t48.5 131.5q-2 24 -30.5 45.5t-73.5 36.5t-102 35.5t-116 41t-116 54.5t-101 74.5t-71 103t-27 137.5q0 217 152.5 348t448.5 131q243 0 438 -74l-90 -282q-92 31 -210 51.5t-212 20.5q-92 0 -145 -53t-48 -128 q2 -24 30.5 -45.5t73.5 -36.5t102 -35.5t116 -41t116 -54t101 -74t71 -102.5t27 -137q0 -227 -155.5 -357t-448.5 -130q-244 0 -438 75zM899 1839l195 -293h-295l-90 135l-123 -135h-299l264 293h348z" />
<glyph unicode="&#x15d;" horiz-adv-x="921" d="M702 1454l162 -340h-258l-71 176l-117 -176h-264l247 340h301zM33 33l69 235q63 -22 146.5 -35.5t148.5 -13.5q54 0 88.5 23.5t30.5 74.5q-2 17 -26.5 30.5t-63 24.5t-84.5 24.5t-92 35.5t-83.5 51.5t-61 78.5t-23.5 112q0 170 115 258t323 88q172 0 326 -53l-70 -238 q-61 23 -145 37t-148 14q-51 0 -83.5 -22.5t-28.5 -71.5q1 -17 25.5 -30.5t63 -24.5t84 -24.5t91.5 -35.5t83.5 -51.5t61 -79t23.5 -112.5q0 -167 -115.5 -257.5t-327.5 -90.5q-176 0 -327 53z" />
<glyph unicode="&#x15e;" horiz-adv-x="1167" d="M35 55l88 283q92 -32 210 -52t214 -20q94 0 147.5 53.5t48.5 131.5q-2 24 -30.5 45.5t-73.5 36.5t-102 35.5t-116 41t-116 54.5t-101 74.5t-71 103t-27 137.5q0 217 152.5 348t448.5 131q243 0 438 -74l-90 -282q-92 31 -210 51.5t-212 20.5q-92 0 -145 -53t-48 -128 q2 -24 30.5 -45.5t73.5 -36.5t102 -35.5t116 -41t116 -54t101 -74t71 -102.5t27 -137q0 -201 -122.5 -327t-354.5 -152l-55 -72q80 1 120 -38t40 -107q0 -73 -43 -123t-103.5 -70t-132.5 -20q-82 0 -162 24l49 148q74 -25 127 -25q76 0 76 43q0 17 -12.5 29t-38.5 12 q-21 0 -64 -16l-57 112l62 97q-226 14 -371 73z" />
<glyph unicode="&#x15f;" horiz-adv-x="921" d="M33 33l69 235q63 -22 146.5 -35.5t148.5 -13.5q54 0 88.5 23.5t30.5 74.5q-2 17 -26.5 30.5t-63 24.5t-84.5 24.5t-92 35.5t-83.5 51.5t-61 78.5t-23.5 112q0 170 115 258t323 88q172 0 326 -53l-70 -238q-61 23 -145 37t-148 14q-51 0 -83.5 -22.5t-28.5 -71.5 q1 -17 25.5 -30.5t63 -24.5t84 -24.5t91.5 -35.5t83.5 -51.5t61 -79t23.5 -112.5q0 -147 -90 -235t-258 -107l-54 -70q80 1 120 -38t40 -107q0 -73 -42.5 -123t-103 -70t-132.5 -20q-83 0 -162 24l49 148q74 -25 127 -25q76 0 76 43q0 17 -12.5 29t-38.5 12q-21 0 -64 -16 l-57 112l63 99q-126 13 -231 49z" />
<glyph unicode="&#x160;" horiz-adv-x="1167" d="M35 55l88 283q92 -32 210 -52t214 -20q94 0 147.5 53.5t48.5 131.5q-2 24 -30.5 45.5t-73.5 36.5t-102 35.5t-116 41t-116 54.5t-101 74.5t-71 103t-27 137.5q0 217 152.5 348t448.5 131q243 0 438 -74l-90 -282q-92 31 -210 51.5t-212 20.5q-92 0 -145 -53t-48 -128 q2 -24 30.5 -45.5t73.5 -36.5t102 -35.5t116 -41t116 -54t101 -74t71 -102.5t27 -137q0 -227 -155.5 -357t-448.5 -130q-244 0 -438 75zM516 1546l-194 293h294l91 -137l124 137h299l-266 -293h-348z" />
<glyph unicode="&#x161;" horiz-adv-x="921" d="M342 1114l-162 340h258l74 -178l117 178h262l-246 -340h-303zM33 33l69 235q63 -22 146.5 -35.5t148.5 -13.5q54 0 88.5 23.5t30.5 74.5q-2 17 -26.5 30.5t-63 24.5t-84.5 24.5t-92 35.5t-83.5 51.5t-61 78.5t-23.5 112q0 170 115 258t323 88q172 0 326 -53l-70 -238 q-61 23 -145 37t-148 14q-51 0 -83.5 -22.5t-28.5 -71.5q1 -17 25.5 -30.5t63 -24.5t84 -24.5t91.5 -35.5t83.5 -51.5t61 -79t23.5 -112.5q0 -167 -115.5 -257.5t-327.5 -90.5q-176 0 -327 53z" />
<glyph unicode="&#x162;" horiz-adv-x="1177" d="M489 1153h-411l51 285h1124l-51 -285h-395l-141 -1153h-64l-65 -84q80 1 119.5 -38t39.5 -107q0 -73 -42.5 -123t-103 -70t-132.5 -20q-82 0 -162 24l49 148q74 -25 127 -25q76 0 76 43q0 17 -12.5 29t-38.5 12q-21 0 -64 -16l-57 112l74 115h-62z" />
<glyph unicode="&#x163;" horiz-adv-x="815" d="M135 268l60 477h-158l49 254h139l37 301l289 17l-39 -318h264l-49 -254h-248l-49 -411q-9 -66 14 -79q39 -22 224 77l41 -240q-155 -90 -283 -108l-53 -68q80 1 119.5 -38t39.5 -107q0 -73 -42.5 -123t-103 -70t-132.5 -20q-82 0 -162 24l49 148q74 -25 127 -25 q76 0 76 43q0 17 -12.5 29t-38.5 12q-21 0 -64 -16l-57 112l76 119q-130 62 -113 264z" />
<glyph unicode="&#x164;" horiz-adv-x="1177" d="M520 1546l-194 293h295l90 -137l125 137h299l-267 -293h-348zM489 1153h-411l51 285h1124l-51 -285h-395l-141 -1153h-318z" />
<glyph unicode="&#x165;" horiz-adv-x="815" d="M637 1556l240 35q85 -238 -78 -471h-213q46 62 68.5 118.5t22 112.5t-9.5 98.5t-30 106.5zM135 268l60 477h-158l49 254h139l37 301l289 17l-39 -318h264l-49 -254h-248l-49 -411q-9 -66 14 -79q39 -22 224 77l41 -240q-194 -112 -338 -112q-116 0 -181.5 69.5 t-54.5 218.5z" />
<glyph unicode="&#x166;" horiz-adv-x="1177" d="M489 1153h-411l51 285h1124l-51 -285h-395l-51 -422h182l-43 -207h-166l-63 -524h-318l64 524h-187l43 207h170z" />
<glyph unicode="&#x167;" horiz-adv-x="815" d="M135 268l19 154h-134l41 207h119l15 116h-158l49 254h139l37 301l289 17l-39 -318h264l-49 -254h-248l-14 -116h235l-41 -207h-219l-10 -88q-9 -66 14 -79q39 -22 224 77l41 -240q-194 -112 -338 -112q-116 0 -181.5 69.5t-54.5 218.5z" />
<glyph unicode="&#x168;" horiz-adv-x="1380" d="M428 1567q24 126 100.5 198t165.5 72q43 0 79 -11.5t59 -28.5t41 -33.5t34 -28t31 -11.5q22 0 42.5 22.5t31.5 68.5l184 -33q-24 -125 -101 -198t-165 -73q-53 0 -96 18t-64.5 39.5t-44 39.5t-39.5 18q-54 0 -76 -90zM528 1438l-116 -932q-16 -134 41.5 -187t185.5 -53 q127 0 198 53t87 187l116 932h318l-119 -967q-13 -104 -51 -186.5t-95.5 -139t-134.5 -94t-164.5 -54.5t-189.5 -17q-129 0 -228.5 27.5t-170 85t-101 153t-14.5 225.5l119 967h319z" />
<glyph unicode="&#x169;" d="M444 1008l-77 -633q-16 -121 75 -121q45 0 120.5 56.5t170.5 166.5l60 512l290 19l-122 -1008h-287l22 188q-208 -208 -393 -208q-273 0 -231 329l82 680zM281 1163q24 126 100.5 198.5t165.5 72.5q40 0 73 -11.5t53.5 -28t36 -33.5t29 -28.5t25.5 -11.5q52 0 76 90 l182 -33q-24 -125 -101 -197.5t-165 -72.5q-49 0 -88.5 17.5t-58.5 39t-38 39t-32 17.5q-55 0 -76 -91z" />
<glyph unicode="&#x16a;" horiz-adv-x="1380" d="M500 1774h669l-43 -207h-669zM528 1438l-116 -932q-16 -134 41.5 -187t185.5 -53q127 0 198 53t87 187l116 932h318l-119 -967q-13 -104 -51 -186.5t-95.5 -139t-134.5 -94t-164.5 -54.5t-189.5 -17q-129 0 -228.5 27.5t-170 85t-101 153t-14.5 225.5l119 967h319z" />
<glyph unicode="&#x16b;" d="M444 1008l-77 -633q-16 -121 75 -121q45 0 120.5 56.5t170.5 166.5l60 512l290 19l-122 -1008h-287l22 188q-208 -208 -393 -208q-273 0 -231 329l82 680zM348 1354h639l-41 -207h-639z" />
<glyph unicode="&#x16c;" horiz-adv-x="1380" d="M481 1829l201 18q5 -123 131 -123q127 0 160 123l207 -18q-66 -301 -383 -301q-150 0 -235 71.5t-81 229.5zM528 1438l-116 -932q-16 -134 41.5 -187t185.5 -53q127 0 198 53t87 187l116 932h318l-119 -967q-13 -104 -51 -186.5t-95.5 -139t-134.5 -94t-164.5 -54.5 t-189.5 -17q-129 0 -228.5 27.5t-170 85t-101 153t-14.5 225.5l119 967h319z" />
<glyph unicode="&#x16d;" d="M444 1008l-77 -633q-16 -121 75 -121q45 0 120.5 56.5t170.5 166.5l60 512l290 19l-122 -1008h-287l22 188q-208 -208 -393 -208q-273 0 -231 329l82 680zM330 1444l205 16q-20 -160 116 -160q135 0 158 160l203 -16q-22 -173 -127 -256.5t-254 -83.5q-72 0 -130 19.5 t-101 58.5t-62 106t-8 156z" />
<glyph unicode="&#x16e;" horiz-adv-x="1380" d="M528 1438l-116 -932q-16 -134 41.5 -187t185.5 -53q127 0 198 53t87 187l116 932h318l-119 -967q-13 -104 -51 -186.5t-95.5 -139t-134.5 -94t-164.5 -54.5t-189.5 -17q-129 0 -228.5 27.5t-170 85t-101 153t-14.5 225.5l119 967h319zM731 1630q0 -30 17.5 -47.5 t50.5 -17.5q39 0 63.5 27t24.5 69q0 30 -18.5 47.5t-51.5 17.5q-39 0 -62.5 -26.5t-23.5 -69.5zM569 1614q0 112 77.5 186t189.5 74q96 0 154.5 -54.5t58.5 -142.5q0 -112 -78.5 -186t-190.5 -74q-96 0 -153.5 54.5t-57.5 142.5z" />
<glyph unicode="&#x16f;" d="M578 1282q0 -30 17 -47.5t50 -17.5q39 0 63.5 27t24.5 69q0 30 -18 47.5t-51 17.5q-39 0 -62.5 -26.5t-23.5 -69.5zM416 1266q0 113 77 186.5t189 73.5q96 0 154.5 -54.5t58.5 -142.5q0 -112 -78 -186t-190 -74q-96 0 -153.5 54.5t-57.5 142.5zM444 1008l-77 -633 q-16 -121 75 -121q45 0 120.5 56.5t170.5 166.5l60 512l290 19l-122 -1008h-287l22 188q-208 -208 -393 -208q-273 0 -231 329l82 680z" />
<glyph unicode="&#x170;" horiz-adv-x="1380" d="M528 1438l-116 -932q-16 -134 41.5 -187t185.5 -53q127 0 198 53t87 187l116 932h318l-119 -967q-13 -104 -51 -186.5t-95.5 -139t-134.5 -94t-164.5 -54.5t-189.5 -17q-129 0 -228.5 27.5t-170 85t-101 153t-14.5 225.5l119 967h319zM631 1839h301l-299 -293h-219z M1055 1839h315l-299 -293h-233z" />
<glyph unicode="&#x171;" d="M444 1008l-77 -633q-16 -121 75 -121q45 0 120.5 56.5t170.5 166.5l60 512l290 19l-122 -1008h-287l22 188q-208 -208 -393 -208q-273 0 -231 329l82 680zM442 1454h295l-256 -340h-217zM842 1454h293l-256 -340h-215z" />
<glyph unicode="&#x172;" horiz-adv-x="1380" d="M528 1438l-116 -932q-16 -134 41.5 -187t185.5 -53q127 0 198 53t87 187l116 932h318l-119 -967q-25 -201 -137.5 -316.5t-294.5 -154.5q-71 -33 -112.5 -83.5t-41.5 -100.5q0 -29 20 -47.5t60 -18.5q29 0 76 12l6 -174q-74 -30 -158 -30q-114 0 -171.5 57t-57.5 139 q0 131 123 228q-242 11 -366 129.5t-95 359.5l119 967h319z" />
<glyph unicode="&#x173;" d="M444 1008l-77 -633q-16 -121 75 -121q45 0 120.5 56.5t170.5 166.5l60 512l290 19l-122 -1008h-3q-72 -33 -113.5 -83.5t-41.5 -100.5q0 -29 20 -47.5t60 -18.5q29 0 75 12l7 -174q-74 -30 -158 -30q-114 0 -171.5 57t-57.5 139q0 142 147 246h-51l22 188 q-208 -208 -393 -208q-273 0 -231 329l82 680z" />
<glyph unicode="&#x174;" horiz-adv-x="1945" d="M1718 1446l299 -16l-536 -1430h-373l-100 905l-318 -905h-389l-188 1430l323 16l105 -1131l350 1115l369 16l81 -1131zM1288 1839l195 -293h-295l-90 135l-123 -135h-299l264 293h348z" />
<glyph unicode="&#x175;" horiz-adv-x="1570" d="M1030 1454l162 -340h-258l-72 176l-117 -176h-264l248 340h301zM866 0l-94 580l-231 -580h-332l-164 989l301 19l80 -734l238 715l317 19l63 -734q161 317 236 734l293 -19q-115 -556 -377 -989h-330z" />
<glyph unicode="&#x176;" horiz-adv-x="1320" d="M420 0l67 559l-387 871l363 16l215 -578l354 578l373 -16l-598 -871l-70 -559h-317zM977 1839l194 -293h-294l-91 135l-122 -135h-299l264 293h348z" />
<glyph unicode="&#x177;" horiz-adv-x="1044" d="M250 -449l-219 156q136 128 258 293h-35l-209 989l317 19l113 -703q155 295 262 703l310 -19q-114 -446 -317.5 -809t-479.5 -629zM768 1454l162 -340h-258l-72 176l-117 -176h-264l248 340h301z" />
<glyph unicode="&#x178;" horiz-adv-x="1320" d="M420 0l67 559l-387 871l363 16l215 -578l354 578l373 -16l-598 -871l-70 -559h-317zM569 1827q57 0 92 -33.5t35 -87.5q0 -68 -48 -116t-113 -48q-57 0 -92 34.5t-35 88.5q0 68 48 115t113 47zM1034 1827q56 0 90.5 -33.5t34.5 -87.5q0 -68 -47.5 -116t-114.5 -48 q-55 0 -90 34.5t-35 88.5q0 68 47.5 115t114.5 47z" />
<glyph unicode="&#x179;" horiz-adv-x="1185" d="M121 1153l53 285h1024l-18 -285l-760 -866h655l-49 -287h-1026l16 287l760 866h-655zM731 1839h393l-344 -293h-311z" />
<glyph unicode="&#x17a;" horiz-adv-x="962" d="M553 1454h326l-287 -340h-248zM397 254h441l-47 -254h-791l10 238l510 507h-430l49 254h781l-11 -237z" />
<glyph unicode="&#x17b;" horiz-adv-x="1185" d="M741 1870q65 0 105.5 -39t40.5 -102q0 -77 -55.5 -132t-131.5 -55q-64 0 -103.5 39.5t-39.5 101.5q0 78 54.5 132.5t129.5 54.5zM121 1153l53 285h1024l-18 -285l-760 -866h655l-49 -287h-1026l16 287l760 866h-655z" />
<glyph unicode="&#x17c;" horiz-adv-x="962" d="M397 254h441l-47 -254h-791l10 238l510 507h-430l49 254h781l-11 -237zM573 1446q66 0 106 -38.5t40 -100.5q0 -79 -53.5 -134t-130.5 -55q-66 0 -106 39.5t-40 102.5q0 77 55 131.5t129 54.5z" />
<glyph unicode="&#x17d;" horiz-adv-x="1185" d="M528 1546l-194 293h295l90 -137l125 137h299l-266 -293h-349zM121 1153l53 285h1024l-18 -285l-760 -866h655l-49 -287h-1026l16 287l760 866h-655z" />
<glyph unicode="&#x17e;" horiz-adv-x="962" d="M383 1114l-162 340h258l74 -178l117 178h262l-246 -340h-303zM397 254h441l-47 -254h-791l10 238l510 507h-430l49 254h781l-11 -237z" />
<glyph unicode="&#x17f;" horiz-adv-x="696" d="M31 -23l143 1184q50 391 393 391q99 0 230 -32l-52 -242q-82 20 -145 20q-68 0 -100 -40t-41 -125l-146 -1184q-46 -391 -391 -391q-97 0 -231 32l53 242q85 -20 143 -20q70 0 102.5 40t41.5 125z" />
<glyph unicode="&#x192;" horiz-adv-x="811" d="M242 782l34 285q50 391 394 391q91 0 229 -33l-51 -241q-85 20 -146 20q-68 0 -100 -40t-43 -126l-31 -256h265l-50 -254h-247l-58 -485q-50 -391 -391 -391q-96 0 -231 33l53 241q82 -20 143 -20q68 0 100.5 40.5t41.5 125.5l55 456h-219l51 254h201z" />
<glyph unicode="&#x218;" horiz-adv-x="1167" d="M336 -131l258 43q59 -79 34.5 -183.5t-112.5 -170.5l-219 14q75 72 84.5 151.5t-45.5 145.5zM35 55l88 283q92 -32 210 -52t214 -20q94 0 147.5 53.5t48.5 131.5q-2 24 -30.5 45.5t-73.5 36.5t-102 35.5t-116 41t-116 54.5t-101 74.5t-71 103t-27 137.5q0 217 152.5 348 t448.5 131q243 0 438 -74l-90 -282q-92 31 -210 51.5t-212 20.5q-92 0 -145 -53t-48 -128q2 -24 30.5 -45.5t73.5 -36.5t102 -35.5t116 -41t116 -54t101 -74t71 -102.5t27 -137q0 -227 -155.5 -357t-448.5 -130q-244 0 -438 75z" />
<glyph unicode="&#x219;" horiz-adv-x="921" d="M213 -131l258 43q59 -79 34.5 -183.5t-112.5 -170.5l-219 14q75 72 84.5 151.5t-45.5 145.5zM33 33l69 235q63 -22 146.5 -35.5t148.5 -13.5q54 0 88.5 23.5t30.5 74.5q-2 17 -26.5 30.5t-63 24.5t-84.5 24.5t-92 35.5t-83.5 51.5t-61 78.5t-23.5 112q0 170 115 258 t323 88q172 0 326 -53l-70 -238q-61 23 -145 37t-148 14q-51 0 -83.5 -22.5t-28.5 -71.5q1 -17 25.5 -30.5t63 -24.5t84 -24.5t91.5 -35.5t83.5 -51.5t61 -79t23.5 -112.5q0 -167 -115.5 -257.5t-327.5 -90.5q-176 0 -327 53z" />
<glyph unicode="&#x21a;" horiz-adv-x="1177" d="M346 -131l258 43q59 -79 34.5 -183.5t-112.5 -170.5l-219 14q75 72 84.5 151.5t-45.5 145.5zM489 1153h-411l51 285h1124l-51 -285h-395l-141 -1153h-318z" />
<glyph unicode="&#x21b;" horiz-adv-x="815" d="M215 -131l258 43q59 -79 34.5 -183.5t-112.5 -170.5l-219 14q75 72 84.5 151.5t-45.5 145.5zM135 268l60 477h-158l49 254h139l37 301l289 17l-39 -318h264l-49 -254h-248l-49 -411q-9 -66 14 -79q39 -22 224 77l41 -240q-194 -112 -338 -112q-116 0 -181.5 69.5 t-54.5 218.5z" />
<glyph unicode="&#x2c6;" horiz-adv-x="921" d="M707 1454l161 -340h-258l-71 176l-117 -176h-264l248 340h301z" />
<glyph unicode="&#x2c7;" horiz-adv-x="921" d="M362 1114l-161 340h258l73 -178l117 178h262l-245 -340h-304z" />
<glyph unicode="&#x2d8;" horiz-adv-x="890" d="M199 1444l204 16q-20 -160 117 -160q135 0 158 160l203 -16q-22 -173 -127 -256.5t-254 -83.5q-72 0 -130 19.5t-101 58.5t-62 106t-8 156z" />
<glyph unicode="&#x2d9;" horiz-adv-x="538" d="M362 1446q66 0 106 -38.5t40 -100.5q0 -79 -53.5 -134t-130.5 -55q-66 0 -106 39.5t-40 102.5q0 77 55 131.5t129 54.5z" />
<glyph unicode="&#x2da;" horiz-adv-x="686" d="M342 1282q0 -30 17.5 -47.5t50.5 -17.5q39 0 63.5 27t24.5 69q0 30 -18.5 47.5t-51.5 17.5q-39 0 -62.5 -26.5t-23.5 -69.5zM180 1266q0 113 77 186.5t189 73.5q96 0 154.5 -54.5t58.5 -142.5q0 -112 -78 -186t-190 -74q-96 0 -153.5 54.5t-57.5 142.5z" />
<glyph unicode="&#x2db;" horiz-adv-x="622" d="M377 -238l6 -174q-74 -30 -158 -30q-114 0 -171.5 57t-57.5 139q0 150 170 260l211 -14q-72 -33 -114 -83.5t-42 -100.5q0 -29 20 -47.5t60 -18.5q29 0 76 12z" />
<glyph unicode="&#x2dc;" horiz-adv-x="925" d="M166 1163q24 126 100.5 198.5t165.5 72.5q40 0 73 -11.5t53.5 -28t36 -33.5t29 -28.5t25.5 -11.5q52 0 76 90l182 -33q-24 -125 -101 -197.5t-165 -72.5q-49 0 -88.5 17.5t-58.5 39t-38 39t-32 17.5q-55 0 -76 -91z" />
<glyph unicode="&#x2dd;" horiz-adv-x="1038" d="M336 1454h295l-256 -340h-217zM735 1454h293l-256 -340h-215z" />
<glyph unicode="&#x3c0;" horiz-adv-x="1323" d="M1239 745h-182l-53 -444q-7 -55 31.5 -64t129.5 17l-8 -240q-121 -34 -256 -34q-99 0 -147.5 64.5t-30.5 199.5l59 501h-256l-151 -745h-287l182 745h-188l49 254h1157z" />
<glyph unicode="&#x1e80;" horiz-adv-x="1945" d="M727 1839h381l205 -293h-301zM1718 1446l299 -16l-536 -1430h-373l-100 905l-318 -905h-389l-188 1430l323 16l105 -1131l350 1115l369 16l81 -1131z" />
<glyph unicode="&#x1e81;" horiz-adv-x="1570" d="M866 0l-94 580l-231 -580h-332l-164 989l301 19l80 -734l238 715l317 19l63 -734q161 317 236 734l293 -19q-115 -556 -377 -989h-330zM578 1454h313l135 -340h-235z" />
<glyph unicode="&#x1e82;" horiz-adv-x="1945" d="M1108 1839h393l-344 -293h-311zM1718 1446l299 -16l-536 -1430h-373l-100 905l-318 -905h-389l-188 1430l323 16l105 -1131l350 1115l369 16l81 -1131z" />
<glyph unicode="&#x1e83;" horiz-adv-x="1570" d="M856 1454h326l-287 -340h-248zM866 0l-94 580l-231 -580h-332l-164 989l301 19l80 -734l238 715l317 19l63 -734q161 317 236 734l293 -19q-115 -556 -377 -989h-330z" />
<glyph unicode="&#x1e84;" horiz-adv-x="1945" d="M881 1827q57 0 92 -33.5t35 -87.5q0 -68 -48.5 -116t-113.5 -48q-57 0 -92 34.5t-35 88.5q0 68 48 115t114 47zM1346 1827q55 0 89.5 -33.5t34.5 -87.5q0 -69 -47.5 -116.5t-113.5 -47.5q-55 0 -90 34.5t-35 88.5q0 68 47.5 115t114.5 47zM1718 1446l299 -16l-536 -1430 h-373l-100 905l-318 -905h-389l-188 1430l323 16l105 -1131l350 1115l369 16l81 -1131z" />
<glyph unicode="&#x1e85;" horiz-adv-x="1570" d="M643 1423q57 0 92 -33t35 -87q0 -69 -47 -116.5t-113 -47.5q-57 0 -92 34.5t-35 90.5q0 66 48 112.5t112 46.5zM1108 1423q56 0 91.5 -33t35.5 -87q0 -69 -47 -116.5t-115 -47.5q-57 0 -91 34.5t-34 90.5q0 67 47.5 113t112.5 46zM866 0l-94 580l-231 -580h-332l-164 989 l301 19l80 -734l238 715l317 19l63 -734q161 317 236 734l293 -19q-115 -556 -377 -989h-330z" />
<glyph unicode="&#x1ef2;" horiz-adv-x="1320" d="M420 0l67 559l-387 871l363 16l215 -578l354 578l373 -16l-598 -871l-70 -559h-317zM416 1839h381l204 -293h-301z" />
<glyph unicode="&#x1ef3;" horiz-adv-x="1044" d="M250 -449l-219 156q136 128 258 293h-35l-209 989l317 19l113 -703q155 295 262 703l310 -19q-114 -446 -317.5 -809t-479.5 -629zM309 1454h314l135 -340h-236z" />
<glyph unicode="&#x2000;" horiz-adv-x="947" />
<glyph unicode="&#x2001;" horiz-adv-x="1894" />
<glyph unicode="&#x2002;" horiz-adv-x="947" />
<glyph unicode="&#x2003;" horiz-adv-x="1894" />
<glyph unicode="&#x2004;" horiz-adv-x="631" />
<glyph unicode="&#x2005;" horiz-adv-x="473" />
<glyph unicode="&#x2006;" horiz-adv-x="315" />
<glyph unicode="&#x2007;" horiz-adv-x="315" />
<glyph unicode="&#x2008;" horiz-adv-x="236" />
<glyph unicode="&#x2009;" horiz-adv-x="378" />
<glyph unicode="&#x200a;" horiz-adv-x="105" />
<glyph unicode="&#x2010;" horiz-adv-x="651" d="M76 627h504l-50 -254h-503z" />
<glyph unicode="&#x2011;" horiz-adv-x="651" d="M76 627h504l-50 -254h-503z" />
<glyph unicode="&#x2012;" horiz-adv-x="651" d="M76 627h504l-50 -254h-503z" />
<glyph unicode="&#x2013;" horiz-adv-x="1140" d="M55 627h1035l-50 -254h-1034z" />
<glyph unicode="&#x2014;" horiz-adv-x="2158" d="M55 627h2032l-49 -254h-2032z" />
<glyph unicode="&#x2018;" horiz-adv-x="491" d="M457 1126l-285 -24q-36 164 4.5 320t149.5 347l233 -24q-99 -173 -121 -309.5t19 -309.5z" />
<glyph unicode="&#x2019;" horiz-adv-x="491" d="M236 1745l282 24q36 -165 -4.5 -321t-148.5 -346l-232 24q99 174 121 309.5t-18 309.5z" />
<glyph unicode="&#x201a;" horiz-adv-x="491" d="M59 301l281 25q16 -69 17 -137t-9.5 -131t-34.5 -131.5t-54.5 -131.5t-72.5 -137l-231 25q100 172 122 310t-18 308z" />
<glyph unicode="&#x201c;" horiz-adv-x="917" d="M881 1126l-283 -24q-37 164 3.5 319.5t150.5 347.5l231 -24q-98 -172 -120 -309.5t18 -309.5zM457 1126l-285 -24q-36 164 4.5 320t149.5 347l233 -24q-99 -173 -121 -309.5t19 -309.5z" />
<glyph unicode="&#x201d;" horiz-adv-x="917" d="M236 1745l282 24q36 -165 -4.5 -321t-148.5 -346l-232 24q99 174 121 309.5t-18 309.5zM659 1745l283 24q37 -164 -3.5 -319.5t-150.5 -347.5l-231 24q100 172 121.5 309.5t-19.5 309.5z" />
<glyph unicode="&#x201e;" horiz-adv-x="917" d="M59 301l281 25q16 -69 17 -137t-9.5 -131t-34.5 -131.5t-54.5 -131.5t-72.5 -137l-231 25q100 172 122 310t-18 308zM483 301l283 25q16 -69 17 -137t-9.5 -131t-34.5 -131.5t-54.5 -131.5t-72.5 -137l-233 25q100 172 122 310t-18 308z" />
<glyph unicode="&#x2020;" horiz-adv-x="1124" d="M625 -127l-324 -16l170 886l-424 -32l53 288l398 -34l-2 465l321 16l-119 -481l424 34l-53 -288l-397 32z" />
<glyph unicode="&#x2021;" horiz-adv-x="1124" d="M383 500l88 243l-424 -32l53 288l398 -34l-2 465l321 16l-119 -481l424 34l-53 -288l-397 32l33 -227l-91 -244l424 33l-53 -287l-397 33l2 -465l-320 -16l117 481l-424 -33l55 287l396 -33z" />
<glyph unicode="&#x2022;" horiz-adv-x="768" d="M66 684q0 154 101 254t251 100q132 0 211.5 -78t79.5 -206q0 -154 -101 -254.5t-250 -100.5q-131 0 -211.5 79t-80.5 206z" />
<glyph unicode="&#x2026;" horiz-adv-x="1957" d="M211 313q66 0 106.5 -40t40.5 -103q0 -78 -56 -133t-132 -55q-64 0 -104.5 40.5t-40.5 102.5q0 79 54.5 133.5t131.5 54.5zM934 313q66 0 106.5 -40t40.5 -103q0 -79 -55.5 -133.5t-132.5 -54.5q-64 0 -104.5 40.5t-40.5 102.5q0 79 54.5 133.5t131.5 54.5zM1657 313 q66 0 107.5 -40t41.5 -103q0 -78 -56 -133t-132 -55q-65 0 -106.5 40.5t-41.5 102.5q0 79 55 133.5t132 54.5z" />
<glyph unicode="&#x202f;" horiz-adv-x="378" />
<glyph unicode="&#x2030;" horiz-adv-x="2394" d="M1108 287q0 -131 86 -131q68 0 118 86.5t50 265.5q0 133 -88 133q-67 0 -116.5 -86.5t-49.5 -267.5zM899 299q0 130 30 230t83.5 160t122 90t151.5 30q285 0 285 -309q0 -256 -108 -384t-281 -128q-283 0 -283 311zM1860 287q0 -131 86 -131q68 0 118 86.5t50 265.5 q0 133 -89 133q-67 0 -116 -86.5t-49 -267.5zM1651 299q0 130 30 230t83.5 160t122 90t151.5 30q284 0 284 -309q0 -256 -108 -384t-281 -128q-282 0 -282 311zM248 0l932 1438h225l-930 -1438h-227zM289 928q0 -131 86 -131q68 0 118 86.5t50 265.5q0 133 -88 133 q-67 0 -116.5 -86.5t-49.5 -267.5zM80 940q0 130 30 230t83.5 160t122 90t151.5 30q285 0 285 -309q0 -256 -108.5 -384t-281.5 -128q-282 0 -282 311z" />
<glyph unicode="&#x2039;" horiz-adv-x="667" d="M354 37l-340 389l37 162l416 375l164 -232l-277 -248l217 -247z" />
<glyph unicode="&#x203a;" horiz-adv-x="667" d="M268 963l342 -392l-37 -161l-417 -373l-164 231l278 248l-219 248z" />
<glyph unicode="&#x2044;" horiz-adv-x="542" d="M-307 0l932 1438h225l-930 -1438h-227z" />
<glyph unicode="&#x205f;" horiz-adv-x="473" />
<glyph unicode="&#x20ac;" horiz-adv-x="1224" d="M61 1004h160q45 120 116 209.5t158 142t181.5 77.5t197.5 25q191 0 371 -57l-86 -283q-108 31 -163.5 42t-123.5 11q-203 0 -301 -167h457l-45 -224h-483q-10 -68 -13 -123h416l-43 -223h-358q27 -91 91 -129.5t167 -38.5q71 0 131 10.5t170 40.5l16 -280 q-193 -57 -385 -57q-478 0 -534 454h-185l45 223h138q3 65 12 123h-152z" />
<glyph unicode="&#x2122;" horiz-adv-x="1222" d="M242 1307h-162l24 131h463l-24 -131h-154l-47 -400h-149zM772 903l-37 352l-76 -348h-149l139 527l187 8l47 -350l112 342l201 8l12 -535h-147l6 348l-119 -344z" />
<glyph unicode="&#x2202;" horiz-adv-x="1105" d="M281 1552h354q161 -129 269 -356t108 -496q0 -210 -69.5 -375t-192 -255t-275.5 -90q-215 0 -328.5 122.5t-113.5 321.5q0 162 51 299t140 217t196 80q148 0 287 -168q-35 215 -149.5 393.5t-276.5 306.5zM498 236q78 0 137.5 86t77.5 233q-110 188 -224 188 q-70 0 -114.5 -76.5t-44.5 -213.5q-2 -99 42 -158t126 -59z" />
<glyph unicode="&#x2206;" horiz-adv-x="1316" d="M864 287l-141 880l-361 -880h502zM1065 0h-979l-88 184l530 1246l441 16l229 -1262z" />
<glyph unicode="&#x220f;" horiz-adv-x="1380" d="M209 1438h1149l-176 -1438h-318l142 1153h-512l-142 -1153h-319z" />
<glyph unicode="&#x2211;" horiz-adv-x="1105" d="M524 1153l332 -432l-442 -434h573l-51 -287h-932l16 287l459 434l-350 432l51 285h950l-53 -285h-553z" />
<glyph unicode="&#x221a;" horiz-adv-x="1343" d="M1087 1446l328 -16l-606 -1430h-436l-140 745h-196l49 254h420l112 -727z" />
<glyph unicode="&#x221e;" horiz-adv-x="1470" d="M1446 721q0 -94 -30.5 -173t-81.5 -130t-115 -79t-132 -28q-121 0 -202.5 58t-151.5 163q-68 -104 -150 -162.5t-200 -58.5q-67 0 -131 28t-115.5 79t-82.5 130t-31 173q0 95 31 174t82.5 129.5t115 78t131.5 27.5q118 0 200 -58.5t150 -162.5q34 49 65.5 84.5t74.5 69 t97 50.5t117 17q68 0 132 -28t115 -78.5t81.5 -129.5t30.5 -173zM1221 721q0 73 -43.5 114.5t-108.5 41.5q-69 0 -119 -40.5t-98 -115.5q48 -75 98 -115.5t119 -40.5q65 0 108.5 41.5t43.5 114.5zM401 565q66 0 115 40t98 116q-49 76 -98 116t-115 40q-64 0 -108.5 -41.5 t-44.5 -114.5t44.5 -114.5t108.5 -41.5z" />
<glyph unicode="&#x222b;" horiz-adv-x="811" d="M154 72l122 995q50 391 394 391q91 0 229 -33l-51 -241q-85 20 -146 20q-68 0 -100 -40t-43 -126l-121 -995q-50 -391 -391 -391q-96 0 -231 33l53 241q82 -20 143 -20q68 0 100.5 40.5t41.5 125.5z" />
<glyph unicode="&#x2248;" horiz-adv-x="1132" d="M752 754q-66 0 -118.5 18t-84.5 44t-57.5 52t-51.5 44t-53 18q-33 0 -59 -34t-37 -105l-254 36q8 93 41.5 169t81.5 123.5t105 73.5t116 26q65 0 117.5 -18t85 -44.5t59 -52.5t53 -44t52.5 -18q32 0 58 35.5t36 106.5l254 -39q-8 -93 -41 -168.5t-81 -123.5t-105.5 -73.5 t-116.5 -25.5zM752 221q-66 0 -118.5 18t-84.5 44t-57.5 52t-51.5 44t-53 18q-33 0 -59 -35t-37 -106l-254 39q8 93 41.5 168.5t81.5 122.5t105 72.5t116 25.5q65 0 117.5 -18t85 -44t59 -52t53 -44t52.5 -18q32 0 58 35t36 106l254 -37q-8 -93 -41 -169t-81 -123.5 t-105 -73t-117 -25.5z" />
<glyph unicode="&#x2260;" horiz-adv-x="1132" d="M53 547h324l125 346h-465l16 254h541l78 215l252 -8l-76 -207h248l-17 -254h-323l-125 -346h465l-17 -254h-540l-78 -217l-252 8l76 209h-248z" />
<glyph unicode="&#x2264;" horiz-adv-x="1132" d="M942 332l-905 373l16 253l889 365l94 -238l-702 -258l702 -260zM53 254h1043l-17 -254h-1042z" />
<glyph unicode="&#x2265;" horiz-adv-x="1132" d="M131 1323l907 -373l-18 -254l-889 -364l-92 235l700 260l-700 258zM53 254h1043l-17 -254h-1042z" />
<glyph unicode="&#x25ca;" horiz-adv-x="1306" d="M588 1438h319l322 -719l-498 -719h-319l-322 719zM451 719l157 -408l260 410l-157 405z" />
<glyph unicode="&#x25fc;" horiz-adv-x="1003" d="M0 1004h1004v-1004h-1004v1004z" />
</font>
</defs>
</svg>
